<?xml version="1.0" encoding="UTF-8" standalone="no"?>
<svg
   version="1.0"
   width="500"
   height="500"
   viewBox="0 0 375 375"
   preserveAspectRatio="xMidYMid"
   id="svg1"
   sodipodi:docname="aquChr2_Andy Wilson.svg"
   inkscape:version="1.3.2 (1:1.3.2+202311252150+091e20ef0f)"
   xmlns:inkscape="http://www.inkscape.org/namespaces/inkscape"
   xmlns:sodipodi="http://sodipodi.sourceforge.net/DTD/sodipodi-0.dtd"
   xmlns="http://www.w3.org/2000/svg"
   xmlns:svg="http://www.w3.org/2000/svg">
  <defs
     id="defs1" />
  <sodipodi:namedview
     id="namedview1"
     pagecolor="#ffffff"
     bordercolor="#cccccc"
     borderopacity="1"
     inkscape:showpageshadow="0"
     inkscape:pageopacity="1"
     inkscape:pagecheckerboard="0"
     inkscape:deskcolor="#d1d1d1"
     inkscape:document-units="pt"
     inkscape:zoom="0.41650391"
     inkscape:cx="394.95428"
     inkscape:cy="396.15475"
     inkscape:window-width="1850"
     inkscape:window-height="1136"
     inkscape:window-x="70"
     inkscape:window-y="27"
     inkscape:window-maximized="1"
     inkscape:current-layer="svg1" />
  <metadata
     id="metadata1">
Created by potrace 1.16, written by Peter Selinger 2001-2019
</metadata>
  <g
     transform="matrix(0.02243819,-0.01908231,-0.01908231,-0.02243819,89.867461,425.20233)"
     fill="#000000"
     stroke="none"
     id="g1"
     style="stroke-width:3.39499">
    <path
       d="m 7656,5908 c -9,-12 -27,-52 -41,-88 -21,-55 -32,-69 -69,-93 -93,-58 -136,-134 -257,-456 -47,-125 -86,-213 -101,-226 -48,-48 -228,-113 -435,-160 -320,-72 -601,-98 -1063,-98 -319,-1 -401,5 -775,58 -132,19 -307,41 -390,50 -82,9 -242,31 -355,50 -256,42 -476,69 -790,95 -135,11 -285,27 -335,35 -229,36 -552,68 -910,91 -498,31 -1035,0 -1059,-61 -19,-50 27,-71 339,-154 26,-6 20,-9 -40,-15 -532,-59 -1085,-191 -1085,-259 0,-15 37,-44 90,-72 31,-17 58,-19 225,-18 105,1 246,7 315,12 287,25 284,27 45,-25 -218,-48 -657,-158 -783,-196 -164,-50 -187,-90 -82,-143 46,-23 60,-25 187,-25 76,0 181,7 233,15 228,35 560,64 560,47 0,-7 -370,-144 -774,-287 -195,-69 -243,-91 -263,-121 -30,-46 -13,-59 102,-73 159,-21 238,-8 824,134 150,37 281,65 292,63 13,-2 -72,-46 -213,-112 C 620,3677 88,3391 20,3325 c -24,-24 -24,-25 -5,-39 51,-38 177,-46 302,-20 83,17 327,105 588,212 233,95 499,182 513,167 4,-4 -6,-16 -22,-28 -33,-25 -442,-255 -736,-414 -107,-58 -226,-126 -263,-151 -58,-38 -68,-48 -65,-70 2,-20 11,-28 33,-34 17,-4 55,-14 85,-23 101,-28 208,-16 390,45 65,22 160,58 211,81 52,23 137,57 189,75 172,61 169,43 -15,-95 -131,-98 -200,-172 -193,-207 2,-9 29,-24 63,-36 85,-29 246,-22 360,16 44,14 85,26 91,26 7,0 13,-26 16,-66 4,-57 8,-70 31,-90 50,-43 126,-57 272,-51 l 130,5 30,-61 c 39,-80 72,-98 187,-100 46,-1 122,2 170,6 l 87,9 16,-31 c 29,-56 56,-66 180,-65 77,1 130,8 177,21 67,20 68,20 85,1 36,-40 93,-61 151,-56 50,5 54,3 64,-21 34,-90 132,-124 290,-101 l 83,12 41,-41 42,-41 h 86 c 48,0 106,5 130,11 40,10 43,9 80,-24 21,-20 58,-46 81,-58 41,-22 47,-22 97,-10 29,8 73,24 98,36 45,23 46,23 70,5 49,-37 157,-83 181,-77 21,5 78,37 155,87 19,12 28,9 82,-25 37,-22 79,-39 104,-42 38,-4 51,0 106,37 l 63,42 57,-25 c 91,-40 131,-43 189,-13 47,23 52,24 89,11 66,-24 116,-19 163,16 l 43,30 75,-26 c 85,-29 108,-26 171,21 33,26 35,26 68,10 80,-38 139,-30 192,27 23,24 25,24 75,11 102,-27 170,-11 224,53 l 21,26 59,-17 c 32,-10 66,-20 75,-23 11,-3 34,11 66,41 l 49,46 44,-15 c 24,-9 67,-16 96,-17 65,-2 98,24 116,89 6,24 17,43 24,43 18,0 90,-37 133,-69 19,-14 37,-26 38,-27 2,-2 -21,-49 -51,-106 -95,-177 -122,-245 -382,-966 -182,-504 -209,-593 -203,-673 4,-51 9,-64 38,-94 47,-48 91,-67 152,-64 49,3 52,1 74,-33 47,-74 141,-128 224,-128 21,0 59,-12 86,-26 27,-15 65,-32 85,-39 20,-7 58,-30 84,-50 84,-64 121,-78 230,-86 66,-5 116,-15 146,-28 75,-34 185,-47 275,-33 42,7 97,21 123,33 30,13 80,23 146,28 109,8 146,22 230,86 26,20 64,43 84,50 20,7 58,24 85,39 28,15 65,26 87,26 81,0 185,59 219,124 l 23,42 52,-4 c 63,-5 116,19 165,74 32,37 33,39 27,113 -6,93 -23,145 -203,646 -258,715 -286,786 -381,963 -30,57 -53,104 -51,106 1,1 19,13 38,27 43,32 115,69 133,69 7,0 18,-19 24,-43 18,-65 51,-91 116,-89 29,1 72,8 96,17 l 44,15 49,-46 c 32,-30 55,-44 66,-41 9,3 43,13 75,23 l 59,17 21,-26 c 54,-64 122,-80 224,-53 50,13 52,13 75,-11 53,-57 112,-65 192,-27 33,16 35,16 68,-10 63,-47 86,-50 171,-21 l 75,26 43,-30 c 47,-35 97,-40 163,-16 37,13 42,12 89,-11 58,-30 98,-27 189,13 l 57,25 63,-42 c 55,-37 68,-41 106,-37 25,3 67,20 104,42 54,34 63,37 82,25 77,-50 134,-82 155,-87 24,-6 132,40 181,77 24,18 25,18 70,-5 25,-12 69,-28 98,-36 50,-12 56,-12 97,10 23,12 60,38 81,58 37,33 40,34 80,24 24,-6 82,-11 130,-11 h 86 l 42,41 41,41 83,-12 c 158,-23 256,11 290,101 10,24 14,26 64,21 58,-5 115,16 151,56 17,19 18,19 85,-1 47,-13 100,-20 177,-21 124,-1 151,9 180,65 l 16,31 87,-9 c 48,-4 124,-7 170,-6 115,2 148,20 187,100 l 30,61 130,-5 c 146,-6 222,8 272,51 23,20 27,33 31,90 3,40 9,66 16,66 6,0 47,-12 91,-26 114,-38 275,-45 360,-16 34,12 61,27 63,36 7,35 -62,109 -193,207 -130,97 -161,129 -129,129 26,0 162,-49 298,-107 302,-129 474,-165 606,-128 30,9 69,19 85,23 22,6 31,14 33,34 3,22 -7,32 -65,71 -37,24 -147,87 -243,139 -247,133 -568,312 -679,378 -102,60 -127,87 -70,75 108,-23 360,-113 624,-223 183,-75 368,-140 450,-157 123,-25 249,-17 300,21 19,14 19,15 -5,39 -67,66 -602,353 -1038,556 -125,58 -214,105 -203,107 10,2 169,-33 353,-77 543,-130 608,-140 765,-120 113,14 130,27 100,73 -21,32 -77,56 -347,152 -129,45 -320,114 -425,152 -104,38 -207,75 -227,81 -21,7 -38,17 -38,22 0,18 322,-9 560,-46 52,-8 157,-15 233,-15 127,0 141,2 187,25 105,53 82,93 -86,144 -137,42 -473,127 -734,184 -253,56 -259,57 -187,51 32,-2 116,-9 185,-15 70,-5 213,-11 317,-11 167,-2 194,0 225,17 53,28 90,57 90,72 0,68 -553,200 -1085,259 -60,6 -66,9 -40,15 312,83 358,104 339,154 -24,61 -561,92 -1059,61 -358,-23 -681,-55 -910,-91 -49,-8 -200,-24 -335,-35 -314,-26 -534,-53 -790,-95 -113,-19 -272,-41 -355,-50 -82,-9 -258,-31 -390,-50 -372,-53 -456,-59 -775,-58 -462,0 -743,26 -1063,98 -206,46 -387,112 -435,159 -14,13 -55,106 -101,229 -124,324 -164,396 -257,454 -37,24 -48,38 -69,93 -27,70 -50,110 -65,110 -5,0 -16,-10 -24,-22 z"
       id="path1"
       style="stroke-width:3.39499" />
  </g>
</svg>
