<?xml version="1.0" encoding="UTF-8" standalone="no"?>
<svg
   version="1.0"
   width="375pt"
   height="375pt"
   viewBox="0 0 375 375"
   preserveAspectRatio="xMidYMid"
   id="svg1"
   sodipodi:docname="bisBis1_Gabriela Palomo-Munoz.svg"
   inkscape:version="1.3.2 (1:1.3.2+202311252150+091e20ef0f)"
   xmlns:inkscape="http://www.inkscape.org/namespaces/inkscape"
   xmlns:sodipodi="http://sodipodi.sourceforge.net/DTD/sodipodi-0.dtd"
   xmlns="http://www.w3.org/2000/svg"
   xmlns:svg="http://www.w3.org/2000/svg">
  <defs
     id="defs1" />
  <sodipodi:namedview
     id="namedview1"
     pagecolor="#ffffff"
     bordercolor="#cccccc"
     borderopacity="1"
     inkscape:showpageshadow="0"
     inkscape:pageopacity="1"
     inkscape:pagecheckerboard="0"
     inkscape:deskcolor="#d1d1d1"
     inkscape:document-units="pt"
     inkscape:zoom="0.45530894"
     inkscape:cx="-159.23254"
     inkscape:cy="351.40975"
     inkscape:window-width="1850"
     inkscape:window-height="1136"
     inkscape:window-x="70"
     inkscape:window-y="27"
     inkscape:window-maximized="1"
     inkscape:current-layer="svg1" />
  <metadata
     id="metadata1">
Created by potrace 1.16, written by Peter Selinger 2001-2019
</metadata>
  <g
     transform="matrix(0.02156728,0,0,-0.02156728,7.8163314,304.53427)"
     fill="#000000"
     stroke="none"
     id="g1"
     style="stroke-width:4.63665">
    <path
       d="m 4785,10750 c -93,-51 -251,-134 -349,-186 -222,-118 -308,-176 -399,-274 -40,-42 -117,-117 -172,-167 -78,-71 -114,-113 -165,-193 -90,-141 -104,-162 -278,-392 -85,-112 -224,-307 -310,-435 -87,-128 -180,-265 -207,-306 -33,-48 -66,-117 -94,-193 -60,-163 -89,-216 -170,-309 -68,-78 -124,-120 -280,-210 l -63,-37 -172,1 c -94,1 -216,8 -271,15 -118,15 -447,13 -488,-3 -16,-6 -88,-18 -160,-27 -112,-13 -145,-22 -220,-55 -48,-21 -93,-39 -100,-39 -18,0 -133,-74 -170,-109 -46,-42 -199,-281 -223,-347 -34,-94 -73,-306 -85,-471 l -11,-148 -37,-40 C 291,6749 243,6654 206,6515 109,6158 42,5849 25,5675 17,5593 8,5507 5,5485 c -4,-36 11,-210 34,-405 5,-42 23,-116 39,-165 18,-55 34,-133 41,-200 37,-352 53,-454 82,-547 32,-104 79,-177 129,-203 25,-13 29,-22 35,-72 20,-182 45,-256 116,-345 97,-121 231,-200 367,-217 46,-6 87,-13 92,-16 8,-5 104,-25 280,-59 117,-23 161,-35 187,-52 33,-21 69,-101 77,-169 11,-102 47,-226 88,-310 22,-44 47,-101 54,-127 9,-29 21,-48 29,-48 8,0 17,-11 21,-25 3,-14 14,-30 24,-35 10,-5 21,-24 25,-42 4,-18 13,-42 20,-53 7,-11 16,-35 19,-53 7,-30 15,-36 42,-33 18,2 30,-20 43,-84 17,-75 22,-82 66,-77 32,4 36,8 47,49 6,26 14,40 18,33 5,-8 20,-9 51,-3 40,7 46,13 69,58 21,42 29,50 48,47 32,-5 48,12 56,58 4,27 11,40 22,40 8,0 23,13 32,30 9,16 23,30 29,30 7,0 20,12 30,27 9,16 25,35 35,43 9,8 24,42 31,75 10,45 18,61 33,64 32,6 41,19 48,70 5,36 13,53 30,65 13,8 27,29 31,46 4,16 12,30 18,30 30,1 41,22 51,97 l 11,78 35,5 c 31,5 37,10 57,59 14,37 29,58 44,63 30,12 36,22 49,88 19,93 30,120 50,120 20,0 60,44 60,66 0,7 12,19 28,26 16,8 35,30 46,56 15,32 25,42 43,42 26,0 59,29 73,65 6,17 18,25 42,27 25,2 39,13 63,45 39,53 55,60 77,31 15,-20 20,-21 38,-10 26,16 75,7 110,-20 15,-12 32,-17 48,-13 15,4 32,-1 48,-14 18,-14 34,-18 54,-15 15,4 31,1 34,-5 4,-6 19,-11 34,-11 15,0 36,-7 46,-15 11,-8 31,-15 44,-15 13,0 37,-12 52,-27 64,-63 89,-76 157,-79 41,-2 72,-9 83,-19 9,-8 31,-15 49,-15 23,0 44,-10 68,-30 18,-17 41,-30 51,-30 9,-1 26,-15 37,-33 19,-29 25,-32 72,-32 29,0 58,-6 64,-13 7,-6 27,-12 44,-12 21,0 40,-9 55,-25 13,-14 32,-25 42,-25 10,0 36,-18 57,-40 32,-34 42,-39 67,-34 22,4 34,0 48,-15 11,-12 31,-21 47,-21 19,0 30,-6 34,-20 11,-33 55,-80 77,-80 10,0 27,4 37,10 15,7 23,1 49,-35 43,-61 76,-81 108,-66 21,9 28,8 46,-9 26,-24 70,-26 88,-5 11,14 15,12 31,-14 10,-17 31,-34 46,-37 15,-4 40,-20 55,-36 29,-31 68,-37 88,-13 11,13 19,4 56,-60 24,-41 53,-79 63,-85 29,-15 67,-12 87,7 10,10 19,13 21,8 11,-34 121,-221 147,-251 32,-36 54,-43 94,-30 20,7 25,1 53,-61 17,-37 54,-117 84,-178 29,-60 56,-131 59,-156 4,-26 13,-55 21,-65 8,-11 15,-33 15,-51 0,-17 5,-55 12,-83 9,-40 9,-56 -1,-71 -8,-14 -10,-39 -5,-77 5,-49 3,-60 -14,-75 -19,-17 -20,-27 -15,-158 6,-136 5,-139 -15,-139 -41,0 -50,-22 -45,-117 5,-88 5,-89 -20,-100 -37,-17 -87,-121 -87,-182 0,-25 -7,-55 -15,-65 -19,-26 -19,-66 1,-94 15,-22 13,-25 -50,-91 -46,-47 -78,-72 -107,-80 -52,-16 -98,-58 -210,-192 -97,-116 -169,-230 -169,-267 0,-31 26,-92 52,-119 12,-12 44,-27 74,-34 45,-10 63,-9 133,8 65,17 83,18 98,8 47,-32 129,-45 293,-44 157,1 166,3 261,35 167,57 190,72 256,171 33,49 70,115 83,148 13,33 31,69 40,80 9,11 28,39 43,62 24,38 32,43 65,43 56,1 71,18 93,112 11,45 29,98 40,117 22,38 69,176 69,204 0,16 2,16 30,2 38,-20 73,-19 92,3 8,9 21,45 28,80 7,34 14,62 15,62 2,0 15,-6 29,-14 51,-26 77,-6 91,69 12,70 31,95 70,95 57,0 75,27 75,110 0,54 3,70 14,70 29,0 46,41 40,95 -6,47 -4,54 20,78 20,20 26,36 26,67 0,27 7,51 20,67 11,14 20,40 20,58 0,28 3,33 26,32 47,0 68,34 72,118 l 4,74 32,3 c 30,3 31,4 30,53 0,28 -4,80 -9,116 -4,37 -5,79 -1,94 l 7,27 24,-26 c 44,-48 97,-20 75,39 -14,36 -13,37 9,25 25,-13 27,-13 45,6 9,8 16,26 16,40 0,24 0,24 35,7 62,-30 83,14 46,98 -10,24 -22,64 -26,88 -8,47 -7,47 47,8 28,-21 55,-18 64,7 3,8 -11,51 -31,96 -27,60 -37,96 -38,140 -1,32 1,62 6,66 4,4 20,-4 35,-18 15,-14 35,-28 44,-31 22,-8 51,20 43,42 -16,42 -28,101 -22,107 4,4 23,0 42,-9 44,-21 79,-22 94,-3 10,11 7,25 -13,65 -38,75 -36,85 19,77 89,-14 104,10 60,99 -28,57 -32,100 -10,121 18,18 19,47 5,75 -17,32 16,79 56,79 17,0 53,7 80,15 97,30 233,30 409,0 257,-43 466,-101 955,-260 309,-101 332,-106 582,-112 l 217,-6 -6,-68 c -5,-62 -3,-76 28,-146 68,-160 94,-186 245,-249 131,-54 139,-53 164,14 9,23 30,56 47,74 17,18 49,69 72,113 44,86 102,146 156,159 16,4 71,27 121,52 50,24 96,44 101,44 10,0 178,107 278,178 39,27 95,62 125,77 95,47 221,157 289,252 31,43 64,76 123,125 25,21 58,63 78,99 18,34 58,94 89,132 56,70 261,247 286,247 8,0 25,-34 41,-83 15,-45 44,-114 65,-152 27,-50 48,-110 69,-200 33,-140 93,-275 213,-480 160,-272 205,-344 243,-395 85,-114 184,-293 184,-335 0,-20 10,-57 43,-170 72,-243 85,-341 62,-460 -8,-44 -22,-141 -31,-215 -8,-74 -19,-153 -24,-175 -5,-22 -20,-121 -34,-220 -15,-99 -36,-225 -47,-280 -65,-311 -85,-359 -198,-468 -144,-141 -192,-192 -224,-241 -36,-54 -67,-134 -67,-172 0,-59 98,-122 261,-165 73,-20 109,-23 279,-24 h 195 l 110,38 c 61,21 118,47 127,58 9,10 26,48 38,83 12,36 27,69 34,75 7,6 46,19 87,29 94,24 115,37 134,85 17,43 21,245 5,313 -23,98 -31,229 -21,319 6,50 15,137 21,195 9,82 22,132 57,225 62,166 131,363 191,540 27,83 59,175 70,205 21,57 75,251 92,330 5,25 25,80 44,123 41,90 138,237 144,219 2,-7 59,-67 126,-135 129,-129 217,-240 270,-341 18,-34 53,-93 79,-131 26,-39 56,-97 67,-130 11,-33 29,-80 40,-105 27,-66 66,-194 85,-280 19,-91 40,-484 39,-746 V 823 l -47,-59 c -26,-32 -67,-84 -91,-114 -24,-30 -78,-98 -120,-150 -81,-101 -110,-161 -121,-250 -9,-78 12,-96 131,-115 49,-8 105,-19 124,-24 104,-32 307,15 517,118 166,83 215,124 238,206 15,51 16,52 90,84 144,64 152,88 136,426 -10,237 -38,478 -75,660 -8,39 -17,126 -21,195 -7,126 -35,349 -60,470 -29,141 -39,231 -40,375 -1,101 -8,196 -23,290 -12,77 -27,217 -32,310 -6,94 -18,204 -26,245 -30,146 -105,420 -158,582 -90,277 -105,343 -107,493 -1,50 -5,109 -9,133 -12,67 6,256 35,367 37,140 34,136 59,85 14,-31 28,-46 44,-48 36,-5 50,14 57,77 8,72 20,95 29,54 4,-16 15,-43 26,-61 24,-40 57,-42 91,-6 20,21 24,36 25,98 4,137 33,187 99,170 16,-4 30,1 44,15 17,17 21,33 21,91 0,58 4,74 21,91 18,18 21,29 16,72 -5,40 -3,54 13,75 12,14 20,40 20,62 0,22 7,43 16,51 12,10 15,24 11,60 -4,34 -2,51 8,59 12,10 14,38 10,150 -4,94 -2,141 6,145 5,4 9,21 8,39 -2,17 3,41 10,54 7,13 10,36 6,52 -7,33 9,70 30,70 19,0 29,41 20,86 -5,27 -2,41 11,55 19,21 22,-21 -36,469 -17,140 -35,270 -41,288 -6,19 -14,87 -19,152 -6,93 -12,125 -28,152 -12,19 -34,70 -50,113 -36,98 -101,248 -144,334 -31,63 -93,142 -200,256 -81,86 -257,183 -473,260 -66,24 -156,59 -200,78 -117,52 -408,165 -452,176 -122,29 -245,62 -269,72 -16,5 -90,19 -164,29 -164,24 -458,82 -479,95 -14,8 -234,66 -341,90 -58,13 -168,40 -245,60 -77,20 -230,56 -340,80 -110,24 -280,64 -379,89 -98,25 -265,62 -370,82 -105,20 -240,47 -301,61 -60,13 -157,33 -215,44 -58,10 -141,26 -185,35 -44,9 -107,21 -140,26 -33,6 -114,23 -180,39 -66,16 -144,33 -172,39 -29,5 -95,27 -147,49 -61,27 -157,55 -277,81 -251,56 -294,67 -367,96 -34,13 -125,35 -202,49 -76,13 -196,42 -267,64 -137,43 -237,68 -428,106 -66,13 -160,37 -210,54 -54,17 -133,34 -200,41 -60,6 -144,20 -186,30 -128,33 -215,49 -444,85 -121,19 -263,43 -315,54 -52,12 -120,21 -152,21 -68,0 -183,22 -258,49 -52,18 -157,38 -320,61 -41,5 -104,15 -140,20 -36,6 -118,7 -185,4 -98,-5 -142,-2 -240,15 -86,15 -154,21 -240,19 -172,-3 -632,9 -644,16 -6,4 -52,8 -103,11 -126,5 -202,18 -311,54 -134,44 -299,71 -477,77 l -155,6 z"
       id="path1"
       style="stroke-width:4.63665" />
  </g>
  <rect
     style="fill:none;stroke:#1a1a1a;stroke-width:1.41732;stroke-linecap:round;stroke-linejoin:round;opacity:0"
     id="rect1"
     width="373.58267"
     height="373.58267"
     x="0.70866001"
     y="0.70866001"
     ry="7.4427834" />
</svg>
