<?xml version="1.0" encoding="UTF-8" standalone="no"?>
<svg
   version="1.0"
   width="500"
   height="500"
   viewBox="0 0 375 375"
   preserveAspectRatio="xMidYMid"
   id="svg1"
   sodipodi:docname="bosTau9_Steven Traver.svg"
   inkscape:version="1.3.2 (1:1.3.2+202311252150+091e20ef0f)"
   xmlns:inkscape="http://www.inkscape.org/namespaces/inkscape"
   xmlns:sodipodi="http://sodipodi.sourceforge.net/DTD/sodipodi-0.dtd"
   xmlns="http://www.w3.org/2000/svg"
   xmlns:svg="http://www.w3.org/2000/svg">
  <defs
     id="defs1" />
  <sodipodi:namedview
     id="namedview1"
     pagecolor="#ffffff"
     bordercolor="#cccccc"
     borderopacity="1"
     inkscape:showpageshadow="0"
     inkscape:pageopacity="1"
     inkscape:pagecheckerboard="0"
     inkscape:deskcolor="#d1d1d1"
     inkscape:document-units="pt"
     inkscape:zoom="0.83300781"
     inkscape:cx="321.12544"
     inkscape:cy="290.51348"
     inkscape:window-width="1850"
     inkscape:window-height="1136"
     inkscape:window-x="70"
     inkscape:window-y="27"
     inkscape:window-maximized="1"
     inkscape:current-layer="svg1" />
  <metadata
     id="metadata1">
Created by potrace 1.16, written by Peter Selinger 2001-2019
</metadata>
  <g
     transform="matrix(0.02398188,0,0,-0.02398188,3.5287319,310.67055)"
     fill="#000000"
     stroke="none"
     id="g1"
     style="stroke-width:4.16982">
    <path
       d="m 342,9473 c -34,-82 -45,-135 -45,-223 1,-107 38,-223 109,-337 56,-92 219,-259 311,-320 l 63,-41 -93,-7 c -50,-3 -121,-13 -157,-21 -134,-31 -375,-173 -420,-247 -30,-49 -26,-98 13,-149 18,-24 115,-105 215,-181 l 182,-138 v -58 c 0,-33 7,-119 15,-191 17,-142 15,-183 -17,-300 -25,-91 -170,-454 -227,-567 -22,-45 -59,-128 -81,-184 -53,-131 -60,-144 -121,-224 -28,-36 -59,-85 -70,-108 -23,-52 -25,-154 -4,-223 19,-62 19,-92 0,-128 -8,-15 -15,-47 -15,-71 0,-37 7,-50 64,-117 83,-98 147,-152 224,-190 57,-28 76,-32 172,-36 193,-8 313,25 485,133 190,119 216,130 310,129 59,0 109,-9 190,-32 136,-39 229,-43 302,-11 60,26 84,27 202,9 l 94,-14 96,34 c 87,32 106,35 196,34 91,-1 114,-5 244,-48 78,-25 171,-49 205,-53 l 61,-6 166,-161 c 91,-89 219,-213 285,-276 89,-85 149,-154 229,-265 59,-82 149,-199 199,-260 50,-60 144,-184 210,-275 162,-224 264,-324 425,-421 147,-88 201,-138 300,-282 101,-147 192,-230 323,-296 120,-60 196,-81 289,-81 h 67 l 14,-37 c 8,-24 13,-81 12,-153 -1,-92 -6,-134 -28,-210 -87,-313 -89,-320 -90,-445 -1,-106 2,-130 27,-203 23,-70 27,-100 27,-189 0,-171 -23,-293 -131,-693 -65,-240 -104,-360 -144,-440 -70,-141 -171,-242 -289,-291 -48,-20 -57,-28 -75,-70 -12,-26 -21,-52 -21,-57 0,-5 -48,-35 -107,-67 -60,-31 -125,-71 -146,-87 -72,-57 -84,-119 -42,-210 14,-29 25,-63 25,-75 0,-36 30,-43 183,-43 117,0 150,3 178,18 29,14 63,17 221,17 215,0 192,-9 283,113 49,64 52,67 105,75 29,4 68,16 84,25 l 31,18 -3,120 c -3,106 -1,122 16,144 23,29 49,22 57,-17 4,-15 14,-53 23,-83 14,-44 22,-56 40,-58 33,-5 49,13 66,71 20,73 26,116 27,184 1,50 -4,67 -26,102 -26,38 -27,46 -22,118 6,94 69,516 98,663 40,206 88,361 178,584 69,170 118,336 147,504 35,199 93,390 169,553 l 24,52 6,-39 c 3,-21 15,-88 26,-149 11,-60 29,-173 39,-250 10,-77 23,-151 28,-165 6,-14 32,-55 59,-91 123,-167 165,-344 214,-924 23,-270 21,-371 -10,-439 -11,-27 -48,-69 -100,-117 -51,-46 -99,-101 -127,-146 -48,-76 -86,-114 -208,-207 -153,-115 -180,-230 -65,-282 48,-21 173,-24 511,-12 l 168,6 57,43 c 121,90 162,131 188,185 18,37 39,63 70,84 31,21 45,38 45,53 0,15 11,28 35,41 41,23 70,66 80,118 6,30 12,38 29,38 27,0 40,9 55,38 17,32 2,94 -52,217 -65,145 -124,330 -142,437 -25,151 -39,658 -40,1377 v 674 l 80,24 c 275,82 677,131 855,104 41,-6 158,-34 260,-61 224,-60 427,-102 846,-175 220,-38 366,-69 469,-100 207,-62 246,-69 345,-62 99,7 173,30 290,93 163,86 286,142 475,214 337,130 467,198 593,312 157,143 199,170 269,170 56,0 76,-14 154,-104 94,-107 188,-199 242,-236 60,-40 71,-68 63,-157 -20,-212 -20,-224 -1,-245 9,-10 33,-25 53,-31 19,-6 50,-26 68,-44 29,-29 69,-45 115,-45 22,0 34,54 48,216 9,102 23,164 36,164 16,0 123,-61 139,-79 28,-31 22,-70 -23,-169 -22,-48 -43,-99 -46,-115 -9,-35 10,-81 41,-102 13,-8 24,-24 24,-34 0,-25 44,-77 70,-84 35,-9 68,31 135,161 74,146 125,217 175,243 44,24 41,31 70,-176 68,-493 34,-814 -133,-1246 -70,-179 -194,-456 -248,-550 -28,-47 -52,-102 -56,-122 -4,-30 -14,-42 -54,-67 -69,-45 -173,-159 -194,-213 -13,-36 -25,-48 -57,-63 -79,-36 -173,-150 -232,-286 l -25,-57 65,-21 c 140,-43 257,-62 419,-67 185,-6 252,3 343,48 49,24 71,42 93,77 16,25 42,52 57,59 39,19 52,52 62,156 8,83 18,116 27,92 13,-37 32,-61 55,-75 35,-19 47,-7 59,56 5,26 11,49 13,51 2,2 20,-4 40,-14 45,-21 52,-14 62,65 7,60 -1,136 -21,195 -13,37 -12,45 10,102 12,34 53,160 89,281 183,600 214,686 348,969 152,319 188,420 234,653 l 5,23 27,-20 c 15,-11 60,-50 100,-86 102,-94 136,-169 201,-438 60,-245 83,-305 151,-396 86,-117 95,-156 110,-477 8,-174 14,-235 30,-285 28,-89 34,-160 20,-254 -6,-44 -15,-190 -19,-325 -9,-277 -12,-291 -92,-389 -94,-115 -109,-138 -125,-184 -14,-42 -28,-56 -132,-136 -65,-49 -126,-102 -138,-118 -55,-74 -68,-138 -39,-180 10,-14 13,-32 9,-47 -9,-38 4,-63 38,-75 40,-14 532,-14 693,0 196,17 226,40 246,186 12,88 26,123 68,173 34,42 49,90 27,90 -25,0 -27,17 -10,77 9,31 22,89 28,127 l 12,71 49,7 c 53,7 94,32 105,64 11,29 -14,82 -49,101 -25,15 -28,22 -24,50 4,26 -1,45 -26,84 -40,65 -45,100 -32,234 12,137 3,283 -44,655 -60,484 -74,748 -56,1075 10,192 37,474 47,505 4,13 6,13 15,0 19,-30 29,-88 39,-229 6,-79 17,-157 23,-174 12,-29 14,-25 35,84 13,63 26,117 31,122 4,4 13,-15 20,-43 12,-47 81,-142 95,-130 3,3 -3,48 -14,100 -30,143 -34,304 -16,564 20,291 20,497 1,612 -9,49 -37,161 -64,249 -87,282 -85,272 -85,465 0,96 4,333 8,526 7,269 6,402 -5,575 -18,283 -18,572 0,1104 28,842 5,1130 -110,1371 -63,134 -212,329 -344,453 -183,171 -361,181 -1020,57 -167,-31 -343,-46 -558,-46 -328,0 -535,-21 -1017,-100 -162,-27 -344,-56 -405,-64 -256,-35 -786,-81 -1395,-121 -129,-9 -419,-29 -645,-45 -996,-72 -1252,-84 -1645,-77 -333,6 -460,18 -760,72 -102,18 -273,49 -380,68 -299,54 -417,68 -640,74 -385,10 -678,-19 -1440,-142 -608,-99 -906,-137 -1140,-147 l -75,-3 5,35 c 3,19 5,72 4,117 0,78 -2,85 -30,114 -135,143 -337,89 -706,-187 -87,-65 -105,-74 -142,-74 -24,0 -45,3 -49,6 -3,4 1,21 11,38 14,25 17,62 18,206 1,150 4,184 23,239 36,108 29,131 -41,131 -104,0 -140,-42 -205,-240 -26,-79 -61,-164 -78,-189 -37,-55 -91,-84 -166,-89 l -57,-4 -70,65 c -88,83 -123,94 -329,100 l -153,5 -76,43 c -75,41 -77,42 -153,36 -128,-9 -197,-37 -282,-113 -41,-37 -85,-70 -97,-75 -57,-22 -154,32 -281,155 -110,107 -160,180 -222,319 -55,126 -107,197 -144,197 -17,0 -27,-10 -43,-47 z m 14268,-798 c 65,-33 152,-106 193,-162 41,-57 71,-138 93,-253 22,-115 31,-859 14,-1197 -7,-131 -16,-582 -20,-1003 -5,-431 -13,-813 -20,-875 -18,-179 -16,-441 3,-494 23,-59 21,-103 -4,-154 -27,-51 -30,-162 -10,-367 7,-74 11,-155 9,-180 -4,-55 0,-59 -118,125 -172,267 -218,393 -227,620 -6,165 2,270 62,785 61,522 78,644 135,1010 133,850 163,1361 94,1627 -37,146 -111,230 -300,341 l -115,67 6,35 c 3,19 14,46 24,60 40,55 93,60 181,15 z"
       id="path1"
       style="stroke-width:4.16982" />
  </g>
</svg>
