<?xml version="1.0" encoding="UTF-8" standalone="no"?>
<svg
   version="1.0"
   width="375pt"
   height="375pt"
   viewBox="0 0 375 375"
   preserveAspectRatio="xMidYMid"
   id="svg1"
   sodipodi:docname="canFam6_Margot Michaud.svg"
   inkscape:version="1.3.2 (1:1.3.2+202311252150+091e20ef0f)"
   xmlns:inkscape="http://www.inkscape.org/namespaces/inkscape"
   xmlns:sodipodi="http://sodipodi.sourceforge.net/DTD/sodipodi-0.dtd"
   xmlns="http://www.w3.org/2000/svg"
   xmlns:svg="http://www.w3.org/2000/svg">
  <defs
     id="defs1" />
  <sodipodi:namedview
     id="namedview1"
     pagecolor="#ffffff"
     bordercolor="#cccccc"
     borderopacity="1"
     inkscape:showpageshadow="0"
     inkscape:pageopacity="1"
     inkscape:pagecheckerboard="0"
     inkscape:deskcolor="#d1d1d1"
     inkscape:document-units="pt"
     inkscape:zoom="1.0118314"
     inkscape:cx="239.17029"
     inkscape:cy="353.8139"
     inkscape:window-width="1850"
     inkscape:window-height="1136"
     inkscape:window-x="70"
     inkscape:window-y="27"
     inkscape:window-maximized="1"
     inkscape:current-layer="svg1" />
  <metadata
     id="metadata1">
Created by potrace 1.16, written by Peter Selinger 2001-2019
</metadata>
  <g
     transform="matrix(-0.006176,0,0,-0.006176,372.81872,350.12259)"
     fill="#000000"
     stroke="none"
     id="g1"
     style="stroke-width:16.1917">
    <path
       d="m 55157,52640 c -14,-11 -28,-29 -32,-39 -3,-10 -58,-64 -123,-119 -64,-55 -243,-228 -397,-384 -309,-311 -254,-244 -1125,-1382 -232,-302 -251,-324 -355,-409 -197,-161 -717,-561 -1415,-1089 -324,-245 -325,-246 -436,-379 -225,-271 -332,-418 -353,-480 -15,-45 -63,-92 -122,-118 -45,-20 -53,-20 -253,-9 -220,13 -379,5 -603,-28 -112,-17 -183,-13 -322,19 -48,11 -56,16 -63,42 -11,39 -69,350 -163,875 -42,234 -87,466 -100,515 -74,281 -462,1340 -570,1555 -64,128 -473,788 -618,998 -62,90 -150,173 -258,244 -157,103 -206,118 -392,118 -125,0 -221,-26 -310,-84 -131,-85 -261,-281 -473,-711 -213,-434 -385,-751 -527,-970 -150,-232 -216,-315 -453,-575 -312,-341 -325,-359 -410,-557 -95,-222 -253,-738 -295,-963 -6,-36 -11,-123 -10,-195 2,-156 -12,-391 -39,-652 -37,-356 -41,-366 -194,-593 -118,-173 -138,-236 -171,-530 -30,-268 -53,-349 -134,-472 -77,-118 -151,-190 -305,-295 -388,-266 -796,-567 -993,-732 -148,-123 -227,-206 -333,-346 -371,-487 -1375,-1744 -1614,-2020 -38,-44 -122,-134 -186,-200 -227,-236 -740,-847 -1696,-2024 l -370,-456 -130,-73 c -573,-326 -845,-510 -1105,-749 -131,-121 -318,-238 -644,-400 -270,-135 -433,-183 -908,-267 -272,-49 -489,-73 -2317,-261 -894,-92 -1169,-123 -1294,-146 -230,-43 -1064,-235 -2381,-549 -1121,-267 -1890,-469 -2196,-575 -189,-66 -223,-76 -318,-90 -145,-22 -414,-29 -621,-16 -235,15 -371,33 -590,77 -493,99 -1849,320 -2600,423 -552,77 -835,97 -1695,121 -776,22 -1043,31 -1105,40 -106,15 -801,29 -1980,40 -1711,15 -2130,14 -2485,-10 -402,-27 -1453,-102 -2015,-144 l -455,-35 -1302,-200 c -1447,-223 -1362,-214 -1743,-191 -428,26 -624,53 -863,120 -78,22 -293,76 -477,120 -424,101 -572,143 -685,193 -99,44 -327,121 -655,222 -118,36 -237,77 -265,90 -53,24 -214,159 -460,385 -211,194 -475,466 -475,489 0,4 30,47 66,96 89,123 119,188 223,495 49,146 99,288 111,315 25,59 171,315 179,315 4,0 23,-51 45,-114 49,-146 67,-176 105,-176 16,0 33,6 39,13 6,7 45,86 86,177 42,90 83,168 91,173 24,13 51,74 119,274 83,243 123,333 247,561 122,225 162,283 269,387 77,75 87,90 154,227 52,108 76,147 89,148 34,0 56,20 111,101 31,45 105,139 164,210 59,71 121,154 138,185 28,50 33,54 39,35 6,-19 11,-21 38,-15 25,5 83,28 105,40 2,1 -7,80 -19,176 -28,214 -29,421 -4,603 10,72 17,152 16,179 -1,46 0,48 16,33 17,-14 20,-13 47,10 l 29,25 -31,167 c -53,276 -96,621 -112,903 -10,176 -34,342 -110,733 -22,115 -40,215 -40,223 0,9 7,11 19,7 28,-9 68,14 82,46 23,57 -18,183 -143,437 l -71,145 24,20 24,19 -37,105 c -29,84 -33,103 -20,97 63,-27 107,-7 105,49 -1,20 -40,152 -87,294 -106,321 -139,435 -161,548 -42,228 -136,438 -271,609 -80,102 -85,110 -68,122 37,26 44,35 44,60 0,14 -14,42 -31,63 -41,52 -59,117 -66,238 l -6,102 -48,54 -48,54 39,12 c 40,12 60,35 60,67 0,34 -88,103 -205,160 l -115,56 21,35 c 12,19 18,38 13,43 -35,33 -272,157 -352,185 -181,61 -249,93 -283,136 -35,45 -53,47 -159,25 -36,-8 -66,-13 -67,-12 -1,1 31,43 72,93 41,50 75,95 75,100 0,5 -13,22 -29,37 l -30,28 -133,-96 -133,-96 -9,43 -9,44 -167,47 -168,48 -7,99 c -9,132 -42,176 -101,134 -20,-13 -22,-12 -33,26 -10,32 -9,65 5,171 20,158 16,224 -16,250 -33,27 -49,23 -92,-24 l -38,-41 v 49 c 0,27 5,78 10,114 23,148 24,169 5,190 -30,33 -67,23 -161,-41 l -42,-28 -5,35 c -13,78 -64,87 -127,23 l -40,-41 v 46 c 0,36 -5,52 -25,71 -47,48 -81,30 -256,-140 -115,-111 -150,-139 -219,-174 -47,-23 -97,-41 -116,-41 -50,0 -97,47 -151,153 -46,88 -133,200 -176,224 -35,20 -80,15 -153,-16 -38,-16 -72,-27 -77,-24 -4,2 -25,28 -47,58 -62,83 -111,91 -232,38 -67,-30 -88,-26 -88,17 0,58 -43,109 -91,110 -16,0 -82,-40 -189,-115 -89,-63 -164,-115 -165,-115 -2,0 10,50 26,112 15,62 27,114 25,115 -2,2 -93,-66 -202,-151 -109,-85 -201,-153 -205,-150 -4,2 -10,24 -13,48 -19,128 -109,116 -189,-24 -24,-41 -32,-50 -35,-36 -2,11 -12,69 -21,130 l -17,111 -109,-275 -108,-275 -25,73 c -27,83 -53,109 -95,93 -36,-14 -54,-44 -83,-139 -14,-46 -34,-98 -44,-115 -9,-18 -61,-110 -115,-206 -114,-202 -102,-202 -154,-6 -53,198 -60,214 -87,221 -40,10 -68,-3 -137,-66 l -66,-61 -39,20 -39,20 -32,-44 c -18,-25 -34,-45 -37,-45 -3,0 -2,15 1,33 6,32 5,34 -35,46 -24,7 -46,9 -50,4 -5,-4 -63,-113 -131,-241 l -122,-232 -14,37 c -7,21 -13,39 -13,41 0,1 -18,2 -39,2 -46,0 -51,-9 -51,-88 -1,-82 -14,-131 -77,-274 -53,-122 -73,-147 -73,-92 0,32 -42,74 -74,74 -30,0 -72,-48 -85,-98 -5,-20 -30,-136 -56,-257 -25,-121 -48,-227 -52,-235 -10,-28 -31,56 -53,207 -29,210 -23,193 -75,193 h -44 l -20,-67 c -66,-219 -110,-356 -110,-339 -1,35 -17,6 -89,-161 l -69,-162 -31,19 -31,19 -20,-25 c -11,-14 -22,-49 -26,-84 -4,-33 -9,-60 -12,-60 -3,0 -18,11 -34,25 -61,51 -140,51 -174,-1 -39,-60 -118,-472 -140,-728 -9,-99 -20,-217 -25,-261 -6,-44 -10,-86 -10,-95 0,-8 -52,37 -116,100 l -116,115 6,-225 c 6,-205 14,-317 31,-447 l 7,-48 -67,73 c -37,40 -81,80 -97,88 -27,14 -32,14 -54,-1 -38,-25 -36,-51 17,-242 21,-78 39,-148 39,-155 0,-7 -26,26 -58,73 -31,48 -61,88 -67,90 -9,4 -21,-51 -49,-244 -17,-114 -9,-180 50,-417 19,-74 34,-139 34,-145 0,-5 -55,48 -122,117 -132,136 -160,152 -204,123 -38,-25 -31,-57 65,-281 44,-105 81,-194 81,-198 0,-4 -9,-16 -20,-28 -11,-12 -20,-32 -20,-45 0,-13 27,-75 60,-139 63,-120 69,-156 18,-107 -26,23 -29,25 -25,8 3,-11 36,-155 72,-320 l 67,-300 61,-110 c 33,-60 93,-168 134,-239 40,-71 72,-130 70,-132 -1,-2 -58,30 -126,71 -73,44 -135,75 -151,75 -33,0 -54,-38 -40,-74 5,-13 64,-91 132,-172 168,-204 175,-214 215,-312 45,-111 75,-171 130,-256 48,-75 48,-74 -5,-105 -9,-5 1,-42 43,-151 30,-80 55,-146 55,-148 0,-3 -15,7 -34,22 -19,14 -39,26 -43,26 -5,0 -22,-13 -38,-30 l -28,-29 100,-148 c 139,-205 190,-295 313,-548 174,-360 242,-460 484,-720 203,-217 423,-472 556,-644 l 34,-44 -29,7 c -17,4 -86,34 -154,67 -68,32 -126,57 -128,55 -2,-2 27,-55 65,-117 39,-63 66,-117 61,-120 -5,-3 -20,-20 -34,-38 l -24,-34 78,-87 c 207,-230 341,-423 423,-605 30,-66 109,-219 176,-340 67,-121 118,-221 113,-223 -5,-2 -49,6 -97,18 -48,11 -89,19 -90,17 -2,-2 32,-45 75,-95 149,-172 188,-227 353,-502 238,-396 273,-473 262,-572 -5,-50 -2,-60 50,-166 31,-62 56,-115 56,-118 0,-2 -24,-1 -53,2 l -53,6 -19,-41 -18,-42 22,-15 c 12,-9 34,-26 48,-38 l 26,-23 -65,-18 -66,-17 182,-182 c 216,-214 226,-230 226,-363 0,-140 22,-197 131,-343 118,-158 167,-235 178,-279 5,-20 12,-85 16,-146 3,-60 11,-128 18,-150 17,-57 82,-118 154,-145 51,-18 58,-24 58,-46 -1,-20 -11,-30 -44,-45 l -42,-19 28,-51 c 31,-59 62,-92 216,-232 59,-54 107,-102 107,-107 0,-5 -26,-16 -57,-25 -118,-35 -163,-73 -149,-128 3,-15 44,-54 108,-104 134,-104 147,-112 199,-121 l 44,-8 -67,-44 c -37,-25 -68,-48 -68,-52 0,-4 15,-24 32,-44 35,-39 117,-82 203,-104 28,-7 64,-20 80,-27 28,-14 265,-249 265,-264 0,-15 -51,-120 -99,-203 -28,-49 -50,-90 -49,-91 2,-2 54,26 117,61 116,66 131,72 131,54 0,-33 135,-366 196,-486 90,-176 247,-450 315,-550 69,-102 79,-131 79,-217 0,-102 -12,-159 -68,-310 l -47,-130 -114,-114 c -143,-143 -291,-263 -381,-308 -226,-114 -531,-376 -763,-655 -66,-80 -175,-201 -241,-270 -96,-100 -135,-149 -189,-240 -104,-175 -311,-600 -357,-734 -61,-181 -199,-741 -215,-876 -7,-63 -16,-196 -20,-295 -14,-405 -27,-619 -46,-775 -18,-143 -21,-217 -20,-560 1,-378 0,-401 -24,-540 -34,-200 -37,-186 35,-182 l 60,4 -52,-144 c -81,-229 -98,-286 -98,-333 0,-25 27,-134 65,-259 105,-347 113,-407 67,-491 -20,-37 -33,-50 -49,-50 -15,0 -64,-41 -152,-129 l -130,-130 21,-38 c 12,-21 27,-38 33,-38 13,0 354,114 458,154 37,14 67,20 67,15 0,-6 -74,-84 -165,-173 l -164,-162 24,-37 25,-36 66,25 c 37,14 69,23 72,20 2,-3 -23,-34 -57,-69 l -62,-65 26,-31 c 15,-17 30,-31 35,-31 4,0 36,16 69,34 l 61,35 v -28 c 0,-15 -11,-90 -25,-167 -42,-237 -43,-236 78,-704 47,-181 61,-282 55,-404 -5,-90 -11,-114 -51,-216 -25,-63 -72,-171 -104,-240 -82,-173 -99,-225 -82,-256 23,-43 50,-40 153,16 87,46 96,49 96,31 0,-25 -58,-199 -99,-300 -17,-41 -31,-77 -31,-82 0,-4 16,-17 35,-29 l 35,-22 36,22 c 19,12 38,20 41,17 3,-3 -2,-59 -11,-124 -9,-65 -13,-133 -10,-151 7,-36 37,-62 71,-62 h 22 l -21,-47 c -28,-66 -33,-165 -14,-308 9,-65 16,-152 16,-192 0,-112 16,-172 58,-211 l 35,-34 -36,-151 c -19,-84 -34,-153 -33,-155 2,-1 26,16 53,38 28,22 53,40 55,40 3,0 1,-26 -4,-57 -18,-117 20,-175 98,-149 21,7 22,5 17,-101 -5,-119 -6,-117 102,-577 l 55,-238 -15,-80 c -28,-151 -17,-208 42,-208 h 26 l -5,-90 c -4,-65 -2,-88 6,-83 6,4 51,33 99,66 49,32 91,57 93,55 2,-3 30,-78 63,-169 32,-90 85,-231 117,-314 l 58,-150 4,-230 c 2,-126 1,-276 -3,-333 l -7,-103 -116,-95 c -65,-52 -169,-130 -232,-173 -149,-102 -234,-177 -552,-489 -145,-142 -289,-277 -321,-301 -101,-74 -194,-226 -239,-390 -19,-66 -21,-100 -19,-266 2,-213 -1,-239 -70,-695 -72,-476 -86,-559 -124,-729 -41,-184 -80,-269 -345,-756 -199,-365 -149,-201 -425,-1393 -101,-438 -207,-892 -235,-1009 l -52,-212 -85,-143 c -101,-170 -129,-224 -154,-297 -21,-60 -65,-144 -172,-325 -123,-210 -147,-263 -147,-326 1,-70 24,-257 33,-266 4,-4 46,-2 94,4 49,5 89,9 91,7 2,-2 10,-45 18,-96 11,-63 14,-124 10,-184 -4,-49 -9,-140 -12,-200 -8,-155 33,-907 55,-1015 13,-63 62,-84 276,-116 159,-25 290,-22 425,9 l 114,27 256,-56 c 207,-46 297,-60 478,-78 l 224,-21 127,-270 c 70,-148 171,-346 225,-440 632,-1090 1511,-2579 1659,-2809 38,-60 96,-165 128,-232 32,-67 75,-142 96,-165 21,-23 106,-93 188,-155 161,-119 368,-307 740,-673 338,-332 418,-391 595,-444 152,-46 248,-61 380,-62 121,0 127,1 191,33 38,18 97,61 137,97 95,88 101,90 219,58 155,-41 259,-34 599,42 203,46 285,73 410,136 67,33 140,63 163,66 23,3 76,0 119,-8 168,-29 225,-15 264,66 13,26 32,48 47,54 21,9 166,45 267,66 15,3 34,31 64,89 62,122 64,170 15,301 -6,15 1,12 27,-13 29,-27 39,-31 66,-26 49,10 48,33 -6,141 -27,54 -66,136 -86,183 -50,116 -109,192 -284,361 -229,222 -337,293 -802,528 -307,155 -406,198 -575,251 -302,93 -456,163 -577,264 -93,78 -205,147 -403,251 -176,92 -256,157 -576,475 -313,311 -409,432 -479,603 -138,338 -423,1175 -544,1597 -84,289 -90,329 -77,484 6,72 13,228 16,346 4,118 11,259 16,313 28,279 135,528 462,1072 286,475 460,734 590,873 89,96 102,117 352,541 349,593 539,861 846,1194 164,177 255,305 839,1172 178,264 427,633 554,820 133,197 254,387 287,451 35,70 86,201 139,360 45,137 107,310 138,384 71,175 158,415 402,1110 110,312 229,651 266,752 143,397 174,460 509,1048 93,164 317,594 527,1010 373,739 596,1170 696,1340 53,91 1015,1386 1218,1640 96,119 108,131 275,251 96,69 189,136 208,149 19,13 128,70 241,126 113,56 277,140 363,188 86,48 197,102 247,121 95,37 237,75 281,75 15,0 61,25 112,60 47,33 88,60 91,60 3,0 6,-34 6,-75 0,-41 2,-75 5,-75 2,0 68,45 147,100 l 142,100 29,-29 29,-29 129,84 129,84 h 79 c 105,0 258,30 456,90 246,75 279,81 445,91 85,5 193,14 240,19 47,5 237,13 422,16 l 338,7 74,-37 c 41,-20 108,-60 149,-90 40,-29 80,-57 87,-61 11,-7 12,13 7,109 -5,76 -4,115 3,111 5,-3 39,-51 76,-105 36,-55 68,-100 71,-100 3,0 23,5 45,12 39,12 40,12 34,52 -17,123 -18,146 -8,146 18,0 456,-154 731,-257 380,-141 566,-227 1496,-690 707,-352 872,-425 1475,-658 475,-183 487,-189 820,-445 207,-159 306,-230 493,-354 266,-176 673,-494 1033,-807 192,-167 275,-229 363,-274 40,-20 50,-29 40,-36 -8,-5 -71,-32 -141,-61 l -128,-52 7,-40 c 7,-50 15,-56 75,-56 46,0 75,-15 41,-22 -10,-2 135,-73 322,-157 187,-85 475,-217 640,-293 345,-160 336,-157 1280,-449 922,-286 1302,-407 1505,-480 245,-89 416,-127 1040,-228 1178,-193 3621,-515 4140,-546 177,-10 516,18 778,65 58,11 107,18 108,17 0,-1 11,-103 23,-227 25,-252 34,-703 46,-2290 4,-555 16,-1185 35,-1835 26,-874 46,-1552 65,-2280 5,-181 3,-256 -14,-425 -26,-261 -67,-750 -86,-1040 -21,-329 -142,-1260 -230,-1777 -41,-242 -72,-332 -144,-417 -95,-113 -159,-372 -119,-487 6,-19 25,-56 43,-84 17,-27 54,-93 81,-145 75,-146 134,-200 216,-200 18,0 93,-7 166,-17 l 133,-17 -3,-390 c -3,-451 -4,-439 101,-793 129,-430 166,-514 277,-633 46,-48 84,-99 99,-133 69,-158 222,-804 275,-1165 23,-158 52,-250 144,-454 47,-104 67,-135 107,-173 61,-57 177,-112 319,-154 240,-69 307,-78 595,-86 127,-3 263,-8 302,-11 l 73,-6 35,-73 c 23,-49 51,-87 82,-115 65,-57 203,-150 288,-193 67,-33 191,-134 283,-230 l 44,-45 74,-318 c 138,-589 342,-1478 358,-1559 9,-44 23,-132 31,-195 40,-288 70,-379 184,-549 152,-226 257,-335 493,-512 158,-119 272,-218 489,-426 104,-99 198,-180 229,-197 29,-16 113,-50 187,-77 91,-32 176,-72 261,-122 291,-171 358,-192 712,-223 204,-18 376,-14 432,9 40,17 64,47 78,97 l 9,35 243,-3 c 134,-1 287,-7 341,-12 144,-15 209,-12 324,12 l 103,21 102,-28 c 57,-15 108,-30 115,-33 17,-6 70,82 77,126 3,20 0,78 -8,127 -8,50 -12,92 -10,94 2,2 102,17 221,32 149,20 248,38 313,59 77,24 105,29 150,24 47,-5 59,-3 82,15 48,38 54,83 29,207 -32,157 -84,307 -133,378 -57,85 -182,241 -237,299 -25,27 -86,79 -136,117 -109,81 -126,101 -150,165 -40,111 -103,222 -150,263 -26,22 -164,123 -308,223 -144,100 -307,215 -362,254 -55,39 -343,274 -641,522 l -540,450 -51,104 c -28,57 -63,140 -76,184 -28,91 -79,317 -102,450 -10,58 -72,260 -174,565 -88,261 -177,531 -198,600 l -38,125 1,225 c 1,224 17,501 34,615 17,111 50,809 121,2550 l 30,760 -11,842 c -6,464 -8,869 -5,900 3,32 19,315 35,628 53,1000 67,1242 80,1335 5,36 30,245 55,465 25,220 57,472 70,560 42,283 57,621 75,1720 10,606 20,812 60,1260 44,478 77,686 134,852 121,345 497,1139 663,1398 98,153 214,358 648,1145 465,843 555,1001 660,1160 92,138 184,297 323,555 108,201 130,264 367,1050 228,758 265,870 348,1051 84,182 138,280 204,373 69,96 188,244 292,360 142,162 194,262 253,491 l 30,115 -11,195 c -17,304 -14,465 15,713 26,228 44,338 71,417 17,51 273,555 401,790 46,85 137,236 202,335 173,267 398,644 1144,1922 266,456 296,513 407,765 222,504 416,873 505,963 17,17 66,58 110,92 164,126 486,457 670,687 96,121 260,349 531,742 279,403 375,552 643,994 282,465 418,685 475,765 58,82 81,129 109,227 20,71 59,271 81,415 l 7,42 181,-150 c 140,-115 282,-216 612,-435 237,-158 546,-366 689,-463 309,-210 271,-172 929,-939 220,-258 228,-265 349,-349 251,-175 644,-441 688,-466 25,-14 230,-91 455,-171 l 410,-145 249,-36 c 225,-32 270,-35 472,-35 h 222 l 111,-159 c 60,-88 119,-178 131,-200 11,-23 39,-107 61,-187 22,-81 49,-165 61,-187 65,-128 350,-314 518,-339 140,-21 336,26 460,111 112,76 279,220 329,283 65,84 136,209 265,468 122,245 157,339 181,482 22,126 31,473 16,563 -7,39 -60,261 -118,495 l -107,425 -280,405 c -154,223 -305,439 -336,480 -119,156 -229,334 -216,348 3,3 192,-1 418,-8 624,-19 576,-24 1053,109 455,127 521,147 660,207 169,72 573,272 638,316 226,151 513,428 645,623 51,76 274,467 318,560 19,38 34,80 34,93 0,43 -152,421 -259,643 -76,159 -205,293 -701,728 -946,829 -1570,1402 -2598,2384 l -292,280 -138,201 c -231,336 -329,504 -367,626 -26,85 -30,319 -11,535 10,99 23,257 31,352 8,94 24,247 36,340 23,186 21,270 -11,413 -40,184 -118,367 -259,610 -37,63 -91,160 -120,215 -57,111 -215,337 -364,523 -92,114 -374,395 -1024,1020 l -211,204 -4,166 -4,167 -58,169 c -70,201 -69,182 -7,571 86,531 84,516 86,750 2,240 10,291 64,408 40,89 88,158 230,327 162,193 196,264 221,469 6,47 16,102 22,121 42,135 819,1743 1054,2181 42,78 47,94 51,171 12,190 -85,418 -178,418 -9,0 -28,-9 -42,-20 z M 5951,45629 c 145,-98 352,-289 443,-408 95,-124 127,-204 181,-440 20,-90 43,-182 51,-205 34,-97 45,-207 44,-476 0,-174 7,-349 19,-510 37,-460 39,-389 -18,-733 -28,-170 -51,-310 -51,-312 0,-1 19,-10 42,-20 41,-16 42,-16 60,7 17,22 18,22 18,3 0,-11 12,-157 26,-325 30,-359 40,-845 26,-1335 -7,-271 -6,-348 12,-607 11,-164 23,-298 26,-298 4,0 28,29 56,65 l 49,66 6,-88 c 4,-48 11,-117 17,-153 6,-36 27,-227 46,-425 20,-198 38,-379 41,-402 2,-24 3,-43 1,-43 -2,0 -39,44 -82,98 -43,53 -241,293 -439,532 -727,877 -701,843 -862,1125 -265,466 -326,600 -374,811 -39,172 -93,360 -169,584 -67,199 -73,231 -94,500 -45,582 -86,1914 -61,1997 16,52 135,280 208,400 113,181 132,201 339,355 106,79 233,173 282,211 49,37 91,67 93,67 2,0 31,-18 64,-41 z"
       id="path1"
       style="stroke-width:16.1917" />
  </g>
  <rect
     style="fill:none;stroke:#1a1a1a;stroke-width:1.41732;stroke-linecap:round;stroke-linejoin:round;opacity:0"
     id="rect1"
     width="373.58267"
     height="373.58267"
     x="0.70866001"
     y="0.70866001"
     ry="7.4427834" />
</svg>
