<?xml version="1.0" encoding="UTF-8" standalone="no"?>
<svg
   version="1.0"
   width="375pt"
   height="375pt"
   viewBox="0 0 375 375"
   preserveAspectRatio="xMidYMid"
   id="svg1"
   sodipodi:docname="chiSab2_Kai R. Caspar_NOTOK.svg"
   inkscape:version="1.3.2 (1:1.3.2+202311252150+091e20ef0f)"
   xmlns:inkscape="http://www.inkscape.org/namespaces/inkscape"
   xmlns:sodipodi="http://sodipodi.sourceforge.net/DTD/sodipodi-0.dtd"
   xmlns="http://www.w3.org/2000/svg"
   xmlns:svg="http://www.w3.org/2000/svg">
  <defs
     id="defs1" />
  <sodipodi:namedview
     id="namedview1"
     pagecolor="#ffffff"
     bordercolor="#cccccc"
     borderopacity="1"
     inkscape:showpageshadow="0"
     inkscape:pageopacity="1"
     inkscape:pagecheckerboard="0"
     inkscape:deskcolor="#d1d1d1"
     inkscape:document-units="pt"
     inkscape:zoom="0.57938931"
     inkscape:cx="56.956522"
     inkscape:cy="169.14361"
     inkscape:window-width="1850"
     inkscape:window-height="1136"
     inkscape:window-x="70"
     inkscape:window-y="27"
     inkscape:window-maximized="1"
     inkscape:current-layer="svg1" />
  <metadata
     id="metadata1">
Created by potrace 1.16, written by Peter Selinger 2001-2019
</metadata>
  <g
     transform="matrix(0.05554258,0,0,-0.05554258,5.8153708,332.95437)"
     fill="#000000"
     stroke="none"
     id="g1"
     style="stroke-width:1.80042">
    <path
       d="m 5545,5220 c -22,-4 -83,-25 -135,-45 -52,-20 -133,-50 -180,-67 -89,-33 -213,-108 -309,-187 -31,-26 -66,-54 -79,-63 -12,-8 -68,-59 -123,-112 -124,-119 -260,-212 -381,-261 -73,-29 -118,-39 -218,-51 -239,-26 -302,-40 -540,-116 -123,-39 -328,-147 -433,-230 -27,-21 -79,-52 -115,-69 -37,-17 -111,-60 -164,-95 -54,-36 -122,-73 -151,-83 -28,-10 -79,-32 -112,-48 -51,-26 -286,-106 -342,-118 -10,-2 -40,-13 -66,-24 -27,-12 -55,-21 -63,-21 -8,0 -70,-18 -138,-40 l -123,-40 -215,1 c -119,1 -220,-1 -225,-4 -5,-3 -26,-8 -48,-11 -72,-10 -348,-47 -460,-61 -61,-8 -131,-18 -155,-24 -25,-5 -74,-15 -110,-20 -36,-6 -94,-22 -128,-36 -34,-14 -75,-25 -92,-25 -38,0 -70,-16 -70,-34 0,-16 -83,-95 -128,-122 -33,-19 -103,-107 -136,-172 -9,-18 -33,-51 -53,-73 -72,-80 -59,-185 31,-250 25,-17 48,-39 51,-48 16,-42 16,-138 0,-196 -10,-33 -19,-100 -21,-148 -3,-79 -1,-93 19,-122 40,-59 82,-86 143,-92 46,-5 58,-10 72,-32 26,-43 65,-81 82,-81 25,0 106,-55 131,-89 13,-17 26,-31 30,-31 4,0 16,26 26,58 24,73 57,92 158,92 136,0 218,-36 281,-124 24,-33 57,-79 73,-101 28,-38 46,-82 126,-300 33,-91 37,-114 46,-260 19,-297 19,-292 -11,-390 -16,-49 -31,-111 -34,-137 -4,-26 -15,-57 -26,-71 -38,-47 -136,-88 -338,-138 -108,-28 -202,-55 -209,-61 -7,-6 -13,-26 -13,-44 0,-26 6,-37 28,-51 15,-9 34,-25 43,-36 14,-17 28,-19 94,-19 87,1 127,8 165,27 14,7 40,16 58,20 42,9 52,-13 23,-54 -12,-16 -21,-34 -21,-39 0,-34 131,-17 184,23 18,14 37,25 42,25 5,0 31,16 58,35 36,25 53,32 62,24 10,-8 8,-19 -8,-55 -17,-39 -19,-58 -13,-137 9,-120 9,-121 55,-142 40,-18 92,-17 190,4 65,13 74,27 165,246 36,87 124,233 170,285 24,27 137,189 169,243 11,18 37,59 60,92 22,33 57,92 78,132 39,76 92,154 141,213 17,19 41,59 55,90 14,30 49,87 77,125 28,39 55,83 59,98 10,42 78,104 128,118 24,6 64,20 90,30 26,11 54,19 62,19 9,0 62,22 119,49 56,26 124,57 152,66 28,11 72,39 100,65 68,64 88,74 128,61 36,-12 209,-183 274,-271 23,-30 73,-89 113,-130 117,-121 131,-156 87,-221 -31,-46 -66,-68 -209,-128 -68,-29 -155,-66 -195,-83 -39,-16 -80,-37 -90,-47 -10,-9 -31,-25 -48,-35 -16,-11 -58,-44 -92,-74 -65,-57 -77,-86 -53,-132 9,-17 14,-17 63,-6 29,7 66,20 82,29 42,23 222,107 231,107 3,0 34,14 67,31 103,52 139,27 82,-57 -33,-49 -33,-91 0,-104 44,-17 82,-1 130,54 24,28 50,57 57,63 36,35 108,93 148,120 25,17 96,80 159,140 l 114,108 5,57 c 3,40 -2,77 -17,125 -22,74 -49,112 -157,219 -74,72 -81,85 -138,252 -46,136 -54,171 -61,287 -2,39 -8,84 -13,100 -5,17 -10,64 -11,106 -2,75 -1,79 47,165 73,132 152,257 170,272 9,6 26,12 37,12 20,0 24,-9 38,-87 9,-49 23,-137 32,-198 32,-227 77,-416 104,-435 13,-10 49,-65 101,-160 29,-52 71,-116 94,-141 22,-25 76,-91 120,-146 75,-97 173,-188 263,-245 24,-16 46,-35 49,-43 13,-33 -81,-154 -175,-226 -77,-60 -149,-135 -157,-164 -3,-12 0,-33 6,-49 9,-24 14,-27 38,-21 15,3 41,19 57,34 31,29 75,56 75,46 0,-11 -31,-52 -70,-95 -49,-53 -90,-133 -90,-175 0,-39 50,-112 86,-125 37,-14 92,-12 127,5 95,46 267,239 327,370 16,33 46,114 66,180 47,148 53,257 18,315 -12,19 -40,89 -63,154 -23,66 -57,145 -75,175 -19,31 -55,99 -80,152 -25,52 -75,139 -111,192 -35,54 -67,113 -71,133 -3,19 -1,68 5,110 6,41 11,139 11,217 0,138 29,556 51,747 7,58 9,150 5,235 -7,144 -21,202 -71,310 -13,28 -28,61 -35,75 -6,14 -18,38 -27,54 -22,41 -28,106 -13,150 26,79 202,287 355,419 87,76 287,172 440,212 165,43 279,26 398,-59 110,-78 140,-122 195,-276 57,-164 67,-268 64,-705 -1,-214 -7,-430 -13,-480 -28,-251 -34,-283 -94,-580 -19,-93 -46,-208 -60,-255 -75,-247 -86,-452 -35,-614 16,-50 41,-131 56,-181 54,-178 154,-295 240,-279 67,12 93,98 59,195 -9,24 -41,140 -71,259 -54,207 -56,218 -50,311 5,97 30,215 66,312 29,81 97,340 120,462 48,252 59,392 64,810 7,546 -8,711 -83,904 -49,125 -99,191 -231,304 -118,101 -225,159 -338,182 -85,17 -285,27 -337,15 z M 1805,1580 c 34,-23 47,-41 60,-80 19,-56 14,-96 -30,-245 -13,-44 -27,-105 -30,-135 -8,-61 -26,-102 -60,-140 -28,-31 -75,-116 -75,-135 0,-8 -14,-42 -31,-76 -22,-43 -34,-58 -42,-50 -8,8 0,39 27,108 21,54 43,123 48,153 11,67 44,225 63,300 28,113 28,151 1,204 -29,56 -40,101 -31,116 12,19 56,10 100,-20 z"
       id="path1"
       style="stroke-width:1.80042" />
  </g>
  <rect
     style="fill:none;stroke:#1a1a1a;stroke-width:1.41732;stroke-linecap:round;stroke-linejoin:round;opacity:0"
     id="rect1"
     width="373.58267"
     height="373.58267"
     x="0.70866001"
     y="0.70866001"
     ry="7.4427834" />
</svg>
