<?xml version="1.0" encoding="UTF-8" standalone="no"?>
<svg
   version="1.0"
   width="375pt"
   height="375pt"
   viewBox="0 0 375 375"
   preserveAspectRatio="xMidYMid"
   id="svg1"
   sodipodi:docname="danRer11_Ian Quigley.svg"
   inkscape:version="1.3.2 (1:1.3.2+202311252150+091e20ef0f)"
   xmlns:inkscape="http://www.inkscape.org/namespaces/inkscape"
   xmlns:sodipodi="http://sodipodi.sourceforge.net/DTD/sodipodi-0.dtd"
   xmlns="http://www.w3.org/2000/svg"
   xmlns:svg="http://www.w3.org/2000/svg">
  <defs
     id="defs1" />
  <sodipodi:namedview
     id="namedview1"
     pagecolor="#ffffff"
     bordercolor="#cccccc"
     borderopacity="1"
     inkscape:showpageshadow="0"
     inkscape:pageopacity="1"
     inkscape:pagecheckerboard="0"
     inkscape:deskcolor="#d1d1d1"
     inkscape:document-units="pt"
     inkscape:zoom="1.0147059"
     inkscape:cx="157.68116"
     inkscape:cy="349.85507"
     inkscape:window-width="1850"
     inkscape:window-height="1136"
     inkscape:window-x="70"
     inkscape:window-y="27"
     inkscape:window-maximized="1"
     inkscape:current-layer="svg1" />
  <metadata
     id="metadata1">
Created by potrace 1.16, written by Peter Selinger 2001-2019
</metadata>
  <g
     transform="matrix(0.1,0,0,-0.1,0.87082816,247.65978)"
     fill="#000000"
     stroke="none"
     id="g1">
    <path
       d="m 2175,1151 c -96,-38 -208,-97 -315,-166 l -66,-42 -155,5 C 1484,953 1139,938 940,919 839,909 472,852 459,845 456,842 411,830 359,816 307,803 217,769 158,742 72,702 48,686 35,660 9,609 12,550 45,494 82,429 194,321 252,292 387,226 619,201 1055,204 l 310,3 95,-30 c 52,-17 108,-39 125,-49 47,-29 105,-23 185,18 57,29 70,40 70,59 0,31 39,59 66,48 45,-19 211,-132 264,-180 51,-47 62,-53 101,-53 24,0 67,9 94,19 49,20 181,86 200,101 6,5 42,24 81,44 79,40 154,100 154,122 0,8 -7,26 -16,39 -32,49 -17,55 128,55 138,-1 149,-2 313,-43 294,-72 359,-81 413,-53 63,33 90,89 71,147 -13,40 -91,123 -169,181 -63,47 -100,87 -100,106 0,8 27,69 61,135 75,151 129,273 129,296 0,14 -9,16 -77,10 -69,-5 -91,-13 -193,-64 -63,-33 -144,-82 -180,-110 -36,-28 -99,-73 -140,-99 -41,-26 -91,-59 -110,-73 l -35,-25 -201,5 c -134,4 -208,10 -222,18 -19,12 -19,13 10,77 23,51 28,73 23,101 -17,93 -96,164 -190,173 -41,4 -66,-1 -140,-31 z M 3474,891 c 3,-4 -32,-16 -77,-24 -49,-10 -114,-33 -162,-56 C 3086,736 3001,708 2905,698 2639,673 1797,651 1040,651 614,650 583,651 557,669 l -28,18 27,17 c 41,28 251,32 1213,24 721,-6 884,-5 971,7 58,8 132,17 165,20 79,9 153,29 250,71 108,46 306,87 319,65 z m -49,-150 c 3,-5 -32,-21 -77,-36 -81,-26 -262,-105 -304,-132 -66,-43 -81,-43 -947,-52 -770,-7 -1255,-2 -1353,14 -30,5 -45,14 -57,35 -10,15 -17,31 -17,35 0,5 37,5 83,1 83,-7 1164,-21 1622,-21 138,0 324,6 414,13 141,11 173,16 230,41 86,37 123,49 256,82 123,31 141,33 150,20 z m 85,-104 c 0,-9 -205,-88 -278,-108 -45,-12 -98,-32 -117,-44 -24,-17 -69,-29 -163,-44 -121,-20 -183,-21 -1023,-28 -836,-6 -903,-5 -1032,12 -129,18 -137,20 -120,35 15,14 30,15 98,9 44,-5 449,-13 899,-20 730,-10 831,-9 925,4 59,9 142,19 186,22 59,5 122,21 240,62 213,72 313,102 353,102 17,1 32,-1 32,-2 z"
       id="path1" />
  </g>
  <rect
     style="fill:none;stroke:#1a1a1a;stroke-width:1.41732;stroke-linecap:round;stroke-linejoin:round;opacity:0"
     id="rect1"
     width="373.58267"
     height="373.58267"
     x="0.70866001"
     y="0.70866001"
     ry="7.4427834" />
</svg>
