<?xml version="1.0" encoding="UTF-8" standalone="no"?>
<!-- Created with Inkscape (http://www.inkscape.org/) -->

<svg
   version="1.1"
   width="132.29166mm"
   height="132.29166mm"
   viewBox="0 0 132.29165 132.29166"
   id="svg10450"
   sodipodi:docname="enhLutNer1_Margot Michaud.svg"
   inkscape:version="1.3.2 (1:1.3.2+202311252150+091e20ef0f)"
   xmlns:inkscape="http://www.inkscape.org/namespaces/inkscape"
   xmlns:sodipodi="http://sodipodi.sourceforge.net/DTD/sodipodi-0.dtd"
   xmlns="http://www.w3.org/2000/svg"
   xmlns:svg="http://www.w3.org/2000/svg">
  <sodipodi:namedview
     id="namedview1"
     pagecolor="#ffffff"
     bordercolor="#cccccc"
     borderopacity="1"
     inkscape:showpageshadow="0"
     inkscape:pageopacity="1"
     inkscape:pagecheckerboard="0"
     inkscape:deskcolor="#d1d1d1"
     inkscape:document-units="mm"
     inkscape:zoom="0.85723762"
     inkscape:cx="221.64216"
     inkscape:cy="253.13868"
     inkscape:window-width="1850"
     inkscape:window-height="1136"
     inkscape:window-x="70"
     inkscape:window-y="27"
     inkscape:window-maximized="1"
     inkscape:current-layer="svg10450" />
  <defs
     id="defs10444" />
  <g
     id="layer1"
     transform="matrix(0.83702217,0,0,0.83702217,-22.439017,-58.430969)"
     style="stroke-width:1.19471">
    <path
       d="m 39.118279,110.20936 -0.7684,0.70159 -0.6682,0.43431 -0.067,0.66817 c 0,0 -0.3341,0.53454 -0.6682,0.73499 -0.3341,0.20045 -1.303,0.60136 -1.303,0.60136 l 0.8019,0.10023 -0.4343,0.60135 c 0,0 -0.3341,0.20046 0,0.20046 0.334,0 0.4343,0.10022 0.4343,0.30067 0,0.20045 -0.1671,0.63477 -0.1671,0.63477 l -1.1693,0.56794 -0.167,0.7684 c 0,0 -0.1337,0.53454 0,0.70159 0.1336,0.16704 0.9688,0.90203 0.9688,0.90203 0,0 0.9355,0.63477 0.9355,0.7684 0,0.13364 0.067,1.23612 0,1.40317 -0.067,0.16704 -0.067,0.83521 -0.3675,1.1693 -0.3007,0.33409 -0.2005,0.80181 -0.2005,0.80181 0,0 0.067,1.36976 0.067,1.67043 0,0.30068 0.3675,1.06908 0.3675,1.30294 0,0.23386 0.1671,1.23612 0.2339,1.57021 0.067,0.33409 0.7684,5.34539 0.7684,5.34539 l -0.9021,0.80181 c 0,0 0.6348,0.0668 0.5346,0.20045 -0.1002,0.13364 -0.6682,0.90204 -0.6682,0.90204 0,0 0.8352,-0.20045 0.735,0 -0.1002,0.20045 -0.3341,0.96885 -0.5011,1.23612 -0.1671,0.26727 -0.4677,1.06908 -0.735,1.5368 -0.2673,0.46772 -0.4677,1.10248 -1.4032,1.30294 -0.9354,0.20045 -1.4365,0.10022 -0.9688,0.30068 0.4677,0.20045 0.5345,0.26726 0.8686,0.53454 0.3341,0.26726 0.2673,0.50112 -0.2339,0.50112 -0.5011,0 -0.8018,-0.23386 -0.6013,0.30068 0.2004,0.53454 0.6682,1.23612 0.6682,1.23612 0,0 0.6347,0.10023 0.6013,0.63477 -0.033,0.53454 -0.1336,1.20271 -0.1336,1.20271 0,0 -1.7707,5.51243 -1.8709,5.64607 -0.1002,0.13363 -0.5345,1.9377 -0.5345,1.9377 0,0 0.067,2.00452 -0.2673,2.07134 -0.3341,0.0668 -1.5368,0.73499 -1.5368,0.73499 l 1.0691,2.27179 c 0,0 -0.8686,0.93545 -1.2027,1.67044 -0.3341,0.73499 -1.0691,2.73951 -1.0691,2.73951 l 1.5368,0.80181 c 0,0 -0.2673,1.20271 -0.4009,1.80407 -0.1337,0.60135 -0.6682,3.0736 -0.735,3.34087 -0.067,0.26727 0.4677,0.0668 0.4677,0.53454 0,0.46772 -0.3341,1.80407 -0.3341,2.40542 0,0.60136 0,1.00226 0.067,2.40543 0.067,1.40316 0.6682,3.27405 0.6682,3.27405 0,0 0.6682,6.61492 0.8018,7.01582 0.1336,0.40091 0.6014,1.73726 0.6014,2.33861 0,0.60136 -0.067,1.87089 -0.1337,2.13816 -0.067,0.26727 -2.205,2.53906 -2.205,2.53906 0,0 -0.9354,1.13589 -1.2026,1.26953 -0.2673,0.13364 -0.8019,1.00226 -0.8019,1.00226 0,0 -0.067,0.50113 -0.1336,0.66817 -0.067,0.16705 0.1336,0.33409 0.1336,0.56795 0,0.23386 -0.3006,0.30068 0,0.56795 0.3007,0.26727 1.9043,0.46772 1.9043,0.46772 0,0 0.568,0 0.7684,-0.0668 0.2005,-0.0668 1.2027,-0.50112 1.2027,-0.50112 0,0 1.3364,0.13364 1.6705,0.13364 0.3341,0 1.2695,-0.16705 1.2695,-0.16705 0,0 1.1025,-0.50112 1.2695,-0.60135 0.1671,-0.10024 0.9689,-0.90203 0.9689,-0.90203 0,0 0.8352,0.33407 1.1359,0.26726 0.3007,-0.0668 1.9711,-0.66817 2.1716,-0.80182 0.2004,-0.13363 1.2695,-0.60135 1.4699,-0.80179 0.2005,-0.20047 0.4678,-1.06908 0.5346,-1.33635 0.067,-0.26728 0.4677,-1.33636 0.4677,-1.33636 0,0 0.8352,0.50114 0.8352,0.16705 0,-0.33409 -0.2004,-1.20271 -0.2673,-1.43657 -0.067,-0.23386 0.3007,-1.06909 0.3007,-1.40316 0,-0.33409 0,-1.03567 0,-1.03567 0,0 0.6014,-0.60136 0.6682,-0.7684 0.067,-0.16705 0.167,-0.66819 0.167,-0.66819 l 2.0046,1.26954 c 0,0 1.3363,0.70158 2.0379,0.83521 0.7016,0.13365 2.6059,0.36751 2.6059,0.36751 0,0 1.2027,0.20044 1.5702,0.26726 0.3675,0.0668 2.973299,0.50114 2.973299,0.50114 0,0 1.336402,0.83521 1.503402,0.93544 0.1671,0.10021 1.637099,0.46772 1.637099,0.46772 l 2.3052,0.53454 -1.069099,1.33635 c 0,0 -0.4343,1.00226 -0.5012,1.16929 -0.067,0.16704 0.034,1.13591 0.034,1.13591 l 0.801801,0.0334 c 0,0 -0.1671,0.33409 0,0.50114 0.167,0.16704 1.135899,0.46772 1.135899,0.46772 l 0.801801,-0.33409 c 0,0 0.801799,0.3675 0.9354,0.3675 0.133699,0 2.204998,-0.23387 2.405499,-0.30068 0.200401,-0.0668 1.236099,-0.70159 1.536801,-0.63477 0.300598,0.0668 0.901999,0.20046 1.302898,0.20046 0.400902,0 1.503402,-0.3675 1.503402,-0.3675 l 0.6013,-0.50113 c 0,0 0.734999,-0.0334 1.0023,-0.23386 0.267298,-0.20045 0.634799,-0.43431 0.634799,-0.43431 l 2.303301,-1.81842 0.425299,-0.99219 0.8504,0.33073 -0.047,-0.75595 0.755901,0.28348 v -1.22844 l 1.322898,-0.18898 0.945002,-0.56697 2.693,-0.28348 14.2043,-2.79788 9.755299,-0.60136 5.9467,-0.93544 5.4791,-0.20045 10.1135,-2.07945 10.2054,-1.22843 7.3705,-0.56696 c 0,0 5.0082,-0.28348 5.8586,-0.28348 0.8505,0 6.3311,-0.56697 6.3311,-0.56697 0,0 3.5908,1.03944 3.9688,1.13393 0.378,0.0945 4.8192,1.03944 4.8192,1.03944 l 9.2604,-0.0472 c 0,0 2.7876,0.0945 3.5908,0.14175 0.8032,0.0472 1.7481,0.37797 2.3623,0.28348 0.6142,-0.0945 1.9844,-0.66147 1.9844,-0.66147 h 0.8032 l 0.047,-0.56696 0.3779,-0.14174 -0.1417,-0.42521 -1.1339,-0.61422 -1.4647,-0.75596 1.1812,0.0945 0.378,-0.37798 v -0.75595 l -2.4096,-2.07887 -3.2128,-1.6064 c 0,0 -0.5197,-0.37798 -0.7087,-0.56696 -0.189,-0.18899 -0.2363,-0.33073 -0.047,-0.37798 0.189,-0.0473 0.9922,0.33073 0.9922,0.33073 0,0 0.189,0 0.5197,-0.0945 0.3307,-0.0945 0.378,-0.28348 0.378,-0.28348 l -0.094,-0.51972 -1.3702,-0.47247 -2.8348,-0.61421 -2.4096,-0.33073 -1.6536,-0.47247 c 0,0 -1.8899,-0.33073 -2.2206,-0.37797 -0.3308,-0.0473 -2.4569,-0.18899 -2.9293,-0.23624 -0.4725,-0.0473 -1.2285,-0.23623 -1.512,-0.23623 -0.2835,0 -0.8031,0.0472 -0.9921,0.0472 -0.189,0 -0.7088,-0.47247 -0.7088,-0.47247 0,0 -0.6614,-0.51971 -0.8977,-0.56696 -0.2362,-0.0473 -1.8898,-0.23624 -1.8898,-0.23624 0,0 -0.8505,-0.0472 -1.2285,-0.14174 -0.3779,-0.0945 -2.1261,-1.22842 -2.1261,-1.22842 l -1.7481,-0.94494 c 0,0 -1.1812,-0.18899 -1.4174,-0.33073 -0.2362,-0.14174 -1.3702,-0.33073 -1.8899,-0.37797 -0.5197,-0.0473 -1.2757,-0.18899 -1.2757,-0.18899 0,0 -1.5591,-0.70871 -1.7954,-0.85045 -0.2362,-0.14174 -2.9293,-1.18118 -2.9293,-1.18118 l -2.5985,-0.94494 c 0,0 -1.512,-0.42522 -1.6537,-0.42522 -0.1417,0 -2.3151,-0.89769 -2.3151,-0.89769 0,0 -1.1812,-0.18899 -1.5119,-0.33073 -0.3307,-0.14174 -1.3702,-0.28348 -1.6064,-0.42522 -0.2362,-0.14175 -2.3624,-0.94495 -2.7403,-1.18118 -0.378,-0.23623 -1.6064,-0.66146 -2.1262,-0.89769 -0.5197,-0.23624 -1.9371,-0.56697 -2.2678,-0.66146 -0.3307,-0.0945 -2.3624,-0.66146 -2.5986,-0.85045 -0.2362,-0.18899 -1.6064,-0.85045 -1.6064,-0.85045 l -1.8426,-0.51971 -2.7876,-0.42523 -2.2206,-0.37797 c 0,0 -3.0711,-0.75595 -3.3073,-0.8032 -0.2362,-0.0472 -2.6931,-0.56697 -3.1183,-0.66146 -0.4252,-0.0945 -1.6537,-0.14174 -1.7481,-0.33073 -0.094,-0.18899 -1.0395,-0.47247 -1.0395,-0.47247 0,0 -3.7325,-0.23623 -4.205,-0.33073 -0.4724,-0.0945 -1.3701,-0.0473 -1.6536,-0.37798 -0.2835,-0.33072 -1.8899,-1.18117 -2.126099,-1.27567 -0.236302,-0.0945 -2.0316,-0.80319 -2.362401,-0.94493 -0.3307,-0.14175 -3.5907,-1.32292 -3.5907,-1.32292 l -5.102698,-1.55915 c 0,0 -3.354602,-1.03944 -3.685302,-1.18118 -0.3307,-0.14174 -2.456799,-0.56696 -3.165499,-0.8032 -0.7088,-0.23623 -1.8899,-0.42522 -2.6459,-0.7087 -0.755901,-0.28348 -2.645801,-0.42522 -2.787602,-0.61421 -0.141698,-0.18899 -1.464598,-2.22061 -1.464598,-2.22061 l 0.755898,0.0945 -0.803198,-1.03944 c 0,0 0.566999,0.28349 0.425299,-0.0473 -0.141801,-0.33072 -1.275699,-1.60639 -1.512001,-1.88988 -0.236199,-0.28348 -0.9921,-1.60639 -0.9921,-1.60639 l -0.8977,-1.98438 c 0,0 -1.103198,-5.16646 -1.103198,-5.3335 0,-0.16704 -0.1337,-3.20723 -0.1337,-3.20723 l 2.138199,-1.77067 0.701601,-0.4009 c 0,0 0.166999,-0.66817 0.166999,-0.80181 0,-0.13363 -0.467701,-0.63476 -0.467701,-0.63476 l -1.636998,-0.50113 c 0,0 -0.4343,-1.10249 -0.5011,-1.26953 -0.067,-0.16705 0.067,-0.80181 0.067,-0.80181 0,0 -0.935498,-0.3675 -1.069099,-0.43431 -0.133699,-0.0668 -1.3364,-0.90204 -1.3364,-0.90204 0,0 -1.739101,-2.84112 -1.928101,-2.98286 -0.189,-0.14174 -1.511898,-1.22842 -1.7482,-1.46466 -0.236199,-0.23623 -0.708599,-0.75595 -0.708599,-0.75595 0,0 -2.976599,-1.32292 -3.2601,-1.5119 -0.283499,-0.18899 -2.315099,-0.85045 -2.9293,-1.18118 -0.614199,-0.33073 -3.7798,-1.18117 -3.7798,-1.18117 l -5.102603,-0.23624 c 0,0 -1.9372,0.42522 -2.2679,0.42522 -0.3307,0 -1.8899,0.75595 -1.8899,0.75595 l -1.4174,0.47248 -0.8977,1.22842 -1.6064,0.33073 c 0,0 -0.6614,0.37797 -0.8032,0.61421 -0.1417,0.23623 -0.567,0.89769 -0.6142,1.08668 -0.047,0.18899 -0.4252,0.89769 -0.4252,0.89769 z"
       id="path10407"
       style="fill:#000000;stroke:none;stroke-width:1.19471" />
  </g>
  <rect
     style="fill:none;stroke:#1a1a1a;stroke-width:0.499999;stroke-linecap:round;stroke-linejoin:round;opacity:0"
     id="rect1"
     width="131.79166"
     height="131.79166"
     x="0.24999949"
     y="0.24999949"
     ry="2.6256485" />
</svg>
