<?xml version="1.0" encoding="UTF-8" standalone="no"?>
<svg
   version="1.0"
   width="374.99997pt"
   height="374.99997pt"
   viewBox="0 0 374.99997 374.99997"
   preserveAspectRatio="xMidYMid"
   id="svg1"
   sodipodi:docname="equCab3_Jody Taylor.svg"
   inkscape:version="1.3.2 (1:1.3.2+202311252150+091e20ef0f)"
   xmlns:inkscape="http://www.inkscape.org/namespaces/inkscape"
   xmlns:sodipodi="http://sodipodi.sourceforge.net/DTD/sodipodi-0.dtd"
   xmlns="http://www.w3.org/2000/svg"
   xmlns:svg="http://www.w3.org/2000/svg">
  <defs
     id="defs1" />
  <sodipodi:namedview
     id="namedview1"
     pagecolor="#ffffff"
     bordercolor="#cccccc"
     borderopacity="1"
     inkscape:showpageshadow="0"
     inkscape:pageopacity="1"
     inkscape:pagecheckerboard="0"
     inkscape:deskcolor="#d1d1d1"
     inkscape:document-units="pt"
     inkscape:zoom="0.75804244"
     inkscape:cx="121.36524"
     inkscape:cy="497.33363"
     inkscape:window-width="1850"
     inkscape:window-height="1136"
     inkscape:window-x="70"
     inkscape:window-y="27"
     inkscape:window-maximized="1"
     inkscape:current-layer="svg1" />
  <metadata
     id="metadata1">
Created by potrace 1.16, written by Peter Selinger 2001-2019
</metadata>
  <g
     transform="matrix(-0.2074247,0,0,-0.2074247,370.41006,321.20921)"
     fill="#000000"
     stroke="none"
     id="g1"
     style="stroke-width:0.482102">
    <path
       d="m 1494,1265 c -3,-8 -31,-21 -61,-30 -31,-9 -79,-29 -107,-44 -81,-44 -88,-47 -146,-73 -30,-14 -79,-44 -108,-66 -32,-24 -69,-42 -94,-46 -22,-4 -52,-13 -67,-21 -59,-30 -119,-29 -216,4 -122,43 -204,48 -330,22 C 242,985 172,952 124,897 45,805 11,703 3,535 -2,440 1,402 14,358 23,327 30,282 30,258 l 1,-43 19,55 c 27,81 48,168 65,267 l 14,88 -5,-80 c -3,-44 -8,-96 -11,-115 -4,-24 -2,-32 5,-25 15,14 53,231 61,348 6,74 12,104 27,124 25,33 51,45 36,17 -28,-55 -23,-129 18,-264 27,-92 18,-141 -35,-193 L 191,404 V 294 c 0,-61 -5,-124 -11,-139 -9,-24 -8,-33 9,-56 12,-16 18,-35 15,-44 -10,-24 15,-45 52,-45 19,0 34,2 34,4 0,2 -12,27 -26,55 -22,41 -27,65 -28,133 -1,76 2,88 30,138 20,35 54,73 93,103 l 61,49 v -35 c 0,-19 -5,-47 -10,-63 -9,-26 -5,-39 34,-108 25,-43 48,-91 51,-106 3,-15 17,-38 31,-50 13,-13 24,-33 24,-45 0,-29 19,-45 52,-45 36,0 38,27 4,67 -13,15 -28,44 -35,64 -6,20 -21,45 -32,55 -62,56 -63,143 -5,249 20,35 39,84 42,109 4,25 8,46 9,46 1,0 30,-11 64,-26 45,-18 96,-28 175,-35 61,-5 125,-13 141,-17 l 30,-8 8,-110 c 4,-60 9,-156 11,-213 3,-94 5,-106 24,-119 17,-11 20,-20 15,-44 -7,-35 7,-48 51,-48 26,0 28,2 21,27 -3,15 -18,53 -32,83 -37,80 -39,117 -12,246 l 23,116 12,-71 c 7,-40 20,-83 29,-98 9,-14 21,-57 27,-96 7,-51 15,-75 29,-85 10,-7 19,-24 19,-37 0,-28 26,-45 69,-45 39,0 39,10 1,54 -61,69 -81,142 -99,366 l -8,94 33,31 c 25,24 34,42 38,80 7,52 13,65 60,136 16,24 41,73 56,108 15,37 38,73 53,85 l 28,20 42,-21 c 23,-12 61,-26 84,-32 29,-8 51,-23 69,-46 29,-38 56,-44 91,-20 37,26 35,51 -10,107 -23,28 -58,71 -77,96 l -34,45 29,-6 c 27,-6 28,-5 11,6 -11,6 -33,24 -49,38 -26,22 -28,28 -18,47 9,18 9,22 -2,22 -8,0 -20,-6 -27,-14 -15,-19 -40,-9 -40,15 0,22 -18,25 -26,4 z"
       id="path1"
       style="stroke-width:0.482102" />
  </g>
  <rect
     style="fill:none;stroke:#1a1a1a;stroke-width:1.41732;stroke-linecap:round;stroke-linejoin:round;opacity:0"
     id="rect1"
     width="373.58264"
     height="373.58264"
     x="0.70866001"
     y="0.70866001"
     ry="7.4427834" />
</svg>
