<?xml version="1.0" encoding="UTF-8" standalone="no"?>
<!-- Created with Inkscape (http://www.inkscape.org/) -->

<svg
   version="1.1"
   width="499.99994"
   height="499.99994"
   viewBox="0 0 499.99994 499.99994"
   id="Layer_1"
   xml:space="preserve"
   sodipodi:docname="felCat9_David Orr.svg"
   inkscape:version="1.3.2 (1:1.3.2+202311252150+091e20ef0f)"
   xmlns:inkscape="http://www.inkscape.org/namespaces/inkscape"
   xmlns:sodipodi="http://sodipodi.sourceforge.net/DTD/sodipodi-0.dtd"
   xmlns="http://www.w3.org/2000/svg"
   xmlns:svg="http://www.w3.org/2000/svg"><sodipodi:namedview
   id="namedview1"
   pagecolor="#ffffff"
   bordercolor="#cccccc"
   borderopacity="1"
   inkscape:showpageshadow="0"
   inkscape:pageopacity="1"
   inkscape:pagecheckerboard="0"
   inkscape:deskcolor="#d1d1d1"
   inkscape:zoom="0.5760238"
   inkscape:cx="251.72571"
   inkscape:cy="204.85265"
   inkscape:window-width="1850"
   inkscape:window-height="1136"
   inkscape:window-x="70"
   inkscape:window-y="27"
   inkscape:window-maximized="1"
   inkscape:current-layer="Layer_1" /><defs
   id="defs7" />
    
    <path
   d="m 129.91818,431.74153 c 7.20826,4.48717 95.75695,-0.47121 145.75779,-0.47121 31.48791,0 122.64441,1.88812 183.96579,13.20921 40.28001,7.43593 38.67975,-27.3603 8.49055,-28.30272 -53.82306,-1.68016 -91.23367,-8.81125 -105.66277,-11.32109 -21.69812,-3.77406 -75.47302,-1.88648 -81.13357,0 -5.66054,1.88593 -14.14999,-5.66109 -10.37702,-15.0957 3.77296,-9.43406 42.90149,-173.72121 -112.26739,-216.04203 -20.7546,-5.66055 -18.86921,-16.03757 -25.47217,-23.5846 -6.60297,-7.54703 -20.75461,-14.15274 -20.75461,-21.69976 0,-7.54703 6.60297,-67.925447 -4.71757,-72.642476 -11.321642,-4.716482 -31.132732,27.358662 -35.849212,28.302177 -4.71703,0.944063 -19.81327,0.944063 -26.41679,-2.829999 -6.60242,-3.774061 -27.35866,-30.190302 -33.01866,-26.416241 -5.6610903,3.774062 -0.94296,31.132723 -1.88648,34.906785 -0.9435203,3.774061 -1.7633403,10.668724 0.94242,16.981634 5.66109,13.20703 -4.7175803,33.96437 8.49164,46.22733 6.37365,5.91777 23.58734,28.30272 18.86921,50.00084 -4.71812,21.69757 -4.71812,45.28546 7.54648,60.37951 12.26516,15.09351 33.01976,55.66029 24.52812,75.47247 -8.49055,19.81164 -16.03757,48.11546 -18.86757,60.37842 -2.83055,12.26351 -27.36031,29.24514 -23.58624,34.90569 3.77406,5.66054 27.35975,7.54812 35.8503,4.71758 8.49163,-2.83 9.43351,-11.32109 13.20757,-15.09461 3.77406,-3.77406 15.09406,-48.11436 30.189212,-59.43545 10.37867,4.71594 4.55777,21.64996 16.98163,35.84921 6.60406,7.54976 -19.81218,16.03976 5.18934,31.60503 z"
   id="path3"
   style="stroke-width:1" />
    
<rect
   style="fill:none;stroke:#1a1a1a;stroke-width:1.88976;stroke-linecap:round;stroke-linejoin:round;opacity:0"
   id="rect1"
   width="498.11017"
   height="498.11017"
   x="0.94488001"
   y="0.94488001"
   ry="9.9237108" /></svg>
