<?xml version="1.0" encoding="UTF-8" standalone="no"?>
<!-- Created with Inkscape (http://www.inkscape.org/) -->

<svg
   version="1.1"
   width="499.99994"
   height="499.99994"
   viewBox="0 0 499.99993 499.99994"
   id="Layer_1"
   xml:space="preserve"
   sodipodi:docname="galGal6_Steven Traver.svg"
   inkscape:version="1.3.2 (1:1.3.2+202311252150+091e20ef0f)"
   xmlns:inkscape="http://www.inkscape.org/namespaces/inkscape"
   xmlns:sodipodi="http://sodipodi.sourceforge.net/DTD/sodipodi-0.dtd"
   xmlns="http://www.w3.org/2000/svg"
   xmlns:svg="http://www.w3.org/2000/svg"><sodipodi:namedview
   id="namedview1"
   pagecolor="#ffffff"
   bordercolor="#cccccc"
   borderopacity="1"
   inkscape:showpageshadow="0"
   inkscape:pageopacity="1"
   inkscape:pagecheckerboard="0"
   inkscape:deskcolor="#d1d1d1"
   inkscape:zoom="0.7617004"
   inkscape:cx="45.949825"
   inkscape:cy="401.73275"
   inkscape:window-width="1850"
   inkscape:window-height="1136"
   inkscape:window-x="70"
   inkscape:window-y="27"
   inkscape:window-maximized="1"
   inkscape:current-layer="Layer_1" /><defs
   id="defs19">
        
        
        
    
            
            
            
            
            
            
            
            
            
            
            
        </defs>
    
    <path
   d="m 472.97354,260.00519 c 0,0.85549 0,1.7086 0,2.5629 -0.37613,0.004 -0.26104,0.49953 -0.56954,0.56954 -4.98817,-2.2556 -8.30097,-6.94595 -11.3907,-11.10593 -3.22736,-4.34627 -6.0608,-9.198 -9.39733,-13.38408 -4.67256,-5.86146 -11.13797,-10.37266 -15.66221,-16.51652 -4.65951,-6.32658 -8.28674,-12.82403 -13.09931,-19.07942 7.42294,25.28024 21.68861,61.77794 7.97349,90.55608 -3.60824,-48.50541 -21.83217,-82.39037 -44.13778,-112.19841 2.03016,3.69248 0.74633,7.5499 0.28358,11.67547 -0.49122,4.39491 0.52326,9.0473 0,13.38407 -0.1756,1.46299 -1.01448,2.81801 -1.13907,4.27151 -0.2729,3.21076 1.28146,7.39803 1.42384,10.82117 0.27765,6.67543 0.70124,15.91495 -1.42384,21.0728 -1.8142,4.40677 -4.97394,9.06628 -4.84105,13.38407 0.0997,3.21075 1.95897,5.45449 2.27814,7.97349 1.10229,8.70677 -5.02614,8.21317 -7.11918,13.38408 -0.40698,1.00617 -0.43665,3.06481 -0.85431,5.12581 -0.32629,1.61368 -1.06076,3.27008 -1.42383,4.83986 -0.63954,2.76106 -0.24799,5.35482 -0.56835,8.25826 -0.16018,1.44045 -0.9516,2.65546 -1.13907,3.98675 -0.2729,1.9376 0.27053,4.08997 0,5.98012 -0.98245,6.87832 -6.85815,9.83397 -11.39189,13.95361 -2.47985,6.63271 -5.59568,12.63062 -8.25826,19.07942 -0.66446,-4.08167 -0.0949,-9.39614 -0.28477,-13.95361 -2.10728,0.45682 -5.45923,2.13338 -7.68753,3.41721 -1.02398,5.22074 -1.43333,10.99084 -3.98675,15.09268 -1.05127,1.68962 -2.71122,2.67444 -3.70198,4.2727 -3.08023,4.96801 -4.21456,11.85819 -9.68091,13.66884 1.64098,-7.0919 2.60207,-14.86249 2.56172,-23.6357 -3.4267,6.79052 -3.71621,17.45506 -11.10474,20.21849 2.08117,-6.6244 4.07811,-14.62281 3.13244,-23.35094 -2.31967,9.26088 -4.30236,18.85873 -11.96024,22.78141 0.23494,-3.88945 1.63386,-6.59949 1.70861,-10.25282 0.18747,-9.07578 -7.03257,-18.39361 -2.56291,-25.91385 -2.62342,0.0368 -6.31116,1.4713 -9.6821,1.70861 7.20106,14.02955 0.92431,33.79597 -2.84767,46.98664 -0.97177,-0.26222 -0.88159,-1.5852 -1.13907,-2.56291 -1.72047,2.74208 -3.5501,5.37262 -6.54965,6.83561 -0.55411,-13.87411 -0.42122,-28.43641 -5.98012,-37.30455 -1.88421,1.37401 -2.14169,4.00455 -3.98675,5.98012 -1.86285,1.99575 -4.04844,2.64003 -4.55628,5.69535 -0.26104,1.57334 0.28477,2.9604 0.28477,4.55628 0,7.04681 -2.16542,13.72461 -5.12582,18.79585 -7.25445,-2.52257 -5.20768,-14.34754 -6.83442,-22.49782 -1.9993,1.42027 -4.46136,4.84104 -7.40395,6.26488 1.02516,2.83581 5.2148,13.30339 0.56953,13.95361 -3.13956,0.4402 -3.23923,-4.42932 -6.26488,-5.12463 -1.68488,-0.38681 -2.34103,0.50072 -4.84105,0.8543 0.0759,1.55555 2.26746,5.49602 0.56953,7.97349 -1.77505,1.35858 -5.16734,1.09755 -7.68872,1.70861 1.65521,5.2326 1.52113,13.35441 -5.12582,12.81454 -3.45636,5.65738 -6.33133,11.89379 -13.38407,13.95361 -1.98269,10.642 -5.24328,24.20049 -7.68872,35.88071 -0.52326,2.50121 -2.72191,10.11399 -1.99338,12.53096 0.89346,2.96039 5.74044,2.10372 8.25826,2.27814 -1.26959,3.04464 -5.4355,3.91436 -9.11256,3.70197 -1.60775,3.62367 0.12933,7.90824 1.42384,10.5364 2.75275,5.59094 8.4042,9.97992 11.10593,15.09268 -1.39655,-0.88159 -3.12176,-1.43451 -4.27151,-2.56291 -2.8987,3.92861 -5.81875,-0.79023 -7.11919,-3.41721 -2.76818,6.91392 -11.00508,8.35912 -18.79465,10.25164 -0.0356,-1.17348 0.49478,-1.78217 0.28476,-3.13245 -3.6996,0.57191 -6.39421,2.14881 -11.10593,1.70861 -0.13408,-2.99837 -1.05482,-5.21125 -1.99337,-7.40396 -1.3918,1.6742 0.30256,4.43288 0,6.83442 -1.98507,2.10728 -4.97038,1.17942 -7.11919,1.99338 -1.95422,0.74039 -2.58308,2.84767 -3.98674,3.41839 -2.04914,0.83057 -3.67588,-0.39986 -5.69536,0 -2.17372,0.42953 -2.88683,3.11939 -4.55628,3.98556 -2.57002,-1.9115 -8.00434,0.1234 -9.39732,2.84768 -0.0949,0 -0.18985,0 -0.28477,0 0.80565,-2.72547 2.3434,-7.13699 7.11919,-6.83442 -0.91482,-2.14051 -3.295,-3.61299 -5.69535,-3.4184 -1.52707,0.12458 -2.12508,1.84506 -4.27152,2.56291 -1.93642,0.64784 -4.28456,-0.25273 -6.54965,0 -3.24872,0.36426 -6.05368,3.13956 -9.11256,0.28476 -1.90794,0.65734 -3.47773,3.1633 -5.12582,3.13245 -0.13645,-3.27008 2.8109,-5.78316 5.41059,-6.54966 0.96227,-0.28358 2.07287,0.229 3.13244,0 0.458,-0.0997 0.94922,-0.98482 1.42384,-1.13907 2.29475,-0.74632 5.29193,-0.44732 7.97349,-1.13907 2.57477,-0.66564 7.63651,-2.47391 11.67547,-1.99337 -0.5114,-1.99574 -3.17042,-2.3695 -6.83442,-2.84767 -2.96159,-0.38681 -6.17709,-2.43833 -8.8278,0 -0.39037,-3.06481 3.39941,-4.20389 5.69535,-4.27152 0.8199,-0.0249 1.77149,0.86142 2.56291,0.85431 0.98363,-0.008 1.50215,-0.91601 2.27814,-0.85431 1.35027,0.10798 2.88802,1.23637 4.55628,1.70742 2.33747,0.66209 4.79121,0.72853 6.83442,1.13907 1.59826,0.32155 2.56172,1.16873 4.27151,0.8543 3.95353,-0.72734 8.97493,-9.48275 11.10594,-13.38288 2.9948,-5.48415 5.05818,-11.5675 7.40395,-16.80129 2.45968,-5.48771 4.80783,-11.28273 6.83442,-17.65559 3.05888,-9.61802 6.09996,-19.5125 3.70198,-31.32442 -16.41091,-10.16739 -33.4495,-19.70592 -44.42373,-35.31118 -11.20679,-5.80451 -22.62953,-13.31407 -32.4635,-21.64233 C 106.05532,333.37198 98.372529,323.30545 90.248348,312.68837 82.95474,303.15696 74.429511,292.37376 66.89741,281.93347 59.4982,271.6771 52.006441,259.53888 50.950428,244.05939 c -0.322737,-4.72951 0.473426,-8.08621 1.423837,-11.67547 0.484105,-1.82844 1.560289,-3.83368 1.708606,-5.69535 0.303752,-3.80046 -1.413159,-8.651 -1.993373,-13.0993 -1.750134,-13.42323 -3.660449,-27.20717 -1.423838,-41.57607 2.74682,-17.6449 6.687291,-32.57384 12.814539,-47.55617 -10.328756,0.73802 -14.269226,-6.41677 -19.933727,-12.81454 -3.667569,-4.13981 -8.637949,-8.22741 -9.400888,-12.246194 -2.269835,-11.963796 7.640075,-15.011995 8.543026,-24.490008 -4.71053,0.01543 -10.840151,1.012111 -15.662215,1.13907 0,-0.37969 0,-0.75938 0,-1.13907 C 29.435054,70.0071 33.057534,66.31936 38.417097,64.369889 35.81266,61.79037 30.81499,60.882673 29.874071,56.396401 c -1.230434,-5.86503 0.749887,-12.01245 1.993372,-16.80129 -0.494783,-1.4179 -2.407472,-4.01522 -1.708605,-5.98012 0.574281,-1.61486 1.769118,-0.91007 2.847675,-1.7086 -0.436643,-1.23162 -1.560288,-4.30711 -0.284767,-5.41058 3.344832,-0.11628 5.339391,2.63172 7.688723,2.5629 -1.167547,-3.78147 -6.378792,-7.38853 -3.986745,-11.96023 3.407718,1.84268 6.902053,5.02733 9.397329,7.68872 0.743955,0.7926 1.66589,2.34696 2.562907,1.99337 -0.207643,-8.4303 -4.106585,-13.16931 -3.701978,-22.2118596 7.535661,4.23473 8.852711,14.6880696 14.807912,20.5032596 0.804468,-4.02709 1.877093,-7.19869 3.417211,-11.3907 0.932613,-2.53681 1.51876,-10.6455596 5.410583,-9.6820996 3.131256,0.77481 1.470112,7.3719196 1.13907,10.2516296 -0.511395,4.44 -0.888712,7.49769 -1.423838,11.10594 2.10728,-0.26816 2.37425,-4.83868 4.841048,-5.69535 1.938793,0.34053 1.377563,3.17871 2.847676,3.98674 3.062437,-4.44237 6.649322,-9.86126 11.105934,-11.96023 0.550551,2.35763 0.0083,5.54822 0,7.11918 1.281454,0.617 3.845548,-0.0486 5.125816,0.56954 1.220941,1.40129 0.586146,2.89988 1.993372,5.12581 1.040589,1.64691 3.329408,2.2295 3.701978,4.27152 0.271716,1.48316 -0.925494,3.5584 -0.854302,5.41058 0.110347,2.87496 2.116772,4.32609 1.708605,6.54965 -0.957531,5.21481 -9.021198,3.90132 -14.238377,5.41059 14.086501,5.48889 24.13405,16.351585 33.03303,27.622447 8.93696,11.320696 16.49754,24.367795 22.78141,37.874082 12.8798,27.68534 21.73607,60.22833 21.64233,99.95341 22.03626,1.97913 38.21817,9.8138 56.38515,15.66221 4.69748,-16.90926 8.95476,-33.26203 14.80792,-47.84095 3.01972,-7.5226 6.48914,-14.41991 11.3907,-19.93372 9.63701,-10.84134 21.66725,-20.43089 34.45687,-28.19199 6.70627,-4.0698 13.46594,-7.76585 22.21305,-9.11256 17.01842,-2.61868 39.25402,-2.22949 57.23709,1.99337 16.73009,3.92861 29.67397,11.52834 41.00771,21.64234 32.93337,29.39512 59.79288,67.09241 73.75361,114.19178 z m -286.47733,197.3439 c 2.06101,1.52113 5.0392,0.25036 7.97349,0.28477 -3.03752,3.13363 -7.6199,4.72121 -11.96023,6.55084 -1.49266,3.8491 0.11272,8.55251 1.13907,11.67547 4.41152,-1.37875 8.35436,-3.22737 12.52977,-4.84105 2.29119,-13.18118 5.4794,-26.9841 5.41058,-41.57606 -4.83867,9.49343 -10.59454,18.07087 -15.09268,27.90603 z"
   id="path9"
   style="fill-rule:evenodd;stroke-width:1" />
    
<rect
   style="fill:none;stroke:#1a1a1a;stroke-width:1.88976;stroke-linecap:round;stroke-linejoin:round;opacity:0"
   id="rect1"
   width="498.11017"
   height="498.11017"
   x="0.94488001"
   y="0.94488001"
   ry="9.9237108" /></svg>
