<?xml version="1.0" encoding="UTF-8" standalone="no"?>
<svg
   version="1.0"
   width="374.99997pt"
   height="374.99997pt"
   viewBox="0 0 374.99997 374.99997"
   preserveAspectRatio="xMidYMid"
   id="svg1"
   sodipodi:docname="gorGor6_Margot Michaud.svg"
   inkscape:version="1.3.2 (1:1.3.2+202311252150+091e20ef0f)"
   xmlns:inkscape="http://www.inkscape.org/namespaces/inkscape"
   xmlns:sodipodi="http://sodipodi.sourceforge.net/DTD/sodipodi-0.dtd"
   xmlns="http://www.w3.org/2000/svg"
   xmlns:svg="http://www.w3.org/2000/svg">
  <defs
     id="defs1" />
  <sodipodi:namedview
     id="namedview1"
     pagecolor="#ffffff"
     bordercolor="#cccccc"
     borderopacity="1"
     inkscape:showpageshadow="0"
     inkscape:pageopacity="1"
     inkscape:pagecheckerboard="0"
     inkscape:deskcolor="#d1d1d1"
     inkscape:document-units="pt"
     inkscape:zoom="0.84873418"
     inkscape:cx="345.21999"
     inkscape:cy="181.44668"
     inkscape:window-width="1850"
     inkscape:window-height="1136"
     inkscape:window-x="70"
     inkscape:window-y="27"
     inkscape:window-maximized="1"
     inkscape:current-layer="svg1" />
  <metadata
     id="metadata1">
Created by potrace 1.16, written by Peter Selinger 2001-2019
</metadata>
  <g
     transform="matrix(-0.04635549,0,0,-0.04635549,359.40424,370.61249)"
     fill="#000000"
     stroke="none"
     id="g1"
     style="stroke-width:2.15724">
    <path
       d="m 5630,7886 c -14,-7 -45,-23 -70,-36 -25,-13 -74,-47 -110,-75 -36,-28 -99,-77 -141,-108 -41,-31 -159,-135 -261,-230 -103,-94 -207,-189 -231,-209 -32,-27 -50,-52 -61,-85 -15,-43 -29,-57 -121,-128 -86,-64 -129,-108 -233,-233 -70,-84 -134,-165 -142,-180 -8,-15 -17,-62 -20,-106 l -5,-78 -80,-46 c -44,-24 -118,-75 -165,-112 -130,-102 -169,-126 -303,-184 -68,-30 -150,-71 -181,-91 -35,-22 -139,-65 -269,-110 -116,-40 -248,-91 -292,-112 l -80,-38 h -145 l -145,1 -83,37 c -122,56 -197,67 -459,67 -234,0 -597,-14 -766,-30 -87,-8 -109,-14 -185,-53 -48,-24 -152,-76 -231,-116 C 734,5572 690,5543 616,5478 488,5366 467,5340 403,5220 372,5162 314,5054 274,4980 186,4817 137,4694 116,4580 95,4470 25,3941 10,3780 -1,3666 1,3621 29,3270 c 41,-492 47,-560 65,-645 8,-38 19,-128 24,-199 10,-124 12,-133 55,-220 l 45,-91 -26,-245 c -31,-298 -33,-557 -8,-900 24,-341 57,-550 101,-647 28,-61 60,-85 195,-144 97,-42 389,-115 555,-138 44,-7 125,-19 180,-28 134,-22 503,-12 549,15 38,22 68,63 69,96 2,22 7,26 32,26 17,0 35,4 42,8 19,12 33,60 33,115 0,47 -6,61 -64,148 -35,52 -98,129 -139,171 -73,74 -75,77 -87,146 -8,52 -9,80 -1,104 12,38 67,419 107,743 28,232 27,282 -8,480 -10,60 -10,61 125,535 74,262 147,505 161,540 15,36 30,84 33,108 3,23 10,42 15,42 6,0 107,-32 227,-70 208,-68 226,-72 466,-105 469,-64 677,-76 930,-55 168,14 210,25 258,64 23,18 78,57 122,86 44,29 150,117 235,195 85,78 209,181 275,230 254,188 405,295 414,295 10,0 27,-73 61,-273 32,-182 25,-221 -62,-350 -22,-32 -62,-108 -89,-170 -28,-62 -68,-142 -91,-180 -99,-165 -97,-195 57,-875 154,-685 143,-645 238,-842 104,-216 134,-291 154,-385 l 16,-74 -36,-53 c -52,-75 -50,-108 9,-162 43,-40 46,-45 49,-104 2,-35 7,-67 10,-72 7,-11 143,-64 223,-86 57,-16 68,-16 174,0 233,35 350,44 385,29 53,-21 92,-17 122,15 87,94 115,186 88,295 -9,34 -21,98 -27,143 l -12,81 96,318 c 53,175 101,348 106,384 5,36 26,173 46,305 l 37,238 -22,167 c -14,113 -27,320 -41,651 -10,267 -22,537 -25,601 -4,85 -2,135 10,191 8,42 27,157 41,255 l 25,178 -7,580 -7,579 29,-18 c 16,-10 44,-30 62,-44 27,-19 46,-24 90,-24 32,0 98,-5 148,-10 88,-10 92,-9 165,20 41,16 100,37 131,46 89,26 148,103 148,194 0,14 23,75 52,136 l 51,111 -12,75 c -15,87 -71,241 -105,285 -51,66 -134,142 -187,172 -53,30 -56,34 -63,79 -3,26 -6,86 -6,135 v 88 l 35,26 c 37,29 52,74 41,122 -4,16 -37,57 -76,94 -51,48 -75,80 -90,120 -40,102 -127,243 -182,295 -87,82 -193,147 -286,175 -28,8 -48,21 -57,38 -15,30 -130,143 -190,188 -62,46 -416,258 -454,271 -45,16 -120,15 -151,-2 z"
       id="path1"
       style="stroke-width:2.15724" />
  </g>
  <rect
     style="fill:none;stroke:#1a1a1a;stroke-width:1.41732;stroke-linecap:round;stroke-linejoin:round;opacity:0"
     id="rect1"
     width="373.58264"
     height="373.58264"
     x="0.70866001"
     y="0.70866001"
     ry="7.4427834" />
</svg>
