<?xml version="1.0" encoding="UTF-8" standalone="no"?>
<!-- Created with Inkscape (http://www.inkscape.org/) -->

<svg
   version="1.2"
   width="499.99994"
   height="499.99994"
   viewBox="0 0 499.99996 499.99994"
   id="svg2"
   xml:space="preserve"
   sodipodi:docname="hg38_T. Michael Keesey.svg"
   inkscape:version="1.3.2 (1:1.3.2+202311252150+091e20ef0f)"
   xmlns:inkscape="http://www.inkscape.org/namespaces/inkscape"
   xmlns:sodipodi="http://sodipodi.sourceforge.net/DTD/sodipodi-0.dtd"
   xmlns="http://www.w3.org/2000/svg"
   xmlns:svg="http://www.w3.org/2000/svg"><sodipodi:namedview
   id="namedview1"
   pagecolor="#ffffff"
   bordercolor="#cccccc"
   borderopacity="1"
   inkscape:showpageshadow="0"
   inkscape:pageopacity="1"
   inkscape:pagecheckerboard="0"
   inkscape:deskcolor="#d1d1d1"
   inkscape:zoom="0.827426"
   inkscape:cx="116.02246"
   inkscape:cy="165.57372"
   inkscape:window-width="1850"
   inkscape:window-height="1136"
   inkscape:window-x="70"
   inkscape:window-y="27"
   inkscape:window-maximized="1"
   inkscape:current-layer="svg2" /><defs
   id="defs24" />
    
    
    
    
    
    
    
    
    
    
    
    <g
   id="g1"
   transform="matrix(1.2937021,0,0,1.2937021,159.95765,2.9028635)"
   style="stroke-width:0.772976"><g
     id="Layer_6"
     style="stroke-width:0.772976">
        
        <path
   d="m 105.9,161.45 c 3.666,3.767 5.5,8.75 5.5,14.95 0,2.7 -0.684,6.033 -2.05,10 -2.101,6.134 -5.284,10.85 -9.551,14.15 -2.166,1.666 -4.783,6.149 -7.85,13.449 -1.467,3.4 -3.95,9.884 -7.45,19.45 -3.533,9.601 -7.283,19.717 -11.25,30.351 -2.233,6.366 -3.35,11.267 -3.35,14.699 0,2.233 0.467,4.767 1.399,7.601 0.934,2.8 1.4,6.133 1.4,10 0,3.833 -3.05,13.967 -9.15,30.399 -6.133,16.4 -9.199,25.184 -9.199,26.351 0,2.166 -0.233,5.166 -0.7,9 -0.467,3.833 -0.7,7.017 -0.7,9.55 0,4.7 -0.2,7.35 -0.6,7.95 -0.667,1.033 -3.084,1.55 -7.25,1.55 -0.867,0 -2.15,-0.25 -3.851,-0.75 -1.733,-0.5 -3.066,-0.75 -4,-0.75 -0.1,0 -1.833,0.434 -5.2,1.3 -3.333,0.867 -7.417,1.3 -12.25,1.3 -4.467,0 -8.033,-0.366 -10.7,-1.1 -1.933,-0.733 -3.25,-1.1 -3.95,-1.1 -0.333,0 -0.784,0.133 -1.35,0.399 -0.567,0.233 -1.017,0.351 -1.35,0.351 -0.567,0 -1.1,-0.217 -1.6,-0.65 C 0.284,379.4 0,378.817 0,378.15 c 0,-0.4 1.833,-1.184 5.5,-2.35 7.633,-2.4 11.767,-3.7 12.4,-3.9 12.3,-4.167 19.133,-8.3 20.5,-12.4 1.433,-4.233 3.117,-16.083 5.05,-35.55 1.767,-18.033 2.65,-30.1 2.65,-36.2 0,-0.866 -0.301,-2.449 -0.9,-4.75 -0.6,-2.333 -0.9,-3.933 -0.9,-4.8 0,-1.733 0.434,-3.033 1.301,-3.899 0.866,-0.867 1.3,-1.75 1.3,-2.65 0,-0.733 -0.233,-2.816 -0.7,-6.25 -0.5,-3.467 -0.75,-5.8 -0.75,-7 0,-7.6 1.366,-16 4.1,-25.2 4.434,-13.5 8.351,-26.3 11.75,-38.399 2.2,-7.767 3.584,-12.551 4.15,-14.351 1.7,-5.1 3.517,-9.217 5.45,-12.35 4.934,-7.934 12.35,-11.9 22.25,-11.9 5.066,-0.001 9.316,1.749 12.749,5.249 z"
   id="path5"
   style="fill-rule:evenodd;stroke-width:0.772976" />
        
    </g><g
     id="Layer_5"
     style="stroke-width:0.772976">
        
        <path
   d="m 96.15,251.55 c 0.333,1 0.8,2.216 1.399,3.649 1.034,3.233 1.717,6.3 2.051,9.2 0.1,0.3 0.216,0.684 0.35,1.15 0.066,0.466 0.1,1.466 0.1,3 -0.033,1.399 0.051,2.483 0.25,3.25 0.067,0.3 0.517,1.35 1.351,3.149 0.767,1.7 1.2,2.634 1.3,2.8 0.1,0.634 0.233,1.65 0.4,3.051 0.166,1.199 0.483,2.216 0.949,3.05 0.767,1.5 1.884,3.399 3.351,5.7 0.033,0.1 0.116,0.233 0.25,0.399 h 0.05 c 1.7,2.566 2.767,4.2 3.2,4.9 0.967,1.5 2.066,4.133 3.3,7.899 1.267,3.801 2.7,8.801 4.3,15 l 0.45,0.051 v 0.1 c 0.033,1.4 0.083,2.15 0.15,2.25 0.399,1.767 1.133,3.616 2.199,5.55 l 3,13 c 0.534,0.834 0.934,1.867 1.2,3.101 0.167,0.666 0.283,1.416 0.351,2.25 0,0.166 0,0.35 0,0.55 0.133,0.166 0.233,0.434 0.3,0.8 0.166,0.333 0.383,0.967 0.649,1.9 0.301,0.699 0.634,1.316 1,1.85 1.267,2.033 2.017,3.267 2.25,3.7 0.767,1.434 1.301,2.733 1.601,3.899 0.166,0.733 1.399,3.334 3.7,7.801 0.399,0.699 0.783,1.399 1.149,2.1 1.566,2.4 2.351,3.767 2.351,4.1 0,0.267 0.033,0.551 0.1,0.851 v 0.05 c -0.066,0.066 -0.066,0.167 0,0.3 -0.066,0.134 -0.116,0.316 -0.15,0.55 -0.1,0.334 -0.183,0.65 -0.25,0.95 -0.633,1.134 -1.983,1.7 -4.05,1.7 -1.5,-0.033 -3.1,-0.217 -4.8,-0.55 -1.767,-0.334 -3.566,-0.5 -5.4,-0.5 -0.1,0 -4.767,0.833 -14,2.5 -6.366,0 -10.8,-0.334 -13.3,-1 -1.533,-0.733 -2.75,-1.084 -3.649,-1.05 -0.233,-0.034 -0.617,0.1 -1.15,0.399 -0.6,0.2 -1,0.3 -1.2,0.3 -0.866,0 -1.717,-0.333 -2.55,-1 -0.833,-0.666 -1.25,-1.183 -1.25,-1.55 -0.033,-1.233 1.8,-2.233 5.5,-3 6.1,-1.399 9.3,-2.149 9.6,-2.25 0.301,-0.133 2.5,-1.083 6.601,-2.85 1.934,-0.967 3.45,-1.65 4.55,-2.05 0,-0.034 0.033,-0.067 0.1,-0.101 1.267,-1.233 1.733,-2.7 1.4,-4.399 -0.233,-2.767 -0.616,-5.417 -1.15,-7.95 -0.466,-2 -1.517,-4.983 -3.149,-8.95 -0.233,-0.634 -0.467,-1.184 -0.7,-1.65 -1,-2.233 -1.767,-4.033 -2.3,-5.399 -1.267,-1.467 -2.783,-3.75 -4.55,-6.851 -5.101,-4.6 -9.284,-9.85 -12.551,-15.75 -1.866,-3.3 -3.133,-6.216 -3.8,-8.75 -0.166,-0.433 -0.267,-0.833 -0.3,-1.199 -0.533,-2.2 -0.85,-4.301 -0.95,-6.301 -0.133,-2.066 -0.35,-3.8 -0.649,-5.199 -0.034,-0.034 -0.034,-0.067 0,-0.101 H 85.05 c -0.533,-2.133 -1.933,-4.434 -4.199,-6.899 -2.4,-2.601 -3.75,-4.617 -4.051,-6.051 -0.333,-1.5 -0.483,-2.616 -0.449,-3.35 -0.034,-0.533 -0.051,-1.2 -0.051,-2 -0.5,-0.634 -0.966,-1.267 -1.399,-1.9 -3.667,-5.1 -6.334,-9.333 -8,-12.699 -2.8,-5.567 -4.566,-9.601 -5.3,-12.101 -0.2,-0.6 -0.917,-3.783 -2.15,-9.55 -1.6,-4.434 -2.767,-8.333 -3.5,-11.7 l -4.65,-21.2 c -0.199,-0.8 -0.733,-2.466 -1.6,-5 -0.833,-2.399 -1.25,-3.616 -1.25,-3.649 -0.434,-2.066 -0.583,-4.45 -0.45,-7.15 0.233,-3.399 0.95,-5.517 2.15,-6.35 -0.066,0.166 -0.134,0.467 -0.2,0.899 0.467,-0.699 1.15,-1.649 2.05,-2.85 1.467,-2.267 2.884,-4.1 4.25,-5.5 4.467,-4.7 10.217,-7.75 17.25,-9.15 1.233,-0.267 2.15,-0.133 2.75,0.4 0.2,0.2 0.367,0.517 0.5,0.95 1.566,1.333 3.101,3.684 4.601,7.05 1.399,3.134 2.466,6.434 3.199,9.9 0.467,1.966 1.067,5.533 1.801,10.699 0.666,5.233 1.183,8.584 1.55,10.051 l 2.75,9.85 c 0,0.2 0.383,3.733 1.149,10.6 0.801,7.367 1.384,12.301 1.75,14.801 0.3,2.1 1.166,6.6 2.599,13.5 z"
   id="path8"
   style="fill-rule:evenodd;stroke-width:0.772976" />
        
    </g><g
     id="Layer_2"
     style="stroke-width:0.772976">
        
        <path
   d="m 93.351,40.525 c 0.302,-0.033 0.451,0.159 0.449,0.575 -0.603,0.929 -1.02,1.479 -1.25,1.65 V 43 c 0.06,-0.036 0.168,-0.002 0.325,0.1 0.034,0.041 0.117,0.099 0.25,0.175 l -0.7,0.875 c 0.033,0.242 0.067,0.483 0.101,0.725 0.191,0.166 0.35,0.365 0.475,0.6 0.469,-0.168 0.686,-0.043 0.65,0.375 0,0.173 -0.066,0.398 -0.2,0.675 -0.167,0.243 -0.233,0.451 -0.2,0.625 -0.006,0.069 0.069,0.311 0.226,0.725 0.132,0.411 0.198,0.752 0.199,1.025 0.001,0.031 -0.083,0.131 -0.25,0.3 0.059,0.383 0.184,0.767 0.375,1.15 0.297,0.514 0.788,1.373 1.476,2.575 0.646,1.099 1.214,1.958 1.7,2.575 0.267,0.376 2.107,2.109 5.524,5.2 0.392,0.35 0.767,0.7 1.125,1.05 0.226,0.167 0.5,0.333 0.825,0.5 0.301,0.141 0.617,0.315 0.95,0.525 0.195,-0.066 0.504,0.142 0.925,0.625 l 0.05,0.05 c 5.091,3.327 7.658,7.269 7.7,11.825 0,0.308 -0.067,0.633 -0.2,0.975 -0.099,-0.001 -0.115,0.032 -0.05,0.1 -0.342,3.214 -1.467,8.389 -3.375,15.525 -2.343,8.378 -3.477,13.553 -3.4,15.525 -0.002,0.581 -0.336,2.656 -1,6.225 -2.745,15.165 -4.153,24.282 -4.225,27.351 -0.131,3.035 -0.006,5.177 0.375,6.425 0.343,1.215 0.618,2.648 0.825,4.3 0.178,1.581 0.503,4.589 0.975,9.025 0.444,4.393 0.919,7.51 1.425,9.35 0.468,1.812 0.909,3.037 1.325,3.675 -0.344,4.216 -0.602,6.79 -0.774,7.726 -0.626,2.81 -1.727,5.718 -3.301,8.725 -1.398,2.435 -2.69,4.101 -3.875,5 -0.867,1.967 -2.4,3.684 -4.6,5.15 -1.674,1.066 -3.541,1.883 -5.6,2.45 h 1.074 c -1.503,0.366 -3.086,0.616 -4.75,0.75 -7.073,0.193 -10.665,1.068 -10.774,2.625 -0.104,0.801 -0.505,1.867 -1.2,3.199 -1.027,1.697 -2.194,2.547 -3.5,2.551 -4.267,-0.003 -6.933,-0.553 -8,-1.65 -0.575,-0.636 -0.9,-2.169 -0.975,-4.6 0.005,-0.892 -0.104,-1.851 -0.325,-2.875 h -0.3 c -0.092,-0.467 -0.2,-0.9 -0.325,-1.301 -0.256,-0.8 -0.789,-1.466 -1.601,-2 -0.941,-0.732 -1.559,-1.333 -1.85,-1.8 0.06,-0.066 0.168,-0.15 0.325,-0.25 -0.258,-0.399 -0.499,-0.683 -0.726,-0.85 -1.292,-1 -2.809,-2.699 -4.55,-5.101 -2.016,-2.733 -3.024,-4.667 -3.024,-5.8 10e-4,-0.3 0.084,-0.649 0.25,-1.05 0.033,-0.066 0.083,-0.117 0.149,-0.15 -0.289,-0.308 -0.465,-0.649 -0.524,-1.024 -0.063,-1.002 -0.097,-1.519 -0.101,-1.55 0.344,-2.203 0.535,-3.503 0.575,-3.9 -0.535,-4.657 -0.785,-7.558 -0.75,-8.7 -0.028,-7.211 0.681,-14.095 2.125,-20.649 1.418,-6.509 2.085,-10.659 2,-12.45 -0.151,-1.855 0.007,-3.272 0.475,-4.25 0.429,-1.054 0.287,-3.003 -0.425,-5.851 -0.772,-2.81 -0.197,-5.451 1.726,-7.925 0.042,-0.816 0.116,-1.649 0.225,-2.5 0.24,-1.798 0.365,-3.665 0.375,-5.6 -0.287,-2 -0.412,-3.558 -0.375,-4.675 -0.292,-0.45 -0.566,-0.916 -0.825,-1.4 -1.009,-1.767 -1.525,-3.092 -1.55,-3.975 -0.258,-2.144 -0.366,-4.527 -0.325,-7.15 -0.024,-0.241 0.408,-2.633 1.3,-7.175 0.782,-4.509 1.19,-7.292 1.226,-8.35 -0.939,-3.599 -1.389,-5.982 -1.351,-7.15 0.012,-1.129 0.07,-1.796 0.176,-2 0.135,-0.38 0.834,-1.188 2.1,-2.425 0.562,-0.616 1.403,-0.974 2.525,-1.075 0.668,-0.101 1.518,-0.184 2.55,-0.25 0.824,-0.208 1.85,-0.708 3.075,-1.5 1.202,-0.929 2.602,-1.721 4.199,-2.375 -0.066,-0.309 -0.149,-0.617 -0.25,-0.925 -0.42,-1.372 -0.628,-2.297 -0.625,-2.775 -0.021,-1.549 0.404,-2.857 1.275,-3.925 -0.459,-0.451 -1.017,-0.868 -1.675,-1.25 -1.193,-0.681 -1.993,-0.656 -2.4,0.075 0,-0.142 0,-0.267 0,-0.375 -0.023,-1.414 0.785,-3.156 2.425,-5.225 0.906,-1.206 2.382,-2.98 4.426,-5.325 1.244,-1.724 3.369,-3.482 6.375,-5.275 0.243,-0.154 0.484,-0.305 0.725,-0.45 0.967,-0.6 1.95,-1.15 2.95,-1.65 0.5,-0.167 1.133,-0.383 1.899,-0.65 1.733,-0.534 3.784,-0.867 6.15,-1 0.267,-0.067 0.6,-0.133 1,-0.2 0.333,0.3 0.7,0.633 1.1,1 0.067,-0.1 0.217,-0.167 0.45,-0.2 0.533,-0.2 0.834,0.017 0.9,0.65 0.3,-0.2 0.717,-0.034 1.25,0.5 0.399,0.333 0.616,0.633 0.649,0.9 l -0.449,0.65 -0.025,0.025 -0.025,0.574 0.25,-0.1 c 0.133,0.177 0.216,0.302 0.25,0.375 0,0.208 -0.116,0.433 -0.35,0.675 -0.3,0.201 -0.517,0.384 -0.65,0.55 -0.033,0.074 -0.05,0.166 -0.05,0.275 l 0.4,-0.15 0.25,0.05 0.225,1.025 c -0.033,0.307 -0.2,0.649 -0.5,1.025 -0.166,0.142 -0.333,0.283 -0.5,0.425 -0.033,0.066 -0.05,0.149 -0.05,0.25 0.301,-0.27 0.635,-0.437 1,-0.5 0.535,-0.177 0.819,-0.044 0.85,0.4 -0.01,0.21 -0.284,0.368 -0.824,0.475 z"
   id="path11"
   style="fill-rule:evenodd;stroke-width:0.772976" />
        
    </g><g
     id="Layer_3"
     style="stroke-width:0.772976">
        
        <path
   d="m 49.25,85.725 c -0.112,-4.164 -0.18,-7.697 -0.2,-10.6 -0.015,-2.953 2.635,-6.061 7.95,-9.325 5.124,-3.255 8.774,-4.022 10.95,-2.3 2.068,1.71 2.91,3.661 2.525,5.85 -0.477,2.094 -0.269,5.402 0.625,9.925 0.145,1.916 -0.306,6.016 -1.351,12.3 -0.582,3.27 -1.248,6.878 -2,10.825 -0.278,2.143 -0.57,6.068 -0.875,11.775 -0.301,4.784 -0.742,8.634 -1.325,11.55 -0.75,3.96 -2.092,7.985 -4.024,12.075 -0.203,0.231 -0.378,1.257 -0.525,3.074 -0.142,1.321 -0.642,2.321 -1.5,3 -2.736,1.983 -5.111,4.066 -7.125,6.25 -1.382,1.453 -3.849,3.628 -7.399,6.525 -3.982,3.124 -6.632,5.374 -7.95,6.75 -2.205,2.778 -4.08,5.104 -5.625,6.975 -1.083,1.21 -2.066,2.218 -2.95,3.025 0.387,1.306 0.787,3.431 1.2,6.375 0.349,2.676 0.649,5.435 0.9,8.275 0.064,0.667 0.031,1.167 -0.1,1.5 -0.326,0.366 -1.076,0.616 -2.25,0.75 -0.948,0.101 -1.665,-0.782 -2.15,-2.65 -0.484,-1.902 -1.117,-2.835 -1.9,-2.8 -0.72,0.065 -1.245,0.715 -1.575,1.95 -0.131,0.6 -0.165,1.216 -0.1,1.85 0.257,2.768 2.065,4.834 5.425,6.2 0.783,0.3 1.925,0.7 3.425,1.2 1.04,0.433 1.606,0.916 1.7,1.449 -0.004,0.434 -0.188,0.817 -0.55,1.15 -0.295,0.3 -0.737,0.467 -1.325,0.5 -0.42,0.066 -1.328,-0.017 -2.725,-0.25 -1.501,-0.233 -2.301,-0.366 -2.4,-0.4 0.196,0.567 0.212,1.134 0.05,1.7 -0.329,0.633 -0.804,0.983 -1.425,1.05 -0.461,0.066 -1.361,-0.317 -2.7,-1.149 -1.628,-0.934 -2.67,-1.733 -3.125,-2.4 -0.123,-0.133 -0.506,-0.35 -1.15,-0.649 -0.72,-0.267 -1.195,-0.534 -1.425,-0.801 -0.2,-0.233 -0.367,-0.899 -0.5,-2 -0.156,-3.6 -0.298,-6.216 -0.425,-7.85 -0.318,-2.21 -0.343,-3.701 -0.075,-4.475 0.197,-0.899 0.247,-1.966 0.15,-3.2 -0.354,-3.249 0.387,-6.416 2.225,-9.5 1.348,-2.347 2.957,-3.904 4.825,-4.675 1.871,-1.946 4.121,-4.379 6.75,-7.301 3.255,-3.806 6.43,-7.614 9.525,-11.425 4.357,-4.984 7.924,-8.977 10.7,-11.975 0.594,-0.914 0.827,-1.998 0.7,-3.25 -0.315,-2.034 -0.565,-4.001 -0.75,-5.9 -0.359,-12.008 0.099,-19.949 1.375,-23.825 z"
   id="path14"
   style="fill-rule:evenodd;stroke-width:0.772976" />
        
    </g><g
     id="Layer_4"
     style="stroke-width:0.772976">
        
        <path
   d="m 117.325,74.6 c 0.539,1.639 1.089,3.706 1.65,6.2 0.467,2.258 1.75,6.391 3.85,12.4 1.898,5.691 3.123,9.933 3.675,12.725 0.303,1.63 0.536,3.48 0.7,5.55 0,0.033 0,0.066 0,0.1 0.131,0.311 0.306,0.977 0.525,2 0.116,0.951 0.267,1.884 0.449,2.8 l 1.025,4.325 c 0.383,0.641 0.649,1.35 0.8,2.125 0.005,0.037 -0.012,0.395 -0.05,1.075 l 0.5,1.975 c 0.122,0.506 0.389,2.364 0.8,5.575 0.191,0.844 0.483,1.552 0.875,2.125 0.046,1.021 0.112,1.737 0.2,2.15 -0.001,0.196 0.225,0.68 0.675,1.45 -0.031,0.1 0.019,0.216 0.15,0.35 -0.423,1.76 -0.79,4.16 -1.101,7.2 l 2.051,10.399 c -0.243,3.494 -0.418,5.777 -0.525,6.851 -0.287,1.276 -0.604,2.352 -0.95,3.225 0,0.167 0,0.301 0,0.4 0.029,0.174 0.088,0.565 0.175,1.175 -0.148,1.167 -0.281,2.399 -0.399,3.7 -1.323,10.207 -2.606,17.832 -3.851,22.875 0.784,4.232 1.234,6.749 1.351,7.55 0.327,2.229 0.627,5.17 0.899,8.825 0.049,0.96 -0.234,2.335 -0.85,4.125 -0.881,2.554 -1.406,4.146 -1.575,4.774 -1.014,4.513 -1.722,7.021 -2.125,7.525 -0.264,0.258 -0.688,0.416 -1.274,0.475 -1.329,0.101 -2.104,0.167 -2.325,0.2 -0.137,0.233 -0.387,0.467 -0.75,0.7 -0.719,0.466 -1.776,0.85 -3.175,1.15 -1.273,0.231 -2.365,0.248 -3.275,0.05 -0.939,-0.266 -1.539,-0.365 -1.8,-0.3 -1.107,0.162 -1.882,-0.204 -2.325,-1.101 -0.065,-0.066 -0.082,-0.133 -0.05,-0.2 -0.772,-0.729 -1.372,-2.222 -1.8,-4.475 -0.119,-0.725 -0.011,-1.366 0.324,-1.925 0.361,-0.731 1.028,-1.165 2,-1.3 0.461,-0.166 0.919,-0.149 1.375,0.05 0.708,-1.688 1.032,-2.747 0.976,-3.175 -0.03,-0.137 -0.28,-0.87 -0.75,-2.2 -0.525,0.369 -0.959,1.202 -1.3,2.5 -0.275,1.056 -1.034,1.715 -2.275,1.975 -0.687,0.04 -1.303,-0.285 -1.85,-0.975 -0.519,-0.467 -0.776,-0.85 -0.775,-1.15 -0.09,-0.267 -0.081,-0.55 0.025,-0.85 1.096,-1.66 2.07,-4.035 2.925,-7.125 1.396,-4.82 1.971,-7.879 1.725,-9.175 -0.066,-0.167 -0.133,-0.334 -0.2,-0.5 0.169,-0.5 0.385,-0.967 0.65,-1.4 1.112,-2.232 2.462,-3.883 4.05,-4.95 0,-0.1 0.018,-0.2 0.05,-0.3 0.532,-3.5 0.957,-6.3 1.275,-8.4 1.062,-8.772 0.829,-17.306 -0.7,-25.6 -0.925,-4.541 -1.033,-8.833 -0.325,-12.875 0.715,-3.979 0.906,-6.878 0.575,-8.7 -0.744,-3.783 -1.71,-6.891 -2.899,-9.325 -0.672,-1.218 -1.197,-2.334 -1.575,-3.35 -0.485,-0.682 -1.019,-1.448 -1.601,-2.3 -1.128,-1.659 -2.153,-3.726 -3.074,-6.2 -0.257,-0.68 -0.924,-2.888 -2,-6.625 l -1.825,-9.475 c -0.123,-3.276 -2.356,-6.776 -6.7,-10.5 -2.263,-1.846 -3.854,-3.162 -4.775,-3.95 -1.533,-1.463 -2.392,-2.722 -2.574,-3.775 -0.941,-5.07 -0.857,-8.362 0.25,-9.875 0.733,-1.09 1.376,-2.815 1.925,-5.175 0.377,-1.002 1.002,-1.919 1.875,-2.75 0.167,-0.267 0.367,-0.517 0.6,-0.75 1.477,-1.855 3.21,-2.956 5.2,-3.3 0.927,-0.173 1.701,-0.14 2.325,0.1 0.335,-0.002 0.818,0.065 1.45,0.2 2.212,0.55 3.937,1.65 5.175,3.3 0.29,0.718 1.106,1.693 2.45,2.925 1.54,1.371 2.456,2.296 2.75,2.775 1.266,1.822 2.299,3.847 3.098,6.077 z"
   id="path17"
   style="fill-rule:evenodd;stroke-width:0.772976" />
        
    </g><g
     id="Layer_8"
     style="stroke-width:0.772976">
        
        <path
   d="M 94.55,6.75 94.5,6.8 c 0.066,0.033 0.134,0.083 0.2,0.15 0.434,-0.3 0.833,-0.333 1.2,-0.1 0.666,0.633 1.017,1.283 1.05,1.95 L 96.7,9.35 c 0.033,0.066 0.083,0.15 0.15,0.25 0.066,0 0.133,0 0.199,0 0.334,0 0.567,0.117 0.7,0.35 l 0.05,0.35 c 0,0.167 0.334,0.383 1,0.65 0.067,0.034 0.184,0.3 0.351,0.8 0.133,0.5 0.25,0.816 0.35,0.95 0,0.133 -0.066,0.3 -0.2,0.5 0.334,0.1 0.517,0.267 0.551,0.5 0.033,0.1 0.033,0.284 0,0.55 v 0.05 c 0.733,-0.2 1.066,-0.05 1,0.45 -0.034,0.566 -0.134,1.05 -0.301,1.45 -0.199,0.167 -0.333,0.35 -0.399,0.55 0.033,0.167 0.083,0.383 0.149,0.65 0.067,-0.067 0.15,-0.1 0.25,-0.1 l 0.351,0.05 v 0.45 c -0.033,0.167 -0.117,0.5 -0.25,1 -0.167,0.434 -0.233,0.833 -0.2,1.2 -0.033,0.167 -0.116,0.4 -0.25,0.7 -0.033,0.2 -0.083,0.5 -0.15,0.9 0.067,0.033 0.117,0.083 0.15,0.15 0.1,0.133 0.167,0.4 0.2,0.8 -0.033,0.233 -0.134,0.467 -0.3,0.7 -0.134,0.066 -0.25,0.15 -0.351,0.25 -0.066,0.1 -0.1,0.2 -0.1,0.3 0.066,0.033 0.1,0.2 0.1,0.5 0,0.167 -0.066,0.583 -0.2,1.25 -0.033,0.067 -0.083,0.283 -0.149,0.65 -0.033,0.367 -0.066,0.733 -0.101,1.1 0.034,0.067 0.134,0.233 0.301,0.5 -0.034,0.033 -0.317,0.3 -0.851,0.8 -0.133,0.367 -0.25,0.75 -0.35,1.15 0.166,0.1 0.25,0.183 0.25,0.25 0.033,0.3 -0.117,0.483 -0.45,0.55 -0.1,0.133 -0.15,0.283 -0.15,0.45 0.267,0.4 0.4,0.683 0.4,0.85 -0.033,0.2 -0.15,0.417 -0.35,0.65 -0.233,0.2 -0.334,0.45 -0.301,0.75 -0.033,0.066 -0.283,0.217 -0.75,0.45 H 97 c -0.066,0 -0.083,0.017 -0.05,0.05 -0.033,0.033 -0.017,0.066 0.05,0.1 0.066,0.233 0.101,0.45 0.101,0.65 0,0.2 -0.184,0.3 -0.551,0.3 h -0.1 c -0.066,0.067 -0.116,0.184 -0.15,0.35 v 0.025 l 0.25,-0.05 0.025,0.025 c 0.05,0.043 0.075,0.11 0.075,0.2 -0.001,0.275 -0.051,0.534 -0.15,0.775 0,0.065 -0.066,0.182 -0.2,0.35 -0.232,0.142 -0.315,0.283 -0.25,0.425 -0.011,0.279 -0.302,0.438 -0.875,0.475 -0.066,0.033 -0.083,0.083 -0.05,0.15 l 0.101,0.05 c -0.134,0.1 -0.233,0.216 -0.301,0.35 -0.065,0.074 -0.133,0.182 -0.199,0.325 0.1,-10e-4 0.217,0.016 0.35,0.05 h 0.05 c 0.034,-0.002 0.051,0.048 0.05,0.15 l -0.05,0.2 h -0.6 c -0.1,0.107 -0.184,0.249 -0.25,0.425 0.133,0 0.267,0.016 0.399,0.05 l 0.101,0.2 c -0.267,0.034 -0.434,0.067 -0.5,0.1 -0.199,0.041 -0.199,0.1 0,0.175 -0.033,0.033 -0.15,0.083 -0.351,0.15 -1.251,2.136 -2.159,3.203 -2.725,3.2 -0.501,-0.002 -0.801,-0.177 -0.9,-0.525 -1.764,0.83 -3.905,1.263 -6.425,1.3 l -3.25,0.05 c -0.923,0.144 -1.731,0.477 -2.425,1 -0.612,1.583 -1.121,2.667 -1.525,3.25 -1.143,1.304 -2.352,2.487 -3.625,3.55 -2.766,2.099 -5.374,3.166 -7.824,3.2 -0.3,-0.034 -0.533,-0.05 -0.7,-0.05 -1.455,0.07 -2.497,0.295 -3.125,0.675 -1.167,0.584 -2.084,0.875 -2.75,0.875 -2.115,-0.034 -3.499,-0.584 -4.15,-1.65 -0.229,-1.167 -0.329,-1.784 -0.3,-1.85 -0.034,-0.309 0.065,-0.875 0.3,-1.7 0.143,-0.791 0.218,-1.341 0.226,-1.65 -0.002,-0.28 -0.135,-0.663 -0.4,-1.15 -0.331,-0.549 -0.464,-0.874 -0.4,-0.975 -0.021,-0.901 0.32,-1.509 1.025,-1.825 -0.566,-0.272 -1.017,-0.647 -1.35,-1.125 -0.457,-0.52 -0.683,-0.953 -0.676,-1.3 10e-4,-0.31 0.118,-0.568 0.351,-0.775 0.334,-0.414 0.567,-0.656 0.7,-0.725 -0.267,-0.167 -0.534,-0.317 -0.801,-0.45 -0.332,-0.209 -0.565,-0.385 -0.699,-0.525 -0.793,-0.245 -1.168,-0.87 -1.125,-1.875 -0.033,-0.308 0.017,-0.616 0.149,-0.925 0.101,-0.342 0.217,-0.683 0.351,-1.025 0.195,-0.477 0.479,-1.01 0.85,-1.6 0.1,-0.133 0.2,-0.267 0.3,-0.4 1,-1.934 1.5,-2.967 1.5,-3.1 -0.033,-0.067 -0.166,-0.183 -0.399,-0.35 -0.233,-0.167 -0.217,-0.55 0.05,-1.15 -0.533,-0.7 -0.917,-1.2 -1.15,-1.5 -0.3,-0.467 -0.467,-0.85 -0.5,-1.15 -0.166,-0.2 -0.25,-0.383 -0.25,-0.55 L 52.2,26 c -0.066,-0.867 0.05,-2.283 0.35,-4.25 0.233,-1.867 0.434,-3.1 0.601,-3.7 0.3,-1.367 0.85,-2.617 1.649,-3.75 -0.1,-0.233 -0.166,-0.4 -0.199,-0.5 -0.067,-0.4 0.1,-0.867 0.5,-1.4 0.399,-0.567 0.733,-0.817 1,-0.75 V 11.5 L 56.05,11.45 v -0.5 c 0.034,0 0.101,0 0.2,0 0.101,-0.267 0.283,-0.566 0.55,-0.9 0,-0.167 0,-0.3 0,-0.4 0,-0.167 0.084,-0.367 0.25,-0.6 0.167,-0.333 0.367,-0.483 0.601,-0.45 0.033,-0.034 0.1,-0.017 0.2,0.05 0.1,-0.267 0.233,-0.45 0.399,-0.55 0.033,-0.367 0.233,-0.717 0.601,-1.05 0.033,-0.1 0.466,-0.433 1.3,-1 h 0.75 C 61.8,5.317 62.267,4.683 62.3,4.15 62.434,4.117 62.634,4.133 62.901,4.2 l 0.05,-0.75 c 0,-0.4 0.116,-0.6 0.35,-0.6 0.034,0 0.233,0.15 0.601,0.45 0.233,-0.333 0.533,-0.5 0.899,-0.5 0.2,0 0.483,0.117 0.851,0.35 0.166,-1 0.333,-1.517 0.5,-1.55 0.166,-0.067 0.767,-0.083 1.8,-0.05 l -0.05,-0.4 c 0,-0.367 0.166,-0.533 0.5,-0.5 0.267,-0.033 0.5,0.133 0.7,0.5 0.033,0.067 0.083,0.183 0.149,0.35 h 0.05 c -0.333,-0.667 -0.233,-0.883 0.301,-0.65 0.3,0.1 0.533,0.283 0.699,0.55 0.134,-0.033 0.267,-0.05 0.4,-0.05 -0.033,-0.167 -0.05,-0.267 -0.05,-0.3 0,-0.367 0.333,-0.55 1,-0.55 0.467,-0.033 0.8,0.033 1,0.2 0.133,0.067 0.217,0.167 0.25,0.3 0.166,-0.5 0.383,-0.733 0.649,-0.7 0.233,-0.033 0.517,0.184 0.851,0.65 0.033,-0.033 0.149,-0.183 0.35,-0.45 0.134,-0.3 0.316,-0.4 0.55,-0.3 0.233,-0.066 0.483,-0.033 0.75,0.1 0.267,-0.033 0.45,0.017 0.551,0.15 0,0.034 0.033,0.15 0.1,0.35 0.066,0 0.2,-0.083 0.4,-0.25 0.133,-0.2 0.283,-0.283 0.449,-0.25 0.367,-0.033 0.667,0.167 0.9,0.6 0.1,-0.267 0.233,-0.383 0.4,-0.35 L 78.8,0.45 C 78.767,0.15 78.9,0 79.2,0 c 0.033,0 0.134,0.017 0.3,0.05 0.334,0 0.55,0.217 0.65,0.65 0.133,-0.066 0.333,0.017 0.6,0.25 0.134,0 0.334,-0.05 0.601,-0.15 0.466,-0.1 0.75,0.167 0.85,0.8 l 1.4,-0.15 c 0.366,0 0.566,0.117 0.6,0.35 0.033,0.1 0.066,0.283 0.1,0.55 0.5,-0.233 0.817,-0.333 0.95,-0.3 0.4,-0.133 0.767,0 1.101,0.4 0.033,0.133 0.416,0.383 1.149,0.75 0.033,0 0.467,-0.05 1.3,-0.15 C 89.4,2.95 89.634,3.267 89.5,4 v 0.05 c 0.267,0 0.467,-0.033 0.601,-0.1 0.133,-0.133 0.233,-0.2 0.3,-0.2 0.866,0 1.166,0.483 0.899,1.45 L 91.351,5.25 91.8,5.2 h 1.25 c 0.233,0 0.367,0.117 0.4,0.35 0,0.133 -0.1,0.317 -0.3,0.55 H 93.1 c 0.166,0.066 0.35,0.15 0.55,0.25 h 0.25 l 0.55,0.05 c 0,0.033 0.033,0.15 0.1,0.35 z"
   id="path20"
   style="fill-rule:evenodd;stroke-width:0.772976" />
        
    </g></g>
    
<rect
   style="fill:none;stroke:#1a1a1a;stroke-width:1.88976;stroke-linecap:round;stroke-linejoin:round;opacity:0"
   id="rect1"
   width="498.11017"
   height="498.11017"
   x="0.94488001"
   y="0.94488001"
   ry="9.9237108" /></svg>
