<?xml version="1.0" encoding="UTF-8" standalone="no"?>
<svg
   width="499.99994"
   height="499.99994"
   viewBox="0 0 499.99994 499.99994"
   version="1.1"
   id="svg4"
   sodipodi:docname="macEug2_Geoff Shaw.svg"
   inkscape:version="1.3.2 (1:1.3.2+202311252150+091e20ef0f)"
   xmlns:inkscape="http://www.inkscape.org/namespaces/inkscape"
   xmlns:sodipodi="http://sodipodi.sourceforge.net/DTD/sodipodi-0.dtd"
   xmlns="http://www.w3.org/2000/svg"
   xmlns:svg="http://www.w3.org/2000/svg">
  <sodipodi:namedview
     id="namedview1"
     pagecolor="#ffffff"
     bordercolor="#cccccc"
     borderopacity="1"
     inkscape:showpageshadow="0"
     inkscape:pageopacity="1"
     inkscape:pagecheckerboard="0"
     inkscape:deskcolor="#d1d1d1"
     inkscape:zoom="0.58646435"
     inkscape:cx="296.69323"
     inkscape:cy="361.4883"
     inkscape:window-width="1850"
     inkscape:window-height="1136"
     inkscape:window-x="70"
     inkscape:window-y="27"
     inkscape:window-maximized="1"
     inkscape:current-layer="svg4" />
  <defs
     id="defs8" />
  <path
     d="m 21.213207,60.210096 c 2.3854,0.51873 5.1728,1.88308 9.5248,4.66144 5.7666,3.68129 10.3854,7.26407 15.2725,11.84584 0.9005,0.84426 2.5582,2.2157 3.6838,3.04741 1.1256,0.83171 3.0812,2.45146 4.3463,3.59943 2.6269,2.38406 4.0603,3.1803 5.7259,3.1803 1.5894,0 3.7978,-0.67726 5.1367,-1.57528 4.951,-3.32083 4.936,-3.30691 11.8052,-10.73198 3.0191,-3.26325 7.4423,-7.26053 9.607,-8.68136 0.9444,-0.61996 2.9633,-1.73628 4.4865,-2.48094 6.3156,-3.08698 10.607503,-3.82427 12.841303,-2.20643 2.7218,1.97176 2.8886,3.95962 0.761,9.07948 -1.8948,4.55939 -3.4071,8.43005 -5.729703,14.66623 -2.5388,6.81629 -3.0578,7.9296 -4.7294,10.14585 -3.5067,4.64916 -3.7356,5.582654 -3.7091,15.114824 0.023,8.08023 0.2417,9.92347 1.7848,15.00786 1.4503,4.77795 2.1469,6.47357 3.3579,8.17028 2.1636,3.0324 6.545103,6.786 9.026003,7.73313 0.4503,0.17191 1.8624,0.56812 3.138,0.88028 3.1648,0.77468 5.1008,1.4132 10.40513,3.43271 2.49594,0.95041 6.73225,2.28283 9.41402,2.96091 5.32342,1.34634 9.40419,2.61819 12.78888,3.98527 3.36503,1.35944 6.55979,2.41927 9.5278,3.16066 1.48823,0.37192 4.09142,1.22409 5.78457,1.89371 3.02122,1.1949 6.68723,2.45174 10.74672,3.6843 5.41865,1.6454 11.44281,4.93158 23.29274,12.70674 1.32997,0.87264 2.98765,2.24736 3.68374,3.05505 2.90934,3.37595 5.4705,5.89672 7.20759,7.09408 3.98827,2.74862 8.62816,6.54315 10.8395,8.86418 1.27566,1.33898 3.73806,3.92415 5.47214,5.74501 1.73409,1.82059 4.24095,4.78369 5.57092,6.58463 1.3297,1.80094 3.57869,4.62515 4.99734,6.27601 1.41893,1.65086 3.06106,3.70776 3.6491,4.57085 2.77372,4.0704 11.87803,22.18679 13.46341,26.79038 0.39484,1.14633 0.82352,3.37623 1.05682,5.49643 0.32172,2.92598 0.57276,4.00573 1.39519,6.00314 0.55174,1.33952 1.3507,2.9882 1.77584,3.66355 0.42485,0.67536 1.35098,2.45583 2.05771,3.95662 0.70701,1.50078 2.30984,4.81616 3.56177,7.36749 5.19599,10.58736 5.79931,12.67373 5.27867,18.24737 -0.18064,1.93165 -0.25404,4.38748 -0.16344,5.4574 0.14735,1.73873 2.08036,11.39697 3.8712,19.34213 0.86691,3.84665 5.65223,21.44132 6.73444,24.76133 0.87509,2.68504 8.69937,21.07212 10.46839,24.60088 1.95238,3.8944 9.92537,18.12621 11.08589,19.78799 1.89072,2.70824 8.29907,9.51717 10.55816,11.21851 3.74787,2.82284 14.6051,7.86767 24.1812,11.23625 2.32213,0.8167 23.63765,6.14994 27.91571,6.98465 2.53141,0.4939 21.71609,2.5658 46.53713,5.026 10.6332,1.05382 20.1496,2.1041 21.1474,2.33385 0.9979,0.22976 6.726,1.69889 12.7292,3.2649 6.0031,1.56572 16.8088,4.2082 24.0125,5.87216 7.2038,1.66396 13.9573,3.27799 15.0079,3.58688 2.0798,0.61177 8.0409,2.93581 9.6948,3.77952 2.1928,1.11877 2.7617,2.87824 1.417,4.38311 -1.4318,1.6023 -4.1386,1.69289 -15.7997,0.52883 -4.4866,-0.44806 -18.0376,-1.60748 -30.1132,-2.57672 -21.8871,-1.75646 -22.0137,-1.76328 -40.3746,-2.19196 -10.1303,-0.23658 -20.50618,-0.55011 -23.05752,-0.69691 -5.90327,-0.33945 -43.38607,-4.22458 -45.87792,-4.75504 -1.0309,-0.21966 -9.33816,-2.24517 -18.46048,-4.50153 -12.32527,-3.04851 -17.11278,-4.34546 -18.63621,-5.04947 -1.1275,-0.5209 -4.89911,-2.83648 -8.38148,-5.14578 -7.61962,-5.05274 -8.48271,-5.90518 -12.66035,-12.50318 -7.1421,-11.28018 -8.96297,-14.29321 -14.49077,-23.97955 -6.57426,-11.51949 -7.37513,-13.04046 -9.19572,-17.46369 -2.22853,-5.4132 -3.4278,-7.51157 -7.09981,-12.42159 -2.54888,-3.40842 -4.41913,-6.26455 -5.45904,-8.33646 -1.34088,-2.67194 -1.95593,-3.50883 -2.81956,-3.83737 -1.29368,-0.49171 -2.3969,-0.0357 -4.47917,1.85252 -1.08466,0.98369 -2.58626,2.07163 -3.33665,2.4179 -2.3898,1.10267 -4.94004,2.06617 -6.44901,2.43673 -0.80524,0.19756 -3.3061,0.85763 -5.55729,1.46668 -7.46572,2.01951 -12.30589,2.18323 -18.00942,0.6085 -3.61881,-0.99925 -5.00553,-1.03773 -6.82176,-0.18965 -1.58455,0.74002 -5.04291,3.42561 -6.38352,4.95723 -1.82523,2.08473 -2.00942,2.89215 -1.7963,7.86303 0.15553,3.6248 0.0546,6.08746 -0.5673,13.82441 -0.74303,9.24512 -0.75094,9.57802 -0.44614,18.55517 0.4707,13.85116 0.0879,16.02757 -3.15384,17.92729 -1.18562,0.69473 -1.28167,0.70565 -4.66444,0.52828 -3.74187,-0.19592 -7.4529,-0.67181 -12.01092,-1.5398 -6.78874,-1.29286 -10.8796,-1.68825 -18.93882,-1.83014 -10.98357,-0.19347 -16.5815,0.34217 -23.56015,2.25499 -4.51409,1.2372 -7.06709,2.26674 -10.67199,4.30453 -1.6836,0.9515 -3.7953,1.95239 -4.6928,2.22416 -1.979703,0.59923 -2.791703,0.35965 -4.249403,-1.25383 -0.8988,-0.99489 -0.958,-1.17553 -0.958,-2.92872 0,-1.61866 -0.1032,-2.01051 -0.7725,-2.93253 -1.1979,-1.65005 -1.8501,-1.88881 -4.1305,-1.51225 -3.2774,0.5411 -7.3967,0.68409 -9.7592,0.33863 -1.214,-0.17736 -3.7653,-0.80879 -5.6694,-1.40282 -1.9041,-0.59404 -3.7328,-1.08002 -4.0638,-1.08002 -0.763,0 -2.1865,-1.45795 -2.7555,-2.82175 -0.4276,-1.02518 -0.4188,-1.08739 0.3935,-2.82366 1.945,-4.15636 4.6631,-5.86371 11.2755,-7.08289 2.1904,-0.40385 4.3078,-0.45706 16.164,-0.40521 14.090803,0.0617 17.343123,0.19237 28.924273,1.16188 6.96665,0.58312 10.60073,0.56893 13.48142,-0.0527 1.22246,-0.26386 1.74882,-0.58421 3.06979,-1.86888 1.9442,-1.89072 2.03697,-2.5336 0.59486,-4.12989 -0.54984,-0.6085 -1.19763,-1.21237 -1.43994,-1.34198 -0.24204,-0.12961 -3.81363,-0.73702 -7.9367,-1.34989 -4.12307,-0.61286 -12.08651,-1.79548 -17.69672,-2.62774 -14.21488,-2.10928 -27.578683,-3.66382 -33.868383,-3.93969 -3.1718,-0.13917 -5.9273,-0.39976 -6.8217,-0.64534 -2.4335,-0.66826 -9.2274,-3.03732 -11.7553,-4.09878 -1.4189,-0.59595 -3.1931,-1.09803 -4.5023,-1.27403 -1.1887,-0.15991 -2.3773,-0.35446 -2.6417,-0.43223 -0.6232,-0.18392 -1.2931,-1.49205 -1.2931,-2.52569 0,-1.04263 0.7086,-1.60065 4.224,-3.32656 5.2702,-2.58762 13.2686,-3.51265 20.3343,-2.35186 1.5758,0.25895 5.2596,0.59294 8.1861,0.7422 6.2569,0.31899 13.304003,1.0863 18.828003,2.05008 4.292,0.74902 14.32926,1.39191 16.85521,1.07974 1.82742,-0.22566 3.46682,-1.42984 4.39076,-3.22532 0.66062,-1.28413 0.66716,-1.35971 0.33699,-3.88485 -0.46988,-3.59125 -1.57582,-7.16393 -5.27485,-17.03938 -1.60502,-4.28515 -2.38325,-5.74855 -4.36046,-8.20085 -0.79324,-0.98342 -2.17341,-2.7025 -3.06706,-3.82018 -0.89393,-1.1174 -3.11589,-3.56668 -4.93809,-5.44266 -1.8225,-1.87599 -3.9018,-4.33182 -4.6208,-5.45741 -0.719,-1.12558 -2.0149,-3.02885 -2.8794,-4.22948 -0.8647,-1.20063 -2.1133,-3.1653 -2.775003,-4.36592 -0.6618,-1.20063 -2.2117,-3.53367 -3.4442,-5.18454 -1.2328,-1.65086 -2.5628,-3.67692 -2.9555,-4.50235 -1.2219,-2.56798 -2.5349,-4.40058 -4.9812,-6.95246 -2.5033,-2.61137 -3.8377,-4.51218 -4.394,-6.25964 -0.7663,-2.40644 -3.2436,-5.43121 -5.3158,-6.48967 -0.6003,-0.30671 -1.1401,-0.6014 -1.1996,-0.65489 -0.059,-0.0537 0.3815,-0.62869 0.9799,-1.27785 0.5987,-0.64943 1.1998,-1.37554 1.3363,-1.61348 0.1361,-0.23821 0.6966,-0.61914 1.2451,-0.84671 1.2055,-0.50045 2.3281,-2.26783 2.8684,-4.51655 0.2038,-0.84754 0.5577,-3.44089 0.7867,-5.76329 0.4014,-4.07395 0.9848,-7.55441 1.4879,-8.87756 0.3867,-1.01671 2.8963,-4.42322 5.3256,-7.22887 1.4441,-1.66778 2.6592,-3.41934 3.4068,-4.91166 1.5292,-3.05151 5.0096,-8.47944 5.792203,-9.03337 0.3406,-0.24094 2.7678,-1.88962 5.3941,-3.66355 2.6264,-1.7742 5.819,-4.02893 7.09465,-5.01044 2.13057,-1.63941 8.1861,-6.60455 8.1861,-6.71233 0,-0.0254 0.47916,-1.64432 1.06502,-3.5978 0.86336,-2.8785 1.10266,-4.17982 1.26311,-6.86786 0.17136,-2.87142 0.14217,-3.31647 -0.21666,-3.31647 -0.33454,0 -0.45351,0.59377 -0.61505,3.06952 -0.15471,2.36906 -0.44314,3.87857 -1.26311,6.61273 -0.58422,1.94857 -1.21346,3.67802 -1.39819,3.84283 -2.93745,2.62392 -9.12807,7.44226 -12.06927,9.39383 -1.2007,0.79678 -3.6901,2.49212 -5.5319,3.76752 l -3.349003,2.31912 -2.0039,3.16557 c -1.1024,1.74118 -2.5274,4.20929 -3.1667,5.48496 -0.7477,1.49232 -1.9627,3.24388 -3.4068,4.91166 -3.0242,3.49246 -5.0691,6.42391 -5.5185,7.91132 -0.4822,1.59547 -1.0885,5.52699 -1.3051,8.46089 -0.4153,5.62958 -1.5955,8.97851 -3.4513,9.79358 -0.5496,0.24149 -1.4162,0.99024 -1.9254,1.66396 -1.5024,1.98731 -2.5068,2.52541 -4.4865,2.40371 -2.2774,-0.14025 -3.5841,-1.02599 -4.8383,-3.27963 -1.1583,-2.08145 -2.2465,-4.92748 -2.575,-6.73579 -0.2134,-1.17362 -0.1703,-1.43639 0.3454,-2.11557 0.3242,-0.42622 1.1884,-1.81895 1.9208,-3.09462 0.7321,-1.27566 2.3333,-3.6087 3.5576,-5.18453 1.2247,-1.57582 3.0412,-4.15444 4.0371,-5.73027 0.9957,-1.57582 2.9094,-4.26851 4.2525,-5.98377 2.0789,-2.65475 2.6542,-3.62862 3.8676,-6.54888 0.7842,-1.88662 1.7619,-4.10833 2.1732,-4.93677 0.5099,-1.02844 0.8508,-2.32949 1.0734,-4.09878 0.3051,-2.42227 0.2811,-2.81493 -0.3645,-5.99741 -0.5493,-2.70742 -2.0894,-13.57201 -2.0894,-14.73908 0,-0.14462 -0.1842,-0.26305 -0.4093,-0.26305 -0.2251,0 -0.4093,0.24122 -0.4093,0.53592 0,1.35535 1.4661,11.94298 2.0544,14.8354 0.5889,2.89543 0.626,3.45863 0.3591,5.45741 -0.1828,1.36871 -0.5836,2.80783 -1.0391,3.72958 -0.4076,0.82544 -1.3829,3.04442 -2.1671,4.93104 -1.2135,2.92026 -1.7887,3.89413 -3.8677,6.54888 -1.343,1.71526 -3.2567,4.40795 -4.2524,5.98377 -0.9959,1.57583 -2.8143,4.15445 -4.0412,5.73027 -1.2265,1.57583 -2.8678,3.97026 -3.6472,5.32097 -0.779,1.35071 -1.6429,2.74889 -1.9193,3.10717 l -0.5026,0.65134 -0.9035,-1.33351 c -0.4969,-0.73348 -2.0231,-2.43864 -3.3913,-3.78935 -1.3684,-1.35071 -3.3432,-3.67556 -4.3882,-5.16625 -1.0451,-1.49069 -2.4837,-3.34975 -3.1964,-4.13125 -0.7128,-0.7815 -1.2962,-1.56491 -1.2962,-1.74119 0,-0.176 -0.8421,-1.50952 -1.8711,-2.96309 -1.5954,-2.25364 -2.1772,-3.43135 -3.9465,-7.98773 -1.6306,-4.19974 -2.1958,-6.0408 -2.6389,-8.59541 -1.4481,-8.34928 -3.383,-15.85894 -4.8451,-18.80457 -1.6099,-3.24333 -5.2235,-8.86828 -5.6972,-8.86828 -0.668,0 -0.4091,0.5995 1.6424,3.80545 3.3879,5.29504 4.2928,7.39396 5.7117,13.24893 1.172,4.83581 1.7221,7.43762 2.3262,11.00158 l 0.2461,1.45112 -0.7315,-0.70073 c -0.4022,-0.38529 -0.8053,-0.70073 -0.8956,-0.70073 -0.09,0 -0.2423,0.5834 -0.3381,1.29614 -0.3146,2.34068 1.524,9.57828 3.2032,12.60932 0.4606,0.83144 1.7336,2.62556 2.8289,3.98664 2.7584,3.42861 3.1879,4.48598 3.2054,7.89413 0.013,2.49785 -0.062,2.90661 -0.8874,4.83198 -1.3496,3.14947 -3.5926,5.12805 -5.8127,5.1275 -1.5851,-2.7e-4 -4.2215,-1.47677 -6.2184,-3.48209 -3.3604,-3.37513 -4.6549,-7.12873 -5.1976,-15.0728 -0.1692,-2.4763 -0.4906,-6.09865 -0.7139,-8.04967 -0.6835,-5.97012 -0.7457,-7.6701 -0.4011,-10.99121 0.2895,-2.78982 0.274,-3.47663 -0.1206,-5.38099 -0.522,-2.51805 -1.7701,-5.88554 -3.3388,-9.00827 -1.2487,-2.48584 -2.174,-5.07702 -3.2147,-9.00116 -0.3981,-1.50079 -0.9518,-3.46545 -1.2304,-4.36592 -0.2788,-0.90047 -0.7528,-2.68095 -1.0535,-3.95662 -0.3007,-1.27567 -1.1068,-3.97708 -1.7911,-6.00314 -1.8024,-5.33407 -2.0397,-6.9882 -2.0954,-14.59855 -0.045,-6.11175 0,-6.80374 0.6917,-10.36907 1.0345,-5.34006 3.293,-11.87066 6.0397,-17.46368 1.2528,-2.55134 2.479,-5.25248 2.7246,-6.00232 0.504,-1.53954 0.9477,-4.95014 0.9507,-7.3102 0,-0.86827 0.3007,-2.95572 0.6658,-4.63879 0.3648,-1.68279 0.7351,-4.22621 0.8227,-5.65196 0.088,-1.42574 0.2833,-3.82018 0.4344,-5.32096 0.1512,-1.50079 0.4598,-5.15861 0.686,-8.12826 0.319,-4.19155 0.5408,-5.71772 0.9919,-6.82175 0.3954,-0.96842 0.5864,-2.0438 0.5981,-3.36995 0.017,-1.89399 -0.015,-1.98867 -1.1485,-3.410874 -4.5842,-5.75156 -5.2249,-6.77127 -7.0267,-11.18304 -3.5445,-8.67863 -5.8186,-13.87872 -7.774,-17.77503 -2.3628,-4.70837 -2.7235,-5.9543 -2.0801,-7.18658 0.6036,-1.15642 1.8697,-2.26482 2.9366,-2.57071 1.136,-0.3258 1.3218,-0.31816 3.4259,0.13944 m 25.4487,58.775134 c 1.1507,1.15069 3.5781,5.7038 3.5781,6.71151 0,0.38147 -0.3427,0.88274 -0.8868,1.29613 -1.9085,1.45085 -2.6365,1.66724 -6.0337,1.79467 -3.3904,0.12716 -3.7072,0.0327 -3.7173,-1.10785 -0.01,-0.60277 0.6988,-0.62706 0.9272,-0.0319 0.1468,0.38257 0.5449,0.42704 2.8261,0.31571 2.6927,-0.13179 3.8628,-0.51436 5.4661,-1.7873 l 0.6285,-0.4988 -1.264,-2.5246 c -2.3046,-4.60359 -3.8892,-5.42438 -6.405,-3.3181 -0.7171,0.60032 -1.4403,1.09148 -1.607,1.09148 -0.6808,0 -0.2251,-0.83307 1.0309,-1.88471 1.2135,-1.01617 1.4722,-1.11686 2.8652,-1.11686 1.4151,0 1.6115,0.0805 2.5917,1.06065 m 36.5954,0.16727 c 0,0.31571 -0.3536,0.4093 -1.545,0.4093 -1.3392,0 -1.8244,0.16372 -3.6433,1.2301 -1.6834,0.98697 -2.1956,1.44567 -2.5896,2.3194 -0.4699,1.04209 -0.4704,1.13541 -0.011,2.15376 0.403,0.8942 0.7706,1.19544 2.2924,1.88062 0.9971,0.44887 2.1502,0.8931 2.5631,0.98724 0.4327,0.0988 0.7503,0.35501 0.7503,0.6055 0,0.62351 -1.5621,0.29852 -3.9566,-0.82297 -1.7447,-0.81698 -1.9679,-1.01781 -2.5759,-2.31531 l -0.6652,-1.42083 0.7116,-1.4514 c 0.6252,-1.2743 0.9753,-1.60556 2.8725,-2.71806 1.9857,-1.16406 2.3082,-1.26666 3.9787,-1.26666 1.434,0 1.8179,0.0865 1.8179,0.40931 m 5.7303,17.48633 c 0,1.72318 -2.4458,9.13078 -4.8249,14.61465 l -1.4967,3.44963 -2.9107,2.52186 c -2.5631,2.22062 -3.4027,2.7579 -7.0351,4.50236 -3.4041,1.63449 -4.7035,2.10492 -7.4382,2.69213 -2.1022,0.4516 -4.1618,0.71165 -5.6348,0.71165 -2.2686,0 -2.3884,-0.0338 -5.2505,-1.48114 -4.2306,-2.13957 -6.4032,-4.19429 -12.1387,-11.48019 -2.5991,-3.30173 -5.6729,-7.1642 -6.8307,-8.58313 -2.0566,-2.5205 -2.4654,-3.28672 -1.754,-3.28672 0.3844,0 2.2367,2.22989 9.4072,11.32411 5.6901,7.21714 7.6684,9.08303 11.9034,11.22642 l 2.9702,1.50352 1.1823,-1.16052 c 0.9188,-0.90184 1.2555,-1.48714 1.5106,-2.62747 0.2925,-1.30677 0.271,-1.58073 -0.1959,-2.50576 -0.2884,-0.57139 -1.4146,-1.79849 -2.5025,-2.72707 -1.7949,-1.53162 -2.4438,-2.48121 -1.6959,-2.48121 0.51,0 4.483,3.56887 4.9321,4.43032 0.3712,0.71219 0.4776,0.77386 0.6877,0.39839 0.3072,-0.54874 6.0872,-4.55584 6.5715,-4.55584 0.9521,0 0.073,0.91385 -2.6444,2.75054 -3.3939,2.29374 -3.7249,2.81874 -3.2747,5.19299 0.2481,1.30759 0.9471,2.69841 1.3564,2.69841 1.3257,0 4.9357,-1.2462 8.3248,-2.87387 3.5516,-1.70544 4.4617,-2.28474 6.8793,-4.3782 l 2.786,-2.41244 1.4847,-3.42207 c 1.855,-4.2756 3.5238,-8.97606 4.2909,-12.08569 0.385,-1.56082 0.7193,-2.38761 0.9648,-2.38761 0.2066,0 0.3758,0.19455 0.3758,0.43195 m -26.8938,26.55108 c 0.4914,0.95041 0.2529,1.12259 -1.5546,1.12259 h -1.1168 l 0.6617,-0.70728 c 1.1529,-1.23255 1.545,-1.3136 2.0097,-0.41531 M 126.2138,300.13359 c 0.0919,0.71274 0.53509,4.74903 0.98478,8.96951 l 0.81752,7.67311 3.25998,9.46641 c 2.98083,8.65627 3.50993,9.9494 6.18051,15.11156 2.16768,4.18937 3.53749,6.45392 5.31278,8.78287 2.38188,3.12491 2.39362,3.14837 2.81902,5.59383 0.55393,3.18413 0.5643,12.56485 0.0196,17.60013 -0.21912,2.02606 -0.40085,5.37226 -0.40385,7.43571 -0.005,3.15083 -0.071,3.75196 -0.41476,3.75196 -0.34546,0 -0.40849,-0.62678 -0.40385,-4.02483 0.003,-2.21353 0.18473,-5.68252 0.40385,-7.70858 0.54083,-4.99898 0.53073,-13.34417 -0.0197,-16.50865 -0.4254,-2.44546 -0.43714,-2.46892 -2.81902,-5.59383 -1.77529,-2.32895 -3.1451,-4.5935 -5.31278,-8.78287 -2.67085,-5.16216 -3.1994,-6.45502 -6.18105,-15.1132 l -3.26053,-9.46804 -0.95859,-8.89939 c -1.11004,-10.30276 -1.06665,-9.58183 -0.57494,-9.58183 0.25241,0 0.44096,0.44368 0.55093,1.29613"
     stroke="none"
     fill="#000000"
     fill-rule="evenodd"
     id="path2"
     style="stroke-width:1" />
  <rect
     style="fill:none;stroke:#1a1a1a;stroke-width:1.88976;stroke-linecap:round;stroke-linejoin:round;opacity:0"
     id="rect1"
     width="498.11017"
     height="498.11017"
     x="0.94488001"
     y="0.94488001"
     ry="9.9237108" />
</svg>
