<?xml version="1.0" encoding="UTF-8" standalone="no"?>
<svg
   id="a"
   viewBox="0 0 499.99991 499.99994"
   version="1.1"
   width="499.99994"
   height="499.99994"
   sodipodi:docname="macFas5_Jamie Whitehouse.svg"
   inkscape:version="1.3.2 (1:1.3.2+202311252150+091e20ef0f)"
   xmlns:inkscape="http://www.inkscape.org/namespaces/inkscape"
   xmlns:sodipodi="http://sodipodi.sourceforge.net/DTD/sodipodi-0.dtd"
   xmlns="http://www.w3.org/2000/svg"
   xmlns:svg="http://www.w3.org/2000/svg">
  <sodipodi:namedview
     id="namedview1"
     pagecolor="#ffffff"
     bordercolor="#cccccc"
     borderopacity="1"
     inkscape:showpageshadow="0"
     inkscape:pageopacity="1"
     inkscape:pagecheckerboard="0"
     inkscape:deskcolor="#d1d1d1"
     inkscape:zoom="0.73084399"
     inkscape:cx="357.12136"
     inkscape:cy="253.132"
     inkscape:window-width="1850"
     inkscape:window-height="1136"
     inkscape:window-x="70"
     inkscape:window-y="27"
     inkscape:window-maximized="1"
     inkscape:current-layer="a" />
  <defs
     id="defs4">
    <style
       id="style2">.b{fill:#000;}</style>
  </defs>
  <path
     class="b"
     d="m 228.68535,53.441457 c 0.69968,-3.810239 4.20605,-6.189139 11.18283,-10.787009 6.14516,-4.04613 8.61202,-4.665844 19.57095,-10.387199 13.70567,-7.152694 15.30893,-9.035824 16.37643,-11.182831 1.42734,-2.870673 1.63925,-5.681374 4.79379,-10.387199 1.31539,-1.9630935 3.83822,-5.6533875 5.99323,-5.1936005 1.43534,0.307858 1.2954,2.155004 3.59434,4.393969 2.06704,2.0110715 3.28248,1.5952635 5.59341,3.1945245 1.91911,1.331385 1.96309,2.230969 5.59342,7.988308 2.69075,4.274024 2.51084,3.52637 5.59341,8.388123 4.17007,6.57696 3.53037,6.409037 4.79379,7.588492 0.79563,0.743656 1.64723,1.371366 11.58264,5.593415 4.31401,1.831153 4.63786,1.919113 5.1936,1.999076 4.25404,0.599722 5.74535,-1.57927 10.3872,-1.199446 1.03552,0.08396 5.52545,0.455789 6.39305,2.794704 0.6317,1.711209 -1.3154,2.734736 -1.99908,6.788862 -0.26388,1.583268 -0.17592,2.918651 0,5.593414 0.2119,3.210516 0.57973,3.962169 0.79963,6.393045 0.2079,2.306935 0.48378,5.377516 -0.39982,8.388124 -1.58726,5.397505 -5.93325,7.288631 -5.19359,8.787938 0.61971,1.25542 3.85821,0.307858 7.18867,0.399815 6.63693,0.183915 11.41473,4.441947 15.5768,7.988308 18.58741,15.82069 10.03936,4.757801 31.55742,25.16437 15.43686,14.64123 23.15729,21.96185 29.15852,29.55834 23.64908,29.93017 30.32199,61.6595 33.15268,75.89692 2.49085,12.51421 5.32554,27.38334 3.19453,46.7344 -1.13148,10.29524 -4.61787,21.51005 -11.58265,43.93969 -3.52637,11.35475 -8.19222,26.25186 -15.97662,45.53495 -2.01107,4.9777 -6.67692,16.31246 -13.98154,31.55741 -16.6683,34.78392 -25.00045,52.17189 -36.3512,64.71009 -22.33368,24.6726 -50.58862,32.98875 -61.11575,35.95138 -7.37259,2.07504 -57.3295,15.26095 -107.05052,-12.78209 -11.42672,-6.44502 -37.31875,-21.04627 -50.72855,-49.13329 -12.3343,-25.82806 -17.97569,-42.34042 -17.97569,-42.34042 -4.57389,-13.38982 -6.57297,-22.23373 -15.18099,-28.3589 -8.52806,-6.07319 -18.33552,-5.77333 -24.36474,-5.59341 -3.56635,0.10795 -24.784535,0.75165 -37.146825,15.5768 -6.97277,8.36413 -7.47254,16.85221 -15.97661,19.57095 -2.8067,0.89959 -7.33261,1.43534 -9.18775,-0.79963 -2.47486,-2.98262 0.97554,-9.48761 3.19452,-13.58172 8.0043,-14.74518 20.17867,-22.46162 21.96984,-23.56911 10.12332,-6.24911 19.18714,-8.06427 27.16345,-9.58756 13.309845,-2.53883 26.375805,-5.02968 39.945535,1.19944 10.26725,4.70982 16.11655,12.25834 21.17021,18.77532 7.34461,9.47162 9.39966,16.32046 15.18098,29.55834 9.3077,21.31414 13.95755,31.96922 21.57003,41.5408 15.09703,18.98722 34.45208,27.33136 42.74025,30.35796 20.70243,7.56051 38.19434,5.98524 49.92892,4.79379 13.52975,-1.37137 40.87311,-4.14609 64.31028,-24.36474 24.51267,-21.14623 36.56709,-54.31089 30.75778,-59.11667 -2.30294,-1.90712 -5.44149,2.27495 -16.77625,4.79378 -20.14269,4.47793 -33.55649,-3.53836 -38.34627,3.19453 -2.48685,3.49838 0.24788,6.9048 -3.19453,11.58264 -2.56281,3.47839 -6.58495,5.00169 -11.18283,5.99323 -20.45454,4.39797 -41.90063,-3.97416 -43.93969,-4.79378 -11.62263,-4.67784 -17.43194,-7.01676 -22.76947,-11.18283 -3.29848,-2.57881 -6.26511,-5.49746 -11.18283,-5.99323 -4.48193,-0.45179 -5.61741,1.61525 -12.38228,1.99907 -6.97278,0.39182 -7.52452,-1.70321 -11.58265,-0.39981 -5.02567,1.61125 -5.10564,5.12163 -10.3872,6.39304 -3.76226,0.90359 -4.85375,-0.59972 -7.9883,0.39982 -4.43395,1.41534 -6.53698,5.80132 -7.98831,8.38812 -6.43703,11.4707 -11.83453,11.91849 -20.64646,10.11132 -2.17499,-0.44379 -7.58049,2.8307 -8.10025,0.42781 -0.57574,-2.65078 0.71566,-2.43088 -0.19991,-3.77426 -0.99154,-1.45933 -3.13056,0.092 -3.92219,-1.19945 -0.92757,-1.51529 1.24343,-2.44686 0.28387,-4.26202 -0.84761,-1.59926 -0.8676,0.4398 -2.27495,-1.41935 -1.40335,-1.85514 1.42734,-6.45301 2.13102,-7.53251 8.54405,-13.05797 20.31461,-21.88989 22.73749,-23.10532 17.06411,-8.55205 17.56788,-8.18422 24.76455,-11.98247 35.89941,-18.95923 35.61954,-34.56802 57.92123,-40.34535 3.40243,-0.87959 11.08687,-2.50684 13.18191,-7.98831 1.45932,-3.82223 -0.68769,-7.19667 -2.3949,-11.98246 -5.85729,-16.39642 0.096,-30.7058 -1.99907,-31.1576 -1.64324,-0.35183 -3.4744,8.85991 -9.58757,18.77533 -5.87329,9.52359 -12.68214,14.80915 -21.57003,21.57003 -18.99122,14.44532 -41.72072,24.71257 -54.72271,33.15267 -1.95909,1.27142 -5.16961,3.4584 -8.78794,6.78887 -4.29401,3.95417 -4.64585,5.36552 -6.39304,6.78886 -7.54052,6.15715 -19.0352,-5.4215 -43.53988,-7.98831 -6.76487,-0.70767 -11.47469,-0.41181 -18.77532,-3.19452 -5.741345,-2.19099 -10.151305,-2.8307 -9.519595,-6.99277 0.35584,-2.33892 0.51576,-2.58281 3.13455,-2.94664 3.93019,-0.54775 7.716435,-1.75119 11.814535,-1.7232 10.48316,0.064 6.62094,-1.04352 12.5502,-2.31493 13.66568,-2.93065 17.23204,3.52637 27.96308,1.99907 4.59387,-0.65569 8.52006,-2.49085 31.15759,-25.56418 12.59418,-12.83807 18.89127,-19.2551 25.56419,-27.16345 14.02552,-16.61632 21.03827,-24.92448 26.36381,-35.55156 8.91588,-17.79578 2.23097,-17.9637 11.98246,-61.91538 0.75965,-3.41443 9.36767,-42.03258 1.59926,-46.73441 -0.38382,-0.23189 -1.83515,-1.00353 -3.99415,-2.39489 -2.09103,-1.35138 -5.54943,-3.57835 -7.98831,-5.99323 -5.6174,-5.55343 -6.7009,-12.91803 -6.78886,-13.58172 -0.91558,-6.82485 1.58727,-12.27833 2.39489,-13.981539 1.71121,-3.602335 2.97463,-4.006148 4.79379,-8.388123 1.61525,-3.890202 2.10303,-7.152694 2.39489,-9.187753 0.27587,-1.935106 0.92357,-6.692907 0,-12.382277 -1.53929,-9.467624 -5.68137,-10.759028 -4.79378,-15.576801 z"
     id="path6"
     style="stroke-width:1" />
  <rect
     style="fill:none;stroke:#1a1a1a;stroke-width:1.88976;stroke-linecap:round;stroke-linejoin:round;opacity:0"
     id="rect1"
     width="498.11017"
     height="498.11017"
     x="0.94488001"
     y="0.94488001"
     ry="9.9237108" />
</svg>
