<?xml version="1.0" encoding="UTF-8" standalone="no"?>
<!-- Created with Inkscape (http://www.inkscape.org/) -->

<svg
   version="1.1"
   width="499.99994"
   height="499.99994"
   viewBox="0 0 499.99994 499.99994"
   id="Layer_1"
   xml:space="preserve"
   sodipodi:docname="manPen1_Steven Traver_NOTOK.svg"
   inkscape:version="1.3.2 (1:1.3.2+202311252150+091e20ef0f)"
   xmlns:inkscape="http://www.inkscape.org/namespaces/inkscape"
   xmlns:sodipodi="http://sodipodi.sourceforge.net/DTD/sodipodi-0.dtd"
   xmlns="http://www.w3.org/2000/svg"
   xmlns:svg="http://www.w3.org/2000/svg"><sodipodi:namedview
   id="namedview1"
   pagecolor="#ffffff"
   bordercolor="#cccccc"
   borderopacity="1"
   inkscape:showpageshadow="0"
   inkscape:pageopacity="1"
   inkscape:pagecheckerboard="0"
   inkscape:deskcolor="#d1d1d1"
   inkscape:zoom="0.9019608"
   inkscape:cx="239.47826"
   inkscape:cy="349.23912"
   inkscape:window-width="1850"
   inkscape:window-height="1136"
   inkscape:window-x="70"
   inkscape:window-y="27"
   inkscape:window-maximized="1"
   inkscape:current-layer="Layer_1" /><defs
   id="defs17">
        
        
        
    
            
            
            
            
            
            
            
            
            
        </defs>
    
    <path
   d="m 141.00001,372.65756 c 4.667,0 9.333,0 14,0 -1.392,1.933 -5.364,0.835 -8,1 -2.352,0.147 -4.957,1.83 -6,0 0,-0.333 0,-0.667 0,-1 z"
   id="path7"
   style="fill:#ffffff;fill-rule:evenodd" /><path
   d="m 151.40649,174.91386 c 1.98292,0 3.96669,0 5.94961,0 0,0.28303 0,0.56692 0,0.84995 0.88649,1.55539 3.1006,0.12494 5.09967,0 2.24045,-0.14024 5.61643,0.79299 6.79955,-0.84995 4.24972,0 8.49944,0 12.74916,0 -0.15554,0.71566 0.33063,0.81085 0.84994,0.84995 15.51658,1.16527 29.62565,3.58421 43.34715,6.79955 13.18518,3.08955 25.0572,9.13775 37.39754,12.74916 1.17547,1.37436 4.04318,1.05648 3.39977,4.24972 3.1482,-0.0238 6.09325,1.4891 8.49944,2.54983 1.24092,0.54652 2.27021,2.09001 3.39978,2.54983 1.28937,0.52442 3.0292,0.15979 4.24972,0.84995 0.35358,0.19974 0.55076,1.56475 0.84995,1.69989 0.43432,0.19548 1.30891,-0.26094 1.69988,0 0.31448,0.20993 0.57457,1.57579 0.84995,1.69988 0.40117,0.18104 1.36331,-0.26858 1.69989,0 1.32166,1.05479 1.98631,3.29609 3.39977,4.24972 1.03183,0.69526 2.2379,0.28474 3.39978,0.84995 1.5044,0.7318 2.79886,2.33734 5.09966,3.39977 0.56012,0.25839 1.87413,0.41393 2.54983,0.84995 1.59875,1.03268 2.84562,3.01305 4.24972,4.24972 0.55502,0.48872 1.20098,0.37227 1.69989,0.84994 0.90179,0.86355 3.62756,4.51916 5.94961,5.09967 2.39769,0.59921 5.45324,2.14526 7.6495,4.24972 0.39522,0.37822 2.28635,1.62934 3.39977,2.54983 1.22052,1.00888 2.84902,2.48949 4.24972,3.39978 1.04968,0.68165 2.26935,0.22948 3.39978,0.84994 0.36038,0.19804 0.54821,1.5639 0.84994,1.69989 0.44792,0.20229 1.28172,-0.25159 1.69989,0 1.63529,0.98338 2.79207,2.45209 4.24972,3.39977 3.30458,2.14866 6.77066,3.9242 10.19933,5.94961 3.16009,1.86648 6.20969,4.12903 9.34939,5.94961 1.61404,0.93664 3.34623,2.56513 5.09966,3.39978 1.36331,0.64935 2.32375,0.24138 3.39978,0.84994 1.16017,0.65616 2.13421,1.33696 3.39977,2.54983 0.7233,0.69186 1.83758,1.01739 2.54983,1.69989 0.7539,0.72245 2.42829,0.7675 4.24972,1.69989 1.37606,0.7046 2.52264,1.53925 5.09967,2.54983 3.51452,1.37861 9.40888,3.0989 14.44905,5.09967 1.67099,0.66295 3.47712,2.02626 5.09966,2.54983 1.97527,0.63746 4.59565,1.09473 6.79955,1.69989 2.05347,0.56436 4.07889,1.19332 5.94961,1.69988 0.7879,0.21334 1.76959,-0.23543 2.54983,0 0.79385,0.23969 1.41601,0.56607 2.54984,0.84995 2.77081,0.69185 9.11905,2.76657 13.5991,4.24972 0.7777,0.25753 2.06282,1.5639 2.54983,1.69989 2.75382,0.76835 6.49103,0.80404 9.34939,1.69989 0.45132,0.14109 2.226,1.62679 2.54983,1.69988 3.24849,0.72926 5.23056,0.88649 8.49944,2.54984 1.50695,0.76664 2.82862,1.86392 4.24972,2.54983 1.03438,0.49976 1.67864,0.30768 2.54983,0.84994 0.49212,0.30513 1.25962,1.4823 1.69989,1.69989 1.64889,0.8151 3.66411,0.80405 5.09967,1.69989 1.59789,0.99613 2.56768,2.92551 4.24972,4.24972 0.69695,0.54906 1.11767,0.29323 1.69988,0.84994 2.91361,2.79122 7.25428,7.60275 11.04928,11.04927 0,0.28304 0,0.56692 0,0.84995 -7.10044,1.11343 -13.76485,-1.19927 -17.84883,-1.69989 -13.86089,-1.69734 -27.3121,2.78952 -40.79731,0.84994 -0.50827,1.51291 2.49118,3.52982 0,4.24973 -5.13366,-0.31703 -9.39273,0.23968 -13.59911,0.84994 -2.82351,-2.27615 -6.0346,-4.16473 -9.34938,-5.94961 0.13939,2.68922 -2.25915,2.84051 -1.69989,5.94961 -2.40789,0.14194 -3.54172,1.55795 -5.94961,1.69989 -0.40797,-0.96214 -1.83418,-1.05903 -2.54983,-1.69989 -1.79083,-1.6064 -2.60508,-3.1125 -4.24972,-4.24972 -0.93069,-0.64341 -2.07301,-1.97102 -3.39978,-1.69989 -0.16744,-1.01058 -0.95873,-0.54396 -1.69988,0 -2.82607,2.07216 -1.74834,4.61605 -6.79956,4.24972 -2.24555,-0.16234 -4.05593,-2.58043 -5.94961,-4.24972 -4.60244,-4.05678 -6.08644,-6.86755 -8.49944,-1.69989 -2.23535,-0.25158 -0.6689,3.29779 -3.39977,2.54983 -4.80984,-3.97263 -8.72383,-8.84111 -13.59911,-12.74916 -2.52008,2.57958 -4.91012,5.29006 -8.49944,6.79956 -1.13637,-2.95951 -3.16944,-5.3555 -5.09966,-7.6495 -2.07897,-2.47079 -4.15793,-4.89568 -6.79955,-6.79955 -3.39893,0.85079 -6.60492,1.89452 -9.34939,3.39977 -1.04033,-3.04025 -3.84855,-4.38571 -5.94961,-6.79955 -0.52101,-0.59921 -0.40712,-1.97102 -0.84994,-2.54983 -1.45851,-1.90728 -3.95649,-3.66751 -5.94961,-4.24972 -3.41762,-0.58476 -4.85233,0.81425 -7.6495,0.84994 -2.94165,-5.27475 -7.72429,-8.70767 -11.89921,-12.74916 -4.5625,0.8202 -4.78689,5.97936 -9.34939,6.79955 -1.70074,-2.54898 -3.19154,-5.3079 -5.94961,-6.79955 -4.50045,4.10523 -12.24089,-0.67995 -16.99888,-1.69988 -2.1988,4.66619 -2.68412,14.3972 -10.19933,11.04927 -0.87884,3.65391 -1.53839,7.52795 -2.54983,11.04927 -3.7865,2.44614 -8.21981,4.24632 -11.04927,7.6495 -0.82615,7.05963 1.42621,11.03992 2.54983,16.14893 -0.97573,1.85713 -2.934,2.73257 -5.09966,3.39978 -1.63274,1.28171 -3.24169,2.78612 -5.94961,3.39978 -7.6002,1.72198 -23.5205,-0.8423 -28.04815,-1.69989 -1.5758,-2.3909 -2.76997,-5.16341 -4.24972,-7.6495 2.2668,0 4.53275,0 6.79955,0 -0.37993,-5.2858 -1.65739,-9.67491 -1.69989,-15.29899 -3.39808,-0.002 -5.10136,-1.69819 -8.49944,-1.69989 -1.16272,-2.29655 -6.37543,-3.87829 -7.6495,-5.09966 -0.72415,-0.69356 -0.70545,-0.25584 -1.69989,-0.84995 -1.77723,-1.06243 -3.99558,-4.24972 -5.09966,-4.24972 -0.54821,0 -0.96809,0.8525 -0.84994,0.84995 -1.46956,0.0331 -2.17416,-1.03354 -2.54984,0 2.59998,3.91569 7.31547,5.71672 7.6495,11.89921 -4.45371,0.20314 -6.43068,-2.06876 -10.19933,-2.54983 -1.34036,4.77244 5.56289,5.72607 2.54983,9.34938 -0.12834,-4.97132 -4.33301,-5.86631 -4.24972,-11.04927 -4.21997,-1.72963 -6.12809,-5.77112 -11.04927,-6.79955 -0.77855,3.93184 4.87358,5.84336 3.39978,7.6495 -3.1244,1.83842 -9.37489,0.6247 -12.74916,0 -0.37823,5.47789 3.99728,6.20204 5.09966,10.19932 -3.56551,-2.38494 -5.73032,-6.16889 -6.79955,-11.04927 -4.38061,-2.13591 -5.28495,-7.74724 -11.04927,-8.49944 0.61366,6.77661 6.30998,11.96381 3.39977,19.54871 -3.02835,2.3127 -10.23672,1.20183 -12.74916,1.69989 0.0399,2.15546 1.45681,2.59573 1.69989,3.39978 0.21929,0.725 -0.32468,1.87158 0,2.54983 0.85844,1.78998 3.89274,3.0734 2.54983,4.24972 -7.09533,-1.58514 -17.41705,-0.91284 -24.64838,0 -4.458804,-1.68034 -5.692074,-5.23735 -10.199324,-5.94961 -2.3637,-0.37312 -4.02194,1.24687 -6.79956,1.69989 -0.95958,0.15724 -1.35651,-0.7947 -1.69988,-0.84994 -1.26047,-0.20484 -1.76619,0.73605 -2.54984,0.84994 -5.2875,0.7692 -6.64146,0.32723 -10.19933,-0.84994 -1.823126,-0.60346 -3.743149,-1.11598 -5.949604,-1.69989 -0.464919,1.23497 0.992735,4.39336 -0.849944,4.24972 -0.0102,-1.12278 -1.489952,-0.77685 -1.699888,-1.69989 -0.144491,-1.27152 0.30343,-3.13629 -0.849944,-3.39978 0.725852,1.73134 -0.740301,5.28071 -1.699888,2.54984 -2.43424,-2.51329 1.770433,3.30203 -0.849944,3.39977 -5.029969,-0.55161 -5.199958,-13.75889 -3.399776,-16.99888 1.044581,-1.88007 3.104845,-4.37891 4.24972,-5.09966 2.593179,-1.63274 4.944974,0.59581 6.799552,-2.54983 1.632743,1.4228 3.991336,4.93307 5.949606,3.39977 -0.003,-2.60253 3.40658,-6.16039 0.84995,-8.49944 -1.43386,2.3093 1.34801,3.98114 -1.69989,5.09967 -1.57665,-2.10617 0.28303,-7.6495 -4.249722,-6.79956 -3.850246,-1.30041 0.450471,5.55014 -3.399776,4.24972 0.483618,-2.75042 -0.257533,-4.27522 -1.699888,-5.09966 -4.512353,-0.33998 -8.264856,2.06026 -11.899217,3.39978 -3.953939,1.45765 -7.935927,2.75296 -11.899216,4.24972 -7.267022,2.74361 -14.468598,7.23557 -23.798434,7.64949 0.209936,-1.69734 -1.713487,-3.07255 -1.699888,-5.09966 0.01955,-2.99181 5.112414,-8.62778 6.799552,-11.04928 0.730102,-1.04713 2.513285,-3.54426 2.549833,-4.24972 0.08924,-1.70158 2.015217,-1.77043 2.549832,-2.54983 0.75815,-1.10322 0.995284,-3.23148 1.699888,-4.24972 0.269432,-0.38927 1.392208,-0.43942 1.699888,-0.84994 0.538015,-0.71735 0.385025,-1.90557 0.849944,-2.54983 1.223069,-1.69309 3.350479,-3.31989 3.399776,-4.24972 0.08839,-1.67014 4.315166,-5.06057 5.099664,-5.94961 1.98207,-2.24385 3.948841,-3.761 5.949609,-5.94961 3.066598,-3.35473 5.579033,-7.29932 7.649496,-10.19933 4.092481,-5.73202 8.269106,-9.14455 12.749161,-14.44905 1.580896,-1.87158 2.73342,-4.29477 4.24972,-5.94961 1.834178,-2.00161 3.981988,-3.29098 5.949608,-5.09966 2.55323,-2.34755 5.20846,-4.85573 6.79955,-6.79955 0.23289,-0.28388 1.40241,0.23458 1.69989,0 1.48825,-1.17633 2.09171,-3.33093 3.39978,-3.39978 0.98253,-0.0519 0.37822,-0.54481 0.84994,-0.84994 2.2872,-1.48061 5.73117,-5.84847 7.6495,-5.94961 0.96213,-0.051 0.40202,-0.60091 0.84994,-0.84995 4.02704,-2.23705 5.920714,-5.33424 9.349394,-7.64949 0.92219,-0.62301 2.26425,-1.09898 3.39977,-1.69989 1.37946,-0.7301 2.25405,-1.10238 3.39978,-1.69989 3.24933,-1.69394 7.61975,-3.68876 9.34938,-5.09966 2.60338,-2.12401 5.4252,-3.63521 7.6495,-5.09967 1.68884,0.011 1.08028,2.3195 3.39978,1.69989 4.77413,-3.55786 16.20163,-3.57231 20.39865,-5.94961 z"
   id="path13"
   style="fill-rule:evenodd;stroke-width:1" />
    
<rect
   style="fill:none;stroke:#1a1a1a;stroke-width:1.88976;stroke-linecap:round;stroke-linejoin:round;opacity:0"
   id="rect1"
   width="498.11017"
   height="498.11017"
   x="0.94488001"
   y="0.94488001"
   ry="9.9237108" /></svg>
