<?xml version="1.0" encoding="UTF-8" standalone="no"?>
<svg
   width="499.99994"
   height="499.99994"
   viewBox="0 0 499.99994 499.99993"
   version="1.1"
   id="svg4"
   sodipodi:docname="melGal5_Gabriela Palomo-Munoz.svg"
   inkscape:version="1.3.2 (1:1.3.2+202311252150+091e20ef0f)"
   xmlns:inkscape="http://www.inkscape.org/namespaces/inkscape"
   xmlns:sodipodi="http://sodipodi.sourceforge.net/DTD/sodipodi-0.dtd"
   xmlns="http://www.w3.org/2000/svg"
   xmlns:svg="http://www.w3.org/2000/svg">
  <sodipodi:namedview
     id="namedview1"
     pagecolor="#ffffff"
     bordercolor="#cccccc"
     borderopacity="1"
     inkscape:showpageshadow="0"
     inkscape:pageopacity="1"
     inkscape:pagecheckerboard="0"
     inkscape:deskcolor="#d1d1d1"
     inkscape:zoom="1.0052162"
     inkscape:cx="203.93622"
     inkscape:cy="204.93103"
     inkscape:window-width="1850"
     inkscape:window-height="1136"
     inkscape:window-x="70"
     inkscape:window-y="27"
     inkscape:window-maximized="1"
     inkscape:current-layer="svg4" />
  <defs
     id="defs8" />
  <path
     d="m 364.22486,8.8461615 c -1.6015,0.282279 -3.41347,0.775788 -4.0268,1.097241 -1.03311,0.5411325 -1.19671,0.5261545 -2.22636,-0.207004 -1.53698,-1.094554 -4.24495,-1.263537 -7.79744,-0.486213 -3.34358,0.731623 -9.03986,3.4153915 -11.51778,5.4266805 -1.77893,1.444426 -4.85904,5.210841 -6.37913,7.801284 l -0.99585,1.697518 -2.44066,-0.08872 c -6.38758,-0.231584 -12.61194,2.45372 -18.42959,7.950297 -2.64805,2.501726 -2.92803,2.662645 -5.05492,2.905751 -3.24333,0.370228 -7.15184,2.358474 -11.59189,5.897145 -6.17251,4.918961 -6.78623,5.816879 -11.22551,16.425976 -1.06075,2.534755 -2.41339,6.682535 -3.00599,9.21729 -0.59259,2.534755 -1.11644,4.668558 -1.16406,4.741528 -0.048,0.07335 -0.83378,-0.377141 -1.7463,-1.000844 -3.48567,-2.381902 -5.91058,-1.869574 -9.44311,1.995927 -4.99155,5.461629 -12.37882,15.356394 -12.37882,16.581144 0,0.39366 -0.34488,0.37215 -1.63223,-0.10216 -1.61034,-0.59375 -4.06482,-0.73239 -10.08141,-0.56917 -1.84307,0.0499 -3.90429,-0.15093 -5.15131,-0.50272 -2.18642,-0.61602 -4.52684,-0.47047 -5.65212,0.35218 -0.51655,0.3779 -1.00622,0.33105 -2.50826,-0.23965 -2.71411,-1.03119 -4.98617,-0.93633 -6.4183,0.26845 l -1.16215,0.9778 -1.4594,-0.73969 c -2.21523,-1.12259 -4.56333,-1.40986 -5.65904,-0.69168 -0.70013,0.45895 -1.20516,0.51118 -2.19333,0.22775 -1.88801,-0.54152 -4.38436,-0.44858 -5.99085,0.22236 -1.09609,0.45818 -1.80429,0.50772 -3.15616,0.2216 -2.08234,-0.44089 -4.45502,-0.0615 -6.2547,1.00046 -1.13795,0.67133 -1.80044,0.75275 -4.93048,0.60412 -3.06091,-0.14517 -3.83439,-0.0565 -5.04378,0.57877 -1.1944,0.62754 -1.72977,0.69245 -3.26445,0.39596 -2.38882,-0.46125 -4.52224,-0.13481 -6.51202,0.99662 -0.88179,0.50157 -2.35079,1.03195 -3.26446,1.17943 -1.71902,0.2769 -7.08079,2.50249 -8.76602,3.6389 -0.52808,0.35602 -1.91374,0.85299 -3.07935,1.10493 -1.1656,0.25155 -2.68184,0.79998 -3.36968,1.21822 -0.68784,0.41823 -1.82733,0.76042 -2.53207,0.76042 -0.70935,0 -1.87149,0.400568 -2.60388,0.897538 -0.7274,0.49389 -2.26477,1.32882 -3.41655,1.85613 -1.97979,0.90636 -5.98394,3.81941 -7.30009,5.31031 -0.33144,0.3756 -1.36838,1.06575 -2.30432,1.53391 -0.93594,0.46816 -2.52285,1.64759 -3.526,2.62117 -1.94715,1.88916 -2.31969,1.72248 -1.03118,-0.46163 0.61986,-1.05078 0.70397,-1.51164 0.38405,-2.10923 -0.61526,-1.15024 -0.51387,-2.73523 0.17513,-2.73523 0.32145,0 0.78308,-0.4359 1.0258,-0.96897 0.37331,-0.81918 0.31262,-1.14333 -0.39211,-2.09693 -0.5373,-0.72663 -0.83378,-1.68869 -0.83378,-2.70451 0,-0.867578 -0.20394,-1.954448 -0.45357,-2.416078 -0.24964,-0.46125 -0.51079,-1.34764 -0.58108,-1.96981 -0.0703,-0.62217 -0.38443,-1.52354 -0.69859,-2.00284 -0.31416,-0.4793 -0.57109,-1.27122 -0.57109,-1.75974 0,-1.09839 -1.00622,-2.59543 -1.74475,-2.59543 -0.30225,0 -0.79461,-0.58722 -1.09456,-1.30502 -0.29994,-0.71779 -0.7946,-1.4521 -1.09916,-1.63222 -0.30455,-0.18013 -0.65827,-0.99355 -0.78654,-1.80813 -0.28842,-1.83539 -1.2236,-3.31707 -2.10077,-3.32821 -0.36486,-0.004 -1.34534,-0.960141 -2.17913,-2.123824 -1.7075,-2.383054 -2.70681,-2.820875 -4.45195,-1.950225 -1.09263,0.544972 -1.2885,0.544588 -2.12765,-0.0054 -0.64637,-0.423611 -1.35802,-0.53153 -2.36731,-0.359474 -0.79346,0.135571 -2.34081,0.231584 -3.43844,0.213534 -1.4617,-0.02381 -2.18065,0.156694 -2.68837,0.674398 -0.63446,0.647131 -0.77963,0.6575 -1.72556,0.123281 -0.95437,-0.539211 -1.1149,-0.522697 -2.11882,0.219679 -0.82572,0.610262 -1.30578,0.722021 -1.99938,0.465473 -1.01122,-0.374068 -2.22214,-0.1156 -3.11506,0.664797 -0.38905,0.339888 -0.77464,0.390967 -1.15217,0.15247 -1.190556,-0.752746 -3.066656,-0.41401 -4.141246,0.747752 -0.56916,0.615259 -1.74667,1.306939 -2.61656,1.537749 -2.04815,0.54229 -3.43689,1.65758 -4.38935,3.52523 -0.50042,0.98088 -1.02811,1.49973 -1.52546,1.49973 -1.09301,0 -2.29664,1.3607 -2.29664,2.59582 0,0.65635 -0.30302,1.24933 -0.79537,1.55657 -0.65136,0.4071 -0.7781,0.82917 -0.69821,2.33082 0.0795,1.49781 -0.096,2.08734 -0.95745,3.21645 -0.66249,0.86873 -1.39373,2.7145 -1.96635,4.962748 -1.06383,4.17927 -1.52239,5.34795 -4.09325,10.43743 -2.37115,4.69313 -4.67701,11.57691 -5.47661,16.34955 -1.14294,6.82041 -0.50042,20.35024 1.08111,22.76402 1.32307,2.01935 3.79638,2.38574 5.32069,0.78769 1.77663,-1.86227 1.96827,-2.86773 2.02165,-10.61409 l 0.0503,-7.25363 1.34457,-0.68976 c 1.86112,-0.95475 4.1689,-3.5982 4.1689,-4.77494 0,-0.91712 0.10178,-0.95898 2.32391,-0.95898 2.25901,0 2.3385,0.035 2.84546,1.24856 1.14524,2.74022 1.53813,5.91788 1.06958,8.64428 -0.4624,2.68953 -2.94876,10.69705 -3.54481,11.41523 -0.18742,0.22583 -1.04194,2.37691 -1.89953,4.77994 -1.76434,4.94661 -2.50288,6.32037 -5.75774,10.7101 -3.97418,5.35986 -4.50149,6.74207 -4.82755,12.65611 l -0.28113,5.09601 -2.0543,1.75474 c -2.17682,1.85997 -3.59475,4.65128 -3.64429,7.17451 -0.0223,1.12144 -0.34219,1.44289 -3.526,3.5379 -4.66971,3.07282 -10.8956,7.66687 -12.67569,9.35248 -1.12067,1.06152 -1.54159,1.26162 -1.90107,0.90214 -1.05307,-1.05307 -2.28934,-0.48698 -5.07104,2.32314 -3.42499,3.46033 -5.1901,6.13219 -7.58391,11.47937 -2.66495,5.95245 -3.49105,8.67539 -5.46048,17.99676 -2.61579,12.38189 -3.17727,17.73791 -2.3915,22.80588 l 0.29073,1.87457 -1.3246,-0.81842 c -1.86958,-1.15562 -2.96221,-1.08918 -2.96221,0.17973 0,3.2779 3.08434,16.78008 4.42545,19.3736 l 0.56763,1.09762 -1.63223,-0.74122 c -0.89791,-0.40748 -1.94062,-0.74468 -2.31661,-0.74929 -0.89446,-0.0111 -1.24779,0.96781 -0.7466,2.06774 0.40287,0.8841 10.83224,12.62462 12.7068,14.30447 l 1.01352,0.9079 -1.08111,-0.38712 c -0.59451,-0.21277 -1.52623,-0.38713 -2.06966,-0.38713 -0.96436,0 -0.9828,0.0488 -0.75505,1.97212 0.52653,4.44811 4.5879,10.07334 10.2454,14.19078 2.12804,1.54851 2.25363,1.71711 1.45172,1.94524 -0.48314,0.13749 -1.35917,0.26691 -1.94638,0.28804 -1.46632,0.0526 -1.75244,1.04731 -0.61795,2.14878 0.50465,0.49005 2.55972,1.7893 4.5664,2.88655 4.07405,2.22751 4.67547,2.68568 3.8993,2.96873 -0.79384,0.28919 -3.13119,2.43375 -3.13119,2.87311 0,0.37368 1.51817,2.3819 5.47776,7.24671 2.02319,2.48598 5.28343,4.87978 8.41347,6.1775 1.52738,0.63292 3.16844,0.90598 6.46362,1.0742 4.04677,0.20662 4.32022,0.26692 3.26522,0.72087 -1.39257,0.59874 -2.49711,1.55311 -2.49711,2.15685 0,0.24425 0.89792,0.67401 1.99477,0.95514 1.09724,0.28112 2.75175,0.84607 3.67617,1.25508 0.92441,0.40864 4.12204,1.59652 7.10537,2.63922 6.13027,2.14264 7.81857,3.02174 14.23764,7.41454 6.319986,4.32445 9.522226,6.19748 19.456546,11.37875 9.55411,4.9831 12.67301,6.69866 18.71072,10.2911 5.20661,3.09778 6.96404,3.97803 15.54112,7.78285 8.56862,3.80098 13.50333,5.47008 18.55555,6.27659 13.51294,2.15686 16.19325,2.54822 20.16283,2.94417 4.30025,0.42861 18.42728,0.26231 24.91894,-0.2938 l 2.83585,-0.24272 -0.24733,6.68254 c -0.44243,11.95367 -1.80428,24.25568 -4.50226,40.67129 -0.39941,2.42914 -0.72701,5.05684 -0.72816,5.83954 -0.004,1.84653 -1.69023,7.98409 -2.92457,10.63521 -2.03395,4.369 -3.93156,5.94785 -7.86427,6.54198 -1.35456,0.2047 -3.45265,0.5442 -4.66242,0.75389 -1.20938,0.2097 -3.40809,0.28036 -4.88593,0.15631 -3.72916,-0.31262 -13.18956,0.58684 -15.63022,1.48591 -2.11037,0.77771 -5.51232,3.48298 -5.51232,4.38397 0,0.68016 0.17628,0.67402 2.30432,-0.0806 1.42907,-0.50695 2.72601,-0.56917 7.48905,-0.36024 9.17581,0.40249 15.44549,1.22129 14.7419,1.92449 -0.083,0.083 -3.17459,0.67901 -6.87033,1.3246 -21.98324,3.83977 -20.93593,3.55058 -24.80719,6.85383 -1.56387,1.3342 -2.84315,2.66648 -2.84315,2.96067 0,0.71856 5.32452,0.39327 7.48905,-0.45703 1.16176,-0.45664 3.97112,-0.68361 11.52161,-0.93094 11.25969,-0.36908 15.53114,-0.79231 19.9708,-1.97942 2.9864,-0.79844 9.0821,-1.10223 9.70081,-0.48314 0.14172,0.14134 0.0449,0.5515 -0.21468,0.91098 -2.44412,3.38466 -2.62732,5.07796 -0.85299,7.87617 2.60465,4.10707 5.76887,4.03449 5.76887,-0.13211 0,-0.86451 0.67402,-1.83501 2.98449,-4.29564 1.64144,-1.74822 3.78254,-4.21576 4.75804,-5.48314 0.97549,-1.26738 2.22482,-2.72332 2.77632,-3.23527 0.5515,-0.51232 1.00277,-1.22359 1.00277,-1.58038 0,-0.89984 1.36684,-2.55012 2.60158,-3.14233 1.86074,-0.89138 1.94062,-2.18411 0.3322,-5.36292 -0.78193,-1.54505 -1.52469,-3.45418 -1.65066,-4.24264 l -0.22928,-1.43329 2.25747,0.91597 c 3.9473,1.60188 6.44173,1.90682 9.74651,1.19095 1.58423,-0.34335 3.48529,-0.71396 4.2246,-0.8238 l 1.34418,-0.20009 -0.87986,0.77387 c -0.48391,0.42591 -1.83732,1.13257 -3.00753,1.57039 -5.56186,2.08081 -9.0268,5.08603 -6.83462,5.9271 2.68146,1.02888 12.85198,-0.66479 18.58551,-3.09547 3.65543,-1.54966 4.19003,-1.90414 5.1398,-3.4054 1.15369,-1.82311 2.90075,-3.45457 4.80182,-4.48383 1.6691,-0.9033 2.01935,-2.05699 2.30355,-7.58775 l 0.24618,-4.788 1.28697,1.62762 c 1.57423,1.99093 4.2918,3.91543 5.52845,3.91543 0.74545,0 1.12681,0.44281 2.04317,2.37153 0.91481,1.92565 2.66994,3.96612 9.33366,10.84952 8.21491,8.48643 9.75035,9.70389 10.9655,8.69536 0.30839,-0.25616 1.02273,-1.67486 1.58768,-3.15347 l 1.02734,-2.6876 1.93179,3.38773 c 2.37768,4.16891 5.00576,7.64421 5.97165,7.89692 1.47477,0.38559 3.04709,-1.11606 5.56801,-5.31838 0.77426,-1.29004 1.97174,-3.53675 2.66111,-4.9927 1.67525,-3.5379 1.74207,-7.28281 0.21162,-11.87724 -1.77817,-5.33758 -10.87794,-24.51646 -15.83684,-33.37927 -2.47101,-4.41546 -3.93617,-7.75366 -3.56594,-8.12389 0.22774,-0.22736 2.57239,3.65543 4.31446,7.1434 2.33658,4.67931 5.33719,8.65158 10.83838,14.34671 7.19294,7.44681 10.87832,11.65949 13.18764,15.07335 1.01467,1.50049 2.38036,3.17843 3.03479,3.72916 1.22859,1.03387 3.41654,1.66641 4.42468,1.27928 1.98134,-0.76004 6.23012,-11.06766 6.62531,-16.0715 0.29419,-3.72724 -1.42944,-8.45532 -4.79952,-13.16459 l -1.36838,-1.91259 1.88686,1.59152 c 1.03809,0.87564 2.57853,2.31239 3.42345,3.19264 1.8112,1.88686 2.89692,2.49712 5.02342,2.82241 2.12536,0.32491 2.80244,-0.26961 3.45226,-3.03172 1.17444,-4.99308 0.4793,-11.3196 -1.9652,-17.88999 -2.4541,-6.59497 -3.79829,-9.01682 -6.65757,-11.99323 l -2.54129,-2.64537 1.98902,1.00008 c 1.09417,0.54997 2.10039,1.1802 2.23634,1.39988 0.13596,0.22006 1.25701,0.90982 2.49175,1.53314 1.50856,0.76158 2.91535,1.91335 4.29256,3.51409 3.07666,3.57669 3.68884,4.1689 4.30755,4.1689 1.40333,0 2.14379,-2.12919 2.76596,-7.94991 0.21391,-2.00361 0.0876,-2.88693 -0.79615,-5.56878 -0.578,-1.7532 -1.24011,-3.42155 -1.47169,-3.70728 -0.24349,-0.30033 -0.37676,-1.70175 -0.31646,-3.32399 0.0576,-1.54236 -0.0853,-3.55519 -0.31723,-4.47307 -0.73969,-2.92803 -3.16268,-8.09048 -5.46969,-11.65411 -1.54928,-2.39343 -2.16876,-3.69268 -2.0136,-4.2246 0.56034,-1.92372 0.62371,-4.31369 0.20624,-7.77478 -0.4336,-3.59705 -0.90176,-7.6661 -1.36493,-11.86381 l -0.21737,-1.97211 1.31269,-0.24656 c 0.72241,-0.13519 1.50434,-0.47623 1.73785,-0.75774 0.2335,-0.28151 0.6863,-2.26323 1.0066,-4.40356 0.75966,-5.08027 0.18473,-9.02527 -1.90414,-13.06436 l -0.61448,-1.18865 0.99124,0.37715 c 1.80966,0.68784 3.23335,0.44819 4.42737,-0.74584 1.49973,-1.49973 1.4571,-2.91189 -0.16092,-5.31607 l -1.2835,-1.90721 2.42722,1.10031 c 4.89322,2.21907 5.53152,1.42792 4.53452,-5.61985 -0.35871,-2.53514 -1.31116,-7.01897 -2.11614,-9.96428 -1.17597,-4.30063 -1.77125,-5.79038 -3.02365,-7.56624 -1.94216,-2.75405 -1.97788,-3.18342 -0.11906,-1.43022 3.63622,3.4296 5.08871,3.90314 5.08871,1.65873 0,-1.58422 -0.63023,-2.93571 -2.85697,-6.12566 -2.56663,-3.67693 -3.90698,-6.05115 -4.17313,-7.39303 -0.13634,-0.68631 -1.20247,-3.24948 -2.36961,-5.69552 -1.16714,-2.44604 -2.1219,-4.51494 -2.1219,-4.59712 0,-0.60412 3.02826,2.08579 3.60511,3.20224 0.39865,0.77156 1.60842,2.27513 2.68838,3.34165 1.07996,1.06613 3.06167,3.18841 4.40356,4.71618 1.85498,2.11153 2.67954,2.77709 3.44035,2.77709 0.54997,0 3.20992,-0.88447 5.91059,-1.96559 5.61794,-2.24901 7.75366,-3.84437 9.29986,-6.94714 1.17981,-2.3677 1.21092,-3.05016 0.2385,-5.19241 -0.42476,-0.93594 -0.58376,-1.71826 -0.37561,-1.8473 0.19894,-0.1229 1.19288,0.47738 2.2087,1.33382 1.01582,0.85682 2.66456,1.83616 3.66387,2.17682 1.78124,0.6068 1.89415,0.59566 5.73815,-0.55842 2.15646,-0.64751 5.21698,-1.54658 6.80121,-1.99785 1.77087,-0.50464 4.35977,-1.71211 6.72094,-3.13426 5.41823,-3.26369 15.0864,-10.22581 16.13064,-11.61571 0.48275,-0.64252 1.43559,-2.80436 2.1169,-4.80412 1.05269,-3.08933 1.20363,-3.97496 1.00354,-5.88985 -0.12943,-1.23934 -0.52155,-2.85621 -0.87142,-3.59321 -1.22437,-2.58046 -6.00814,-4.90667 -12.90728,-6.27621 -1.21438,-0.2408 -3.54751,-0.92633 -5.18473,-1.52315 -5.45394,-1.98863 -2.93302,-2.79207 3.45495,-1.10108 2.39342,0.63368 3.81826,0.7585 7.29702,0.63906 5.30455,-0.18166 7.10845,-0.9129 11.61955,-4.70965 l 3.07243,-2.58583 2.68837,0.23081 c 1.47861,0.12712 4.58945,0.3998 6.91297,0.60681 7.63192,0.679 14.39626,0.52769 17.6876,-0.39558 6.10991,-1.7148 11.04577,-4.56409 15.8184,-9.13318 6.52239,-6.24356 7.23097,-14.85482 1.81466,-22.05429 -1.15485,-1.53545 -2.0954,-2.87887 -2.08925,-2.98563 0.006,-0.10677 0.61487,-0.62601 1.35379,-1.15408 1.96712,-1.40564 3.82824,-4.08672 4.76265,-6.86036 0.95015,-2.82049 1.16675,-9.29986 0.41861,-12.52591 -0.45779,-1.97327 -3.59819,-7.82625 -5.25731,-9.79798 l -0.94054,-1.11798 1.61302,-1.65105 c 2.05469,-2.10384 3.75797,-4.76188 5.28304,-8.24486 1.02773,-2.34734 1.20517,-3.21415 1.20517,-5.88831 0,-2.64229 -0.18051,-3.54751 -1.14833,-5.75198 -2.58929,-5.89945 -5.7174,-10.24617 -9.33557,-12.97257 l -1.07459,-0.80958 1.71519,-3.38697 c 0.94362,-1.86266 1.92334,-4.45886 2.1772,-5.76964 0.65865,-3.39619 0.32683,-9.08402 -0.65712,-11.27505 -1.70328,-3.79138 -8.2802,-10.099458 -11.92179,-11.433668 -0.7996,-0.29303 -2.95376,-0.64329 -4.78647,-0.77847 l -3.33243,-0.24541 3.53752,-4.41662 c 1.94561,-2.42914 4.72271,-5.88563 6.17136,-7.68108 3.34626,-4.147009 3.77947,-5.18357 3.78638,-9.056753 0.005,-2.551269 -0.17589,-3.50065 -1.01313,-5.329514 -1.49358,-3.26292 -3.97188,-6.542355 -7.46485,-9.878246 -3.40733,-3.254088 -4.54528,-3.765647 -8.38351,-3.769104 l -2.35003,-0.0023 -0.17628,-3.967276 c -0.2143,-4.81795 -1.04117,-6.818486 -3.80251,-9.200772 -4.18389,-3.608953 -8.82518,-5.786154 -13.85167,-6.497037 l -3.00906,-0.425532 v -2.28438 c 0,-1.894921 -0.24464,-2.749824 -1.43598,-5.01651 -1.97519,-3.759118 -5.21468,-7.122661 -8.54558,-8.873178 -3.84015,-2.017818 -6.89146,-2.583529 -12.32006,-2.284736 l -4.44312,0.244643 -2.40878,-1.773177 c -2.95453,-2.174896 -4.73423,-2.686456 -8.57784,-2.466009 -2.47024,0.141716 -3.07589,0.05876 -3.57286,-0.490436 -1.02619,-1.134111 -4.96274,-2.6614935 -7.32928,-2.8439195 -1.23934,-0.09563 -3.56402,0.05684 -5.16514,0.338736"
     stroke="none"
     fill="#000000"
     fill-rule="evenodd"
     id="path2"
     style="stroke-width:0.999999" />
  <rect
     style="fill:none;stroke:#1a1a1a;stroke-width:1.88976;stroke-linecap:round;stroke-linejoin:round;opacity:0"
     id="rect1"
     width="498.11017"
     height="498.11017"
     x="0.94488001"
     y="0.94488001"
     ry="9.9237108" />
</svg>
