<?xml version="1.0" encoding="UTF-8" standalone="no"?>
<svg
   version="1.0"
   width="374.99997pt"
   height="374.99997pt"
   viewBox="0 0 374.99997 374.99997"
   preserveAspectRatio="xMidYMid"
   id="svg1"
   sodipodi:docname="micMur2_Arpat Ozgul.svg"
   inkscape:version="1.3.2 (1:1.3.2+202311252150+091e20ef0f)"
   xmlns:inkscape="http://www.inkscape.org/namespaces/inkscape"
   xmlns:sodipodi="http://sodipodi.sourceforge.net/DTD/sodipodi-0.dtd"
   xmlns="http://www.w3.org/2000/svg"
   xmlns:svg="http://www.w3.org/2000/svg">
  <defs
     id="defs1" />
  <sodipodi:namedview
     id="namedview1"
     pagecolor="#ffffff"
     bordercolor="#cccccc"
     borderopacity="1"
     inkscape:showpageshadow="0"
     inkscape:pageopacity="1"
     inkscape:pagecheckerboard="0"
     inkscape:deskcolor="#d1d1d1"
     inkscape:document-units="pt"
     inkscape:zoom="0.96758184"
     inkscape:cx="164.32719"
     inkscape:cy="344.15694"
     inkscape:window-width="1850"
     inkscape:window-height="1136"
     inkscape:window-x="70"
     inkscape:window-y="27"
     inkscape:window-maximized="1"
     inkscape:current-layer="svg1" />
  <metadata
     id="metadata1">
Created by potrace 1.16, written by Peter Selinger 2001-2019
</metadata>
  <g
     transform="matrix(-0.0189578,0,0,-0.0189578,297.03252,373.31374)"
     fill="#000000"
     stroke="none"
     id="g1"
     style="stroke-width:5.27487">
    <path
       d="m 1856,19564 c -21,-14 -52,-30 -70,-35 -31,-9 -91,-54 -155,-120 -75,-75 -202,-215 -218,-239 -9,-14 -20,-27 -23,-30 -11,-9 -110,-139 -110,-145 0,-3 -12,-24 -27,-48 -15,-23 -37,-61 -50,-85 -23,-45 -151,-220 -190,-259 -12,-13 -34,-39 -50,-60 -15,-21 -38,-48 -50,-60 -12,-12 -34,-39 -50,-60 -15,-20 -79,-88 -140,-151 -62,-62 -120,-129 -129,-148 -9,-19 -45,-64 -81,-100 -35,-37 -76,-83 -91,-103 -15,-20 -33,-42 -40,-49 -7,-8 -25,-30 -40,-50 -40,-55 -113,-122 -136,-127 -12,-2 -40,-6 -63,-8 -46,-5 -91,-36 -117,-79 -19,-31 -21,-100 -4,-131 6,-12 11,-54 10,-94 l -2,-73 57,-59 c 32,-32 67,-76 78,-97 11,-21 30,-54 43,-73 12,-19 25,-46 29,-60 3,-14 22,-48 41,-75 19,-27 46,-72 61,-100 15,-28 38,-69 52,-91 14,-22 32,-58 40,-80 8,-22 24,-55 35,-72 27,-41 294,-576 294,-589 0,-11 149,-307 210,-419 21,-38 56,-122 77,-185 20,-63 43,-126 50,-140 7,-14 13,-38 13,-54 0,-35 26,-141 46,-183 7,-17 14,-36 14,-42 0,-6 29,-68 65,-137 36,-69 70,-145 75,-167 6,-23 20,-61 31,-84 10,-24 19,-46 19,-51 0,-4 13,-34 30,-67 16,-33 30,-67 30,-75 1,-8 10,-28 20,-45 37,-58 50,-84 65,-132 20,-59 33,-88 63,-133 23,-34 23,-38 19,-255 -5,-233 -13,-300 -40,-353 -27,-50 -77,-210 -77,-244 0,-16 -6,-44 -14,-61 -35,-81 -66,-197 -66,-250 0,-19 -9,-63 -20,-97 -11,-34 -20,-77 -20,-94 0,-17 -7,-44 -15,-60 -18,-34 -40,-164 -65,-381 -5,-44 -16,-111 -25,-150 -11,-53 -15,-134 -15,-343 0,-238 2,-277 17,-305 9,-18 21,-66 25,-107 5,-41 13,-109 18,-150 19,-148 23,-242 11,-295 -10,-44 -9,-67 5,-137 9,-45 22,-90 29,-98 25,-30 44,-77 55,-140 12,-70 32,-110 76,-158 16,-17 42,-56 59,-88 22,-42 41,-64 70,-80 48,-26 52,-41 31,-108 -15,-47 -16,-111 -11,-592 3,-296 6,-586 6,-644 1,-58 -4,-154 -10,-215 -11,-94 -28,-443 -34,-695 -1,-41 5,-109 13,-150 12,-58 15,-156 14,-430 -1,-195 -4,-396 -9,-446 -6,-79 -5,-95 11,-125 17,-30 20,-69 26,-364 10,-471 23,-734 38,-775 7,-19 16,-105 21,-190 9,-152 17,-229 39,-380 7,-41 16,-131 20,-200 5,-69 14,-168 20,-220 6,-52 15,-139 20,-193 6,-53 15,-143 20,-200 27,-263 32,-366 39,-852 8,-525 17,-677 45,-750 10,-26 15,-77 16,-144 0,-58 4,-130 9,-160 29,-171 54,-289 68,-325 10,-26 18,-96 22,-196 7,-153 8,-156 43,-225 21,-38 44,-92 53,-120 9,-27 24,-68 34,-90 10,-22 24,-60 31,-85 7,-25 17,-50 22,-56 4,-6 13,-36 18,-66 12,-63 60,-168 97,-212 13,-16 36,-51 49,-79 28,-54 109,-163 159,-213 34,-33 145,-196 145,-212 0,-5 6,-15 14,-21 7,-6 35,-43 60,-81 78,-115 173,-204 269,-249 45,-22 98,-50 117,-63 42,-28 130,-58 172,-58 16,0 43,-8 61,-17 33,-19 77,-21 617,-39 202,-6 253,-2 417,37 45,10 95,19 110,19 46,0 175,29 220,50 24,11 46,20 51,20 5,0 27,9 50,20 22,11 72,24 110,30 38,5 82,16 98,25 16,8 40,15 53,15 24,0 97,36 161,78 38,26 135,72 150,72 18,0 100,61 157,118 32,31 75,69 95,84 20,15 42,33 50,40 7,7 30,26 52,42 21,16 95,85 165,155 135,133 192,211 274,371 26,52 54,101 61,110 7,8 20,32 30,52 9,21 32,58 51,83 19,25 35,50 35,56 0,6 18,48 39,92 22,45 49,111 61,147 12,36 26,69 31,75 5,5 9,15 9,23 0,7 13,41 29,75 16,34 37,84 45,110 9,26 25,66 36,87 11,22 20,45 20,52 0,7 6,24 13,38 37,72 49,140 43,243 -15,248 -33,371 -58,404 -5,6 -14,42 -19,79 -5,37 -13,72 -18,78 -5,6 -20,43 -33,81 -13,39 -36,88 -51,110 -16,22 -46,67 -67,100 -101,155 -157,221 -308,372 -90,90 -168,163 -173,163 -6,0 -29,13 -52,29 -108,74 -112,75 -340,79 -175,3 -212,1 -232,-12 -43,-28 -57,-72 -64,-202 -4,-84 -11,-127 -21,-139 -21,-25 -20,-128 2,-152 20,-23 78,-133 78,-150 0,-18 28,-100 51,-150 10,-24 19,-46 19,-51 0,-5 10,-28 22,-53 17,-35 23,-71 29,-174 5,-71 12,-174 17,-229 6,-54 7,-157 3,-230 -6,-108 -11,-138 -29,-169 -12,-21 -22,-42 -22,-48 0,-5 -9,-29 -20,-51 -11,-23 -20,-46 -20,-51 0,-24 -105,-218 -137,-253 -19,-21 -47,-55 -62,-74 -35,-47 -36,-48 -109,-103 -49,-36 -73,-47 -100,-47 -27,0 -57,-13 -117,-54 -44,-29 -98,-60 -120,-67 -22,-8 -69,-28 -105,-45 -36,-17 -80,-35 -99,-39 -19,-4 -50,-16 -68,-26 -18,-10 -63,-26 -98,-35 -52,-13 -73,-14 -109,-5 -25,6 -89,11 -142,11 -81,0 -105,4 -148,24 -28,13 -65,29 -81,35 -43,16 -72,44 -138,133 -31,42 -64,83 -71,91 -40,39 -164,240 -171,274 -4,21 -11,43 -15,48 -5,6 -18,48 -30,95 -11,47 -27,99 -35,117 -8,17 -15,49 -15,72 0,22 -15,87 -34,143 -54,163 -57,177 -67,296 -28,348 -26,332 -69,452 -48,135 -65,255 -61,435 8,385 -6,995 -30,1250 -13,145 -13,258 -2,711 9,334 5,313 66,378 35,38 41,64 32,139 -10,79 -11,197 -1,267 6,43 3,73 -13,137 -19,74 -21,108 -20,375 0,302 0,301 47,493 6,22 15,69 22,105 6,36 18,79 27,95 8,17 17,62 20,100 3,39 12,83 21,100 22,44 62,251 62,323 0,35 5,72 10,83 12,21 50,25 68,7 11,-11 93,-16 157,-8 57,6 177,-20 239,-51 92,-48 108,-51 286,-61 312,-17 571,-20 641,-8 58,11 70,11 104,-5 61,-30 177,-153 213,-228 18,-36 32,-70 32,-74 0,-12 59,-127 91,-178 13,-22 31,-53 39,-70 18,-35 44,-76 83,-126 15,-20 37,-56 50,-80 12,-24 41,-69 64,-100 23,-31 50,-71 60,-90 24,-45 50,-84 91,-139 19,-24 38,-53 43,-65 4,-11 22,-38 38,-60 47,-63 161,-232 161,-238 0,-9 128,-196 162,-238 18,-21 40,-52 48,-67 9,-15 27,-45 41,-67 32,-51 109,-209 110,-227 0,-7 9,-26 20,-43 29,-47 99,-196 99,-213 0,-4 13,-34 30,-67 16,-33 30,-65 30,-71 0,-25 52,-115 81,-142 18,-17 48,-33 66,-37 67,-12 96,2 191,93 92,89 102,95 362,216 25,12 67,38 95,58 27,21 63,40 79,44 39,8 216,98 247,125 13,11 40,29 59,39 19,10 46,28 60,40 14,12 50,35 80,50 30,15 89,61 132,102 81,78 87,82 268,178 92,48 122,60 150,57 21,-3 50,3 72,14 21,11 44,19 52,19 23,0 75,49 96,91 13,25 20,58 20,95 0,51 -3,60 -33,88 -18,17 -59,75 -91,129 -32,54 -68,110 -80,125 -46,54 -160,229 -196,297 -20,39 -47,88 -61,110 -13,22 -40,72 -59,110 -19,39 -39,77 -46,85 -17,20 -204,392 -204,405 0,6 -13,37 -30,70 -16,33 -30,67 -30,76 0,8 -4,19 -8,25 -5,5 -15,25 -22,44 -7,19 -48,108 -91,197 -44,89 -79,166 -79,170 0,5 -22,55 -50,111 -27,56 -50,106 -50,111 0,4 -11,30 -25,57 -15,29 -25,66 -25,91 0,41 -18,108 -45,168 -7,17 -21,53 -30,80 -9,28 -28,74 -42,103 -24,50 -24,54 -8,78 9,15 54,63 99,109 46,45 96,99 112,121 16,21 44,54 62,74 35,36 130,221 155,300 8,25 20,72 26,105 7,33 16,82 22,108 5,27 9,74 9,106 0,31 6,65 12,74 21,26 128,78 185,88 29,6 65,16 80,24 16,8 38,15 50,15 36,0 255,76 330,114 39,20 75,36 81,36 11,0 128,52 162,71 19,12 78,40 160,77 67,30 96,48 192,119 31,24 75,52 98,64 56,29 468,441 545,544 33,44 65,86 72,93 8,8 26,30 41,50 15,21 30,39 33,42 13,10 49,76 49,89 0,7 16,45 35,82 19,38 35,80 35,93 0,16 11,33 31,48 35,26 98,87 174,169 28,30 66,66 85,80 62,47 77,63 108,116 17,29 42,64 56,80 65,73 146,237 146,296 0,7 11,33 24,60 14,26 28,62 31,80 4,17 17,55 30,82 36,75 55,141 55,185 0,22 7,61 16,87 26,76 35,162 42,418 8,279 7,276 115,339 35,21 88,61 118,89 51,48 159,179 159,192 0,4 13,25 29,48 48,71 89,160 100,220 6,33 23,76 39,100 29,42 92,165 92,179 0,13 48,112 72,148 35,52 66,119 79,170 6,25 15,50 20,56 6,7 14,47 20,90 5,44 15,117 22,164 6,47 11,195 12,330 0,215 -2,249 -17,275 -14,24 -18,54 -18,150 0,87 -6,141 -20,195 -11,41 -20,89 -20,105 0,17 -8,42 -17,55 -23,32 -111,120 -143,143 -35,24 -139,23 -189,-2 -21,-11 -75,-27 -120,-36 -46,-10 -93,-22 -104,-29 -62,-33 -108,-69 -134,-103 -15,-21 -35,-45 -43,-53 -8,-8 -40,-44 -70,-80 -30,-36 -65,-75 -77,-87 -12,-12 -34,-39 -50,-60 -81,-109 -291,-293 -332,-293 -31,0 -98,58 -155,134 -38,51 -301,313 -351,352 -22,16 -55,44 -75,62 -19,18 -48,40 -65,48 -16,7 -43,26 -60,40 -16,14 -68,46 -115,70 -47,24 -92,48 -100,52 -8,5 -34,18 -57,30 -24,12 -60,31 -80,42 -21,10 -58,26 -83,34 -84,27 -135,47 -195,76 -33,16 -79,34 -101,40 -23,5 -52,18 -65,29 -13,10 -40,22 -59,26 -19,4 -48,13 -65,21 -41,18 -227,64 -262,64 -15,0 -41,8 -58,17 -34,19 -71,20 -440,5 -221,-9 -246,-11 -310,-35 -57,-21 -88,-26 -167,-27 h -98 v 66 c 0,66 -45,320 -61,339 -4,6 -15,46 -24,90 -9,43 -25,96 -36,117 -10,20 -19,48 -19,60 0,38 -26,152 -42,183 -8,17 -18,54 -21,84 -4,30 -13,61 -21,70 -7,9 -40,68 -72,131 -31,63 -70,134 -86,157 -15,23 -28,45 -28,50 -1,12 -62,77 -92,97 -23,15 -34,16 -90,6 -34,-7 -72,-14 -83,-16 -21,-3 -95,-49 -155,-96 -19,-14 -75,-47 -125,-72 -55,-27 -112,-66 -145,-98 -31,-29 -73,-66 -93,-81 -21,-16 -48,-38 -60,-50 -12,-12 -40,-35 -61,-51 -77,-58 -244,-234 -331,-352 -50,-65 -100,-129 -113,-142 -12,-13 -33,-45 -46,-72 -21,-43 -31,-80 -67,-237 -5,-23 -9,-60 -9,-82 0,-22 -5,-62 -12,-90 l -11,-51 h -135 c -140,0 -348,-32 -419,-65 -17,-8 -36,-15 -42,-15 -16,0 -161,-49 -208,-71 -24,-10 -47,-19 -53,-19 -5,0 -26,-9 -46,-20 -20,-12 -77,-29 -127,-39 -86,-17 -177,-53 -208,-83 -32,-30 -88,-67 -144,-96 -36,-18 -91,-60 -136,-104 -41,-40 -90,-85 -109,-99 -19,-15 -46,-36 -59,-48 -31,-27 -58,-27 -66,2 -6,23 -39,100 -87,204 -15,34 -28,68 -28,75 0,8 -4,18 -9,24 -5,5 -30,71 -55,147 -26,76 -57,160 -69,185 -13,26 -30,67 -37,92 -8,25 -27,68 -42,95 -29,52 -103,202 -122,245 -6,14 -21,41 -34,60 -27,40 -92,175 -92,189 0,6 -11,27 -25,47 -14,21 -28,49 -32,63 -3,14 -11,33 -19,41 -21,25 -171,333 -178,366 -7,31 -183,392 -204,417 -6,7 -27,45 -47,85 -19,40 -51,93 -70,118 -19,25 -38,58 -41,72 -8,33 -29,75 -46,94 -75,78 -188,279 -188,333 -1,91 -75,273 -132,320 -41,35 -109,35 -162,-1 z"
       id="path1"
       style="stroke-width:5.27487" />
  </g>
  <rect
     style="fill:none;stroke:#1a1a1a;stroke-width:1.41732;stroke-linecap:round;stroke-linejoin:round;opacity:0"
     id="rect1"
     width="373.58264"
     height="373.58264"
     x="0.70866001"
     y="0.70866001"
     ry="7.4427834" />
</svg>
