<?xml version="1.0" encoding="UTF-8" standalone="no"?>
<!-- Generator: Adobe Illustrator 27.2.0, SVG Export Plug-In . SVG Version: 6.00 Build 0)  -->

<svg
   version="1.1"
   x="0px"
   y="0px"
   viewBox="0 0 499.99994 499.99994"
   xml:space="preserve"
   id="svg10"
   width="499.99994"
   height="499.99994"
   sodipodi:docname="mm39_Katy Lawler.svg"
   inkscape:version="1.3.2 (1:1.3.2+202311252150+091e20ef0f)"
   xmlns:inkscape="http://www.inkscape.org/namespaces/inkscape"
   xmlns:sodipodi="http://sodipodi.sourceforge.net/DTD/sodipodi-0.dtd"
   xmlns="http://www.w3.org/2000/svg"
   xmlns:svg="http://www.w3.org/2000/svg"><sodipodi:namedview
   id="namedview1"
   pagecolor="#ffffff"
   bordercolor="#cccccc"
   borderopacity="1"
   inkscape:showpageshadow="0"
   inkscape:pageopacity="1"
   inkscape:pagecheckerboard="0"
   inkscape:deskcolor="#d1d1d1"
   inkscape:zoom="0.66799185"
   inkscape:cx="166.16969"
   inkscape:cy="151.19945"
   inkscape:window-width="1850"
   inkscape:window-height="1136"
   inkscape:window-x="70"
   inkscape:window-y="27"
   inkscape:window-maximized="1"
   inkscape:current-layer="svg10" /><defs
   id="defs14" />
<style
   type="text/css"
   id="style2">
	.st0{display:none;}
	.st1{display:inline;}
</style>
<g
   id="Rat"
   transform="matrix(0.97505796,0.37697079,-0.37697079,0.97505796,74.213389,-86.37423)"
   style="stroke-width:0.956577">
	<path
   d="m 132.44,158.21 c 0,0 0,-4.22 1,-6.83 1,-2.61 3.01,-11.44 -6.22,-11.04 -9.24,0.4 -12.25,8.93 -12.25,8.93 0,0 -16.87,-8.93 -23.69,-10.53 -6.82,-1.6 -10.64,1.61 -29.92,-2.41 -19.28,-4.02 -24.3,-4.22 -28.71,-4.62 -4.42,-0.4 -6.22,0 -7.03,3.61 -0.8,3.61 -2.01,12.25 -3.01,14.46 -1,2.21 -2.61,5.02 -2.61,7.43 0,2.41 3.61,7.03 7.63,10.84 4.02,3.81 7.43,6.83 9.04,11.04 1.61,4.21 6.43,18.27 20.08,30.52 10.24,9.04 32.53,11.85 35.74,17.47 3.21,5.62 8.83,17.87 10.04,29.92 1.2,12.05 3.01,26.5 5.42,39.96 2.41,13.45 5.02,19.28 4.02,24.3 -1,5.02 -2.41,7.23 -9.24,8.23 -6.83,1 -12.05,1 -15.26,5.22 -3.21,4.22 -5.62,8.43 -8.23,11.44 -2.61,3.01 -3.51,3.41 -4.42,5.32 -0.9,1.91 -0.6,3.92 -1.1,5.42 -0.5,1.5 -0.8,4.62 -0.3,6.22 0,0 2.31,-6.32 4.92,-6.32 2.61,0 3.01,0.2 2.71,1 -0.3,0.8 -1.91,1.1 -2.51,3.11 -0.6,2.01 -1.51,4.52 -0.9,6.02 0,0 2.21,-3.92 4.52,-4.92 2.31,-1 4.02,-1.1 4.62,-1.91 0.6,-0.8 1.51,-3.81 2.51,-3.71 1,0.1 1.61,2.81 0.3,4.22 -1.31,1.41 -1.91,3.21 -2.01,7.83 0,0 2.71,-4.52 5.02,-5.52 2.31,-1 3.61,-1.41 4.42,-3.01 0.8,-1.61 2.21,-6.02 5.72,-7.13 3.51,-1.1 2.81,-4.32 5.12,-5.52 2.31,-1.2 4.92,-3.92 5.72,-2.11 0.8,1.81 0,6.73 -2.71,10.34 -2.71,3.61 -4.62,8.63 -4.42,14.96 0.2,6.32 0.3,17.97 -0.8,21.08 -1.1,3.11 -0.7,10.14 -5.92,12.95 -1.91,1.2 -3.11,2.11 -3.81,3.21 -0.7,1.1 -1.71,2.51 -3.21,4.32 -1.51,1.81 -2.31,3.31 -1.91,4.92 0.4,1.61 0.8,1.81 0.9,2.61 0.1,0.8 0.2,2.61 2.61,5.32 2.41,2.71 2.41,2.71 2.41,2.71 0,0 -1.31,-3.01 -1.41,-4.42 -0.1,-1.41 -0.1,-1.41 -0.1,-1.41 0,0 1.41,3.61 3.71,4.82 2.31,1.2 2.31,1.2 2.31,1.2 0,0 -3.31,-3.21 -1.71,-6.83 0.9,-1.81 2.81,-2.31 3.61,-3.61 0.8,-1.31 1.71,-4.22 4.42,-4.92 2.71,-0.7 8.13,-1.61 10.44,-4.62 2.31,-3.01 -0.3,-12.85 1.91,-15.56 2.21,-2.71 6.22,-5.42 6.63,-8.13 0.4,-2.71 -4.02,-11.55 -1.71,-14.76 2.31,-3.21 5.62,-0.5 8.73,-3.41 3.11,-2.91 10.34,-11.04 11.55,-14.36 1.2,-3.31 2.41,-15.36 5.82,-16.97 3.41,-1.61 20.28,-4.42 31.72,0.2 2.61,1.1 4.22,3.61 4.52,7.43 0.3,3.82 4.92,13.55 16.06,22.69 11.14,9.14 28.21,14.86 29.31,17.77 1.1,2.91 -1.71,4.12 -5.12,3.81 -3.41,-0.3 -21.28,2.21 -27.91,0.9 -6.63,-1.31 -6.02,-2.61 -10.04,-2.61 -4.02,0 -4.82,1.91 -6.83,2.81 -2.01,0.9 -12.65,1.1 -16.06,3.41 -3.41,2.31 -14.86,9.74 -15.76,14.56 0,0 2.51,-2.61 7.73,-2.11 5.22,0.5 2.01,1 1.31,4.82 -0.5,2.11 -0.6,3.01 -0.6,3.01 0,0 1.91,-2.61 6.53,-2.91 4.62,-0.3 4.52,0.1 4.42,1 -0.1,0.9 1.2,1.51 1.2,2.11 0,0.6 -0.6,2.41 0.3,3.71 0.9,1.3 0.9,1.31 0.9,1.31 0,0 1,-2.41 2.11,-2.81 1.11,-0.4 3.81,-0.1 5.52,-1.2 1.71,-1.1 6.12,-6.22 9.04,-6.43 2.91,-0.2 10.64,-0.9 11.04,0.4 0.4,1.31 -1.71,2.41 -1.2,3.51 0.5,1.1 3.51,0.7 5.12,0.4 1.61,-0.3 1.61,-1.91 3.81,-2.31 2.21,-0.4 12.65,-1.1 21.08,-3.92 8.43,-2.81 8.63,-5.32 13.65,-5.62 5.02,-0.3 8.03,-2.51 8.63,-5.02 0.6,-2.51 4.22,-6.43 7.43,-6.83 3.21,-0.4 23.49,-0.9 27.21,1.31 3.71,2.21 5.32,5.22 4.02,9.04 -1.3,3.82 -15.46,7.93 -20.48,12.15 -5.02,4.22 -10.74,3.92 -13.85,4.32 -3.11,0.4 -5.72,1.1 -6.63,3.11 -0.9,2.01 -3.92,4.12 -5.72,6.43 -1.81,2.31 -3.41,7.33 -2.01,10.84 1.4,3.51 1.41,3.51 1.41,3.51 0,0 0.6,-4.52 3.81,-5.22 3.21,-0.7 4.42,-4.32 6.22,-4.12 1.81,0.2 0.8,2.91 -0.2,4.22 -1,1.31 -2.41,5.62 -0.9,9.64 0.8,1.61 1.31,2.11 1.31,2.11 0,0 -0.4,-6.02 3.01,-7.43 3.41,-1.41 5.22,-3.41 5.92,-4.92 0.7,-1.51 1.71,-3.21 2.31,-2.51 0.6,0.7 -0.9,2.31 -0.9,6.02 0,3.71 1.31,7.63 2.31,9.34 0,0 -0.3,-5.42 2.41,-6.22 2.71,-0.8 4.02,-0.7 5.72,-3.01 1.71,-2.31 0.6,-3.41 2.41,-3.92 1.81,-0.5 2.61,0 3.31,-1.31 0.7,-1.31 1.51,-3.31 1.81,-2.01 0.3,1.3 -1.2,4.82 -0.9,6.73 0.3,1.91 2.11,1.81 3.61,-0.1 1.5,-1.91 3.21,-4.22 3.61,-6.73 0.4,-2.51 0.9,-6.02 3.41,-7.03 2.51,-1.01 11.44,-5.32 13.85,-9.04 2.41,-3.71 4.22,-5.62 5.52,-6.32 1.31,-0.7 2.71,-2.21 0.9,-4.62 -0.7,-1 2.81,-0.8 4.52,-2.11 1.71,-1.31 11.65,-11.04 16.97,-22.89 5.32,-11.85 6.02,-12.75 8.43,-11.55 2.41,1.2 30.02,19.58 59.53,12.45 29.52,-7.13 47.78,-29.08 49.79,-35.34 3.92,-12.15 -1.61,-25.6 9.34,-28.61 0,0 29.52,-3.21 58.53,5.32 29.01,8.53 35.74,8.03 36.84,5.72 1.1,-2.31 0,-7.23 -9.14,-9.44 C 537,312.26 496.75,295.6 472.35,297 c -24.4,1.41 -34.23,5.82 -36.94,15.76 -2.49,9.11 -4.76,20.58 -13.15,29.82 -8.24,9.06 -25.7,13.85 -43.57,10.54 -17.56,-3.26 -27.91,-16.67 -28.81,-26.2 -0.5,-5.32 0,-33.23 -12.25,-55.92 -12.25,-22.69 -31.22,-50.4 -63.95,-62.44 -32.73,-12.05 -52.41,-2.51 -67.97,-2.31 -15.56,0.2 -35.24,-6.53 -39.86,-14.96 -0.4,-1.81 0.8,-1.51 3.11,-3.61 2.31,-2.11 6.73,-7.13 6.02,-15.36 -0.71,-8.23 -5.42,-12.65 -9.74,-13.85 -4.32,-1.2 -12.55,-0.6 -16.87,2.81 -4.32,3.41 -4.22,5.12 -6.83,5.02 -2.61,-0.1 -3.92,-4.92 -8.23,-6.83 0.03,0.05 -0.17,0.65 -0.87,-1.26 z"
   id="path4"
   style="stroke-width:0.956577" />
</g>
<g
   id="Cow"
   class="st0"
   transform="translate(-47.000001,-115.58512)">
	<path
   class="st1"
   d="m 415.07,145.76 c 0,0 31.52,19.4 42.7,56.14 11.18,36.74 16.91,53.79 33.24,79.65 16.33,25.86 24.64,51.73 34.96,45.85 10.32,-5.88 18.05,-3.53 20.06,-1.18 2.01,2.35 3.15,8.67 1.29,13.81 -1.86,5.14 3.15,2.79 6.3,3.23 3.15,0.44 1.58,5.58 -3.01,9.41 -4.59,3.82 -4.59,5.29 -3.87,7.49 0.72,2.2 2.29,5.14 2.87,7.94 0.57,2.79 5.73,8.38 6.3,12.64 0.57,4.26 1,14.11 -2.01,17.34 -3.01,3.23 -8.45,9.7 -8.02,15.72 0.43,6.03 1.29,17.05 1.43,27.77 0.14,10.73 -1,14.55 -0.43,19.4 0.57,4.85 2.15,11.17 0.29,13.08 -1.86,1.91 -4.73,1.76 -11.61,5.29 -6.88,3.53 -14.04,7.05 -25.79,5.44 -7.74,-1.03 -7.45,-8.52 -7.16,-11.32 0.29,-2.79 -4.3,-13.08 -8.6,-16.9 -4.3,-3.82 -24.07,-21.31 -32.38,-40.71 -8.31,-19.4 -8.31,-22.92 -8.74,-27.63 -0.43,-4.7 -5.3,-7.49 -8.88,-8.38 -3.58,-0.88 -9.17,-6.61 -9.31,-10.29 -0.14,-3.67 -4.59,-6.32 -7.88,-5.14 -3.29,1.18 -5.59,2.5 -6.3,3.38 -0.72,0.88 -2.58,2.5 -7.31,2.5 -4.73,0 -6.02,0 -4.59,5.14 1.43,5.14 2.87,11.32 8.02,17.78 5.16,6.47 3.15,19.99 3.87,26.6 0.72,6.61 1.58,22.34 7.02,34.68 5.44,12.34 9.89,14.25 12.75,24.84 2.01,6.47 5.73,13.67 5.73,13.67 0,0 -13.47,12.79 -32.67,-4.85 0,0 -0.43,-10.73 -1.86,-12.49 -1.43,-1.76 -2.25,2.06 -3.42,1.47 -1.17,-0.59 -1.45,-7.79 -0.88,-11.46 0.57,-3.67 1.72,-8.67 -0.29,-14.7 -2.01,-6.03 -8.17,-21.16 -15.19,-27.48 -7.02,-6.32 -14.76,-24.1 -16.91,-29.24 -2.15,-5.14 -5.87,-14.55 -10.89,-17.63 -2.29,-1.47 -6.73,1.03 -12.61,-2.5 0,0 0,15.72 -2.72,24.25 -2.72,8.52 -6.3,13.08 -7.16,18.81 -0.86,5.73 -2.72,21.75 -0.86,28.51 1.86,6.76 3.87,11.76 5.44,17.78 1.57,6.02 3.15,10.43 3.15,10.43 0,0 -21.49,11.61 -33.81,-7.64 0,0 3.44,-11.61 3.44,-14.7 0,-3.09 -1.58,1.18 -2.58,0.44 -1,-0.73 0.72,-7.2 2.01,-10.29 1.29,-3.09 2.87,-7.49 3.44,-11.76 0.57,-4.26 0.57,-25.72 -1.72,-35.42 -2.29,-9.7 -3.58,-33.06 -3.58,-41.59 -0.14,-3.67 -1.58,-7.05 -1.58,-7.05 0,0 -18.76,-22.39 -40.82,-24.26 -22.07,-1.87 -51.72,3.71 -70.92,1.66 -19.2,-2.06 -43.7,-14.99 -54.45,-27.63 -7.45,-8.67 -12.04,-8.52 -14.18,-6.03 -2.15,2.5 -33.96,32.33 -42.41,37.77 -3.3,2.2 -3.58,5.14 -3.58,7.79 0,2.65 -1.86,7.79 -3.87,10.29 -2.01,2.5 -3.87,9.41 -4.44,13.37 -0.57,3.97 -1.58,8.38 -2.01,10.14 -0.43,1.76 2.01,29.83 3.73,34.98 1.72,5.14 5.01,10.14 6.45,16.31 1.43,6.17 5.01,17.34 5.59,18.22 0,0 -0.86,6.17 -13.47,3.97 0,0 2.87,8.67 3.15,12.2 0,0 -18.2,10.29 -32.67,-3.38 -1.43,-1.62 1,-12.2 1.15,-16.31 0.15,-4.11 -1.43,3.23 -2.44,2.35 -1,-0.88 0.29,-7.35 1.72,-10.87 1.43,-3.53 1.72,-16.31 1,-21.75 -0.72,-5.44 -4.73,-29.83 -6.16,-43.94 -1.43,-14.11 -4.3,-19.69 -5.44,-22.19 -1.14,-2.5 -3.44,-8.52 0,-15.58 3.44,-7.05 11.32,-17.34 8.74,-29.83 -2.58,-12.49 -10.37,-32.92 -10.56,-45.56 0,0 -1.96,19.4 0,26.3 1.96,6.91 0.45,17.63 -0.87,24.98 -1.32,7.35 -1.61,12.05 -1.61,15.87 0,3.82 -2.44,12.34 -7.45,15.58 -5.01,3.23 -7.74,-0.29 -8.45,-9.41 -0.71,-9.12 0.14,-27.33 3.73,-41.15 3.59,-13.82 6.59,-21.6 6.88,-45.7 0.29,-24.1 1.72,-49.96 0,-62.16 -1.72,-12.2 -2.72,-51.58 2.44,-60.99 5.16,-9.41 21.21,-23.95 34.1,-25.72 12.9,-1.76 25.36,-1.47 34.39,-3.23 9.03,-1.76 16.05,-4.41 26.65,-2.06 10.6,2.35 43.99,11.32 54.02,12.49 10.03,1.18 96.72,6.76 112.76,6.03 8.88,-0.29 11.32,-3.82 19.34,-2.65 8.02,1.18 15.76,4.7 22.35,9.11 6.59,4.41 14.9,7.79 20.92,9.26 5.99,1.48 35.22,16.47 57,31.6 z"
   id="path7" />
</g>
<rect
   style="fill:none;stroke:#1a1a1a;stroke-width:1.88976;stroke-linecap:round;stroke-linejoin:round;opacity:0"
   id="rect1"
   width="498.11017"
   height="498.11017"
   x="0.94488001"
   y="0.94488001"
   ry="9.9237108" /></svg>
