<?xml version="1.0" encoding="UTF-8" standalone="no"?>
<svg
   version="1.0"
   width="500"
   height="500"
   viewBox="0 0 375 375"
   preserveAspectRatio="xMidYMid"
   id="svg1"
   sodipodi:docname="musFur1_Margot Michaud.svg"
   inkscape:version="1.3.2 (1:1.3.2+202311252150+091e20ef0f)"
   xmlns:inkscape="http://www.inkscape.org/namespaces/inkscape"
   xmlns:sodipodi="http://sodipodi.sourceforge.net/DTD/sodipodi-0.dtd"
   xmlns="http://www.w3.org/2000/svg"
   xmlns:svg="http://www.w3.org/2000/svg">
  <defs
     id="defs1" />
  <sodipodi:namedview
     id="namedview1"
     pagecolor="#ffffff"
     bordercolor="#cccccc"
     borderopacity="1"
     inkscape:showpageshadow="0"
     inkscape:pageopacity="1"
     inkscape:pagecheckerboard="0"
     inkscape:deskcolor="#d1d1d1"
     inkscape:document-units="pt"
     inkscape:zoom="0.30866868"
     inkscape:cx="669.00211"
     inkscape:cy="129.58879"
     inkscape:window-width="1850"
     inkscape:window-height="1136"
     inkscape:window-x="70"
     inkscape:window-y="27"
     inkscape:window-maximized="1"
     inkscape:current-layer="svg1" />
  <metadata
     id="metadata1">
Created by potrace 1.16, written by Peter Selinger 2001-2019
</metadata>
  <g
     transform="matrix(-0.02285257,0,0,-0.02285257,355.1233,363.21513)"
     fill="#000000"
     stroke="none"
     id="g1"
     style="stroke-width:4.37588">
    <path
       d="m 13890,15351 c -14,-5 -47,-19 -75,-31 -181,-81 -937,-298 -1409,-405 -176,-39 -196,-48 -278,-112 -65,-50 -144,-88 -398,-193 -96,-39 -231,-104 -300,-144 -69,-40 -165,-95 -215,-121 -49,-27 -106,-65 -125,-85 -49,-51 -100,-154 -100,-203 0,-35 -7,-48 -53,-96 -48,-51 -173,-247 -211,-332 -9,-19 -34,-126 -56,-239 -23,-113 -65,-296 -95,-407 -53,-201 -54,-203 -70,-455 -29,-472 -34,-523 -85,-846 -104,-674 -126,-961 -101,-1372 7,-115 6,-176 -7,-295 -17,-148 -18,-151 -55,-203 -35,-47 -53,-59 -188,-127 -96,-48 -196,-109 -284,-172 -74,-54 -224,-159 -332,-233 l -197,-135 -24,-60 c -39,-99 -46,-109 -102,-147 -52,-35 -66,-39 -235,-68 -99,-16 -279,-41 -400,-55 -288,-33 -316,-38 -475,-90 -74,-24 -207,-64 -295,-90 -180,-53 -177,-52 -555,-269 -424,-244 -527,-313 -727,-482 -396,-337 -409,-352 -618,-681 -58,-91 -125,-184 -160,-219 -54,-56 -69,-65 -140,-87 l -80,-24 40,-11 c 22,-5 52,-13 68,-16 15,-4 27,-10 27,-14 -1,-16 -169,-298 -230,-384 -36,-51 -105,-134 -154,-185 -48,-51 -83,-93 -76,-93 8,0 47,18 88,41 40,22 76,38 78,36 3,-3 -2,-22 -11,-43 -8,-20 -51,-179 -94,-353 -44,-174 -111,-440 -150,-591 -38,-152 -75,-318 -81,-370 -14,-125 -61,-293 -111,-399 -21,-46 -37,-86 -35,-88 2,-2 24,20 50,48 30,33 43,43 37,28 -5,-13 -23,-57 -40,-98 -17,-41 -31,-75 -31,-78 0,-2 17,7 38,20 55,34 102,51 112,41 5,-5 3,-127 -5,-299 -13,-255 -23,-375 -54,-669 -12,-107 -3,-144 145,-647 47,-159 88,-322 94,-365 23,-194 53,-884 41,-951 -10,-52 -41,-101 -92,-148 l -41,-37 -182,6 c -99,4 -271,18 -381,31 -185,22 -454,45 -521,45 -23,0 -26,-2 -14,-11 31,-21 -220,2 -345,32 -126,30 -182,33 -579,30 l -129,-1 7,-51 c 7,-50 6,-51 -16,-45 -40,12 -222,53 -265,60 -40,7 -41,7 -48,-24 -6,-29 -10,-32 -36,-26 -99,21 -92,21 -84,-3 6,-21 5,-22 -29,-16 -39,8 -44,1 -21,-32 16,-22 15,-22 -51,3 -36,13 -83,32 -103,40 -37,16 -365,44 -377,32 -3,-4 6,-24 20,-45 15,-21 22,-39 17,-41 -5,-2 -36,2 -67,7 -111,21 -116,15 -37,-36 40,-26 72,-48 70,-49 -1,-2 -45,1 -97,6 -52,5 -156,10 -230,10 -120,0 -146,3 -234,30 -55,17 -101,30 -103,30 -2,0 -2,-12 -1,-27 l 3,-28 h -130 c -71,0 -165,-1 -208,-3 l -77,-2 80,-110 c 128,-176 143,-207 95,-198 -14,3 -25,4 -25,3 0,-2 23,-17 50,-35 28,-18 49,-34 47,-37 -3,-2 -24,1 -48,6 -24,6 -122,17 -217,26 -95,9 -181,19 -190,22 -20,8 -14,-1 50,-76 21,-24 38,-53 38,-65 0,-12 -25,-52 -55,-91 -31,-38 -67,-85 -80,-102 -18,-23 -41,-37 -81,-49 l -56,-16 42,-43 43,-44 -34,-5 c -19,-3 -68,-8 -109,-11 -83,-6 -109,-19 -64,-32 24,-6 14,-9 -56,-18 l -85,-10 122,-45 c 68,-25 123,-48 123,-51 0,-9 -51,-17 -160,-25 -102,-8 -101,-12 10,-38 l 65,-15 -65,5 c -46,3 -61,2 -50,-6 8,-5 23,-10 33,-10 9,0 17,-4 17,-9 C 250,86 202,76 143,69 39,56 37,55 80,47 c 77,-15 3434,1 3810,18 505,22 521,23 760,14 307,-11 1184,-26 2540,-44 902,-12 1183,-13 1371,-4 238,12 442,4 530,-21 55,-16 135,-12 154,7 15,15 43,15 303,7 327,-10 385,-9 498,3 78,9 134,31 134,53 0,6 13,10 29,10 34,0 55,22 48,50 -4,17 0,20 29,20 18,0 49,-8 69,-17 34,-16 36,-16 75,6 39,22 43,22 299,15 255,-7 261,-7 312,15 29,13 63,21 77,18 56,-11 65,11 27,67 -21,31 -22,36 -7,36 9,0 37,-16 61,-35 24,-19 48,-35 54,-35 17,0 -1,59 -33,105 -82,119 -132,141 -470,208 l -215,43 -113,-24 -113,-24 -104,27 c -149,40 -203,77 -312,216 -131,166 -127,157 -100,207 12,22 67,95 122,162 123,148 148,190 173,294 48,190 61,354 43,513 -11,93 -15,103 -81,193 -26,36 -51,76 -55,88 -4,13 -42,61 -86,105 l -79,82 -6,105 c -4,58 -3,150 1,205 l 7,100 49,47 c 117,114 186,258 338,708 66,195 134,391 151,435 l 31,80 121,95 c 182,143 209,170 325,323 58,78 116,149 127,159 12,10 86,50 166,89 80,40 193,98 251,130 58,33 118,59 132,59 26,0 27,-3 27,-48 0,-27 3,-52 7,-56 4,-4 20,8 35,26 l 27,33 1,-35 c 0,-34 2,-32 51,48 28,45 70,97 92,115 44,34 148,100 151,95 1,-2 7,-14 12,-28 l 11,-25 15,29 15,29 55,-94 c 30,-52 60,-103 66,-114 28,-55 164,-508 173,-579 7,-56 20,-99 46,-149 61,-122 111,-194 142,-205 30,-10 61,-63 61,-104 0,-75 13,-101 84,-176 39,-41 93,-87 121,-103 43,-25 61,-29 126,-29 70,0 78,-2 93,-25 9,-13 16,-35 16,-47 0,-42 12,-68 31,-68 24,0 29,10 36,70 3,27 9,50 14,50 4,0 21,-28 37,-61 l 30,-62 15,24 c 9,13 21,56 28,94 16,97 24,109 37,50 8,-37 7,-57 -4,-88 -18,-52 -18,-57 5,-57 46,0 87,133 70,225 -5,28 -25,82 -44,121 -19,40 -35,75 -35,78 0,14 36,4 93,-28 34,-19 102,-51 150,-71 78,-32 92,-35 125,-25 20,5 40,10 44,10 15,0 38,-33 38,-55 0,-23 24,-40 41,-29 5,3 9,16 9,30 0,37 20,19 21,-19 0,-18 4,-40 8,-50 6,-17 9,-16 34,7 25,23 27,30 27,110 0,72 -5,97 -32,166 -28,72 -39,88 -87,127 -86,69 -256,353 -315,525 -35,103 -39,291 -33,1323 1,154 -2,369 -7,477 l -9,198 33,161 34,161 28,-6 c 33,-7 33,-9 9,77 -19,66 -19,67 -1,67 17,0 18,4 10,26 -19,49 -15,54 51,54 h 60 l -44,58 c -33,42 -52,80 -72,145 -14,48 -25,92 -23,98 2,5 19,-4 38,-20 42,-36 52,-38 46,-9 -3,13 -7,54 -11,92 -5,65 -5,68 11,55 16,-12 17,-12 11,4 -15,39 -36,136 -47,212 -21,143 -71,358 -111,469 -21,60 -39,111 -39,114 0,3 27,2 60,-1 33,-4 60,-4 60,-2 0,3 -13,32 -30,65 -16,33 -30,62 -30,64 0,3 23,-2 51,-10 28,-8 54,-14 59,-12 5,2 -7,28 -26,58 -18,30 -34,57 -34,61 0,4 33,26 74,48 41,22 78,46 81,52 4,5 1,23 -5,40 -10,22 -10,32 -1,43 14,16 -2,55 -45,111 -33,44 -114,215 -114,242 0,17 25,43 103,104 152,120 154,122 167,166 12,39 10,47 -24,131 -20,49 -36,101 -36,115 0,29 23,57 47,57 14,0 15,10 8,73 -4,39 -10,196 -15,347 -6,242 -12,309 -48,560 -39,274 -41,298 -47,630 -4,190 -10,372 -15,405 -5,38 -3,86 4,130 10,61 14,70 34,73 31,5 38,23 52,137 6,54 20,120 30,145 9,25 20,62 24,83 4,21 13,37 20,37 20,0 26,56 26,256 v 182 l 29,12 c 26,10 37,33 121,258 134,361 450,1419 450,1511 0,18 -7,73 -16,122 -16,85 -16,93 6,225 14,83 21,156 17,187 -7,66 -40,154 -80,214 -30,45 -36,48 -107,65 -94,22 -187,30 -220,19 z"
       id="path1"
       style="stroke-width:4.37588" />
  </g>
</svg>
