<?xml version="1.0" encoding="UTF-8" standalone="no"?>
<!-- Created with Inkscape (http://www.inkscape.org/) -->

<svg
   version="1.1"
   width="374.99997pt"
   height="374.99997pt"
   viewBox="0 0 374.99997 374.99997"
   id="svg2"
   sodipodi:docname="myoLuc2_Yan Wong_NOTOK.svg"
   inkscape:version="1.3.2 (1:1.3.2+202311252150+091e20ef0f)"
   xmlns:inkscape="http://www.inkscape.org/namespaces/inkscape"
   xmlns:sodipodi="http://sodipodi.sourceforge.net/DTD/sodipodi-0.dtd"
   xmlns="http://www.w3.org/2000/svg"
   xmlns:svg="http://www.w3.org/2000/svg">
  <sodipodi:namedview
     id="namedview1"
     pagecolor="#ffffff"
     bordercolor="#cccccc"
     borderopacity="1"
     inkscape:showpageshadow="0"
     inkscape:pageopacity="1"
     inkscape:pagecheckerboard="0"
     inkscape:deskcolor="#d1d1d1"
     inkscape:document-units="pt"
     inkscape:zoom="0.61507293"
     inkscape:cx="385.32016"
     inkscape:cy="230.86693"
     inkscape:window-width="1850"
     inkscape:window-height="1136"
     inkscape:window-x="70"
     inkscape:window-y="27"
     inkscape:window-maximized="1"
     inkscape:current-layer="svg2" />
  <defs
     id="defs10" />
  <path
     d="m 287.37997,33.414357 c 5.78769,-3.2801 9.96145,-8.681915 15.60998,-12.180576 3.4504,-1.604666 7.09426,-2.902861 10.86382,-3.525694 9.77865,-3.345942 20.18617,-4.410736 30.4668,-4.648895 6.51761,0.144858 12.72636,2.927921 17.78898,6.923729 l 0.76726,-0.319338 1.39506,3.91578 c -0.80663,0.402355 -1.30575,1.108743 -1.58069,1.949816 -1.614,4.221722 -4.89381,7.466376 -7.05032,11.391066 -4.68173,8.126278 -8.00906,16.957501 -10.8117,25.885263 -1.94153,6.506502 -2.18954,13.336647 -3.2535,20.005484 -0.50555,3.397785 0.69381,6.785724 0.39118,10.172494 -1.53357,3.80235 -4.45989,6.92107 -5.67515,10.885814 -2.11872,6.54666 -6.76241,11.96266 -8.49241,18.65429 -0.98141,2.90078 -2.1123,5.74759 -3.14661,8.62894 -2.73629,7.26463 -4.27929,15.06177 -3.98288,22.83948 -0.27328,7.49034 0.50831,14.99558 1.89392,22.34693 0.4009,2.63049 2.03804,4.88183 2.46854,7.50946 -0.20215,2.1635 -2.87571,2.35756 -4.45688,3.05878 -4.5055,1.24509 -8.44845,3.87563 -12.05519,6.76178 -4.21252,4.06727 -8.63711,8.03389 -11.92887,12.92228 -5.35826,8.52821 -5.43393,19.0892 -10.15887,27.88974 -0.45568,1.04337 -1.0827,2.07885 -1.10208,3.25023 0.37008,1.68384 2.25574,1.47169 3.57059,1.80769 2.28234,0.3207 4.92132,0.88976 6.1352,3.09271 0.86736,1.4454 0.10706,3.44002 -1.37849,4.13016 -4.28855,0.69283 -8.29998,-2.91139 -12.52475,-1.22237 1.11683,2.1456 2.87479,3.83295 4.36272,5.70843 3.46097,4.8116 4.98613,10.6193 7.32867,15.99023 2.44969,4.25253 1.64431,9.28171 1.42469,13.93365 -1.2874,6.23513 -1.48703,12.64202 -3.12488,18.81815 -0.73992,1.98736 0.58501,5.59872 -2.36484,5.89886 -6.46599,0.25812 -12.87946,1.0721 -19.29098,1.87008 -5.18321,1.25672 -10.39891,2.4867 -15.69765,3.11805 -8.53916,-1.21733 -16.49848,-5.21538 -23.16688,-10.60035 -0.22879,3.31449 2.01398,6.49158 0.85072,9.76362 -0.49055,1.5691 -2.53516,2.04471 -3.76987,1.05197 -2.8399,-1.90712 -2.85784,-5.67765 -4.19891,-8.51714 -0.31843,-1.28088 -1.83739,-1.32965 -2.87653,-1.57997 -6.30143,-0.95733 -12.6758,-1.13025 -19.00318,-1.79488 -6.28231,-0.58111 -12.55859,0.46748 -18.84551,0.21745 -5.36478,-0.58619 -10.73381,1.18105 -15.33799,3.84797 -6.06397,2.71968 -10.24626,8.48461 -12.22588,14.69058 -0.55697,1.44718 -0.96285,3.36149 -2.77381,3.65428 -2.33026,-0.54115 -4.15855,-2.31834 -6.49998,-2.84785 -8.871,-1.48216 -18.42201,-2.50756 -26.79444,1.62445 -12.64405,6.76473 -22.085496,17.87383 -33.390636,26.48284 -3.37557,2.13728 -7.11088,-0.69193 -10.52842,-1.38198 -8.02914,-1.61355 -16.4186,-1.20646 -24.38295,0.67337 -5.31476,0.6294 -9.72423,3.88581 -14.65005,5.67138 -2.87062,2.04932 -5.65882,4.22245 -8.60461,6.16831 -2.18515,1.41437 -3.9281,4.13449 -6.81298,3.92884 -3.5888,-0.24599 -5.8935,-3.66148 -7.0907,-6.72078 -1.18957,-3.46804 -2.92631,-6.90202 -2.87534,-10.65114 -0.39115,-12.06481 0.95091,-24.31809 5.21034,-35.67248 1.34396,-5.92588 5.5365,-10.5223 8.1223,-15.88701 4.48455,-8.05603 8.62172,-16.35604 13.9428,-23.91334 6.54681,-8.11658 13.52056,-15.89497 20.71795,-23.45422 4.62723,-4.88154 9.8123,-9.16505 14.50502,-13.97033 5.71885,-4.63456 11.21796,-9.52028 16.93923,-14.14805 2.48149,-2.32439 -0.20702,-5.97852 -2.34811,-7.53706 0.0925,-0.38536 0.25915,-1.16488 0.34926,-1.55705 0.30387,0.0142 0.92329,0.0542 1.22717,0.0685 1.34245,1.68215 2.61728,3.51866 4.56509,4.55611 1.96161,1.3773 4.109,-0.76673 6.237316,-0.27624 3.17762,0.2316 5.26108,2.87553 7.13365,5.14259 1.93303,1.31855 3.81652,2.67006 5.3239,4.49265 6.48874,4.19255 14.30049,5.66904 20.87283,9.70923 2.68518,1.70942 5.62823,3.30399 8.8388,3.58513 -2.44475,-5.01275 -6.39645,-9.26645 -7.94857,-14.71979 -2.10509,-6.70431 -5.5509,-12.89263 -7.46321,-19.65794 -0.83547,-3.1192 0.36364,-6.31208 -0.32815,-9.43651 0.65694,-0.24197 1.30723,-0.48105 1.96665,-0.716 3.15715,1.57193 5.53818,4.25542 8.29389,6.39938 4.74501,3.53438 8.66145,8.18368 13.98378,10.93015 3.07847,2.85637 6.92769,4.67204 9.95029,7.58662 0.90623,0.78035 2.15366,0.38954 3.22847,0.37436 1.58525,0.94447 3.1948,1.84962 4.82186,2.71791 0.32685,-0.20077 0.9874,-0.6046 1.32105,-0.80775 -0.93412,-2.92317 -0.54973,-5.99433 -0.93968,-8.98114 -1.25986,-4.22443 -1.44189,-8.64899 -1.99436,-12.99521 0.14377,-5.12289 0.78273,-10.25365 1.89683,-15.2549 0.87418,-4.23394 1.17188,-8.7528 3.4477,-12.53613 0.87171,-1.6819 3.01348,-2.20745 4.74226,-1.7202 2.76682,0.34731 4.41983,2.81518 6.60423,4.25867 7.10706,5.62706 12.53855,13.47525 15.19067,22.14508 2.30791,5.5748 2.62689,11.78158 5.48302,17.1534 1.209,0.96359 2.61072,0.0811 3.89009,-0.19845 2.48473,-0.83158 5.52671,0.24507 7.63025,-1.69949 2.84592,-2.14011 2.60622,-6.03848 3.16451,-9.20224 0.28833,-4.97521 1.44409,-9.83808 2.00715,-14.77326 0.0989,-3.52868 -0.0168,-7.05753 0.0591,-10.58577 -0.86358,-3.82167 -0.0853,-7.72267 -0.0688,-11.58978 0.0599,-5.20789 0.33672,-10.40884 0.43542,-15.61526 0.43434,-6.09211 -0.006,-12.20968 0.71417,-18.2734 0.26427,-3.36545 0.75484,-6.82685 -0.15527,-10.13398 -0.49172,-1.93929 -2.60777,-2.61038 -3.9238,-3.89589 0.08,-0.54949 0.24932,-1.64406 0.32937,-2.19351 1.93106,-0.55781 4.36697,0.23687 5.88817,-1.3853 3.19934,-3.38454 4.88635,-7.83145 7.31471,-11.745744 2.32473,-3.62454 3.56928,-7.82955 6.06046,-11.352499 3.25145,-4.851055 6.31803,-9.812441 9.43748,-14.754383 1.81549,-2.968117 4.25878,-5.48573 6.19215,-8.38094 2.346,-3.47889 5.36489,-6.423741 7.83846,-9.802531 3.48227,-4.50426 7.57047,-8.51191 12.25373,-11.773931 4.16377,-3.774102 9.52476,-5.821964 13.62546,-9.665527 z"
     id="path6"
     style="fill:#020202;stroke-width:1" />
  <rect
     style="fill:none;stroke:#1a1a1a;stroke-width:1.41732;stroke-linecap:round;stroke-linejoin:round;opacity:0"
     id="rect1"
     width="373.58264"
     height="373.58264"
     x="0.70866001"
     y="0.70866001"
     ry="7.4427834" />
</svg>
