<?xml version="1.0" encoding="UTF-8" standalone="no"?>
<!-- Created with Inkscape (http://www.inkscape.org/) -->

<svg
   version="1.2"
   width="499.99994"
   height="499.99994"
   viewBox="0 0 499.99992 499.99995"
   id="Layer_1"
   xml:space="preserve"
   style="overflow:inherit"
   sodipodi:docname="nasLar1_T. Michael Keesey.svg"
   inkscape:version="1.3.2 (1:1.3.2+202311252150+091e20ef0f)"
   xmlns:inkscape="http://www.inkscape.org/namespaces/inkscape"
   xmlns:sodipodi="http://sodipodi.sourceforge.net/DTD/sodipodi-0.dtd"
   xmlns="http://www.w3.org/2000/svg"
   xmlns:svg="http://www.w3.org/2000/svg"><sodipodi:namedview
   id="namedview1"
   pagecolor="#ffffff"
   bordercolor="#cccccc"
   borderopacity="1"
   inkscape:showpageshadow="0"
   inkscape:pageopacity="1"
   inkscape:pagecheckerboard="0"
   inkscape:deskcolor="#d1d1d1"
   inkscape:zoom="1.1055337"
   inkscape:cx="147.4401"
   inkscape:cy="234.27598"
   inkscape:window-width="1850"
   inkscape:window-height="1136"
   inkscape:window-x="70"
   inkscape:window-y="27"
   inkscape:window-maximized="1"
   inkscape:current-layer="Layer_1" /><defs
   id="defs7" />
<path
   d="m 215.72955,74.400995 c -0.67637,3.6577 3.93859,3.54093 3.75441,6.847506 0.97209,0.29144 2.20785,0.84685 3.14733,0.33814 0.40494,1.55034 3.20481,-0.33387 3.3913,1.13281 0.79572,-0.25008 1.07192,-0.50227 2.07802,-0.0293 0.1517,0.53894 0.42339,0.9896 0.48795,1.58935 0.81361,-0.3947 3.0437,-1.31414 2.81133,0.0934 0.83707,-0.028 2.14571,-0.36816 2.81134,0.0935 -0.1302,0.57187 -1.02631,0.0701 -1.07003,0.76329 0.54742,0.52977 1.6515,-0.0896 2.13936,-0.39591 0.78378,0.863 2.07522,0.36292 3.45266,0.76614 -0.12101,0.1321 -0.24082,0.265963 -0.27535,0.519328 1.54408,0.608576 2.39765,-0.541168 3.54467,0.216145 -0.11873,0.66332 -1.03532,0.208418 -1.40604,0.518607 1.31943,0.712344 2.92964,-0.116054 4.49202,0.186186 -0.42338,0.615495 -1.508,0.302092 -1.86471,1.007257 1.64621,0.195343 2.77087,-0.340509 4.06471,-0.639165 0.25848,1.196025 -2.06521,0.722429 -2.69007,1.43456 2.08523,0.612745 3.90853,-1.742688 5.95939,-0.699092 -0.77339,0.801931 -2.38004,0.435743 -3.20939,1.159212 2.23533,0.43839 4.99535,-0.850973 7.39537,-0.270368 0.0403,0.735477 -0.85064,0.165495 -0.73405,1.007971 0.19269,0.547379 1.30575,-0.200858 1.61933,0.459407 -0.51971,0.327667 -1.14755,0.50375 -1.80338,0.640596 1.93691,0.814078 4.43985,-0.694199 6.3867,0.126259 -2.25523,0.384381 -4.69364,0.511959 -7.09007,0.698378 0.34008,0.633288 1.8248,0.517345 2.53599,0.612773 2.51962,0.335189 6.55231,-1.220253 8.09732,1.166336 -0.92477,-0.198704 -2.15299,-0.996299 -3.36134,-0.185471 0.9386,0.914048 2.3967,0.609886 3.57464,1.163485 -0.20133,0.245871 -0.52734,0.316968 -0.97801,0.213303 -0.008,0.383247 0.43646,0.442096 0.42729,0.825352 1.65388,0.206041 3.00877,-0.0074 4.5227,0.0028 0.30023,0.824507 -0.89339,0.08293 -1.40603,0.518607 2.53188,1.069115 4.24691,0.787528 6.44662,2.020941 -1.07309,0.34031 -1.75499,-0.174272 -2.84202,0.08989 1.04535,1.233448 3.54823,-0.152338 4.95,0.828208 -0.87385,0.998714 -2.25199,0.111647 -3.82005,0.303177 0.66559,1.747867 3.89966,1.032537 5.95797,1.562247 0.58714,0.15164 1.09293,0.90218 1.77198,0.67341 0.84343,2.41213 6.02942,1.72655 7.48457,3.70233 -1.57319,-0.93227 -3.69833,-0.48058 -5.19398,-1.62289 0.0135,0.90531 0.99731,1.11704 0.97661,2.04805 1.63623,-0.52407 5.4744,0.28459 6.50795,1.65428 -1.75428,-0.47885 -4.20298,-1.79161 -6.01932,-1.19559 1.49888,1.24494 6.04806,1.2585 6.81256,3.21296 1.25837,0.23252 2.68233,0.34828 3.636,0.79682 -1.26586,0.33789 -3.55833,-0.76341 -4.82801,-0.43087 0.51469,0.76302 1.38249,1.27415 2.35195,1.71277 -0.0982,0.23958 -0.4839,0.0761 -0.76402,0.0606 1.41663,1.2673 3.11386,1.33611 5.10195,2.17289 0.0925,0.58246 -0.46365,0.25538 -0.79469,0.24397 0.13125,0.66117 1.37584,0.52546 1.71065,1.04007 -0.56786,0.34318 -1.61432,-0.34862 -2.16933,-0.55142 -0.0599,1.05322 3.01309,1.99458 4.3686,2.05019 0.19891,1.58026 2.91571,1.36577 3.29857,2.81348 -1.74772,-1.17507 -3.70768,-2.19875 -5.8959,-3.05959 -0.37726,0.96873 1.05207,0.64876 0.88528,1.46738 -0.74703,-0.21923 -0.96209,-0.8206 -1.71064,-1.04008 -0.10087,0.55638 0.26868,0.7784 0.36595,1.19202 3.64979,0.73317 6.03691,2.36702 7.94406,4.3446 -1.71123,-1.30873 -3.60971,-2.48389 -6.04857,-3.27359 3.11395,2.40566 6.3986,4.69225 8.91687,7.52281 -1.43918,-0.21253 -1.80005,-2.58946 -4.06257,-2.75284 1.04723,2.27346 3.30144,3.92276 5.00778,6.1149 -0.0342,0.17803 -0.24683,0.10476 -0.39581,0.12224 1.14377,1.44309 2.94331,2.42108 3.84785,4.03617 -0.68081,0.58656 -0.0631,0.49986 -0.0314,1.31401 -0.4696,0.4507 -0.68391,-0.14584 -1.01022,0.39637 0.7016,0.79115 1.67782,1.38639 2.68793,1.95745 -0.63776,0.98639 -1.31627,-0.87201 -2.01512,-0.33716 1.19202,1.24857 3.17791,1.9295 3.72587,3.63884 -1.03236,-0.84178 -1.99949,-2.53331 -3.54478,-2.47775 1.8439,1.69845 3.43993,3.57372 5.55849,5.07625 -1.36331,0.21637 -1.76144,-1.64695 -3.48108,-1.71322 1.48642,1.6292 3.42733,2.93554 4.8865,4.58688 -1.40318,-0.77503 -2.23032,-1.96098 -4.12392,-2.38618 0.51682,1.41673 2.13549,2.50895 3.69589,2.6915 0.23397,0.9108 0.91964,1.49669 1.9546,1.83476 -0.13181,0.64699 -0.37632,1.13222 -0.94804,1.16063 0.0649,0.43805 0.45976,0.64075 0.7955,0.88696 -1.43132,-0.16567 -2.10763,-2.26242 -4.09326,-2.56951 1.40108,1.68874 4.28029,3.17876 4.82516,4.95355 2.30927,1.15123 3.75891,2.91563 5.03916,4.8009 -0.80051,-0.18106 -0.84081,-0.90711 -1.49662,-1.19274 -0.25958,1.31666 1.236,1.38 1.2819,2.47607 -0.43276,-0.22947 -0.63547,-0.62304 -1.19131,-0.76472 0.28736,1.84007 2.15279,2.55581 2.68651,4.21879 -0.18333,-0.0307 -0.36667,-0.0613 -0.55,-0.092 1.6978,1.21069 3.23687,2.5346 3.96984,4.43352 -1.39035,-1.32101 -2.16519,-3.08245 -4.24519,-3.91419 2.06089,2.8891 4.89578,5.22608 5.86318,8.89654 -1.27418,-1.40524 -2.52695,-2.82573 -4.24519,-3.9142 2.03261,2.90793 4.95107,5.18665 6.28969,8.59097 -0.35782,1.65988 1.43064,2.45069 1.09786,3.57606 0.45229,0.37565 1.06813,0.63732 0.67127,1.62004 -0.88728,-1.52111 -2.37787,-2.60918 -2.83765,-4.43255 -0.25373,0.17428 -0.68407,0.0991 -1.13219,-9.3e-4 1.47962,2.71175 3.93298,4.72889 4.70103,7.94823 -0.48737,-0.0815 -0.97777,-0.16359 -1.46513,-0.24514 -0.2169,0.63905 0.44752,0.64813 1.00796,0.73405 -0.5369,1.3692 1.44204,2.14791 1.25053,3.79007 -0.54226,-0.23208 -0.32888,0.59518 -0.97955,0.21304 0.29235,1.1907 1.22522,1.92317 1.55655,3.08741 -0.41311,0.48842 -0.26309,-0.7649 -0.82617,-0.70363 -0.5479,1.41605 1.45002,2.40996 1.18918,4.15674 -0.76105,-0.21057 -0.29535,-1.29486 -0.85462,-1.65071 -0.88354,1.84519 1.63163,3.98104 1.37108,6.44875 -0.45977,-0.20885 -0.24696,-0.89884 -0.76329,-1.07004 -0.0963,2.49048 1.55322,5.13485 1.46167,8.1601 -0.39856,0.0448 -0.6839,0.24837 -0.8545,0.61089 -9.4e-4,1.0772 0.79302,1.58701 0.67056,2.75071 -0.16657,0.85478 -0.23413,-0.24334 -0.73333,-0.1227 -0.21239,2.45221 -0.11955,5.04186 0.21126,6.63163 -0.0923,0.62692 -0.6551,0.59243 -1.07157,0.76304 -0.19613,1.34141 0.58354,2.61365 0.48804,3.85096 -0.0844,1.0774 -0.98944,1.7835 -1.22412,2.81063 -0.4553,1.99851 0.32036,4.0365 -0.0956,6.20336 0.0618,0.61657 -0.64716,0.15086 -0.67117,0.64157 0.13472,1.62606 0.7331,2.92136 0.73049,4.64538 -0.45865,-0.37514 -0.90323,0.33889 -0.45871,0.48865 -0.1104,0.30349 -0.53842,-0.26441 -0.79314,0.24423 -0.28688,0.63518 0.76021,0.3188 0.82465,0.70337 -0.4556,1.23989 0.40495,1.54092 0.11902,2.65843 -0.57224,-0.34389 -0.60209,-1.07605 -1.0686,-1.49805 -0.49415,2.18362 0.70635,4.55497 0.94305,6.75407 -1.08739,-0.78503 -0.69253,-2.62874 -1.89253,-3.3321 0.51446,2.32254 1.26408,4.47867 1.89039,6.72411 -0.24768,0.65431 -0.53849,-0.17019 -0.97953,0.21304 0.82701,1.77802 1.09583,3.95423 1.64795,5.92969 -0.29859,-0.21487 -0.43885,-0.67181 -0.88751,-0.33696 0.75077,3.96088 0.93231,8.87408 0.63274,14.24076 -0.0884,1.57932 -0.69355,2.61513 -1.04149,3.97198 -0.22265,0.87052 0.10139,1.94716 -0.0935,2.81134 -0.15882,0.70529 -1.0903,2.22679 -0.58281,3.48332 -0.0334,0.4059 -0.24737,0.55856 -0.64048,0.45823 0.34624,1.76041 -0.02,3.44243 0.2107,5.49918 -0.33409,-0.0307 -0.34922,-0.28773 -0.70267,-0.30603 -1.32769,2.29387 0.22561,4.88444 -0.21676,6.93695 -0.59182,-0.38643 0.007,-1.61961 -0.61145,-1.98695 -1.44023,2.25305 0.388,5.39691 -0.52376,8.77179 -0.50359,-0.18161 0.14409,-1.1805 -0.76456,-1.07182 -0.59555,2.68651 0.8602,5.30631 0.69767,8.22074 -0.77593,-0.0371 -0.11059,-1.10375 -0.73261,-1.25337 -0.43679,0.0666 -0.24381,1.01618 -0.42874,1.436 -0.13943,-0.17097 -0.38105,-0.26636 -0.70266,-0.30603 -0.46165,2.37436 0.82059,3.5061 0.97471,5.43853 -0.98395,-0.0516 -0.12235,-1.41826 -1.0686,-1.49805 -0.34088,1.49309 0.78706,4.157 0.14883,5.8689 1.7803,1.20565 4.4472,1.7775 6.50726,2.78494 0.28868,0.54616 0.31673,1.27959 1.0686,1.49805 -0.33266,4.16595 -2.33004,7.9937 -3.49117,11.85458 -1.03837,3.45578 -3.2575,6.36536 -5.35455,8.3389 0.34551,0.89177 -0.0256,1.44847 -0.70256,1.95557 0.41911,0.88366 -0.13245,2.46245 1.25122,2.65941 0.0478,1.74186 0.90169,2.90873 1.1263,4.52314 -0.63061,0.12694 -0.0413,-0.6163 -0.67045,-0.48912 -0.5889,0.225 0.30206,0.73845 -0.0317,1.31554 -0.36164,-0.33535 -0.19925,-1.0432 -0.73388,-1.25515 -0.33598,1.76405 1.24814,3.51326 1.77066,5.19635 -1.00188,-0.31055 -1.02253,-2.71221 -2.90124,-2.93547 1.49912,2.48257 3.03952,4.93435 4.82372,7.21491 0.0605,0.61478 -0.3785,0.52562 -0.67243,0.63978 0.11723,0.66982 0.41994,1.20733 0.85613,1.65096 0.77492,0.40922 0.65195,-0.44218 1.34441,-0.15042 -0.55465,1.6348 1.00513,2.43133 2.2899,3.21011 -2.64681,-0.15701 -3.4441,-3.03257 -5.10051,-4.43423 -0.16971,0.92963 1.16647,2.18033 1.52434,3.27048 3.65856,0.94353 3.97886,4.26699 7.17781,5.53566 -0.96313,2.44282 2.70823,2.88748 4.21452,4.09753 -0.49024,0.44254 -1.3019,-0.24449 -1.83333,-0.30675 0.88261,2.05589 5.66311,1.50349 5.22474,3.70116 0.75627,0.48304 1.37549,1.06252 2.19901,1.5003 0.65607,-0.0912 -0.50055,-0.14339 -0.0913,-0.58068 0.9414,0.90667 2.7504,1.04913 4.33864,1.10285 -0.1043,0.22912 -0.37041,0.23328 -0.45689,0.48738 1.46146,0.4267 3.13616,-0.12077 3.78864,1.01083 -1.42454,-0.40327 -3.90048,-0.54895 -5.714,-0.76758 1.16715,1.09678 4.12985,1.05536 5.65266,1.13424 1.55264,1.17698 4.19041,1.10633 6.87461,1.71562 -1.12155,0.47984 -2.6185,-0.19468 -4.30842,-0.15704 2.258,2.08654 7.31995,0.64992 9.96214,2.42068 -1.7774,-0.15289 -3.71001,-0.52339 -4.92004,0.11913 2.5029,1.01715 5.64032,0.11917 8.34051,0.83009 -2.25538,0.61051 -5.39617,-0.0202 -7.64007,0.60636 4.13346,0.17959 10.30202,0.14528 14.30068,1.26192 -1.1883,0.52207 -3.31952,-0.27584 -4.70602,-0.0335 0.14324,0.99299 1.45836,0.47329 2.16804,0.54964 2.56268,0.27486 5.22747,0.58721 7.24283,1.77722 -1.49869,-0.36382 -2.57321,-0.13685 -3.75868,-0.0635 0.94276,0.77656 4.14297,1.24916 4.55363,-0.18199 1.09999,0.18403 2.19997,0.36808 3.29999,0.55213 0.24181,-0.65686 -0.56678,-0.56441 -0.79423,-0.88517 0.55358,-0.333 1.52691,0.41095 2.16779,0.55116 -0.0343,0.40258 -0.66463,-0.0263 -0.94735,0.03 0.19737,1.20464 2.20647,0.62045 3.23891,0.91726 8.8e-4,0.30484 -0.22707,0.28712 -0.27536,0.51932 5.23803,-0.80878 10.02173,2.03645 15.55263,2.79067 -0.59419,0.53821 -1.51153,-0.17437 -2.62954,-0.063 0.63848,1.52504 3.13893,0.7545 5.07223,1.22403 -0.55335,0.81047 -2.2565,0.007 -3.08694,0.42739 3.91472,0.96125 7.60862,0.78304 12.70978,1.74961 -2.63199,0.60875 -6.11983,-0.51037 -9.86849,-0.70881 0.1126,0.35021 0.58544,0.44347 0.82464,0.70337 4.34762,0.21386 8.8514,1.09932 13.20152,2.2088 -0.90375,0.755 -2.02622,-0.94681 -3.17801,-0.15479 1.78754,1.02153 4.26046,1.09133 6.32335,1.62183 0.63221,0.16385 1.8996,0.22045 2.0773,1.10141 -1.31982,-0.11871 -1.96487,-0.90043 -3.14734,-0.33814 1.52165,1.08071 5.19278,1.07615 6.26328,1.99027 -0.32365,0.37618 -1.28871,-0.14492 -1.864,-0.12341 0.54051,1.39713 2.97991,0.53154 3.63681,1.92775 -1.39328,0.0951 -2.79638,-1.21545 -3.69734,-0.43016 2.67179,1.7066 5.53946,1.32262 8.18793,2.87769 -0.0409,0.24444 -0.0818,0.48889 -0.12271,0.73334 1.96564,0.48278 3.75702,1.08719 5.34815,1.83714 0.27608,2.38629 4.04248,2.28146 6.23036,3.30401 -0.22851,0.53974 -1.75852,-0.20938 -2.38333,-0.39876 4.87677,3.08696 9.23634,6.54285 14.66262,9.23645 -1.19747,-0.27735 -1.998,-0.83374 -2.99421,-1.25326 2.81515,2.13579 5.66748,4.24638 8.76646,6.17838 -0.37813,1.14292 3.26873,3.25454 4.57964,4.15861 1.88949,1.30402 3.72841,2.44094 4.64254,3.79223 -1.78779,-1.03886 -3.25991,-2.30289 -5.1025,-3.30536 1.66546,2.41775 5.35862,3.38905 7.14715,5.71899 -0.79991,-0.34428 -1.27194,-0.92113 -2.04511,-1.28449 0.91524,1.60745 3.34839,2.13076 4.27434,3.7306 -1.28533,-0.64381 -2.21249,-1.54182 -3.60458,-2.11083 1.49779,1.73005 4.64703,2.28209 5.89518,4.19026 -1.37774,-0.73937 -2.61458,-1.57925 -3.9406,-2.35551 1.22794,1.6535 3.93801,3.64763 5.67895,5.47333 -0.85841,-0.46401 -1.52269,-1.06515 -2.38262,-1.52943 0.20177,1.90113 2.79138,3.49819 4.03049,5.19752 -0.50896,0.62944 -1.32858,-1.16461 -2.01597,-1.46808 0.10454,1.48752 1.86626,1.79012 2.32209,3.02703 -0.46168,-0.0474 -0.52027,-0.38232 -0.85685,-0.52029 0.005,0.37917 0.45647,1.82439 1.55727,1.95674 -0.76087,1.14954 1.61941,1.12534 1.70991,2.17075 -0.72188,-0.0785 -0.88431,-0.55317 -1.37463,-0.7954 -0.0462,1.2707 1.58082,1.34661 1.86105,2.38451 -0.61172,0.061 -0.51875,-0.38206 -0.85532,-0.52005 0.4801,1.11061 0.97267,2.21231 1.09787,3.57606 -1.08835,-0.0848 -1.60627,-0.575 -2.29309,-0.94749 -0.3354,0.40877 0.64246,1.25713 1.03794,1.68138 -1.35701,0.3195 -1.4635,-1.64421 -3.32819,-1.50075 0.10585,0.19361 0.28655,0.33378 0.48712,0.45844 -0.70865,0.73424 -1.1692,-1.10339 -2.68864,-0.82678 -0.32554,0.55648 0.5708,0.23999 0.24397,0.79468 -1.79702,-0.92731 -2.65315,-0.57898 -4.24636,-1.65437 0.36035,0.76547 1.43613,1.01926 1.55726,1.95674 -1.50304,-0.70381 -1.62906,-2.39123 -3.91145,-2.5391 -0.52015,0.22708 0.63422,0.61183 0.3657,1.19355 -0.81166,-0.28344 -0.79991,-1.15154 -1.43528,-1.55941 -3.08123,-0.17943 -3.55914,-2.30737 -5.62029,-3.58044 -0.47954,0.0501 0.25891,0.5459 0.0297,0.94887 -1.46345,-0.89348 -1.81916,-2.57852 -2.74786,-3.85213 -0.25847,0.0148 -0.22971,0.43429 -0.30576,0.70112 -0.91798,-0.0986 -0.85864,-0.89438 -1.28262,-1.34539 -0.30061,0.18216 -0.45391,0.5727 -0.55072,1.03866 -0.5651,-0.34897 -0.32184,-1.27731 -0.64059,-1.80337 -0.34402,-0.0278 -0.21556,0.60316 -0.48937,0.67198 -0.52228,-0.43604 -0.60456,-1.18326 -1.03793,-1.68139 -0.24064,0.002 -0.33137,0.50682 -0.0917,0.54848 -1.56956,-1.03845 -3.06122,-3.22766 -4.94811,-4.2187 -0.0208,-0.36314 -0.3185,-0.5276 -0.21304,-0.97953 -1.63719,0.82074 -3.16148,-2.13093 -4.36788,-3.18086 -0.20604,0.0111 -0.1846,0.3429 -0.42802,0.30532 -1.01882,-1.31697 -2.64525,-2.20318 -3.5423,-3.6097 -0.22052,-0.005 -0.2118,0.30851 -0.27535,0.51933 -3.80398,-3.74457 -8.31598,-6.9841 -13.22567,-9.93992 0.0986,-0.46723 0.73201,-0.17907 1.01022,-0.39639 -0.70064,-0.66534 -1.90775,-0.59403 -3.20823,-1.1006 0.11361,-0.36892 0.71181,-0.0584 0.82537,-0.42731 -0.50214,-0.47193 -1.65093,-0.007 -2.35418,-0.58235 -0.0605,-0.61477 0.54005,-0.29913 0.67243,-0.63978 -0.96668,-0.76482 -3.01438,-0.75721 -3.88122,-1.59328 0.0976,-0.4517 0.44011,-0.50903 0.15339,-0.91666 -0.57669,-0.2048 -0.87348,-0.0174 -1.31402,-0.0314 -3.3938,-2.42265 -8.08948,-3.91663 -11.79181,-6.11918 -15.08336,-4.70357 -31.66913,-9.09157 -47.29526,-12.43793 -1.02663,-0.21889 -2.11116,-0.31706 -3.11667,-0.52147 -16.65186,-3.38291 -29.20667,-11.02437 -38.70491,-20.98615 0.0409,-0.24444 0.0818,-0.48888 0.12269,-0.73333 -5.34021,-6.36213 -7.9001,-14.70754 -9.8251,-23.50585 -0.63395,-0.20033 -0.98154,0.96656 -0.39805,1.25266 -0.0948,0.39719 -0.52885,0.3167 -0.97954,0.21304 -1.48896,1.60568 -2.00537,3.56569 -3.76152,4.45919 -1.49692,2.88279 -5.29641,3.7391 -7.88689,4.33437 -2.26356,1.50435 -5.18611,2.08492 -8.00815,2.80636 -0.19161,0.18781 -0.32371,0.45156 -0.33696,0.88752 -2.34841,-0.0537 -1.46628,3.9857 -2.57069,6.35306 -0.16622,0.3554 -0.85279,0.73212 -0.91763,0.97883 -0.14528,0.54894 0.33729,1.41967 0.21258,2.10868 -0.38439,2.12816 -1.76625,3.9952 -4.00549,3.66453 -0.47113,0.0186 -0.72853,0.3367 -1.04064,0.57817 -2.43246,-1.654 -1.32104,-5.8373 -1.06362,-9.41276 -2.1865,1.63504 -2.92858,5.30061 -3.57882,7.88215 -1.3306,0.0208 -1.44525,1.74806 -2.14077,2.65725 -0.0552,0.45252 0.5986,0.13943 0.57913,-0.0915 0.24735,0.28637 -0.4904,1.10998 -1.25337,0.73261 -0.13532,1.77563 -3.24389,1.3466 -4.82872,0.6998 -1.6057,-3.47886 2.2047,-7.07549 2.78908,-11.02816 -2.85721,1.95473 -3.97664,6.34557 -6.69773,8.4911 -1.19795,-0.32137 -1.38708,0.77149 -2.23138,0.94592 -0.40542,0.02 -0.30589,-0.32131 -0.27464,-0.61134 -0.6823,-0.2775 -0.72726,0.33849 -1.19202,0.36594 -2.00771,-0.79452 -2.41757,-3.82671 -1.27798,-5.86935 -0.69504,-1.06489 -3.18775,-0.84746 -3.39059,-2.26348 1.82765,-2.79446 3.29119,-6.09745 5.68903,-8.09447 1.94151,-3.2403 4.16363,-6.0834 6.54505,-8.70512 1.89147,-3.45753 4.76277,-5.5434 7.21705,-8.21574 3.76447,-0.64701 8.50938,-2.52616 12.1342,-3.81219 1.10366,-0.39172 2.4046,-0.19763 2.90409,-1.58721 0.52985,0.13732 0.63301,-0.31972 1.16108,-0.1811 0.23126,-0.43404 0.6233,-0.63701 0.76498,-1.19284 0.41475,0.13069 0.70917,0.0888 0.94861,-0.0282 0.36918,-1.91554 2.51485,-3.04385 3.76154,-4.4592 -0.15769,-1.53566 2.14221,-2.4874 1.83619,-4.21594 0.28293,-0.43324 0.64474,-0.75592 0.79538,-1.37464 -1.57333,-0.28372 -4.40587,-0.69159 -6.41665,-1.0736 -0.38163,0.64759 0.44384,0.43548 0.21176,0.97775 -0.81592,-0.014 -1.45549,0.22293 -2.29049,0.18217 -0.0326,-0.42479 0.39357,-0.20271 0.45869,-0.48865 -1.73599,-0.81346 -4.06587,-1.16557 -6.04928,-2.14292 -0.30981,0.65018 0.63919,0.40377 0.3951,1.00843 -3.58995,-0.30226 -6.52174,-2.01311 -8.70724,-3.15304 -0.20629,0.0126 -0.18484,0.34443 -0.42648,0.30557 -0.0696,0.85686 1.00965,0.89295 1.89243,1.07049 -1.15385,0.41947 -3.96117,-0.4209 -4.52199,-1.13352 -1.29652,0.13644 -2.68044,-0.0967 -4.06398,-0.49149 -4.46868,-1.27383 -9.84156,-0.21274 -13.47463,-2.81991 -0.66736,-0.10389 -1.42966,-0.34443 -1.71133,0.0906 -0.33431,-0.0858 -0.008,-0.6392 -0.24398,-0.79469 -2.47219,-0.44029 -4.67566,-1.75446 -6.65991,-2.99895 -1.90804,0.66549 -4.82906,0.026 -6.264,-0.8596 -0.74794,0.83762 -1.71494,1.37 -2.75142,1.80125 -0.006,0.22026 0.3085,0.2118 0.51933,0.27535 -2.44836,1.36036 -5.35043,0.58895 -8.03714,0.72681 -1.51781,0.0791 -3.0028,0.61896 -4.61497,0.54867 -1.23021,-0.0535 -2.51321,0.0208 -3.78909,0.11833 -3.20731,0.2455 -6.35826,-0.005 -9.5954,-0.0978 -2.67765,-0.0759 -5.27782,-0.68046 -7.97532,-0.769 -2.04613,-0.0676 -4.00076,0.97028 -6.02074,1.06576 -3.45427,0.16334 -6.62973,0.012 -9.83982,0.23674 -1.2931,0.75423 -3.23093,0.60277 -5.01205,0.66914 -2.15772,1.65085 -5.1428,3.27163 -8.74102,1.5545 -1.42658,-1.62076 -1.79587,-3.99439 -2.34885,-6.23698 -0.70666,0.008 0.0343,0.6308 -0.67268,0.6413 -1.25718,-0.50246 -2.32175,-1.14233 -3.69637,-1.56235 -0.90021,0.79957 -2.52118,0.53777 -3.42269,0.1812 -0.52719,0.0813 0.48887,0.50426 -0.12245,0.7318 -1.9485,0.21268 -3.48941,0.99299 -5.01302,1.80133 -0.69313,-0.0437 -0.35395,-0.82251 -1.1913,-0.76471 -0.75502,0.34483 0.63199,0.50309 0.18262,1.16134 -0.91016,-0.3706 -1.14354,0.20759 -1.58936,0.48794 -2.35433,-0.36559 -3.77949,-1.39409 -4.82658,-2.69221 -2.81676,0.82127 -6.0653,-1.36191 -6.1092,-4.0376 -1.31614,-0.67566 -1.83715,-1.91719 -2.28988,-3.21011 0.67808,-1.08645 1.71769,-1.66794 3.11809,-1.73989 2.37714,-1.48849 5.6236,-1.66776 8.25284,-3.14233 1.85786,-1.04141 2.91114,-1.90173 4.92145,-2.38048 0.92097,-0.21971 2.42988,-0.33946 2.87341,-1.4039 1.29743,0.45894 1.37156,-0.79138 2.23137,-0.9459 2.0281,0.78535 6.47993,0.89257 9.25797,2.11439 0.64483,-0.0618 0.0902,-0.4074 0.48936,-0.672 0.84307,0.95932 2.84149,-0.0773 3.75797,1.19417 0.55977,-0.0697 0.25225,-0.24049 0.30603,-0.70267 1.51278,0.20444 3.29486,0.21675 4.12464,1.25552 0.37189,-0.15765 0.70027,-0.37441 1.03935,-0.57997 2.26857,1.48837 6.55545,0.25346 9.13598,1.71704 1.4437,-0.50914 2.65241,-0.66501 4.30842,0.15706 2.01303,-1.94991 5.35654,-0.15606 7.42678,-1.58438 0.68087,0.52069 2.05172,1.28247 3.02488,1.06994 0.063,-0.58312 -0.94782,-0.39889 -0.76328,-1.07004 0.36666,0.0613 0.73334,0.12269 1.09999,0.18405 0.41895,-1.6685 -1.1333,-1.89995 -2.65725,-2.14079 -0.005,-0.68885 0.91019,-0.08 1.03936,-0.57996 -0.34516,-0.65927 -1.22519,-0.33692 -2.01667,-0.33742 -0.0151,-0.32292 0.20164,-0.32279 0.42776,-0.30378 -1.64652,-2.56848 -4.26293,-2.83193 -5.74157,-5.10846 -0.52059,-0.27714 -0.39392,0.35499 -0.48936,0.67198 -0.41045,-0.46603 -1.64418,-1.00541 -1.03793,-1.68137 -2.12912,-0.90435 -2.2114,-3.2661 -4.61185,-3.97557 -0.22957,0.59298 0.19512,0.72057 0.61086,0.85452 -0.83938,0.90554 -0.94971,-1.02583 -2.32196,-0.76544 1.25146,-0.54289 -0.15291,-1.43279 -0.36548,-2.32115 -3.52587,1.43606 -3.03678,-3.27068 -4.82517,-4.95356 -0.47201,1.41304 0.5329,1.7712 0.45655,2.90335 -1.0806,-1.06029 -1.36632,-2.68494 -1.95318,-4.09608 -1.03337,0.37522 -1.21881,-1.16354 -1.864,-0.12342 -0.25155,-0.8996 -1.57188,-2.19791 -0.63989,-2.93403 -0.32528,-0.25233 -0.67021,-0.49065 -1.00797,-0.73405 -0.59697,0.48907 0.49255,1.1488 0.0292,2.07801 -1.30211,-1.11622 -0.88504,-3.4588 -2.25849,-4.52412 -0.81643,0.42095 0.73811,1.05169 -0.062,1.49734 -0.95944,-1.36198 -1.78718,-2.8166 -2.25823,-4.52565 -5.16842,-4.97643 -10.65912,-9.72566 -11.96801,-17.45656 -0.11008,-0.29955 -0.54524,-0.36451 -0.85532,-0.52004 0.95597,-1.59278 -1.19744,-1.93894 -0.91479,-3.54386 -0.46949,-0.13196 -0.90618,-0.21601 -0.82356,0.42603 -0.64545,-0.56345 -1.23079,-1.1671 -1.77127,-1.80408 -0.75448,0.70772 0.92141,1.91788 0.33456,2.50602 -0.69744,-0.0931 -0.0927,-1.11647 -0.73262,-1.25337 -0.65172,-0.31007 -0.59867,0.36786 -1.16134,0.18262 -0.0968,0.82248 1.10119,0.72137 1.06861,1.49806 -2.09064,-0.53355 -2.76582,-3.23792 -4.09182,-4.83086 -0.56573,1.42877 0.8745,2.81781 1.61744,3.84989 -1.88718,-0.53877 -2.54089,-3.35262 -3.90848,-4.80019 -0.21534,2.26325 2.41016,3.87102 3.35777,5.83884 -0.68782,-0.42291 -1.14353,-1.01273 -1.83236,-1.43895 -0.71614,0.46914 0.60681,0.85068 0.30434,1.56022 -1.56867,-0.81844 -1.68591,-2.67088 -3.17586,-3.54682 -0.12151,1.27066 1.46408,2.72014 2.38144,3.78926 -0.84133,0.32568 -1.1004,-1.14843 -1.83261,-1.43742 -0.72347,1.19821 1.5091,1.58746 1.61763,2.72228 -1.54385,-0.20643 -2.0047,-0.72806 -3.36062,-1.31615 -0.14757,0.59097 0.48269,0.62574 0.57996,1.03936 -1.48569,0.0373 -1.80339,-2.15654 -3.3295,-2.62862 0.40412,1.64916 1.62681,2.71439 2.3201,4.15592 -1.85533,-0.56013 -1.70994,-2.5461 -2.77853,-3.66879 -0.19361,0.10582 -0.33404,0.28806 -0.45869,0.48865 0.56296,0.94386 1.08311,1.91824 1.58722,2.90407 -0.062,0.18281 -1.1485,-0.007 -0.61135,0.27465 -1.0588,0.32071 -0.27016,-2.06492 -1.31258,-2.29274 -0.34912,0.38763 -0.39129,0.63029 -0.97801,0.21331 0.0417,1.26184 1.09286,1.80365 1.40389,2.8734 -1.31163,-0.57126 -1.63908,-1.84321 -2.7795,-2.53661 -0.40395,0.51823 0.34619,1.44158 -0.67341,1.77199 -0.5583,-0.2489 -0.0524,-1.25422 -0.91569,-1.28558 -1.39842,0.97064 2.05918,2.76789 1.12853,3.39274 -0.17121,-0.68513 -0.7954,-1.04714 -1.25194,-1.52873 -0.36349,0.54855 0.18457,1.70351 -0.21544,2.414 -0.35002,-0.6114 -0.33979,-1.47977 -1.43527,-1.55939 -0.1768,-0.69864 0.64173,-0.006 0.64176,-0.45645 0.0648,-0.5844 -0.64261,-0.61795 -1.1913,-0.76473 -0.019,1.08993 -0.0467,2.18467 -0.18547,3.36135 -0.53217,-0.91201 -1.34764,-1.62326 -2.25992,-2.26277 0.002,1.07618 -1.2667,2.07948 -0.42944,2.56666 -0.56271,0.66914 -1.63881,-0.6527 -1.43528,-1.5594 -0.31346,-0.0602 -0.49814,0.058 -0.61135,0.27464 -0.37791,-0.39775 -0.3073,-1.72089 -1.09928,-1.31471 -0.34073,-4.8e-4 0.0573,0.80271 0.21329,0.97801 -0.30143,0.67516 -0.7967,0.2185 -1.19202,0.36596 -0.16823,0.65817 -0.17061,1.19805 -0.0927,1.68067 -0.67869,-0.35542 -0.73571,0.42659 -0.2751,0.51779 -0.59182,0.4114 -1.22329,-0.51722 -1.55823,-0.82454 -0.33782,0.22618 -0.12446,0.77231 0.21329,0.97802 -0.016,0.31143 -1.32339,-0.0879 -0.64202,0.45798 -0.31915,0.51827 -0.59774,-0.30419 -1.1,-0.18405 -0.70456,0.29673 -1.00152,1.16111 -1.74273,1.4046 -0.47762,2.64812 -2.00884,3.82111 -3.18157,5.49856 -0.30556,-0.0511 -0.61111,-0.10225 -0.91667,-0.15336 -0.98605,1.25636 -2.12401,2.30354 -3.82145,2.56451 -2.11271,2.54573 -4.86658,4.19265 -7.58228,5.89305 0.0262,0.79123 -0.50091,0.80669 -0.61206,1.40532 -1.10895,-0.12116 -1.26506,1.09345 -1.80408,1.77126 -1.26188,-0.29599 -1.28899,1.08631 -1.98742,1.7406 -0.58121,0.54511 -1.69868,0.6157 -2.44539,1.09857 -0.81701,0.52764 -1.43809,1.29224 -2.20116,1.89173 -0.24445,-0.0409 -0.48889,-0.0819 -0.73333,-0.12271 -1.55239,2.4259 -4.65044,2.68498 -6.14558,5.19111 -0.28582,2.17764 -0.63924,4.13038 -1.41056,7.30418 -1.04757,4.30863 -3.76279,9.28213 -6.268733,7.05358 2.018159,-6.07329 2.714853,-10.84739 3.341363,-16.59127 -0.84109,-0.8679 -1.570689,0.35755 -1.864718,1.00726 -0.826489,-1.00209 -1.367656,0.24234 -2.199995,-0.36809 -0.206994,0.73965 0.575544,0.77477 0.94637,1.10223 -1.073324,2.34115 -0.634314,7.21732 -2.634426,10.11329 -0.0094,1.96159 0.530657,6.13065 -1.471656,7.6693 -0.07158,0.42776 -0.1434,0.85707 -0.214719,1.28332 -1.581758,0.54576 -2.548962,3.00359 -4.829431,1.83048 0.05667,-1.01451 -0.02611,-1.41156 -0.0295,-2.07648 -1.107917,0.25753 -2.313788,0.37772 -3.33138,0.76187 -3.700319,-1.75462 2.6371,-9.50973 1.078134,-13.20221 -1.393277,2.50748 -2.919819,5.95226 -5.413672,7.57515 -1.058031,-0.10629 -1.322703,-0.77728 -1.863289,-1.2541 1.067632,-4.62564 4.166803,-7.05975 4.774498,-11.63984 1.470598,-2.76312 2.567551,-5.82747 4.497005,-7.72852 1.158849,-0.26158 1.743956,-1.32744 2.293444,-2.44326 0.100584,-0.39465 -0.05208,-0.60868 -0.457976,-0.64201 0.20664,-0.58738 0.73605,-0.147 1.130674,6.9e-4 3.470847,-1.83948 6.223814,-4.87961 9.232737,-6.74612 0.0596,-0.36539 -0.46048,-0.31733 -0.24397,-0.79467 1.76266,-0.69766 2.21372,-3.23401 4.34149,-3.41984 0.0986,-0.60858 -1.00474,-0.35971 -1.19141,-0.76473 0.92991,-0.65795 2.08754,-0.99668 3.08741,-1.55655 -0.1921,-0.65408 -0.69058,-0.0872 -1.0389,-0.54918 1.76794,-0.99204 2.68887,-3.17336 4.61685,-3.93917 0.003,-0.27121 -0.53621,-0.15565 -0.48865,-0.45868 0.10612,-0.68114 0.79741,-0.54192 1.10071,-0.94663 -0.45829,-1.75716 2.29582,-2.57007 3.11951,-4.00123 -0.0656,-0.56538 -0.60787,0.01 -0.91666,-0.15337 0.57502,-1.2309 2.13979,-1.07432 2.81302,-2.16942 -0.12602,-0.44828 -0.6443,0.43403 -1.16134,0.18261 0.35324,-0.8628 1.29574,-0.90142 1.7734,-1.58793 0.0349,-0.48102 -0.35842,0.19918 -0.73333,-0.1227 1.21069,-1.69779 3.77902,-1.49423 5.34947,-2.68579 -0.85411,-0.011 -2.17651,-0.0579 -3.39202,-0.002 1.07678,-1.3574 3.25779,-1.16682 4.52412,-2.2585 0.005,-0.22052 -0.30851,-0.21181 -0.51933,-0.27535 1.02535,-0.97494 2.85267,-0.8294 3.8821,-1.80052 -0.83308,-0.25875 -2.20626,0.6737 -3.48404,0.54786 0.90104,-0.92663 2.66792,-0.63572 3.63741,-1.46452 -0.0289,-0.56867 -0.42051,0.11025 -0.73333,-0.1227 0.49683,-0.81051 1.29313,-1.20498 2.44539,-1.09857 0.0779,-0.32464 -0.15991,-0.42411 -0.0609,-0.76248 0.8755,-0.40792 1.62066,0.34812 2.47535,-0.15123 -0.0751,-0.47116 -1.02639,0.20205 -1.25266,-0.39806 5.51857,-2.29784 9.99398,-6.05807 15.8344,-7.90472 0.0409,-0.24445 0.0818,-0.48889 0.1227,-0.73333 2.46291,-0.62134 4.05186,-2.46787 6.38883,-3.26576 -0.0707,0.65722 -0.92072,0.21817 -0.91738,0.9773 0.92972,-0.35644 2.08079,-0.40257 2.65914,-1.2497 -0.0656,-0.56538 -0.60787,0.01 -0.91666,-0.15337 0.12285,-0.58411 0.55052,-0.73714 1.2227,-0.54929 0.38151,-1.27584 3.23262,-1.25112 2.6601,-2.3819 0.82806,0.12914 1.52993,-0.33926 2.53696,-0.51943 -0.0926,-1.72739 2.38622,-1.36447 2.9352,-2.8997 2.27866,-0.80608 3.85713,-2.58996 6.35842,-3.08395 0.38834,0.0163 0.18512,-0.7967 0.52003,-0.85531 0.65908,-0.0436 0.7158,0.47156 1.1,0.18404 0.5215,-0.35721 -0.21622,-0.38798 -0.03,-0.94734 0.75563,-0.52691 1.68378,-0.80823 2.62871,-1.06789 0.006,-0.22028 -0.30851,-0.21182 -0.51932,-0.27536 1.05359,-0.93723 2.1848,-1.76568 3.72943,-2.01452 0.91771,-1.50495 2.07688,-2.66953 4.03547,-2.71719 0.22292,-0.5438 0.18738,-0.33144 0.15336,-0.91666 2.52446,-1.28951 4.49299,-3.35837 7.0009,-4.67107 0.36667,0.0614 0.73333,0.1227 1.10001,0.18405 0.42914,-0.0774 0.56542,-0.56346 0.88669,-0.79397 -0.59236,-0.35511 -1.0025,0.67879 -1.314,-0.0314 0.60935,-0.73201 1.70414,-0.7797 2.47606,-1.28191 -0.38245,-1.69421 2.7183,-1.34974 2.38547,-2.99325 0.48633,0.0783 1.06328,0.28155 1.16135,-0.18262 0.29093,-0.58425 -0.52358,-0.38129 -0.85532,-0.52003 0.44856,-0.5783 1.03452,-0.96399 1.40675,-1.64929 -1.85659,-4.61702 -1.58062,-10.1714 -2.5574,-15.12813 -0.72479,-0.3333 -1.98655,-0.84595 -2.10726,-2.04877 -1.03151,0.23262 -1.30943,-0.4154 -1.92464,-0.88741 -0.65418,0.75591 0.81287,1.19612 0.79325,2.01737 -1.88019,-1.50976 -2.45111,-3.95482 -4.36646,-5.4422 -0.04,0.94347 0.69743,1.33229 0.97659,2.04805 -0.44209,0.40819 -0.62957,-0.72413 -0.9773,-0.91738 -0.28564,-0.1326 -0.46663,0.94906 -0.15338,0.91667 -0.59854,0.15114 -0.85251,-1.32526 -1.61861,-1.59008 -0.76915,1.35862 0.90789,2.3648 1.73988,3.11809 -2.03804,-0.75405 -3.15446,-3.56208 -4.15245,-5.59487 -0.74703,0.59746 -0.66213,2.06128 0.36524,2.3227 -0.71708,0.75638 0.44938,1.34104 0.60993,1.9867 -1.67163,-0.31581 -1.48177,-3.35603 -3.26719,-4.12749 -0.43997,0.69595 0.92729,1.48854 0.91524,2.41472 -2.76198,-0.84848 -3.66788,-3.92911 -5.61913,-5.84026 -0.32588,1.09354 0.66081,1.25078 0.57925,2.17003 -1.22399,-0.4183 -0.44716,-2.26406 -2.04579,-2.41532 0.32257,1.75173 0.95909,3.14764 2.25849,4.52411 -2.09786,-0.38712 -2.04866,-3.70373 -3.90849,-4.80018 -0.34376,-0.0292 -0.21531,0.60162 -0.48935,0.67198 -0.003,1.29366 1.21591,1.71588 1.40388,2.87341 -2.3089,-1.31294 -2.38168,-4.21962 -4.30511,-5.80887 0.60017,3.71581 3.44755,7.22651 6.04428,10.05763 -1.18166,0.0881 -1.50819,-1.8276 -2.62658,-2.32412 -0.0733,1.07613 1.13461,2.6336 1.18916,4.15673 -1.77567,-2.50056 -2.21913,-5.95143 -4.059,-8.4062 -0.10488,0.73945 -0.82877,1.40518 -0.39877,2.38333 0.3447,0.55867 0.5717,-0.40378 0.91666,0.15337 0.15457,1.23518 1.20795,1.82919 1.37322,3.05673 -0.33682,-0.13645 -0.24385,-0.57949 -0.85532,-0.52003 0.28997,1.35521 0.53229,2.7417 1.25052,3.79007 0.61182,-0.21175 0.29467,-0.45641 0.36738,-1.06933 0.41435,0.78079 0.53621,1.7702 0.88457,2.59805 0.39465,0.10059 0.60865,-0.0521 0.64202,-0.45797 0.49722,0.18214 0.19142,0.9398 0.33527,1.37535 -2.2139,-1.32688 -3.17944,-3.54427 -4.97781,-5.16756 0.14625,2.30804 0.76915,4.70525 2.07373,6.75478 -1.29557,-0.5827 -1.07883,-2.2442 -2.13722,-2.9961 0.11023,2.08214 1.09482,4.37339 0.82037,7.4874 -0.69981,0.0149 -0.18513,-0.8366 -0.57997,-1.0393 -0.55917,-0.10296 -0.55068,0.58791 -1.19203,0.36595 0.10211,-0.82629 -0.2612,-1.32055 -0.64059,-1.80337 -0.84071,0.54724 0.49503,2.04444 0.42587,3.0867 -0.62749,-0.36099 -0.6438,-1.15527 -1.46594,-1.37607 -0.74103,0.3833 0.3774,0.79502 0.15195,1.34468 -0.25717,-0.0587 -0.51434,-0.11746 -0.58068,0.0913 -0.11105,0.83266 0.71954,0.99362 1.28262,1.3454 -0.5856,0.61819 0.0931,1.48088 -0.001,2.26134 -0.31163,-0.53115 -0.68031,-1.0216 -1.49663,-1.19273 0.19784,1.25812 1.22292,1.9275 1.34254,3.24007 -0.64202,-0.34929 -0.6138,-1.48478 -1.71063,-1.04008 -0.23814,-1.55228 -1.49282,-2.37943 -2.22852,-3.57677 -0.27087,2.27594 1.44601,4.31122 2.83844,5.56347 -2.58187,-0.52622 -2.95044,-4.03051 -4.48844,-5.83954 -1.00102,0.75442 0.20981,2.47259 1.00655,2.99539 -0.0673,0.84312 -0.73984,-0.70332 -1.31401,-0.0314 0.38165,0.53502 0.89884,0.97335 1.89397,1.07075 -0.1966,0.41471 -1.20743,0.57068 -0.15337,0.91666 -1.23734,-0.0484 -2.22693,-2.47869 -3.75726,-2.32483 1.9181,1.96843 4.25886,3.63535 5.37444,6.17625 -1.45953,-1.05774 -1.79552,-2.91694 -3.93988,-3.48618 -0.46038,0.76164 1.11278,1.31855 1.12925,2.26206 -1.47415,-0.88586 -2.23138,-2.28312 -3.38988,-3.39416 -0.63572,2.9829 4.35887,3.34741 5.03845,5.93157 -0.96291,-0.71237 -1.75462,-1.54687 -3.0546,-2.0188 0.30948,0.69413 0.56189,1.42898 1.1906,1.89539 -0.24135,0.71034 -0.0868,1.13826 0.54928,1.2227 -1.25036,0.4143 -2.91047,-2.41088 -4.73527,-2.11154 0.20139,0.88022 1.82797,0.74246 1.55727,1.95674 1.15121,0.14078 1.47566,0.0977 2.35265,0.5821 -0.38285,0.15739 -1.26754,0.17899 -0.27536,0.51932 -1.56987,-0.12602 -3.98556,-1.70183 -5.52995,-1.86756 -0.0794,0.32438 0.15839,0.42384 0.0606,0.764 -0.64342,-0.5474 -2.09247,-0.0533 -3.514,-0.39948 0.73829,1.15381 2.5543,0.65353 3.97198,1.0415 1.54066,0.42269 3.00643,1.26474 4.42995,1.68353 -3.37802,-0.39558 -6.69792,-1.6735 -9.59466,-1.2284 1.62396,0.76958 4.12582,0.98557 4.94999,0.82821 0.35252,1.09396 2.34397,1.01882 2.87127,1.98812 -2.11241,-0.75078 -5.15736,-1.51311 -7.24201,-0.6463 1.85088,0.73687 3.34086,0.34539 5.68332,0.95091 0.80106,0.13093 -0.0208,0.32161 -0.39734,0.12198 -2.04112,0.081 -4.42572,-0.31958 -6.53935,-0.34027 0.5321,1.00623 2.21587,0.22626 3.45265,0.76615 -0.24106,0.64285 -1.37924,0.0299 -2.07801,0.0292 0.76268,1.23327 2.8917,1.49054 4.12392,2.38618 -1.87401,0.39633 -3.60682,-2.21957 -5.46931,-1.10357 1.15368,0.25742 1.68561,0.72964 2.8413,1.04079 -0.5697,0.86114 -1.89379,0.66473 -2.81206,1.03723 -0.0718,0.80466 0.89941,0.86665 1.28262,1.34539 -0.90406,0.45654 -2.31693,-1.4996 -3.63598,-0.79682 -0.11937,0.30042 0.0858,0.3693 0.30532,0.42801 -0.40035,0.44031 -1.82751,-0.25708 -2.65869,0.12056 0.46711,0.70009 2.12324,0.93007 2.71932,0.64345 -0.55568,0.83365 2.86772,0.74209 3.91063,1.40817 -0.20388,0.2423 -0.37214,0.53454 -0.82536,0.4273 -0.68181,-1.05012 -5.27843,-1.72812 -6.32534,-0.49293 0.98985,0.4012 3.39031,-0.11908 4.614,0.58353 -2.05369,0.62541 -5.05603,-0.66377 -6.96737,-0.0349 1.05304,0.75571 3.46145,0.5446 4.06329,1.62217 -1.75186,-0.2868 -2.97325,-0.1865 -4.24805,0.6085 -0.32529,0.55494 0.56926,0.23973 0.24423,0.79315 -1.03675,-0.3368 -2.08089,-0.66698 -3.23865,-0.91881 0.27033,1.8011 3.1352,1.01144 3.54325,2.47749 -2.37061,-0.77513 -4.00801,-0.44129 -5.71496,0.36463 1.99047,1.07591 3.58553,0.44129 4.85822,1.37668 -1.38586,0.84866 -4.81277,0.0413 -6.23429,0.0893 -0.62005,0.33601 -1.2149,0.70922 -2.17004,0.57925 1.15279,1.28597 3.18819,0.16906 4.64468,0.40019 -0.16977,0.66735 -1.19951,0.12912 -1.58936,0.48794 0.72787,0.70917 1.65719,-0.2363 2.78067,0.27678 -2.04274,0.6351 -5.21153,0.80066 -7.2734,0.66771 -0.2404,6.1e-4 -0.33112,0.50528 -0.0918,0.54847 -0.66163,0.46254 -0.35809,-1.13574 -1.55823,-0.82454 -0.30932,0.66598 0.64385,0.68568 -7.1e-4,1.13067 1.09452,0.79878 2.47496,0.47064 4.00265,0.85817 -1.27236,0.56453 -2.2996,0.0864 -3.82003,0.30318 -0.0781,0.32616 0.15991,0.4241 0.0606,0.764 -0.29331,-0.4904 -0.62942,-0.95026 -1.31304,-1.16359 0.53636,0.72739 0.0295,1.27865 0.42659,1.95603 0.5909,-0.15242 1.43368,0.0483 2.23067,0.18476 -1.47077,0.61458 -3.9219,0.31126 -5.40868,-0.33956 -0.56742,0.0684 0.37871,0.34607 0.0609,0.76248 -0.81716,-0.0535 -0.50813,-0.6614 -1.25266,-0.39805 0.39483,1.44186 2.31319,1.79424 4.15435,2.20437 -1.20237,0.61551 -3.95737,-0.38728 -5.34708,-0.70775 0.5029,0.88041 0.93294,1.81145 1.64857,2.53742 -0.007,0.51873 -0.71307,0.0566 -0.82535,0.4273 -0.84462,-0.52767 -1.13817,-1.44844 -1.92393,-2.01809 -0.26187,0.94563 0.95784,1.49365 0.39617,2.13783 -0.75368,-0.16065 -0.45821,-1.07239 -1.09928,-1.31472 -0.80184,1.48822 1.97269,1.82051 2.10654,3.17944 -1.70953,-0.36142 -2.5993,-2.77815 -4.3686,-2.05019 0.16122,0.36935 0.93058,0.3049 1.22198,0.58139 -0.11237,0.52146 -1.2323,-0.36952 -1.34468,0.15194 0.33944,0.83422 1.98968,0.73339 2.81089,1.2226 -0.88777,0.4624 -2.0145,-0.13446 -3.514,-0.39948 -0.45275,-0.0538 -0.14095,0.59835 0.0913,0.58067 -0.69988,0.54096 -0.42517,-0.97891 -1.16064,-0.94805 -0.92434,-0.0887 -0.94673,1.08704 -1.71206,1.22127 1.30693,0.75893 2.83957,1.77394 4.18528,2.01951 -0.26552,0.2634 -1.50511,0.14395 -0.6727,0.64131 -0.57797,0.24411 -2.1474,-0.18496 -1.89397,-1.07075 -0.61515,-0.15318 -1.51029,-0.10664 -1.80265,-0.49008 -0.56411,0.0674 0.0111,0.60966 -0.15363,0.9182 -0.4229,-0.12888 -0.2341,-0.69409 -0.82464,-0.70337 -0.45042,-0.1052 -0.61639,0.19213 -0.97801,0.21329 0.3884,1.93079 2.79943,2.41743 4.94882,3.08802 -1.69468,0.70433 -3.71907,-1.09813 -5.40823,-1.4687 -0.43651,0.45938 0.69697,1.25055 -0.42872,1.43599 0.45036,0.59364 1.31626,0.89086 2.04662,1.28476 -0.37085,0.50806 -0.77984,-0.28596 -1.28334,-0.21472 0.1675,0.90439 1.49829,0.97628 1.55726,1.95674 -1.8854,-0.9154 -2.79529,-2.52667 -4.91789,-3.27288 -0.0408,0.83499 0.0464,1.58144 0.60992,1.9867 -0.49163,0.23499 -0.86597,-0.99141 -1.06835,-1.49958 -0.31699,0.30819 -0.94642,0.18403 -1.37536,0.33528 0.16834,2.41068 2.82859,3.0411 3.69449,4.95284 -1.48286,-0.82449 -2.53692,-1.95888 -3.63456,-3.05816 -0.43865,0.2093 0.0565,0.46962 -0.33671,0.88599 -0.2574,-0.0855 0.0271,-0.55615 -0.27489,-0.60982 -0.9103,0.64396 0.0705,2.46028 0.6092,3.11738 -1.17588,0.61679 -0.80698,-1.25011 -1.86303,-1.25562 0.12311,-0.58563 0.76696,-1.12026 0.4594,-1.61932 -1.39105,-0.22799 -0.50297,1.66386 -1.34636,2.41482 -0.53524,-0.48062 -0.12044,-1.63624 -0.15098,-2.47688 -2.40028,0.64124 0.15081,3.14433 0.18048,4.55336 -0.5901,-0.3029 -1.14201,-1.00304 -0.97801,0.2133 -0.87481,-0.29087 -0.65819,-1.36029 -1.4046,-1.74273 -0.66872,-0.10526 -0.89537,0.40459 -0.948054,1.16062 -0.455839,0.002 -0.342769,-0.40129 -0.885991,-0.3367 -0.350752,0.95117 0.523943,1.02685 0.243256,1.92535 -0.635241,-0.19269 -0.316375,-1.06593 -0.915953,-1.28404 -0.895698,0.92282 1.104719,2.38988 1.281192,3.60674 -1.312917,-0.94841 -2.028909,-2.31993 -2.564522,-3.82146 -0.448275,0.12603 -0.759155,0.44466 -0.917377,0.9773 -0.01629,0.38834 0.796709,0.18508 0.855314,0.52004 -0.650493,0.56493 -0.196964,0.59526 -0.245395,1.46667 -1.101909,-0.37913 -0.479375,-1.03039 -1.007261,-1.86472 -0.25212,0.0238 -0.342685,0.27404 -0.611347,0.27464 -0.06814,1.4492 1.062666,2.04046 1.128533,3.39273 -1.173711,-0.40055 -1.036627,-1.73614 -1.862576,-2.38476 -0.404889,-0.0394 -0.470092,0.39722 -0.520038,0.85531 0.286871,0.60398 1.244808,0.72656 1.037679,1.68292 -0.697681,0.28376 -0.772726,-0.64757 -1.497082,-0.0636 -0.121402,-0.51346 0.26817,-2.04395 -0.30389,-2.68936 -1.567468,2.11241 -1.046579,4.75326 -0.676976,7.42535 -1.488665,-0.893 -0.08423,-3.71116 -2.014779,-3.72791 -0.566117,-0.78419 0.762358,-1.08334 0.306741,-1.83333 -1.766618,1.32207 -1.198547,4.65715 -0.920687,6.62913 -0.836055,-1.17959 -1.060662,-2.794 -0.699805,-4.82873 -1.076266,0.5471 -0.795186,2.25576 -1.071462,3.02464 -0.372745,-0.10949 0.08403,-0.81204 -0.213295,-0.97801 -0.915897,0.64931 -0.562393,1.7937 -0.888129,3.05532 -0.31449,-0.42013 -0.392806,-1.01276 -0.273931,-1.74202 -1.432618,-0.12034 -2.38444,2.57409 -2.233522,4.33793 -0.522433,0.61619 -0.41398,-0.54828 -1.069322,-0.36739 -0.678309,0.65609 -0.689604,1.60595 -2.140074,1.5266 -0.07513,0.43031 0.22576,0.59375 -7.12e-4,1.13067 -0.815975,0.0896 -0.442919,-1.50174 -0.0906,-1.71135 -0.406061,-0.18259 -1.372327,0.78653 -2.353622,0.5501 -0.993737,1.32104 -1.721849,3.01633 -2.936178,4.0319 0.262822,-0.83867 0.757179,-1.35276 0.949017,-2.29283 -2.057275,1.47291 -3.987989,3.35334 -5.534482,4.918 -0.224944,-0.27005 -0.242761,-0.68922 -0.182362,-1.16285 -0.98027,-0.24256 -0.552526,1.49067 -1.070751,1.89398 -3.840277,0.91229 -2.177795,5.61939 -4.742399,9.19518 -0.399715,-0.14544 0.195697,-1.00068 -0.396371,-1.01022 -0.881581,0.74456 0.62385,2.91722 -1.040788,2.8413 -0.951969,3.73724 -3.504107,6.92877 -5.049399,11.03004 -2.173328,0.95564 -4.639565,2.80773 -6.263994,-0.8596 0.691512,-0.59417 0.828053,-1.07232 1.163028,-2.44548 -0.864698,0.22127 -1.26404,1.09677 -2.567632,0.70278 -2.160033,1.2798 -4.984086,3.57146 -8.13085,3.53966 -2.836084,-0.03 -5.663176,-1.39984 -8.188635,-1.74701 -0.733071,1.07725 -2.338665,1.06146 -3.423148,1.31034 -2.607804,0.60496 -4.557007,2.7273 -6.938372,2.0446 -1.232582,1.2842 -4.561545,0.633 -4.888644,-1.19488 -0.0072,-0.68909 0.287348,-0.95708 0.581388,-1.22198 -0.06505,-0.64382 -0.325352,-0.14869 -0.885991,-0.33671 -1.418565,1.82321 -4.275944,2.44609 -6.754782,2.07375 -0.515033,-1.03322 -1.251457,-1.90715 -0.700522,-3.69807 -0.668892,-0.54538 -1.305681,-1.11365 -1.9852718,-1.65141 0.6264808,-2.0641 2.2696728,-2.70481 4.0968098,-3.08384 2.57216,0.59368 4.427685,-1.58831 6.754785,-2.07374 -0.05388,-0.1755 -0.10546,-0.35533 -0.305318,-0.42803 2.232276,-0.3411 3.215549,-2.43503 5.227486,-3.08313 0.140174,-0.58434 -0.194037,-0.8303 0.06207,-1.49734 0.761965,-0.0579 0.460014,0.63923 1.22198,0.58139 -0.03874,-1.15769 1.156139,-1.21219 1.834755,-1.9546 0.59232,0.007 0.321486,0.63175 1.038649,0.55072 0.563851,-0.0658 -0.01107,-0.60966 0.153371,-0.91667 0.665926,0.01 0.342057,0.72472 1.008233,0.73251 0.324429,0.051 -0.147126,-0.91353 0.367378,-1.06931 0.545941,0.0787 1.2025,-0.025 1.772693,-0.45727 0.668626,0.11519 0.736051,0.66028 1.160633,0.94806 0.385789,0.0128 0.286902,-0.65403 0.672698,-0.64132 1.95242,1.66006 4.875463,2.70981 8.003621,3.9792 0.372269,-0.75125 -0.834529,-0.37206 -0.579705,-1.04089 0.305988,-0.23307 0.987572,-0.42999 1.314006,0.0314 0.568409,-0.0274 -0.110257,-0.42051 0.12244,-0.73181 0.658132,0.24362 0.839207,-0.18154 1.497338,0.0621 -0.142304,-0.88603 0.189352,-1.44148 1.16206,-1.31328 -0.219553,-1.14711 0.8505,-1.53505 0.796106,-2.50531 0.556598,-0.27596 1.075285,-0.60694 1.956027,-0.4266 0.207939,-0.63269 -0.573897,-0.55933 -0.365953,-1.19201 0.654856,-0.21554 1.028055,-0.82215 1.681384,-1.03794 0.226728,-0.53845 -0.225761,-0.59376 9.29e-4,-1.1322 1.757601,-1.15554 2.36034,-3.93194 4.372627,-4.73232 0.100583,-0.39465 -0.05207,-0.60867 -0.457976,-0.64203 0.352654,-0.33363 0.578605,-0.84866 1.25337,-0.73262 0.514971,-1.70739 1.288909,-3.38559 2.783519,-4.2459 0.100219,-0.39471 -0.05243,-0.60871 -0.45834,-0.64208 0.465003,-0.40435 1.035338,-0.65916 1.65071,-0.85459 -0.449202,-1.22951 0.710468,-1.17683 0.215688,-2.41554 0.859651,-1.10161 2.829378,-1.45051 2.782552,-3.1137 0.749861,0.14593 0.855775,-0.60912 1.74202,-0.27393 0.01148,-0.4347 0.146868,-0.69945 0.336705,-0.88599 -0.0656,-0.56538 -0.609397,0.01 -0.916664,-0.15337 0.983435,-0.73382 1.818282,-1.67781 3.149015,-1.92475 1.510432,-2.93548 4.21466,-4.20121 6.787342,-5.64755 0.259085,-0.56289 -0.562821,-0.35332 -0.427302,-0.82536 0.686084,-1.67877 2.708946,-1.48166 3.51614,-2.99254 0.0777,-0.43617 -0.919037,-0.43018 -0.18262,-1.16135 0.635126,-0.0225 0.617787,0.41905 0.610635,0.85603 1.170477,-0.52818 1.648677,-1.66848 2.721459,-2.74856 -0.839064,-0.0446 -0.969536,0.90418 -1.986702,0.60992 2.378679,-2.32377 5.646596,-3.40094 7.948945,-5.83171 -1.307838,0.27899 -2.063301,1.3305 -3.301167,1.70763 -0.535388,-0.24506 -0.353856,-0.58848 -1.069324,-0.36738 0.634419,-0.91942 1.248994,-1.87043 2.415429,-2.04591 0.139854,-1.69007 1.454162,-1.73558 2.140786,-2.65726 0.0071,-0.22027 -0.30851,-0.21181 -0.519325,-0.27536 0.644994,-1.13281 1.297621,-2.25492 2.049476,-3.23793 1.162077,0.27296 1.507943,-0.60207 1.773407,-1.58793 -0.149644,-0.55117 -0.475513,0.5141 -0.978014,0.21329 1.384347,-2.88591 3.95231,-4.11631 5.932282,-6.16912 -0.778418,-0.10667 -1.915282,1.23438 -2.751164,1.7997 0.602025,-1.64571 2.388136,-3.59118 4.128199,-4.39785 0.0054,-0.22053 -0.308764,-0.21029 -0.51958,-0.27383 0.865362,-1.27655 1.961239,-2.23184 3.302132,-2.83988 -0.149864,-0.60617 -0.873091,0.20572 -1.069324,-0.36738 0.45737,-0.41505 1.103018,-0.56617 1.498053,-1.06861 0.882961,-2.13269 2.415461,-4.12059 4.128911,-5.52852 0.87441,-3.11415 4.52889,-4.18318 6.69629,-6.22976 -1.07485,-0.89757 -2.35608,1.61609 -3.85142,1.61718 0.92805,-1.34145 2.44714,-1.85056 3.51614,-2.99253 -0.0881,-0.74034 -0.82851,0.58697 -0.91666,-0.15337 0.84912,-1.37665 1.69901,-2.74845 3.3328,-3.02321 0.01,-0.32978 -0.24647,-0.47 -0.67198,-0.48937 0.63786,-1.54077 2.8915,-1.43698 2.81348,-3.29857 0.0358,1.80426 2.58428,1.15955 3.11737,-0.60921 -0.84148,-0.64022 -1.68381,0.4423 -2.99467,-0.12412 -0.0302,-0.95523 2.04599,-0.13826 1.49805,-1.06861 0.79378,-0.0321 2.3625,0.30733 2.93404,-0.63988 -0.59191,-0.677 -1.98583,0.43574 -2.59734,-0.24611 0.22692,-0.43634 1.00977,-0.0933 1.37536,-0.33528 0.52036,-1.77717 3.75862,-1.45681 5.01347,-2.93047 -2.47488,-0.52718 -3.20059,1.39781 -5.16538,1.58578 0.23338,-0.57817 0.79344,-0.69649 1.28405,-0.91595 0.22673,-0.53845 -0.22602,-0.59222 7.1e-4,-1.13067 0.9489,-0.48045 1.78941,-1.11096 2.41543,-2.04591 1.65286,-0.62338 3.83035,-0.51505 5.31808,-1.37179 -1.36128,0.23241 -1.51266,-0.39287 -2.84202,0.0899 0.78611,-0.7841 2.19812,-0.69077 2.90408,-1.58722 -1.51283,-0.53268 -2.69104,1.35587 -4.5234,1.12782 -0.3753,-0.50726 0.33048,-0.29494 0.33671,-0.88599 2.94935,-0.69386 5.35397,-2.14949 7.61152,-3.81505 -1.45043,-0.1453 -3.1354,1.3365 -4.6461,1.86116 0.63961,-1.06304 1.9995,-1.11821 2.32412,-2.62659 -0.92452,-0.61329 -2.38814,-0.0321 -3.23935,0.21187 0.98162,-1.49269 4.86575,-0.87423 5.65549,-3.38846 -0.3661,-0.54341 -1.09754,0.77754 -1.46666,-0.24539 -1.37907,0.17917 -1.60939,1.96875 -3.14876,1.92321 1.14899,-1.59189 3.7385,-2.25644 4.25018,-4.00051 -2.34309,0.41209 -3.15985,2.96577 -5.3195,3.63313 1.901,-2.01262 3.9483,-3.82015 6.32891,-5.16043 -2.26257,-0.0786 -4.05288,2.46455 -6.05284,3.51044 1.34087,-2.19429 3.41552,-3.35803 4.70958,-5.61984 -2.1607,-0.0867 -2.23252,2.75499 -4.09681,3.08385 1.77353,-2.18943 3.98138,-3.77378 5.41296,-6.44448 -1.72742,0.54337 -2.12284,1.65826 -3.48547,2.80921 0.61023,-2.53956 2.90221,-4.68308 4.03832,-7.23987 -1.38798,0.16669 -1.21248,2.52517 -2.84345,2.35123 0.29215,-0.89188 0.47552,-1.725 0.24611,-2.59734 0.7665,0.0183 1.03178,-0.66604 1.49805,-1.06861 -0.36621,-2.39196 2.24142,-3.94397 2.93761,-6.29324 -0.70281,-0.0799 -0.77487,0.7263 -1.13139,1.12996 -0.42299,-0.39117 0.49708,-0.7932 0.42873,-1.43599 -1.66544,0.3794 -1.50813,3.31594 -2.63086,4.45991 0.10654,-2.97406 1.99553,-5.73156 3.57962,-6.75122 0.20273,-0.84558 0.0982,-1.4693 -0.0292,-2.07801 -0.78065,0.20705 -0.93322,0.66839 -0.61205,1.40531 -0.43591,0.30557 -0.34548,-0.14104 -0.70266,-0.30603 -0.43443,0.37178 -0.79506,0.847 -1.16206,1.3133 -0.46212,-1.74367 2.25053,-2.64675 2.81419,-4.42924 -0.93179,-0.40091 -0.71991,0.80145 -1.58936,0.48793 0.70877,-1.30746 2.98495,-3.82585 1.62289,-5.19396 -0.0636,-0.84931 0.66672,-1.26267 0.30674,-1.83332 -0.5639,-0.2624 -0.35687,0.55594 -0.6727,0.6413 -0.21869,-2.51333 0.22397,-5.45 1.47166,-7.66931 -2.0889,-0.0746 -2.78554,-1.02674 -5.13332,-0.85888 0.50693,-0.27012 1.0126,-0.54203 1.77269,-0.45726 -1.79081,-0.69227 -5.1057,0.57179 -7.21133,-0.82963 1.69838,-0.52938 3.7577,0.80148 5.65336,0.004 -1.23382,-1.19588 -5.77802,0.60065 -6.47729,-1.83761 -1.31792,0.11402 -3.0671,-0.37653 -4.614,-0.58352 1.2202,-0.62823 3.34617,0.0133 5.07269,0.0949 0.19617,-0.9472 -0.77311,-0.44818 -1.22199,-0.58139 -1.33007,-0.3953 -3.12436,-1.23578 -4.85796,-1.3782 0.37469,-0.96288 1.49675,-0.22545 2.10868,-0.21259 2.19944,0.0429 4.72994,0.46315 6.1734,-0.85175 -1.17151,-0.65775 -2.53609,0.36409 -3.82003,0.30318 0.22046,-0.2945 0.72589,-0.18951 0.85603,-0.61064 -1.96959,-0.27143 -3.57026,-0.0257 -5.2867,0.0578 0.6245,-0.93521 2.28835,-0.41339 3.33138,-0.76186 -0.89937,-0.91377 -3.43581,0.79465 -3.66665,-0.61349 -1.02652,0.3905 -3.73325,0.38523 -4.4,-0.73618 1.01797,0.24256 1.87007,0.60344 3.08599,0.70479 -1.22107,-1.21573 -4.08463,-1.6917 -5.95797,-1.56225 0.0258,-0.49198 0.35586,-0.55925 0.82536,-0.4273 0.0987,-0.60856 -1.00465,-0.3597 -1.19131,-0.76472 1.91368,0.0987 4.7249,1.99516 6.78332,1.13495 -1.94836,-1.23376 -7.08425,-1.65489 -9.89927,-2.78708 3.19288,2.3e-4 4.17787,0.0268 7.33332,1.22697 0.0281,-1.31299 -2.11118,-1.07726 -3.11595,-1.65214 0.79124,-1.65018 -2.43645,-0.96362 -3.08527,-1.83547 0.59365,-0.47863 1.60403,0.0721 2.59734,0.24611 -0.1456,-2.12418 -5.06458,-1.24158 -5.83456,-3.42625 1.92267,1.1902 4.75969,1.75911 6.6913,1.68495 0.14364,-1.23398 -2.56819,-0.4297 -2.77996,-1.40746 -1.03061,0.83743 -3.81983,-0.81501 -4.39927,-1.86685 2.01715,1.58294 3.90465,0.38317 6.07994,1.95959 -0.68183,-1.81969 -5.66418,-2.21985 -7.27054,-3.85499 1.64577,0.51723 5.14871,1.89331 7.17995,2.14364 0.18523,-0.56267 -0.49448,-0.50835 -0.18262,-1.16134 -2.33073,0.17857 -4.87397,-0.63488 -6.04928,-2.14293 1.15919,0.0181 3.34834,2.23443 5.62198,1.31757 0.0165,-0.38987 -0.7967,-0.18513 -0.85532,-0.52004 0.22711,-0.73785 1.26611,-0.33942 1.65071,-0.8546 -1.05402,-0.40251 -2.8273,-0.63639 -3.02535,0.0592 -0.56986,-0.0953 0.23991,-0.84251 -1.00798,-0.73405 1.07909,-0.16968 2.85486,-0.25107 3.94273,-1.03651 -0.14106,-0.42409 -0.9925,0.17789 -1.03865,-0.55071 -1.10777,0.0314 -1.45098,1.1346 -2.93404,0.63988 0.35814,-0.55416 1.39562,-0.15598 1.65071,-0.8546 -0.94542,-0.98586 -2.43329,-0.31603 -3.39201,-0.002 0.46441,-1.08607 3.06779,-1.1295 4.12677,-2.13651 -0.22299,-1.35185 -1.73683,-0.30155 -2.10868,0.21258 -0.65887,-0.69919 0.53903,-0.69665 0.64273,-1.58864 0.60858,0.47404 0.94768,-0.17283 1.55869,-0.30461 0.29782,-1.01971 -0.12057,-1.03474 0.67341,-1.77198 -0.0714,-0.1643 -0.14113,-0.32987 -0.0913,-0.58067 -3.64116,2.16279 -7.68559,8.59437 -12.806915,4.4535 -1.355096,-2.71447 -1.094605,-7.528585 0.159786,-11.092719 1.689362,-4.802765 5.237239,-6.839819 8.073779,-9.95705 0.004,-0.59463 -0.40459,-0.89537 -0.3046,-1.55869 0.18724,-0.11473 0.447,-0.12781 0.764,-0.0607 0.43902,-3.205836 0.0432,-4.726396 1.71563,-6.874636 -0.79921,-0.64885 -1.09903,1.10554 -1.89539,1.1906 0.20261,-2.28108 2.53736,-1.57319 3.02749,-3.45122 -1.24817,-0.65016 -2.19498,0.96299 -3.08742,1.55654 0.0483,-0.64526 1.22645,-1.24755 -0.15194,-1.34468 0.91012,-1.59101 2.30494,-2.50257 3.76082,-3.32852 -1.70722,-0.80707 -2.3501,1.83382 -4.06543,1.76983 0.5093,-2.00204 1.90631,-2.75773 3.08884,-3.81789 -1.20702,-0.48308 -2.59006,0.74299 -3.14876,1.92322 -0.98696,-1.75138 2.20426,-2.35138 2.11082,-3.6046 -0.28631,-0.67298 -0.62521,0.46079 -1.16134,0.18262 0.44337,-0.43467 0.56235,-1.32411 1.49805,-1.06861 0.0991,-0.39491 -0.0536,-0.60892 -0.45798,-0.64202 0.3352,-0.51088 0.64749,-1.05386 1.31472,-1.09928 -0.3311,-0.72446 0.26645,-1.33907 -0.64059,-1.80337 0.49092,-1.12248 1.33931,-1.74381 2.8734,-1.40389 -0.1912,-0.88481 -1.11532,-0.52428 -1.80265,-0.49008 -0.0328,-0.42326 0.39357,-0.20271 0.45868,-0.48865 -0.0667,-0.43678 -1.01617,-0.24384 -1.43599,-0.42873 0.64915,-1.25148 -1.24786,-1.13069 -1.09857,-2.44539 0.46795,0.58243 1.01298,0.88251 1.74131,0.85674 -0.30377,-0.85965 -1.62408,-0.99418 -1.7406,-1.98741 0.6601,-0.0404 0.65855,0.39131 1.25266,0.39805 -0.26838,-1.24951 -0.86702,-1.74545 -1.15921,-3.20941 1.01143,0.51632 1.27561,1.56569 2.2906,2.07945 0.47725,-1.25669 -2.08174,-1.74138 -1.89254,-3.33209 0.88551,0.28323 0.67602,1.34755 1.83261,1.43741 -0.19225,-0.83157 -0.93735,-1.26877 -1.37392,-1.92606 0.62528,-0.97749 0.72954,1.29054 1.58864,0.64274 0.0352,-0.88619 -1.01009,-1.00297 -1.00726,-1.86473 0.70967,0.0858 0.60434,0.75289 1.16063,0.94806 0.72009,-0.67108 -0.63194,-0.9821 -0.45726,-1.77269 0.35861,0.71962 1.1978,0.57576 1.74131,0.85674 0.0391,-1.05043 -1.49472,-0.97883 -1.34325,-2.10941 0.54322,-0.0646 0.43193,0.3377 0.88599,0.33671 0.30424,-0.70138 -0.4562,-0.6433 -0.15195,-1.34468 0.5135,0.2257 0.1888,1.0493 0.94663,1.1007 0.47748,-0.40383 -0.29102,-1.29255 -0.24326,-1.92534 0.44813,0.10005 0.87845,0.17524 1.13067,7.1e-4 0.23791,-0.49261 -0.17869,-0.51833 -0.03,-0.94733 0.33257,0.0305 0.34896,0.28926 0.70266,0.30602 0.61813,-0.52165 -0.68789,-0.70405 -0.3046,-1.55868 0.77536,0.10616 0.87011,-0.74178 1.62003,-0.67128 -0.10876,0.45297 0.33659,0.51335 0.42756,0.82383 0.584,0.29246 0.38104,-0.52206 0.52004,-0.85532 0.64939,-0.0327 0.10773,0.78289 0.82464,0.70337 0.31659,-0.49357 0.2517,-2.58383 1.37678,-2.59662 -0.19318,0.64773 -0.61907,0.80892 -0.42873,1.43599 0.67124,-0.34158 1.1491,-0.95423 1.89539,-1.1906 0.51956,0.70574 0.34029,1.90862 0.88457,2.59805 1.27884,-0.74405 -0.7128,-2.00076 0.33813,-3.14732 0.64739,-0.0865 0.19035,0.61765 0.21329,0.978 0.91148,0.29701 0.61442,-1.10022 1.46738,-0.88527 -0.22148,0.6948 -1.24353,2.08179 -0.46012,2.74999 0.97562,-0.44299 0.73378,-2.5927 1.95746,-2.68794 -0.33256,0.36371 -0.60787,0.80765 -0.64274,1.58866 0.0289,0.56867 0.42051,-0.11026 0.73333,0.1227 -0.2004,0.38108 -0.96187,0.46413 -0.55071,1.03864 1.37008,-0.0409 1.25936,-2.15767 2.62944,-2.19856 -0.16958,0.36583 -0.54117,0.44658 -0.55071,1.03865 0.47556,0.20834 1.43348,-0.85169 2.38404,-0.7319 -0.30981,0.63133 -1.43513,1.03987 -1.07075,1.89395 1.0313,0.0877 1.04742,-1.24767 2.07872,-1.15991 -0.40042,0.96642 0.95427,0.28531 1.43599,0.42873 -0.26704,1.06098 -1.51465,0.74543 -1.95674,1.55725 -0.1027,0.55764 0.0104,0.96133 0.36595,1.19201 0.56385,-0.0658 -0.0113,-0.60812 0.15338,-0.91666 1.34835,0.0796 1.56703,-1.42457 3.17872,-0.97587 -0.15064,0.61871 -1.03404,0.2102 -1.25337,0.73262 0.45664,1.54172 2.19731,-1.03328 2.964,0.30746 0.6138,-0.12033 1.11437,-0.39937 1.62004,-0.67127 0.6955,-0.0643 0.0163,0.85081 0.61063,0.85603 2.10215,0.4648 3.14895,-2.21531 5.01205,-0.66913 0.63783,0.1397 0.707,-0.51779 1.2227,-0.5493 0.64652,0.48197 0.86333,0.32193 1.77198,0.67341 1.78095,-1.42647 5.16608,-0.60409 7.39609,-1.40104 0.0617,0.61656 -0.64717,0.15087 -0.67269,0.64131 4.12973,0.84017 7.1682,-1.84122 11.39409,-1.65087 0.29109,0.38166 -0.30793,0.49817 0.03,0.94734 0.88227,0.17116 1.82695,-0.49059 2.44467,0.032 -0.43579,0.52075 -1.59925,0.0214 -1.83404,0.82393 2.0813,0.40163 5.88001,-0.4124 9.16736,0.40303 -0.44102,0.73977 -2.14656,-0.29317 -2.84202,0.0899 1.77069,1.50716 5.05638,2.13543 7.17995,2.14364 -0.26141,0.61432 -0.71447,-0.15094 -1.19202,0.36595 1.53995,0.73668 3.03349,0.7557 4.94999,0.82822 0.72976,1.73975 4.38609,1.39191 4.48987,3.5782 1.71953,0.26413 7.06055,0.0694 8.06595,2.48034 3.55334,0.58666 5.18421,2.54474 7.20918,4.22165 -0.0512,0.45632 -0.1205,0.88918 -0.36736,1.06933 1.24073,1.54883 7.07778,0.60468 6.72054,3.76295 1.53862,2.45306 5.91588,2.88389 6.53579,5.99364 1.2743,0.81315 2.65915,1.54743 2.22853,3.57676 1.33142,1.08186 1.27394,1.36908 2.65725,2.14079 z m 98.3172,178.341545 c -0.88312,3.56972 -1.87094,8.03755 -4.83444,9.74519 -1.57724,1.48568 -2.50189,3.88625 -3.33468,6.4137 -0.37552,-0.9659 0.40846,-2.04718 0.095,-2.81109 -0.30511,0.85672 -0.98118,1.18964 -1.28628,2.04637 -2.88963,0.86248 -3.80528,5.15234 -4.89436,7.8505 -0.18083,-1.16262 -0.39225,-2.30208 -0.54785,-3.48403 -2.23852,0.15316 -1.76827,2.72115 -2.8142,4.42924 1.1e-4,-0.97686 0.0426,-2.06601 0.49079,-2.93334 -1.98491,-0.62108 -2.66937,2.90649 -2.81268,4.4295 -0.48333,-0.79075 -0.0608,-2.51833 -0.45807,-2.90362 -1.25591,0.72905 -1.32344,3.20706 -1.22331,3.94156 -0.6614,-0.71218 -2.36786,-0.67888 -2.74927,-1.59078 -0.20276,0.4702 -0.64213,0.60872 -0.91739,0.97729 0.31627,0.0436 0.44678,0.22082 0.48866,0.45869 -0.26993,-9.3e-4 -0.36049,0.24908 -0.61134,0.27465 -0.28595,-0.0652 -0.0652,-0.49306 -0.48867,-0.45869 -0.29751,0.52031 -0.0103,1.37411 -0.82454,1.55823 -0.41372,-0.55923 0.31559,-0.51574 0.36739,-1.06933 -0.6889,0.0905 -1.18825,0.44668 -1.49958,1.06835 0.95872,0.48395 0.44814,1.69578 0.39617,2.13783 0.30855,0.16471 0.85081,-0.41048 0.91666,0.15337 -0.27251,0.0706 -0.14579,0.70277 -0.48783,0.67225 0.0991,-0.39491 -0.0536,-0.60891 -0.45798,-0.64202 -0.71783,0.32906 0.52422,0.98763 -0.21497,1.28485 0.1513,-0.81964 -0.69674,-0.004 -1.25267,-0.39805 0.51926,-0.81305 -0.10759,-1.74089 -0.76257,-2.20072 -0.0109,0.66568 -0.72624,0.3418 -0.73405,1.00798 -0.0961,0.93096 0.90335,1.07776 1.00727,1.86473 -0.82561,-0.37844 -1.26907,-1.03216 -1.58793,-1.77342 -0.47547,0.84237 -1.37355,1.09414 -1.83476,1.9546 0.31477,0.36207 0.5573,0.62094 0.91818,0.15364 -0.0362,1.74665 1.56799,2.32445 2.65657,3.27145 -2.40521,-0.43694 -2.85531,-2.27128 -4.33698,-3.36571 -0.54923,0.28817 -1.18724,0.44999 -1.19426,1.49636 0.56369,0.18858 0.703,-0.22161 1.31376,0.033 -0.0255,0.49044 -0.73445,0.0248 -0.67093,0.64004 0.89776,0.6512 2.30913,0.93603 2.25993,2.26277 -1.19401,-0.0915 -3.13191,-0.97477 -4.24662,-1.65286 -0.56787,0.80334 1.26874,1.92575 0.88456,2.59805 -0.62944,-0.51836 -0.86091,-1.32194 -1.37393,-1.92605 -0.12487,0.20211 -0.26508,0.38283 -0.45716,0.48889 -0.29046,0.64716 1.13494,0.89508 0.54777,1.22245 -0.52802,-0.6459 -1.35493,-0.97899 -1.71135,0.0905 0.66568,0.38622 1.61695,0.56738 1.86328,1.25408 -1.02043,-0.3592 -1.7596,-0.10911 -2.71931,-0.64344 0.0588,1.66675 -0.12938,2.45352 -0.79683,3.63598 0.45715,-0.0571 1.78144,-0.1998 1.80265,0.49009 -2.25216,-0.81659 -2.9098,0.59837 -4.00381,1.40163 1.54859,-0.0567 2.97065,0.26774 3.97244,-0.0877 -0.25731,0.56161 0.41301,0.46018 0.42756,0.82383 -0.0651,0.28595 -0.49179,0.0668 -0.4587,0.48865 2.43746,0.17852 5.92996,0.73461 8.12799,0.98302 -0.0306,0.18332 -0.0613,0.36665 -0.092,0.54998 2.68328,0.48347 4.33988,-0.4345 6.14202,0.46226 0.53054,0.26467 0.43567,0.87859 0.91596,1.28404 1.12268,0.94956 2.71693,0.78911 3.91215,1.40843 -0.0499,0.23195 -0.27771,0.21424 -0.27536,0.51932 2.37275,0.62158 4.35672,1.52049 5.95725,2.69293 -0.47385,0.31649 -0.85212,-0.34203 -1.64999,-0.27607 0.18181,0.8094 3.23277,1.33872 3.26931,0.73547 0.60395,0.1827 1.51045,0.67833 2.35292,0.58056 -0.31299,0.41566 0.26041,0.95921 -0.15363,0.91821 -0.66456,-0.14893 -2.53112,-1.05486 -3.17775,-0.15633 2.63022,0.57513 5.56028,0.20314 6.84548,1.89922 1.48354,0.1257 2.49831,0.58447 3.81932,0.82749 0.4733,0.5786 2.31246,2.12706 2.90265,0.67411 -0.57281,0.11934 -0.69776,-0.006 -0.85531,-0.52003 0.6241,-0.72639 1.09101,-0.90743 1.55939,-1.43528 -0.0262,-0.51952 -0.89229,-0.43984 -0.76483,-1.0703 1.22888,-3.87152 0.38874,-7.07308 1.292,-11.09174 0.33681,0.13644 0.24384,0.57949 0.85532,0.52003 0.1781,-0.93294 -0.80254,-1.04205 -0.82393,-1.83404 0.83122,-1.25086 0.83401,-3.66116 1.74485,-4.79662 -0.26808,-0.0778 -0.68624,-0.0474 -0.70111,-0.30577 0.0192,-3.00595 2.20285,-3.74155 2.69363,-7.08793 -0.99561,-0.16968 -0.25247,-1.42903 -1.09927,-1.31472 0.23375,-1.35082 1.22077,-3.19439 0.79751,-4.76664 0.67505,-0.33624 1.08297,-1.04698 1.13084,-2.26242 -0.26963,-0.0781 -0.68627,-0.0473 -0.70114,-0.30578 0.17508,-1.11249 0.58029,-1.90064 0.85594,-2.87224 -1.34631,-0.51423 0.95299,-3.74335 -0.88259,-3.72693 0.53882,-2.37561 0.27548,-4.33102 0.49293,-6.32535 -0.73165,-0.34857 -0.45629,0.71835 -0.8867,0.79397 0.0638,-3.1414 0.13307,-5.49819 0.21899,-8.06737 -0.75126,-0.37227 -0.37207,0.83453 -1.03937,0.57996 -0.0554,-1.67719 0.17428,-3.35065 0.82822,-4.94998 -2.1125,0.60143 -3.4711,2.24464 -5.421,3.05703 z m -76.7994,8.4469 c -2.91182,-0.2626 -5.46328,0.24026 -8.06781,0.91015 -2.58494,0.66531 -5.29946,0.91316 -7.70141,0.97302 -0.68606,0.0171 -1.70307,-0.12789 -2.04805,0.97659 -0.1409,0.47586 1.05529,6.7e-4 0.64129,0.6727 -0.73846,-0.0545 -1.04802,-0.61668 -1.49731,-0.0621 1.015,0.87029 3.07907,1.5533 2.28986,3.21011 0.56475,0.53894 1.48396,-0.1208 1.77198,0.6734 -0.0231,0.49555 -0.99802,-0.34288 -0.8251,0.42578 0.76318,0.0476 1.14649,0.36615 1.58865,0.64273 -0.64175,0.84123 0.86649,1.38257 1.58795,1.77341 -0.0307,0.18333 -0.0613,0.36667 -0.0919,0.55 -0.4278,-0.0716 -0.85557,-0.14314 -1.28334,-0.21472 -0.30548,1.40321 1.97757,0.95595 2.32126,1.89611 -0.36677,0.51187 -0.9793,-0.56749 -0.978,0.21329 0.77935,0.62668 2.1057,0.86588 2.10752,2.04723 0.7156,0.35059 1.793,0.44448 1.86302,1.25561 -0.73891,-0.14564 -1.3867,-1.04241 -2.01666,-0.33741 0.51136,0.38866 1.14576,0.68955 1.71088,1.03854 -0.0699,0.64322 -0.30007,1.3994 0.30436,1.56022 2.5253,-2.63691 3.97858,-6.62008 6.24044,-10.2638 1.06886,-1.72309 2.96416,-3.97382 4.34293,-5.68118 0.98654,-1.22173 0.82898,-2.15744 1.13281,-3.3913 -1.46193,-0.086 -2.42034,0.53579 -3.39325,1.13158 z M 27.71803,291.33949 c 1.359926,-0.5059 2.595438,-1.18812 4.034495,-1.58498 0.07806,-0.22253 0.348321,-0.32649 -0.121984,-0.39734 -2.735501,-0.82834 -4.331359,1.88555 -6.020739,1.06575 -0.71482,1.21222 -3.035553,1.29353 -2.782554,3.11371 1.945501,-0.28858 3.542684,-1.0673 4.890782,-2.19714 z"
   id="path3"
   style="fill-rule:evenodd;stroke-width:0.999999" />
<rect
   style="fill:none;stroke:#1a1a1a;stroke-width:1.88976;stroke-linecap:round;stroke-linejoin:round;opacity:0"
   id="rect1"
   width="498.11017"
   height="498.11017"
   x="0.94488001"
   y="0.94488001"
   ry="9.9237108" /></svg>
