<?xml version="1.0" encoding="UTF-8" standalone="no"?>
<!-- Created with Inkscape (http://www.inkscape.org/) -->

<svg
   version="1.1"
   width="132.29164mm"
   height="132.29164mm"
   viewBox="0 0 132.29164 132.29166"
   id="svg8"
   sodipodi:docname="neoSch1_Zimices.svg"
   inkscape:version="1.3.2 (1:1.3.2+202311252150+091e20ef0f)"
   inkscape:export-filename="neoSch1_Zimices.png"
   inkscape:export-xdpi="96"
   inkscape:export-ydpi="96"
   xmlns:inkscape="http://www.inkscape.org/namespaces/inkscape"
   xmlns:sodipodi="http://sodipodi.sourceforge.net/DTD/sodipodi-0.dtd"
   xmlns="http://www.w3.org/2000/svg"
   xmlns:svg="http://www.w3.org/2000/svg">
  <sodipodi:namedview
     id="namedview1"
     pagecolor="#ffffff"
     bordercolor="#cccccc"
     borderopacity="1"
     inkscape:showpageshadow="0"
     inkscape:pageopacity="1"
     inkscape:pagecheckerboard="0"
     inkscape:deskcolor="#d1d1d1"
     inkscape:document-units="mm"
     inkscape:zoom="0.54630407"
     inkscape:cx="378.90986"
     inkscape:cy="18.304824"
     inkscape:window-width="1850"
     inkscape:window-height="1136"
     inkscape:window-x="70"
     inkscape:window-y="27"
     inkscape:window-maximized="1"
     inkscape:current-layer="svg8" />
  <defs
     id="defs2">
    <pattern
       y="0"
       x="0"
       height="6"
       width="6"
       patternUnits="userSpaceOnUse"
       id="EMFhbasepattern" />
  </defs>
  <g
     transform="matrix(-0.26043381,0,0,0.26043381,97.002811,46.761324)"
     id="layer1"
     style="stroke-width:3.83975">
    <path
       d="m 190.32308,137.09494 c 0,-0.20013 -4.28648,-0.37679 -10.70339,-0.44112 l -10.7034,-0.10731 -1.30291,-0.99433 c -0.92842,-0.70853 -1.42317,-1.44393 -1.72128,-2.55852 -0.29768,-1.11301 -0.60082,-1.56419 -1.05096,-1.56419 -0.84286,0 -0.80044,-0.57171 0.0985,-1.32682 0.40208,-0.33777 0.94391,-1.11615 1.20405,-1.72974 0.2929,-0.69081 0.96463,-1.3489 1.76413,-1.72829 0.93216,-0.44234 1.16156,-0.69482 0.82511,-0.90815 -0.25631,-0.16251 -15.94947,-0.30099 -34.87369,-0.30774 -30.13822,-0.0107 -34.845572,-0.0839 -37.936674,-0.58943 -3.107271,-0.50818 -8.927021,-0.591 -48.7001,-0.69306 -27.287425,-0.07 -45.8696905,-0.25172 -46.93560508,-0.45894 -7.31816042,-1.42267 -7.78179642,-1.45386 -24.22506392,-1.6294 -8.997093,-0.0961 -17.9464,-0.32624 -19.887346,-0.51152 -1.940946,-0.18529 -9.087156,-0.50133 -15.880467,-0.70231 -6.793311,-0.20098 -13.701315,-0.52699 -15.351119,-0.72447 -1.649804,-0.19747 -4.190679,-0.42916 -5.646389,-0.51486 -2.508199,-0.14768 -6.083351,-0.56026 -9.466653,-1.09249 -1.241137,-0.19524 -1.801766,-0.0845 -2.999645,0.59232 -1.369305,0.77372 -1.859061,0.83326 -6.943158,0.84406 -3.00847,0.006 -7.3756,-0.20678 -9.70473,-0.47372 -2.32914,-0.26693 -6.21985,-0.58454 -8.64604,-0.70579 -3.73476,-0.18666 -4.60872,-0.34328 -5.699,-1.02127 -1.31349,-0.8168 -2.41768,-2.83785 -2.41768,-4.42521 0,-1.13143 1.18435,-3.31614 2.25369,-4.15728 0.49796,-0.3917 1.0747,-1.34097 1.28165,-2.10949 0.80991,-3.00779 3.76951,-4.91704 7.62207,-4.91704 1.96919,0 3.30875,-0.53296 4.26924,-1.69856 0.95401,-1.157733 0.99899,-1.867703 0.18222,-2.876363 -0.48287,-0.59632 -1.30322,-0.87214 -3.61722,-1.21621 -4.44984,-0.66164 -5.51624,-1.14238 -6.3487,-2.86201 -1.27511,-2.63402 -0.81902,-5.30844 1.23252,-7.22732 0.86623,-0.81023 1.25792,-0.892 4.79767,-1.0017 3.69373,-0.11447 3.85443,-0.15166 3.85443,-0.89195 0,-1.15647 -0.9835,-2.34115 -1.94359,-2.34115 -1.79145,0 -4.4742,-0.80656 -5.47013,-1.64458 -1.28228,-1.07897 -2.6341,-5.21675 -2.36349,-7.23435 0.22058,-1.64452 1.37432,-3.30641 2.81129,-4.0495 1.64264,-0.84944 5.19188,-0.45364 11.37716,1.26875 6.19374,1.72475 8.32333,2.60673 12.907053,5.34549 1.858325,1.11035 4.081592,2.20578 4.940591,2.43429 0.858999,0.22851 2.03823,0.70051 2.620514,1.04888 0.582283,0.34837 2.329135,1.06371 3.881892,1.58963 1.552757,0.52593 3.299608,1.24488 3.881892,1.59768 2.783108,1.68626 11.329051,6.03274 12.745098,6.48217 0.760795,0.24147 8.561404,-3.63653 13.605079,-6.76362 1.294163,-0.80239 3.74556,-2.02041 5.447551,-2.70671 1.701991,-0.68629 4.136834,-1.85244 5.410761,-2.59144 2.560895,-1.48556 8.892392,-4.63628 13.256108,-6.5966 2.705605,-1.21544 3.80412,-1.82143 10.939878,-6.03486 1.746851,-1.03146 4.525933,-2.42003 6.175737,-3.08572 1.6498035,-0.66568 4.4288855,-1.88661 6.1757369,-2.71318 8.8859016,-4.20456 18.6805721,-7.34832 26.4147551,-8.47824 2.69121,-0.39317 6.344893,-1.16575 8.119291,-1.71685 1.774396,-0.55109 5.052431,-1.34994 7.284519,-1.77521 2.232088,-0.42527 7.075631,-1.4717 10.763428,-2.32539 3.687798,-0.8537 8.53134,-1.80107 10.763428,-2.10527 6.722178,-0.91615 14.366996,-2.28556 16.690845,-2.98982 1.204096,-0.36491 3.3009,-0.76509 4.659562,-0.88928 1.358662,-0.12419 3.581927,-0.44153 4.94059,-0.7052 1.358662,-0.26366 4.375951,-0.66433 6.705086,-0.89036 2.329135,-0.22604 4.840434,-0.56438 5.580665,-0.75186 1.343829,-0.34036 3.33227,-0.62637 10.6527,-1.53226 2.13504,-0.26421 5.37096,-0.73815 7.19094,-1.0532 2.76894,-0.47934 6.74336,-0.58338 24.35005,-0.63746 14.69786,-0.0451 22.15807,0.0653 24.74645,0.36633 2.03799,0.23702 6.24631,0.59416 9.35183,0.79365 3.10551,0.19948 6.43356,0.54169 7.39566,0.76046 0.96209,0.21877 3.10595,0.51629 4.76414,0.66114 3.30829,0.28901 11.0725,1.56418 11.63297,1.91057 0.19399,0.1199 2.16256,0.60124 4.3746,1.06966 2.21205,0.46843 5.75178,1.40595 7.86608,2.08339 7.31356,2.34334 7.59194,2.38291 14.88084,2.11524 5.38045,-0.19759 6.90335,-0.36976 8.19634,-0.92664 0.87342,-0.37618 2.69968,-1.08308 4.05834,-1.5709 1.35866,-0.48781 2.62116,-1.029 2.80555,-1.20264 0.18439,-0.17363 0.55479,-0.3157 0.8231,-0.3157 0.64535,0 4.98926,-1.91608 7.07048,-3.11877 2.69149,-1.55535 8.92708,-4.21913 12.99869,-5.55289 2.08864,-0.68418 3.96324,-1.36906 4.16584,-1.52194 0.20256,-0.15289 1.32111,-0.64879 2.48568,-1.10201 2.39195,-0.93088 11.0919,-4.71241 12.70437,-5.52209 0.58229,-0.29239 2.80555,-1.14316 4.94059,-1.8906 7.82318,-2.73878 9.44076,-3.08751 17.82142,-3.8422 12.43758,-1.12001 17.5411,-1.00403 23.59466,0.53618 1.81662,0.4622 3.44741,0.84037 3.62393,0.84037 0.17655,0 0.24159,-0.43672 0.14451,-0.97048 -0.14522,-0.79869 -0.10615,-0.76745 0.22077,0.17645 0.29125,0.84087 0.61122,1.14693 1.19905,1.14693 0.44098,0 0.88189,-0.19851 0.97979,-0.44113 0.10774,-0.26698 0.18901,-0.2009 0.20588,0.16739 0.0152,0.33468 0.49639,0.8508 1.069,1.14692 1.26426,0.65377 1.68319,0.67542 1.88198,0.0973 0.0834,-0.24262 0.1125,-0.17313 0.0647,0.15443 -0.0908,0.62173 4.31268,5.13027 5.75981,5.89721 1.29888,0.68838 5.91001,1.44932 10.67108,1.76098 5.4837,0.35897 7.26609,1.03286 8.6581,3.27346 0.52282,0.84154 1.33907,1.84997 1.81393,2.24097 0.68664,0.56535 0.90307,1.14852 1.05722,2.84856 0.34708,3.82778 -0.87734,6.56456 -4.05037,9.05323 -0.67936,0.53283 -0.78372,0.95328 -0.78837,3.1761 -0.007,3.21284 -0.56591,5.09513 -1.9971,6.72211 -1.60442,1.82399 -5.91593,4.80605 -8.02087,5.54766 -0.98931,0.34857 -2.43401,0.90644 -3.21039,1.2397 -0.77638,0.33326 -2.60263,0.81027 -4.05834,1.06001 -3.5712,0.61267 -9.37675,2.75506 -15.70402,5.79516 -1.16457,0.55954 -3.30843,1.51044 -4.76414,2.11309 -1.45571,0.60265 -3.28197,1.40476 -4.05834,1.78247 -0.77638,0.37771 -2.15798,1.00074 -3.07023,1.38451 -0.91224,0.38376 -4.45923,2.57276 -7.88221,4.86443 -3.42295,2.29167 -7.64098,4.96069 -9.3734,5.93116 -2.8354,1.58837 -3.51512,2.19011 -6.80965,6.02851 -2.0129,2.3452 -4.05838,4.88608 -4.54545,5.64638 -0.48707,0.76031 -2.09467,2.78522 -3.57247,4.49979 -1.47776,1.714583 -3.34326,4.255453 -4.14558,5.646393 -0.80228,1.39094 -1.99254,3.42634 -2.64494,4.52312 -0.65244,1.09678 -1.18624,2.139 -1.18624,2.31605 0,0.17705 -0.4918,0.78833 -1.09289,1.3584 -0.60109,0.57007 -2.13783,2.30694 -3.41497,3.85969 -4.66928,5.67686 -4.72091,5.71464 -11.19615,8.1918 -5.55873,2.12654 -6.97135,2.48011 -10.93988,2.73816 -5.46909,0.35563 -7.19029,0.73855 -8.67197,1.92928 -1.40031,1.12532 -3.09923,1.9256 -5.7969,2.73062 -0.97048,0.2896 -2.28502,0.82801 -2.9212,1.19647 -1.4154,0.81975 -4.42724,1.29439 -7.48933,1.18024 -1.33975,-0.0499 -4.10381,0.26905 -6.64537,0.76692 -3.96533,0.77677 -5.22407,0.85242 -14.18337,0.85242 -6.17389,0 -9.91299,0.1313 -10.04995,0.3529 -0.27647,0.44734 -0.88225,0.46044 -0.88225,0.0191 z M 335.74543,16.884247 c 0.0169,-0.41111 0.10058,-0.49473 0.21322,-0.21321 0.10196,0.25475 0.0894,0.55912 -0.0279,0.67639 -0.11726,0.11726 -0.20069,-0.0912 -0.18537,-0.46318 z m -3.85401,-1.55864 c 0,-0.48524 0.0801,-0.68374 0.178,-0.44112 0.0979,0.24261 0.0979,0.63963 0,0.88224 -0.0979,0.24262 -0.178,0.0441 -0.178,-0.44112 z m -3.46985,-2.16886 c -0.61616,-0.94217 -1.01317,-1.71275 -0.88225,-1.7124 0.28684,7.6e-4 2.31996,3.1615 2.13339,3.31662 -0.072,0.0598 -0.63498,-0.66206 -1.25114,-1.60422 z m 3.08907,0.5514 c 0.0169,-0.4111 0.10058,-0.49472 0.21322,-0.21321 0.10195,0.25475 0.0894,0.55913 -0.0279,0.6764 -0.11727,0.11726 -0.20069,-0.0912 -0.18538,-0.46319 z"
       id="path23"
       style="fill:#000000;stroke-width:1.35504" />
  </g>
  <rect
     style="overflow:inherit;fill:none;stroke:#1a1a1a;stroke-width:0.499999;stroke-linecap:round;stroke-linejoin:round;opacity:0"
     id="rect1"
     width="131.79164"
     height="131.79164"
     x="0.24999949"
     y="0.24999949"
     ry="2.6256485" />
</svg>
