<?xml version="1.0" encoding="UTF-8" standalone="no"?>
<!-- Created with Inkscape (http://www.inkscape.org/) -->

<svg
   version="1.1"
   width="499.99991"
   height="499.99991"
   viewBox="0 0 499.99991 499.99991"
   id="Layer_1"
   xml:space="preserve"
   sodipodi:docname="ornAna2_Steven Traver.svg"
   inkscape:version="1.3.2 (1:1.3.2+202311252150+091e20ef0f)"
   xmlns:inkscape="http://www.inkscape.org/namespaces/inkscape"
   xmlns:sodipodi="http://sodipodi.sourceforge.net/DTD/sodipodi-0.dtd"
   xmlns="http://www.w3.org/2000/svg"
   xmlns:svg="http://www.w3.org/2000/svg"><sodipodi:namedview
   id="namedview1"
   pagecolor="#ffffff"
   bordercolor="#cccccc"
   borderopacity="1"
   inkscape:showpageshadow="0"
   inkscape:pageopacity="1"
   inkscape:pagecheckerboard="0"
   inkscape:deskcolor="#d1d1d1"
   inkscape:zoom="0.8174475"
   inkscape:cx="318.06324"
   inkscape:cy="428.16205"
   inkscape:window-width="1850"
   inkscape:window-height="1136"
   inkscape:window-x="70"
   inkscape:window-y="27"
   inkscape:window-maximized="1"
   inkscape:current-layer="Layer_1" /><defs
   id="defs15">
        
        
        
    
            
            
            
            
            
            
            
        </defs>
    
    <path
   d="m 37.687288,80.038335 c 0.93194,0.29457 1.86428,0.58927 2.7962,0.88384 5.68712,3.8297 11.6882,7.18878 16.35482,12.19942 11.36941,12.207495 21.62773,31.940355 43.325142,33.905375 2.38605,0.21596 4.62006,-1.15127 6.87571,-0.90226 3.62099,0.39982 7.7295,2.87684 12.25692,4.31361 3.61816,1.14822 7.84147,1.74001 10.25962,3.68229 1.21806,0.97816 1.53063,2.72899 2.71127,3.93256 1.7099,1.74346 4.77701,2.78631 7.35783,4.52255 2.16089,1.45368 3.88491,3.61812 5.90693,4.94267 9.0836,5.95029 18.70078,11.9014 25.98314,17.87899 5.6982,4.67722 17.01154,8.26464 16.66935,15.3744 10.25499,6.48532 18.04792,12.45865 29.6425,14.642 13.33287,2.51091 27.94297,0.25682 41.39888,3.8589 6.15894,1.64887 13.03351,3.84994 19.17394,6.06062 2.73377,0.98407 5.06905,2.9911 7.88356,4.24934 9.45871,4.22836 20.45186,7.41931 29.2017,11.86648 5.27968,2.68333 9.81305,7.69448 15.13578,10.49598 2.76379,1.45488 5.77912,2.1347 8.00982,3.84989 4.21463,3.2408 8.40139,8.0655 11.05628,12.28209 0.8395,1.33346 1.0844,3.24698 2.0593,4.60522 0.80126,1.11663 2.28822,1.62353 3.09005,2.7342 3.76679,5.21786 4.45393,12.33487 8.4897,17.62194 2.4478,3.2065 6.24722,5.36176 9.27018,8.20261 2.16656,4.66063 4.26094,9.35911 7.62878,13.39552 12.85607,3.75387 26.40726,8.84478 34.50248,3.43653 3.22442,-6.39514 9.55742,-7.2207 15.60402,-10.44564 4.25758,-2.27024 7.58005,-5.81055 11.01946,-7.06172 4.8798,-1.77566 10.67272,-1.15945 15.30789,-3.94873 8.33979,0.44015 14.79857,1.67279 21.17123,6.69193 2.63877,7.53136 7.11704,14.1068 8.29917,22.39477 -2.12438,7.47571 -4.45669,14.55135 -8.18417,18.94211 -4.86031,4.59552 -12.53528,3.72845 -17.76889,7.56451 -3.95993,2.9021 -5.95752,9.43588 -12.19717,8.00756 -0.83393,0.32252 -0.84881,2.22115 -1.68275,2.54367 -3.34985,-0.2359 -5.92563,1.01715 -8.30593,2.64702 -11.45322,2.80026 -22.54963,6.28844 -35.13607,6.90802 4.64673,1.39843 12.86631,6.72811 17.99625,7.00645 8.3665,0.45431 18.57079,-17.24204 31.35268,-11.61882 2.30781,-2.115 6.95158,-1.63574 11.14348,0.88609 -0.94008,2.04556 -4.14057,-0.25869 -5.27789,1.40731 -1.6545,1.18661 1.60065,2.12941 0.9872,3.82696 -2.06291,-0.11513 -3.48981,0.99359 -5.00467,1.93305 3.427,3.7282 -0.0498,9.23731 0.87932,13.89831 3.58666,-0.56884 8.29923,-0.27391 12.48878,2.19007 -1.47062,1.02462 -4.02227,-0.0311 -5.55108,0.88159 -0.89358,1.49259 -1.81995,2.9221 -2.71352,4.41469 -3.25315,-0.0498 -6.33242,0.23435 -8.57912,2.1213 -0.8617,1.92272 0.24338,3.80453 -0.96877,5.84492 -2.09472,3.52594 -8.47887,1.71934 -12.15356,2.30957 0.81118,4.6826 -4.89072,6.84207 -5.53265,10.55349 -1.10164,0.0213 -2.30518,-0.15351 -3.72138,-0.73691 -0.42084,1.33139 -0.8418,2.66318 -1.26263,3.99457 2.36309,2.88929 5.69969,5.27305 7.94554,8.22326 -1.9938,0.53367 -1.78552,0.77129 -1.809,2.94312 -4.72859,-1.66072 -8.15187,-5.54945 -12.15133,-6.0377 -7.70421,-0.94134 -7.3261,8.76165 -10.7485,15.93471 -2.16265,-0.74901 -2.75085,-3.78516 -1.40732,-5.27787 -4.92706,-5.00687 -4.3058,-12.8966 -10.86577,-17.0549 -3.76378,0.80679 -2.15289,4.90121 -1.34755,7.04329 -4.43489,0.0679 -4.25797,-2.05283 -5.38121,-5.21586 -1.10464,-3.11059 -2.74428,-7.27955 -1.11118,-11.77479 -3.53304,-3.63607 -2.93707,-8.6296 -4.1806,-13.18434 -1.10437,-4.04282 -5.26979,-8.35813 -2.20397,-13.87766 -2.86844,-2.3456 -6.06625,-4.67493 -9.88083,-4.88066 -8.81944,-0.47532 -21.19541,-0.0642 -31.13924,-0.17661 -2.52436,-0.0286 -4.82784,0.86898 -7.27517,0.77599 -12.2997,-0.46685 -23.47017,-1.9542 -35.55393,-2.89013 -1.40092,13.27818 -8.04295,22.53329 -18.17287,24.13278 -3.08608,5.1972 -8.9261,5.09422 -12.30274,9.73165 -2.7413,5.86065 -4.09958,14.38212 -7.65844,18.66889 -1.46481,-0.463 -2.92923,-0.92589 -4.39404,-1.38889 0.31438,-6.39623 -4.29333,-12.01172 0.48889,-19.61699 -1.6565,-3.44143 -3.6048,-2.49576 -2.60568,-5.65666 1.11465,-3.52641 4.76085,-1.32293 5.48905,-4.85549 0.4432,-2.14859 -2.64825,-1.67716 -2.85819,-4.85775 0.70042,-1.86428 3.72875,0.75111 4.0795,-1.78609 1.09799,-0.81463 1.57397,-3.53675 1.51515,-4.79349 6.79036,-1.3954 6.62092,-13.73235 11.92622,-16.88055 -1.89674,-9.88731 -16.98438,-12.3984 -29.53692,-16.36608 -8.42296,-2.66237 -17.80825,-4.64741 -25.56526,-8.08083 -1.81474,-0.80297 -3.59903,-2.63629 -5.4868,-3.49177 -1.74445,-0.79041 -3.63696,-0.82052 -5.19296,-1.64143 -4.86647,-2.56723 -8.76214,-6.43346 -13.39101,-9.06576 -6.35818,-3.61516 -12.11606,-5.25545 -16.31348,-9.55013 -6.66914,-1.20381 -9.08479,-4.84565 -14.16927,-7.99365 -3.08665,-1.91106 -6.88412,-3.26341 -9.75458,-5.28012 -4.33764,-3.04769 -6.86576,-7.12185 -10.86802,-8.70765 -8.84699,-3.50598 -11.50546,0.70951 -18.12476,1.74026 -8.36088,-5.97932 -21.3504,-3.44232 -24.84902,-13.12684 -6.498212,-2.13794 -13.389462,-7.24145 -9.752322,-13.62739 2.9717,-5.21754 9.329082,0.84379 11.184812,3.53537 4.21874,6.11908 15.48067,0.78251 19.32312,-1.36147 -5.23684,-5.22779 -8.67307,-13.00241 -12.73679,-18.08568 -0.67404,-0.84355 -2.12415,-1.23907 -2.81686,-2.20846 -1.82467,-2.55215 -2.90323,-5.89264 -4.77056,-8.53779 -0.91753,-1.29924 -1.70444,-2.62399 -2.711282,-3.93257 -1.0508,-1.36553 -2.771,-2.47034 -3.63644,-3.78564 -0.81606,-1.24081 -0.6136,-2.9725 -1.26039,-4.35269 -0.67188,-1.43425 -1.94231,-2.64424 -2.71128,-3.93257 -1.67903,-2.8141 -2.29386,-6.05239 -3.84538,-8.68472 -1.23277,-2.09089 -3.6679,-3.10094 -4.98176,-5.0896 -1.03566,-1.56769 -1.03947,-3.98541 -2.07995,-5.92984 -3.11614,-5.82374 -6.0628,-11.05082 -8.2165,-17.09625 -0.92827,-5.93575 -1.30143,-12.34193 -5.04151,-17.41077 -9.87841,-13.38692 -38.48289,-18.32735 -43.47208,-34.83054 -0.5334,-1.76526 0.065,-4.12667 -0.62904,-6.34998 -0.45355,-1.45222 -2.12851,-2.85864 -2.98448,-4.45829 -3.321,-6.20701 -8.22281,-13.765185 -6.82761,-21.490265 2.45089,-13.57108 12.7687,-13.05582 23.57248,-9.24502 z"
   id="path9"
   style="fill-rule:evenodd;stroke-width:0.999997" />
    
<rect
   style="overflow:inherit;fill:none;stroke:#1a1a1a;stroke-width:1.88976;stroke-linecap:round;stroke-linejoin:round;opacity:0"
   id="rect1"
   width="498.11014"
   height="498.11014"
   x="0.94488001"
   y="0.94488001"
   ry="9.9237108" /></svg>
