<?xml version="1.0" encoding="UTF-8" standalone="no"?>
<!-- Generator: Adobe Illustrator 27.5.0, SVG Export Plug-In . SVG Version: 6.00 Build 0)  -->

<svg
   version="1.1"
   id="Layer_1"
   x="0px"
   y="0px"
   viewBox="0 0 499.99991 499.99991"
   xml:space="preserve"
   width="499.99991"
   height="499.99991"
   sodipodi:docname="oryCun2_Ferran Sayol.svg"
   inkscape:version="1.3.2 (1:1.3.2+202311252150+091e20ef0f)"
   xmlns:inkscape="http://www.inkscape.org/namespaces/inkscape"
   xmlns:sodipodi="http://sodipodi.sourceforge.net/DTD/sodipodi-0.dtd"
   xmlns="http://www.w3.org/2000/svg"
   xmlns:svg="http://www.w3.org/2000/svg"><sodipodi:namedview
   id="namedview1"
   pagecolor="#ffffff"
   bordercolor="#cccccc"
   borderopacity="1"
   inkscape:showpageshadow="0"
   inkscape:pageopacity="1"
   inkscape:pagecheckerboard="0"
   inkscape:deskcolor="#d1d1d1"
   inkscape:zoom="1.0965106"
   inkscape:cx="108.52608"
   inkscape:cy="239.85176"
   inkscape:window-width="1850"
   inkscape:window-height="1136"
   inkscape:window-x="70"
   inkscape:window-y="27"
   inkscape:window-maximized="1"
   inkscape:current-layer="Layer_1" /><defs
   id="defs7" />
<path
   d="m 133.72518,374.07934 c 8.9222,20.19236 10.33097,50.20342 -10.50174,63.35193 -4.14092,2.60409 -11.86781,4.82397 -14.55728,8.9222 -4.82397,7.38537 1.66491,8.49531 7.51344,9.05028 11.65436,1.15263 25.91281,3.45789 37.4818,1.49415 12.84968,-2.21988 14.72804,-23.94908 19.08242,-34.0666 3.03099,-7.04385 6.31811,-13.83156 9.73331,-20.66195 2.60409,-5.16549 4.35438,-12.42279 8.02572,-16.77716 3.58596,-4.22631 12.7643,-7.85496 17.92979,-9.60525 5.97659,-2.04912 12.08126,1.15263 18.22862,3.24444 7.94033,2.68947 15.36839,5.20818 23.0099,8.75144 6.10466,2.81754 8.53799,8.32455 14.13038,11.65437 11.99588,7.2146 27.70579,6.65964 40.76893,10.11752 8.53799,2.26257 12.59354,5.33625 19.55201,10.80057 3.20174,2.51871 13.66079,6.40349 13.23389,10.07483 -9.64794,-2.00643 -18.52745,-3.67134 -27.57773,-7.55612 -7.12922,-3.03099 -16.86254,-6.14736 -24.71749,-4.65321 -7.04385,1.32339 -19.08242,7.76957 -20.66195,14.8988 -0.68304,3.15906 -2.00643,7.76958 0.46959,9.69063 2.64678,2.04911 9.51986,2.43332 12.97775,2.86022 10.71518,1.32339 21.00347,-1.83567 31.46251,-0.4269 9.90408,1.32339 19.85084,2.77485 29.71223,4.39707 14.42921,2.39064 30.56602,12.63623 45.67827,9.86139 12.16665,-2.21988 18.14324,-11.86782 16.30757,-23.13797 -0.51228,-3.15906 -1.75029,-7.17192 -1.57953,-10.37367 0.21345,-4.6532 3.15906,-6.14735 7.21461,-8.45261 5.5497,-3.15906 12.33739,-3.07368 18.6555,-2.81754 3.07368,0.12807 6.57426,1.40877 9.60525,0.64035 3.11637,-0.76842 5.29356,-3.50058 7.94033,-5.08011 4.09824,-2.43333 8.87952,-3.75672 13.36197,-5.42162 -1.40877,-2.04912 -2.86023,-4.09824 -4.269,-6.10467 6.10467,-0.46959 11.78243,0.68304 15.83798,-3.97017 3.58596,-4.09824 4.82397,-9.51986 8.15379,-14.08769 1.40877,-1.92105 2.43332,-4.35438 4.09823,-6.06198 1.79298,-1.87836 5.9766,-3.15906 7.2573,-5.37894 1.40877,-2.34794 -0.25614,-6.10466 0.98187,-7.98302 1.06725,-1.57953 6.23274,-2.60409 7.98303,-3.32982 -18.99704,-10.28828 -40.98238,-9.47717 -55.92387,7.47075 -1.57953,-9.47718 1.15262,-19.46663 -0.98187,-28.60229 -1.92105,-8.23916 -5.42163,-17.54558 -9.13566,-25.14439 -8.0684,-16.39295 -18.69819,-30.90754 -31.8467,-43.58646 -27.10814,-26.16896 -58.01568,-45.33676 -94.9852,-53.87476 -35.04847,-8.0684 -73.51214,-10.11752 -107.96296,1.19532 -7.94033,2.60409 -16.81985,2.73216 -25.05901,0.38421 -11.35554,-3.20174 -11.91051,-12.55085 -15.58184,-22.62568 -2.9883,-8.19648 -6.53157,-16.94792 -10.6725,-24.58943 -1.79298,-3.32982 -7.04384,-5.50701 -8.19647,-8.45261 -1.02456,-2.5614 0.8538,-7.38537 1.75029,-10.2456 3.24443,-10.33097 6.61694,-19.03973 7.47074,-30.01105 0.68304,-8.9649 0.68304,-18.57015 -1.2807,-27.321585 -1.96374,-8.70876 -2.64678,-23.35142 -9.30641,-29.8403 -8.15379,-7.94034 -16.73447,-6.53157 -24.50405,0.72573 -2.86023,-9.64794 -8.4953,-28.38883 -22.326855,-22.1561 -12.08126,5.42163 -12.29471,19.25318 -12.72161,30.86486 -0.8538,24.37597 2.86023,49.733825 11.4836,72.487575 -2.5614,-0.89649 -5.46431,-2.39063 -7.42805,-1.70759 -0.59766,0.21344 -0.89649,1.92104 -1.57953,2.34794 -1.66491,1.06725 -3.75672,1.49415 -5.37894,2.60409 -4.35438,2.94561 -7.2573,7.94034 -11.39822,11.35554 -4.43976,3.67133 -9.17835,7.12922 -14.21577,9.90407 -6.31811,3.50058 -8.15378,6.87309 -12.29471,13.02044 -6.61694,9.8187 -13.49003,19.46663 -18.7409,30.09644 -2.1345,4.31168 -3.37251,8.87951 -4.18362,13.70348 -1.02456,6.06198 -5.5923802,8.4953 -7.0011502,14.85611 -0.46959,2.04912 -0.76842,6.4035 -0.12807,8.32455 0.72573,2.1345 3.75672,2.77484 4.39707,4.61051 0.72573,2.09181 -3.11637,4.31169 -1.36608,7.42806 1.10994,1.96374 5.5070002,3.24444 7.3426702,3.97017 9.26373,3.79941 22.11341,9.05027 32.359,8.15378 6.19005,-0.55497 10.20291,-5.67776 16.69179,-1.40877 4.69589,3.11637 4.61051,8.06841 5.0801,13.06314 0.59766,6.27542 0.4269,11.4836 3.45789,16.94792 3.32982,6.01928 6.31812,12.20933 9.73332,18.18592 2.86022,4.99473 4.18361,11.82513 7.684187,16.22219 3.714028,4.6959 11.056708,7.51344 15.667218,11.35554 9.86139,8.23916 19.03973,17.67365 28.5596,26.42509 z"
   id="path2"
   style="stroke-width:1" />
<rect
   style="overflow:inherit;fill:none;stroke:#1a1a1a;stroke-width:1.88976;stroke-linecap:round;stroke-linejoin:round;opacity:0"
   id="rect1"
   width="498.11014"
   height="498.11014"
   x="0.94488001"
   y="0.94488001"
   ry="9.9237108" /></svg>
