<?xml version="1.0" encoding="UTF-8" standalone="no"?>
<!-- Created with Inkscape (http://www.inkscape.org/) -->

<svg
   version="1.2"
   width="499.99991"
   height="499.99991"
   viewBox="0 0 499.99991 499.99991"
   id="Layer_2"
   xml:space="preserve"
   sodipodi:docname="panPan3_T. Michael Keesey.svg"
   inkscape:version="1.3.2 (1:1.3.2+202311252150+091e20ef0f)"
   xmlns:inkscape="http://www.inkscape.org/namespaces/inkscape"
   xmlns:sodipodi="http://sodipodi.sourceforge.net/DTD/sodipodi-0.dtd"
   xmlns="http://www.w3.org/2000/svg"
   xmlns:svg="http://www.w3.org/2000/svg"><sodipodi:namedview
   id="namedview1"
   pagecolor="#ffffff"
   bordercolor="#cccccc"
   borderopacity="1"
   inkscape:showpageshadow="0"
   inkscape:pageopacity="1"
   inkscape:pagecheckerboard="0"
   inkscape:deskcolor="#d1d1d1"
   inkscape:zoom="0.85988907"
   inkscape:cx="202.35168"
   inkscape:cy="239.56579"
   inkscape:window-width="1850"
   inkscape:window-height="1136"
   inkscape:window-x="70"
   inkscape:window-y="27"
   inkscape:window-maximized="1"
   inkscape:current-layer="Layer_2" /><defs
   id="defs9" />
    
    <path
   d="m 249.82495,249.64995 c 0.112,0.191 0.229,0.375 0.35,0.55 v 0.15 c -0.12,-0.237 -0.236,-0.47 -0.35,-0.7 z"
   id="path3"
   style="fill:#fefefe;fill-rule:evenodd" />
    
    <path
   d="m 479.3215,77.170834 c 3.67658,7.884666 5.64709,13.264682 5.91283,16.144034 0.22057,2.169811 0.0664,6.334042 -0.46638,12.490032 0,9.43396 -2.08079,17.3173 -6.24369,23.65134 -4.03136,6.156 -11.1839,12.99894 -21.45894,20.52884 -0.17805,0.66436 -0.35477,1.32873 -0.53149,1.99309 0.30959,0.88626 0.73213,2.01568 1.26229,3.38825 l -0.13287,0.26575 c -1.24104,-0.0438 -1.35132,-0.19931 -0.33219,-0.46506 -0.17805,-0.30959 -0.55408,-0.97395 -1.13074,-1.99309 -0.0439,0.17672 -0.0877,0.37603 -0.13288,0.59793 0,0.17672 0,0.35477 0,0.53149 l 0.0664,0.0664 -0.0664,0.0664 c 0,0.3096 0.0226,0.64178 0.0664,0.99655 0.39862,1.19585 0.7308,2.05952 0.99655,2.59102 l -0.13288,0.26574 c -0.22189,-0.2219 -0.51023,-0.59793 -0.86367,-1.12942 0,0.17672 0,0.33218 0,0.46506 0.2219,0.84108 0.33218,1.41642 0.33218,1.72734 v 0.46506 c -0.0439,-0.0438 -0.0877,-0.0438 -0.13287,0 h -0.19931 c -0.22057,-0.75339 -0.53016,-1.72735 -0.93011,-2.9232 -0.13287,0.48764 -0.26442,0.99654 -0.39862,1.52803 0.26575,0.79724 0.55408,1.66091 0.86368,2.59102 0,0.57667 -0.0438,0.7308 -0.13421,0.46506 h -0.39861 c -0.26575,-0.5315 -0.53017,-1.06299 -0.79724,-1.59448 -0.1342,0.44247 -0.26575,0.88626 -0.39862,1.32873 0.44247,1.32873 0.7308,2.23758 0.86235,2.72389 l -0.13288,0.19931 c -0.30959,-0.57534 -0.64177,-1.21844 -0.99654,-1.92665 -0.3096,0.93011 -0.59793,1.83763 -0.86367,2.72389 0.26574,1.10683 0.48764,2.05953 0.66436,2.85676 h -0.33218 c -0.22057,-0.66436 -0.41988,-1.30614 -0.59793,-1.92665 -0.35477,0.97395 -0.68695,1.90539 -0.99655,2.79032 0.39995,1.4616 0.59793,2.30269 0.59793,2.52459 0,0.30959 -0.0226,0.46505 -0.0664,0.46505 -0.13288,-0.13287 -0.2219,-0.19931 -0.26575,-0.19931 -0.17672,-0.35477 -0.35477,-0.7308 -0.53016,-1.12942 l 0.5966,2.12597 -0.52751,0.66436 h -0.0664 c 0.0438,-0.089 0.0664,-0.28833 0.0664,-0.59793 -0.17805,-0.57534 -0.37603,-1.152 -0.59793,-1.72734 -0.22189,0.48764 -0.41987,0.97395 -0.59792,1.4616 0.17805,1.99309 0.35477,3.23279 0.53149,3.72043 v 0.13288 c -0.4438,-0.70822 -0.84242,-1.4616 -1.19586,-2.25884 -0.0438,0.0452 -0.0877,0.11028 -0.13287,0.19931 0.35477,1.86022 0.84109,3.27664 1.4616,4.25193 l -0.13287,0.13287 c -0.48764,-0.79724 -1.01914,-2.05953 -1.59447,-3.78687 -0.2219,0.39861 -0.41988,0.79723 -0.59793,1.19585 0.57667,2.21499 1.08424,4.00877 1.52803,5.38135 v 0.1993 c -0.70821,-0.79723 -1.44034,-2.28142 -2.1924,-4.45123 -0.0438,0.17672 -0.0664,0.37603 -0.0664,0.59793 0.62051,1.68349 1.43901,4.07387 2.45814,7.17512 l -0.19931,0.33218 c -1.152,-2.16981 -2.08078,-3.96359 -2.79165,-5.38134 -0.0439,0 -0.0664,0.0438 -0.0664,0.13287 0.53149,1.99309 1.19586,4.58411 1.99309,7.77306 l -0.13287,0.13287 c -0.75206,-1.41775 -1.55062,-3.38826 -2.39171,-5.91284 -0.1342,0.3096 -0.24448,0.62052 -0.33218,0.93011 1.37257,3.98618 2.16981,6.15599 2.39171,6.51076 v 0.13288 c -0.93011,-1.01914 -1.9705,-2.48074 -3.12384,-4.3848 0,0.0438 -0.0226,0.11028 -0.0664,0.19931 0.0438,0.0877 0.0877,0.17672 0.13421,0.26574 1.94791,3.32182 3.07733,5.6245 3.38825,6.90938 -1.06298,-1.32872 -2.36912,-3.29923 -3.91974,-5.91283 -0.0877,0.22189 -0.17805,0.46505 -0.26575,0.7308 0.62052,0.97395 1.35132,2.1924 2.1924,3.654 v 0.19931 c -0.53149,-0.44247 -1.10816,-1.01914 -1.72735,-1.72735 0.3096,0.70821 0.70822,1.39516 1.19453,2.05953 -0.44247,-0.3096 -0.88493,-1.0404 -1.32873,-2.1924 -0.13287,-0.17672 -0.26574,-0.33218 -0.39862,-0.46506 0,0.089 0,0.19931 0,0.33219 1.06299,2.30268 1.86022,3.91974 2.39171,4.84985 l -0.13287,0.13287 c -0.66436,-0.70821 -1.30614,-1.48419 -1.92665,-2.32527 0.0877,0.75339 0.13287,1.30614 0.13287,1.66091 0,0.30959 0,0.57534 0,0.79723 0.57667,1.19586 1.21844,2.54717 1.92665,4.05262 l -0.13287,0.13288 c -1.01913,-1.28488 -2.1047,-2.94579 -3.25538,-4.98273 0.44247,2.39171 0.77465,4.27451 0.99654,5.64709 0.35478,1.32873 0.70822,2.76774 1.06299,4.31836 0,0.3096 -0.0438,0.48764 -0.13288,0.53149 -0.1342,0.0438 -0.24448,0.089 -0.33218,0.13288 h -0.0664 c 0.0438,-0.0438 0.0664,-0.26575 0.0664,-0.66437 0,-0.17672 -0.28833,-1.06298 -0.86367,-2.65745 -0.0438,-0.13288 -0.0877,-0.24316 -0.13287,-0.33218 0.0877,0.57533 0.19798,1.08557 0.33218,1.52803 v 0.13287 c -0.30959,-0.9301 -0.59793,-1.94924 -0.86367,-3.05607 -0.35477,-0.88626 -0.75206,-1.8828 -1.19453,-2.98963 -0.17805,-0.39862 -0.33218,-0.79724 -0.46638,-1.19586 -0.0438,0.089 -0.0877,0.2219 -0.13288,0.39862 1.06299,3.98618 2.28143,7.41828 3.654,10.29764 0,0.13287 -0.17805,0.24315 -0.53149,0.33218 -0.39862,-0.44247 -0.81849,-1.0404 -1.26229,-1.79378 0.39995,1.59447 0.59793,2.83417 0.59793,3.72043 v 0.53149 c -0.0438,0 -0.0877,0.0226 -0.13287,0.0664 -0.35477,-0.089 -0.64178,-0.19931 -0.86368,-0.33218 l 0.66437,-0.13288 c -0.62052,-1.32872 -1.35132,-3.05607 -2.19107,-5.18203 0.13287,0.84108 0.19798,1.50545 0.19798,1.99309 0,0.97396 0.35477,2.4143 1.06298,4.31836 l -0.0664,0.66437 h -0.33218 c -0.0877,-0.17673 -0.17672,-0.35477 -0.26574,-0.5315 0.089,0.5315 0.17804,1.06299 0.26574,1.59448 0,0.48764 -0.0438,0.79723 -0.13287,0.93011 h -0.19931 c 0.30959,0.75338 0.64177,1.48418 0.99654,2.1924 l -0.13287,0.13287 c -0.39862,-0.79724 -0.77598,-1.57189 -1.13075,-2.32527 0.089,0.57533 0.17805,1.152 0.26575,1.72734 v 0.53149 c -0.0438,0 -0.0877,0.0226 -0.13287,0.0664 h -0.19931 c -0.13287,-0.35477 -0.26575,-0.70821 -0.39862,-1.06298 v 0.0664 c 0.48631,1.81637 0.7308,2.85677 0.7308,3.12251 v 0.46506 c -0.0438,-0.13288 -0.0877,-0.17672 -0.13287,-0.13288 h -0.33218 c 0,-0.089 0,-0.28833 0,-0.59792 -0.57667,-1.37258 -1.13075,-2.76774 -1.66091,-4.18549 -0.57667,-0.93011 -1.10816,-1.94925 -1.59448,-3.05608 -0.0877,1.50545 -0.17805,3.07734 -0.26574,4.71698 0,0.13288 -0.0439,0.24316 -0.13287,0.33219 -0.26575,-2.30269 -0.41988,-4.65055 -0.46639,-7.04226 -0.0438,-0.13287 -0.0877,-0.24448 -0.13287,-0.33218 v 0.0664 c 0.0438,1.94924 0.0664,4.22934 0.0664,6.84294 0,0.17672 0,0.37603 0,0.59793 0.1342,0.97396 0.24448,1.77119 0.33218,2.39171 0.0877,0.48764 0.15546,0.86367 0.19931,1.12942 -0.26575,-0.66437 -0.51023,-1.37258 -0.7308,-2.12597 -0.0452,0.13288 -0.089,0.28834 -0.1342,0.46506 h -0.33219 l -0.19798,-2.52458 c -0.089,-0.39862 -0.17805,-0.77465 -0.26574,-1.12942 l -0.19931,4.31836 c 0.30959,1.19586 0.64177,2.30268 0.99654,3.32182 -0.75205,-1.55063 -1.41642,-3.25538 -1.99309,-5.1156 -0.0877,1.06298 -0.15413,2.08211 -0.19798,3.05607 0.39862,1.41642 0.79724,2.65746 1.19453,3.72044 l -0.13287,0.13287 c -0.39862,-0.84108 -0.77598,-1.74993 -1.13075,-2.72389 -0.0877,0.70954 -0.15413,1.35132 -0.19798,1.92665 h -0.19931 l -0.0664,-3.18894 c -0.0438,-0.089 -0.0877,-0.17672 -0.13287,-0.26575 -0.0452,3.05608 -0.1342,5.4252 -0.26574,7.10869 h -0.19931 l -0.13288,-8.43741 c -0.17805,0.35477 -0.33218,0.7308 -0.46638,1.12941 0,2.34787 0.089,4.16291 0.26575,5.44779 l -0.13288,0.1993 c -0.39861,-0.53149 -0.70821,-1.77119 -0.93011,-3.72043 0,0.0438 0,0.0877 0,0.13287 0.2219,3.49854 0.57667,6.24502 1.06299,8.23811 h -0.33219 c -0.30959,-1.19585 -0.64177,-3.56498 -0.99654,-7.10869 -0.0877,2.61361 -0.24449,5.09301 -0.46506,7.44087 h -0.1993 c -0.0877,-1.94924 -0.17672,-3.83072 -0.26575,-5.64709 -0.13287,0.39862 -0.287,0.81983 -0.46505,1.26229 -0.0438,1.94792 -0.13288,3.85331 -0.26575,5.71353 0.1342,0.70821 0.35477,1.30614 0.66436,1.79378 0,0.35477 -0.11028,0.53149 -0.33218,0.53149 -0.13287,-0.35477 -0.26574,-0.77465 -0.39862,-1.26229 -0.0438,0.2219 -0.0664,0.42121 -0.0664,0.59793 h -0.19931 l -0.0598,-2.05953 c -0.13288,-0.79724 -0.24449,-1.72734 -0.33219,-2.79033 -0.0438,0.17672 -0.11028,0.35477 -0.1993,0.53149 0,3.01223 0.11161,5.18204 0.33218,6.51077 l -0.19798,0.46505 c -0.57667,-1.01913 -0.9527,-2.43556 -1.13075,-4.25193 -0.0439,0 -0.0664,0.0226 -0.0664,0.0664 0,0.2219 0,0.46506 0,0.7308 0.17805,1.01913 0.39862,1.94924 0.66437,2.79033 l -0.13288,0.13287 c -0.22189,-0.44247 -0.39861,-0.88626 -0.53149,-1.32873 -0.0438,0.70822 -0.0664,1.43901 -0.0664,2.1924 0.26574,1.23971 0.39862,1.92666 0.39862,2.05953 0,0.39862 -0.0439,0.64178 -0.13288,0.7308 -0.0877,0.0877 -0.15546,-0.0226 -0.19931,-0.33218 0,-0.13287 0,-0.3096 0,-0.53149 0,-0.35477 -0.0438,-0.75339 -0.13287,-1.19586 -0.0877,1.41775 -0.19931,2.83418 -0.33218,4.25193 h -0.19931 c -0.0877,-0.93011 -0.15413,-1.92665 -0.19798,-2.98964 -0.0452,0 -0.089,0 -0.1342,0 0,-1.37257 0,-2.65745 0,-3.8533 -0.26575,0.75205 -0.53016,1.50544 -0.79724,2.25883 -0.0877,0.35477 -0.17805,0.70954 -0.26574,1.06298 0.0438,0.79724 0.0877,1.63832 0.13287,2.52458 -0.13287,-0.17672 -0.28701,-0.84108 -0.46506,-1.99309 -0.17804,0.35477 -0.33218,0.7308 -0.46505,1.12942 -0.48764,2.74515 -0.75339,4.73824 -0.79856,5.97927 v 0.19931 c 0.1342,0 0.24448,-0.0664 0.33218,-0.19931 l 0.19931,-0.33218 c 0.0877,0.13287 0.13287,0.41988 0.13287,0.86367 l -0.13287,0.13288 -0.86368,-0.13288 c -0.0438,-0.70821 -0.0877,-1.72734 -0.13287,-3.05607 -1.01913,2.74515 -1.92665,5.31491 -2.72389,7.70662 0.35477,0.84108 0.70821,1.57321 1.06298,2.1924 v 0.13287 c -0.39862,-0.62051 -0.77597,-1.30614 -1.13074,-2.05953 -1.72735,5.00532 -2.98964,9.03535 -3.78688,12.09142 -0.30959,1.28488 -0.59792,2.65746 -0.86367,4.12038 l -0.0664,2.32528 c 0,5.53547 0.2219,8.79086 0.66437,9.76614 h -0.33218 c -0.13288,-0.44247 -0.26575,-1.9705 -0.39862,-4.58411 -0.13288,-2.16981 -0.2219,-3.76428 -0.26575,-4.78342 v 5.38135 h -0.33218 v -3.85331 c -0.26575,1.86022 -0.48631,3.83205 -0.66436,5.91284 0,0.0438 0,0.0877 0,0.1342 h 0.19931 c 0.13287,0.75206 0.35477,2.08078 0.66436,3.98618 0.13287,0.57534 0.28833,1.12942 0.46505,1.66091 v 1.59314 c 0.48765,3.1451 0.93011,5.53681 1.32873,7.17513 v 1.52803 l -0.13287,0.13288 c -0.66437,-3.67659 -1.19586,-6.84295 -1.59447,-9.5004 -0.44247,-1.77119 -0.8185,-3.34441 -1.12942,-4.71698 -0.0452,0.35477 -0.0678,0.7308 -0.0678,1.13074 h 0.1342 c 0.48632,2.56843 0.93011,4.93755 1.32873,7.10869 l 0.13287,0.53149 c 0.26575,0.84109 0.4438,1.43902 0.53149,1.79379 -0.0877,-0.13288 -0.15546,-0.26575 -0.1993,-0.39862 0,0.22057 0,0.5089 0,0.86234 0.22189,1.41775 0.44379,2.70263 0.66436,3.85331 0.2219,0.70821 0.44379,1.43901 0.66436,2.1924 l -0.13287,0.13287 c -0.0877,-0.30959 -0.19931,-0.62051 -0.33218,-0.93011 0.53016,3.27797 0.79723,5.38135 0.79723,6.31146 0,0.48764 -0.0438,0.79856 -0.13287,0.93011 h -0.19931 c -0.0877,-0.84242 -0.22057,-1.83896 -0.39862,-2.98964 h -0.26574 l -0.59793,-2.65745 c 0,0.75206 0,1.57321 0,2.45814 0.1342,0.79857 0.35477,2.30269 0.66437,4.51767 0.089,0.2219 0.17805,0.44247 0.26574,0.66437 -0.0877,-0.13288 -0.17672,-0.24449 -0.26574,-0.33218 0.089,0.84241 0.1993,1.77119 0.33218,2.79032 0.44379,3.45602 0.97395,6.22376 1.59447,8.30455 l -0.13287,0.19931 c -0.70821,-1.55063 -1.41643,-4.58411 -2.12729,-9.10178 -0.13288,-0.79857 -0.24316,-1.52804 -0.33219,-2.1924 0,0.30959 0,0.64177 0,0.99654 0.0452,0.30959 0.089,0.62052 0.1342,0.93011 0.3096,2.30268 0.46506,3.5663 0.46506,3.78687 0,0.48765 -0.0439,0.79857 -0.13287,0.93011 0.30959,1.37258 0.68695,3.01223 1.12941,4.91629 0.88627,3.98618 1.32873,6.24502 1.32873,6.77651 v 0.26575 c 0,0.13287 -0.0439,0.24448 -0.13287,0.33218 -0.48764,-1.7712 -0.93011,-3.52113 -1.32873,-5.24848 -0.62051,-1.06298 -1.13074,-2.21365 -1.52803,-3.45469 v 0.0664 c 0.1342,0.70821 0.28833,1.50678 0.46638,2.39171 0.57534,2.79166 0.86234,4.82859 0.86234,6.11347 0,0.39862 -0.0439,0.66437 -0.13287,0.79724 h -0.19931 c -0.13287,-0.79724 -0.46505,-2.25884 -0.99654,-4.3848 0,0.84108 -0.0439,1.92665 -0.13288,3.25538 0,1.15068 0.13288,2.16981 0.39862,3.05607 -0.17805,-1.06298 -0.28833,-1.72734 -0.33218,-1.99309 0.26574,1.10683 0.51023,2.08079 0.7308,2.9232 0.0877,0.22057 0.19931,0.41988 0.33218,0.5966 l -0.13287,0.19931 c 0,-0.0438 -0.0226,-0.0664 -0.0664,-0.0664 0.26442,1.19453 0.44247,1.99309 0.53016,2.39171 h -0.33218 c -0.22057,-1.15068 -0.39862,-2.12596 -0.53016,-2.9232 -0.26575,-0.57666 -0.53149,-1.37257 -0.79856,-2.39171 v -3.1225 c -0.0877,1.81504 -0.19799,3.63141 -0.33219,5.44778 0.3096,0.75206 0.70821,1.4616 1.19586,2.12596 v 0.19931 c -0.53149,-0.44247 -0.9527,-0.99655 -1.26229,-1.66091 -0.0438,0.35477 -0.0877,0.70821 -0.13288,1.06298 0.3096,2.48074 0.5966,4.00877 0.86235,4.58411 -0.44247,-0.44247 -0.79724,-1.35132 -1.06298,-2.72389 -0.0877,0.93011 -0.17805,1.85889 -0.26575,2.79033 v 0.0664 c -0.17672,1.28488 -0.33218,2.59102 -0.46505,3.91975 0.22057,1.10816 0.48631,1.86022 0.79723,2.25883 -0.35477,-0.22189 -0.66436,-0.66436 -0.93011,-1.32872 -0.13287,0.70821 -0.24315,1.43901 -0.33218,2.1924 0.2219,0.79723 0.48764,1.50544 0.79857,2.12596 -0.35477,-0.44247 -0.64178,-0.97396 -0.86368,-1.59447 -0.13287,0.70821 -0.24448,1.41642 -0.33218,2.12729 0.26575,1.19453 0.77598,2.2801 1.52804,3.25405 v 0.19931 c -0.84241,-0.26574 -1.41642,-0.93011 -1.72735,-1.99309 0,-0.0877 0,-0.17805 0,-0.26574 -0.089,0.44379 -0.17805,0.88626 -0.26574,1.32872 -0.0877,0.57667 -0.17805,1.1746 -0.26575,1.79511 0.0877,0.0877 0.17805,0.19798 0.26575,0.33218 v 0.13288 c -0.1342,-0.0439 -0.24449,-0.0877 -0.33218,-0.13288 -0.17805,0.75206 -0.33219,1.5493 -0.46639,2.39171 0.17805,0.48632 0.37736,0.9527 0.59793,1.39517 l -0.13287,0.13287 c -0.2219,-0.22057 -0.41988,-0.48631 -0.59793,-0.79724 -0.2219,1.06298 -0.44247,2.14723 -0.66436,3.25538 0,0.0439 0.0226,0.0664 0.0664,0.0664 -0.0438,0.0439 -0.0877,0.0664 -0.13287,0.0664 -2.08079,9.52298 -4.89503,19.46585 -8.43875,29.82992 -1.2397,3.80813 -3.47595,10.05315 -6.71007,18.73505 -2.79032,7.92852 -4.65054,14.43928 -5.58065,19.53229 -0.44247,2.74515 -1.15068,5.8464 -2.12596,9.30109 -0.97396,3.63141 -2.03694,6.84295 -3.18895,9.63327 -1.63832,4.03003 -5.66968,8.19426 -12.09142,12.49004 -3.36566,2.21366 -6.15732,3.80813 -8.37098,4.78341 -1.50677,1.94925 -3.25538,4.14165 -5.24847,6.5772 -8.23811,9.96546 -14.50571,14.94818 -18.80149,14.94818 -2.08078,0 -4.09646,-0.39861 -6.04571,-1.19585 -2.56975,2.56976 -5.71352,3.85331 -9.43396,3.85331 -1.90539,0 -3.5663,-0.24449 -4.98272,-0.7308 -1.86022,0.93011 -4.18549,1.39516 -6.97582,1.39516 -2.17114,0 -4.12038,-0.48631 -5.8464,-1.4616 -1.28488,-0.97396 -1.99309,-1.46293 -2.12596,-1.46293 -0.5315,0 -1.46293,0.26575 -2.79166,0.79857 -1.32873,0.53016 -2.2801,0.79723 -2.85543,0.79723 -3.01223,0 -5.07043,-0.86367 -6.17859,-2.59101 -0.53016,-1.72735 -0.79723,-2.63487 -0.79723,-2.72389 0,-2.39171 2.19107,-5.1156 6.5772,-8.17168 5.1807,-3.72043 8.41483,-6.73133 9.69971,-9.03534 0.26574,-0.48631 0.55275,-0.9527 0.86234,-1.39516 -1.63832,0.44246 -3.47595,0.66436 -5.51289,0.66436 -16.56524,-0.2219 -24.98007,-0.33218 -25.24581,-0.33218 -3.27797,0 -5.58066,-1.21844 -6.90939,-3.654 -0.66436,-2.47941 -0.99654,-3.76429 -0.99654,-3.85331 0,-2.03694 0.30959,-3.34441 0.93011,-3.91842 0.48764,-0.44379 1.61573,-0.70954 3.38825,-0.79856 5.93543,-0.39862 11.6928,-2.08079 17.27345,-5.04916 8.01622,-4.25193 14.50572,-6.37789 19.46586,-6.37789 0.48631,0 0.95137,0.0226 1.39516,0.0664 3.18762,-1.6835 7.19639,-3.76428 12.02498,-6.24502 5.35876,-3.14376 8.72442,-6.44432 10.09833,-9.89901 0.22189,-1.01914 0.44379,-1.99309 0.66436,-2.92187 -1.50545,1.63832 -2.34786,2.56843 -2.52325,2.79032 h -0.19931 c 0.62051,-0.93011 1.59447,-2.14722 2.9232,-3.654 0.35477,-1.4616 0.7308,-2.81158 1.12942,-4.05261 -0.88494,1.37257 -1.39517,2.16981 -1.52671,2.39171 h -0.19931 c 0.39862,-0.70822 0.9527,-1.74861 1.66091,-3.12251 -0.97396,1.37257 -2.01568,2.63486 -3.12251,3.78687 h -0.19931 c 0.84241,-1.32873 2.25884,-3.49987 4.25193,-6.51076 0.22189,-0.3096 0.41987,-0.5966 0.59792,-0.86235 0.0877,-0.88626 0.19798,-1.7486 0.33219,-2.59102 l -0.0664,0.0664 c -1.32873,2.65746 -2.48073,4.73824 -3.45602,6.24502 0.0877,-0.17805 1.13075,-2.30269 3.12384,-6.37789 0.17672,-0.39862 0.37603,-0.77598 0.5966,-1.13075 0,-0.13287 0,-0.24316 0,-0.33218 -1.15068,1.99309 -1.99309,3.49987 -2.52326,4.51767 l -0.19931,-0.13287 c 1.06299,-2.25884 2.05953,-4.27452 2.98964,-6.04704 0.0877,-0.61918 0.17805,-1.26096 0.26575,-1.92532 -0.75206,1.54929 -1.55063,3.25405 -2.39171,5.1156 h -0.19931 c 1.01913,-2.65746 1.9705,-4.96014 2.85676,-6.90939 0.13287,-0.84108 0.26575,-1.70475 0.39862,-2.59101 0.0438,-0.39862 0.11028,-0.79724 0.19931,-1.19453 -0.35477,0.66436 -0.66437,1.30614 -0.93011,1.92666 -0.30959,1.10683 -0.48764,2.03693 -0.53149,2.79032 h -0.33218 c 0.0877,-0.48631 0.19931,-0.99654 0.33218,-1.52803 -0.48632,1.152 -0.8185,2.17114 -0.99655,3.0574 l -0.13287,0.13287 c -0.0877,0 -0.15546,-0.0226 -0.19931,-0.0664 v -0.53149 c 0,-0.48631 0.59793,-2.01568 1.79511,-4.58411 0.35477,-1.28355 0.79724,-2.68004 1.32873,-4.18416 0.0877,-0.17805 0.15413,-0.35477 0.19798,-0.53149 0.2219,-1.41642 0.46638,-2.83417 0.7308,-4.25192 -1.15068,2.52458 -1.94791,4.69572 -2.39171,6.51076 h -0.33218 c 0.0438,-0.35477 0.1342,-0.7308 0.26574,-1.12942 -0.39861,1.10683 -0.70821,2.14722 -0.9301,3.12251 h -0.33219 c 0.35477,-1.32873 0.81983,-2.85676 1.39517,-4.58411 -0.39862,0.84241 -0.79724,1.70476 -1.19453,2.59102 h -0.19931 c 0.3096,-0.79724 0.9527,-2.14722 1.92666,-4.05262 0.35477,-1.15201 0.77464,-2.34786 1.26229,-3.58756 -1.46293,2.96704 -2.45948,5.1156 -2.98964,6.44432 -0.26574,0 -0.41988,0 -0.46638,0 -0.0439,0 -0.0664,-0.15413 -0.0664,-0.46505 0,-0.2219 0.93011,-2.08079 2.79166,-5.58065 -0.1342,0.0877 -0.2219,0.1342 -0.26575,0.1342 -0.1342,0.17672 -0.24448,0.37603 -0.33218,0.5966 l -0.86367,-0.13288 c 0.35477,-0.44246 0.70821,-0.95269 1.06298,-1.52803 0.2219,-1.28355 1.13075,-3.76429 2.72522,-7.44088 0.35477,-0.79723 0.68695,-1.52803 0.99654,-2.1924 0,-0.13287 0.0226,-0.26441 0.0664,-0.39861 -1.19585,2.56976 -2.52458,4.98272 -3.98618,7.24156 l -0.19931,-0.13287 c 1.55062,-2.43689 2.98964,-5.31491 4.31836,-8.63673 0.0877,-0.17805 0.17805,-0.39995 0.26575,-0.66436 0.13287,-0.57667 0.24448,-1.15201 0.33218,-1.72868 -0.39862,0.93011 -1.30614,2.98964 -2.72389,6.17858 l -0.19931,-0.13287 c 0.30959,-1.01913 0.59793,-1.9705 0.86367,-2.85676 -0.30959,0.44246 -0.59792,0.88626 -0.86367,1.32873 h -0.33218 c 0.57667,-1.01914 1.13075,-1.92666 1.66091,-2.7239 0.1342,-0.62051 0.28833,-1.17459 0.46638,-1.6609 -0.089,0.13287 -0.17805,0.26574 -0.26574,0.39861 h -0.19931 c 0.22189,-0.35477 0.46638,-0.77464 0.7308,-1.26229 0.0452,-0.22057 0.089,-0.41987 0.1342,-0.59792 0.22057,-0.79724 0.46505,-1.50545 0.7308,-2.12597 -0.17805,0.26575 -0.3096,0.48632 -0.39862,0.66437 h -0.53149 c 0.79856,-1.19586 1.59447,-2.56976 2.39171,-4.11906 0,-0.2219 0.0452,-0.44379 0.1342,-0.66436 -0.35477,0.70821 -0.64178,1.30614 -0.86367,1.79378 h -0.33219 c 0.4438,-1.15068 0.88627,-2.23758 1.32873,-3.25538 -0.35477,0.57667 -0.68695,1.19585 -0.99654,1.86022 -0.35477,0.79723 -0.68696,1.59447 -0.99655,2.39171 h -0.33218 c 0.2219,-1.24104 0.68695,-2.81159 1.39516,-4.71699 -0.0877,0.13288 -0.15413,0.26575 -0.19798,0.39862 h -0.19931 c 0.4438,-0.93011 0.88626,-1.86022 1.32873,-2.79032 0.44379,-1.06431 0.9527,-2.23758 1.52804,-3.52113 0.22056,-1.06298 0.46505,-2.12596 0.7308,-3.18895 0.13287,-0.66436 0.28833,-1.32872 0.46505,-1.99309 -1.77119,4.56285 -3.12251,7.83949 -4.05262,9.83258 h -0.33218 c 0.53149,-1.28488 1.01913,-2.45814 1.46293,-3.52112 -0.089,0.0452 -0.1342,-0.13288 -0.1342,-0.53017 0,-0.17804 0.2219,-0.9301 0.66436,-2.25883 h -0.33218 c 0.84241,-2.96705 2.28142,-6.59979 4.31836,-10.89556 0,-0.0438 0.0226,-0.0877 0.0664,-0.13288 0.0452,-0.17805 0.11161,-0.37603 0.19931,-0.59792 0.0877,-0.26575 0.17805,-0.53149 0.26574,-0.79724 -1.19585,2.61228 -2.59101,5.53548 -4.18549,8.7696 0.0439,-0.13287 1.52804,-3.52113 4.45257,-10.16476 0.0877,-0.17672 0.17672,-0.35477 0.26441,-0.53017 0.17805,-0.79856 0.37736,-1.55062 0.59793,-2.25883 -1.63832,3.36566 -3.01222,5.91283 -4.11905,7.64018 l -0.19931,-0.13287 c 2.25884,-4.69572 3.96359,-8.30455 5.11693,-10.82913 0.0877,-0.30959 0.17672,-0.62051 0.26441,-0.93011 0.26575,-1.50545 0.53149,-2.85543 0.79857,-4.05262 -1.59447,3.63142 -3.36567,7.06352 -5.31491,10.29764 h -0.19931 c 0.1342,-0.26575 2.08079,-4.31836 5.8464,-12.15785 0.13287,-0.92878 0.26575,-1.74861 0.39862,-2.45815 0.0877,-0.57667 0.86367,-4.09646 2.32527,-10.56338 0.93011,-4.1629 1.30614,-7.61759 1.12942,-10.36407 -0.17672,-2.87935 -0.19798,-6.99841 -0.0664,-12.35716 0.17805,-5.04917 0.26575,-7.86208 0.26575,-8.43875 0,-1.81504 -0.33218,-4.00877 -0.99655,-6.57587 -0.66436,-2.52458 -0.99654,-5.64709 -0.99654,-9.36885 0,-5.71353 2.34786,-16.27691 7.04225,-31.69015 0,-0.0438 0.0226,-0.089 0.0664,-0.13287 0.0452,-0.26574 0.1342,-0.53149 0.26574,-0.79723 -0.22057,0.17672 -0.41987,0.37735 -0.59792,0.59792 -0.26442,0.3096 -0.50891,0.59793 -0.7308,0.86368 -0.0439,0.13287 -0.0877,0.28833 -0.13288,0.46505 h -0.19931 v -0.0664 c -0.66436,0.75206 -0.99654,1.21845 -0.99654,1.39517 0,0.30959 0.0877,0.44246 0.26574,0.39862 l 0.39862,-0.0664 -0.13287,0.13287 -0.86367,-0.13287 c 0.17805,-0.53149 0.59792,-1.21844 1.26229,-2.05953 -0.2219,-1.3739 -0.35477,-2.72389 -0.39862,-4.05262 -0.26575,0.39862 -0.53149,0.79724 -0.79857,1.19586 -0.39861,1.99309 -0.68695,4.0752 -0.86234,6.24502 h -0.19931 l -0.13287,-2.79033 c 0,-0.48764 0.0877,-1.17327 0.26574,-2.05953 -0.39994,0.53149 -0.79856,1.10683 -1.19585,1.72735 -0.0877,1.37257 -0.15413,2.96705 -0.19931,4.78342 l -0.19798,0.13287 c -0.2219,-1.19586 -0.35477,-2.48074 -0.39862,-3.85331 -0.35477,0.44247 -0.68695,0.90752 -0.99654,1.39516 -0.2219,1.41775 -0.26575,2.74648 -0.1342,3.98618 h -0.33219 l -0.13287,-2.65745 c 0,-0.17672 0,-0.35477 0,-0.53149 -0.53149,0.66436 -1.04039,1.37257 -1.52804,2.12596 -0.44246,2.21499 -0.66436,3.56498 -0.66436,4.05262 h -0.33218 c 0.0439,-0.70821 0.17805,-1.81637 0.39862,-3.32182 -0.79724,1.06298 -1.61573,2.14855 -2.45815,3.25538 -0.39862,1.86022 -0.64177,3.32182 -0.7308,4.3848 h -0.19931 v -3.05607 c -0.81849,1.00053 -1.66091,2.04225 -2.52325,3.12251 0.17672,0.70954 0.46506,1.24103 0.86234,1.59447 -0.22056,0.2219 -0.55275,0.33218 -0.99654,0.33218 -0.0877,-0.53149 -0.15413,-1.01913 -0.19798,-1.4616 -0.48764,0.57667 -0.97396,1.19586 -1.46293,1.86022 -0.13287,0.4438 -0.28833,0.86367 -0.46505,1.26229 -0.0877,0.79724 -0.15546,1.41643 -0.19931,1.86022 v 0.79724 h -0.33218 c 0,-0.53149 0,-1.01914 0,-1.4616 -0.0877,-0.39995 -0.13288,-0.75339 -0.13288,-1.06431 -0.17805,0.22189 -0.35477,0.44379 -0.53149,0.66436 0,0.26575 -0.0439,0.44379 -0.13287,0.53149 h -0.19931 v -0.0664 c -0.57667,0.66437 -1.12942,1.35132 -1.66091,2.05953 0.17805,0.70821 0.51023,1.26229 0.99655,1.66091 -0.57667,-0.17805 -0.99655,-0.64177 -1.26229,-1.39516 -0.53017,0.66436 -1.06299,1.30614 -1.59315,1.92665 0.13287,0.61919 0.19798,1.17327 0.19798,1.66091 l -0.13287,0.13287 c -0.0877,-0.0877 -0.28833,-0.46505 -0.59793,-1.12942 -0.35477,0.44247 -0.70821,0.88494 -1.06298,1.32873 -0.2219,8.68058 -0.77598,16.09886 -1.66091,22.25618 -0.53149,3.67659 -1.24103,7.50598 -2.12729,11.49216 l -1.06298,7.24156 h -0.26575 c -0.0439,0.0877 -0.0664,0.19931 -0.0664,0.33219 -0.0877,0.97395 -0.19798,1.99309 -0.33219,3.05607 -0.0438,0.17805 -0.0877,0.37603 -0.13287,0.59793 -0.17805,0.75206 -0.35477,1.57321 -0.53149,2.45814 v 0.0678 c -0.0438,0.17672 -0.0877,0.35477 -0.13287,0.53016 -0.0877,0.17805 -0.15546,0.37603 -0.19931,0.59793 -0.0877,0.30959 -0.22057,0.86367 -0.39862,1.6609 l -0.0664,0.19931 c -0.26574,0.84109 -0.57666,1.94792 -0.9301,3.32182 -0.44247,1.94791 -0.90885,4.20675 -1.39517,6.77651 h -0.19931 c 0.1342,-1.10683 0.28834,-2.17114 0.46639,-3.18895 -0.39995,1.77253 -0.93011,3.72177 -1.59448,5.8464 h -0.19963 c 0.97396,-4.29577 1.70476,-8.28195 2.1924,-11.95854 -0.39861,1.19585 -0.81982,2.41297 -1.26229,3.654 -0.44246,1.37257 -1.19585,3.83205 -2.25883,7.37443 -0.57667,3.10125 -0.90885,5.62451 -0.99655,7.57375 h -0.19798 c -0.57667,4.3848 -1.21844,8.48259 -1.92665,12.29072 h -0.19931 c 0.2219,-4.69439 0.51023,-8.01621 0.86367,-9.96545 0.0877,-0.75206 0.15413,-1.43901 0.19798,-2.05953 -0.61919,2.12597 -1.28355,4.4725 -1.99309,7.04226 -0.13287,0.48631 -0.26442,0.99654 -0.39862,1.52803 -0.39862,2.96705 -0.62051,4.89371 -0.66436,5.77997 h -0.33218 c 0.0439,-0.70821 0.11161,-1.55063 0.19931,-2.52458 -0.1342,0.62051 -0.24449,1.19585 -0.33219,1.72867 -0.17804,0.75206 -0.30959,1.41642 -0.39861,1.99309 -0.089,0.66436 -0.1342,1.21711 -0.1342,1.66091 l -0.13288,0.13287 v -0.0664 c -0.39862,1.99309 -0.7308,3.5663 -0.99654,4.71698 h -0.19931 c 0.26574,-2.03694 0.51023,-3.80814 0.7308,-5.31491 -0.26442,0.79723 -0.5089,1.61706 -0.7308,2.45814 -0.3096,0.93011 -0.59793,1.81637 -0.86235,2.65746 -0.30959,1.90539 -0.46638,3.47728 -0.46638,4.71831 l -0.13287,0.13287 c -0.1342,-0.0877 -0.19931,-0.46505 -0.19931,-1.12942 0,-0.44379 0.0664,-1.08557 0.19931,-1.92665 -0.48764,1.28488 -0.9527,2.52325 -1.39517,3.72043 -0.0452,0.75206 -0.089,1.52804 -0.1342,2.32528 h -0.33218 c 0,-0.3096 0,-0.64178 0,-0.99655 -0.17672,1.24103 -0.28833,2.52458 -0.33218,3.85331 l -0.13287,0.13287 c -0.1342,-0.0877 -0.19931,-0.46505 -0.19931,-1.12942 0,-0.44379 0.0877,-1.10815 0.26574,-1.99309 -0.22189,0.48632 -0.41987,0.97396 -0.59792,1.4616 -0.3096,1.41643 -0.57667,2.96705 -0.79724,4.65055 h -0.19931 v -2.45815 c -1.10683,2.34786 -2.19107,4.36221 -3.25538,6.04571 0.35477,0.79724 0.53149,1.99309 0.53149,3.58756 -5.27106,13.37497 -9.25724,21.06033 -11.95854,23.05342 -2.70131,1.90539 -9.2134,5.44778 -19.53229,10.62982 -12.00239,5.97927 -19.57614,8.9689 -22.72124,8.9689 -2.56975,0 -4.31836,-0.77464 -5.24847,-2.32527 -0.44246,-1.50677 -0.66436,-2.28142 -0.66436,-2.32527 0,-1.99309 3.76428,-5.53681 11.29418,-10.62982 l 0.93011,-0.59792 c -4.47383,0.1342 -9.16822,0.0664 -14.08451,-0.19799 -4.20808,-0.30959 -6.59979,-0.46638 -7.17513,-0.46638 -0.53149,0 -1.9705,0.26575 -4.31836,0.79857 -0.48764,0.13287 -0.93011,0.24315 -1.32873,0.33218 0.88627,1.90406 1.32873,3.76428 1.32873,5.57932 0,0.1342 -0.39862,3.10125 -1.19585,8.90248 -1.63832,5.71352 -4.56152,8.57028 -8.7696,8.57028 -1.41775,0 -2.83418,-0.11028 -4.25193,-0.33218 0.57534,2.08079 1.01914,3.7417 1.32873,4.98273 1.01913,1.19585 1.63832,3.12251 1.86022,5.77996 0.22189,2.65746 0.13287,6.26761 -0.26575,10.82913 l 0.66436,0.66436 c 1.7712,0.17805 2.9232,-0.53149 3.4547,-2.12596 0.62051,-1.6835 1.90539,-2.52458 3.8533,-2.52458 1.63832,0 4.27319,1.35131 7.90593,4.05261 4.25193,3.1451 6.71007,6.35531 7.37444,9.63328 0.0877,0.39861 0.64177,2.90194 1.6609,7.5073 0.66437,2.96705 0.99655,5.35876 0.99655,7.1738 0,0.66437 -0.24449,1.41775 -0.7308,2.25884 -0.57534,5.04916 -4.87244,10.12091 -12.88865,15.21392 -7.66277,4.91629 -15.52485,7.66277 -23.58491,8.23811 -3.76428,1.37258 -6.97582,2.05953 -9.63327,2.05953 -9.96545,0 -16.16662,-5.73479 -18.60218,-17.20702 -0.75339,-3.58756 -1.08557,-7.57374 -0.99655,-11.95854 0.2219,-3.67659 0.33219,-5.58066 0.33219,-5.71353 0.26574,-9.47914 0.39861,-16.54265 0.39861,-21.1932 0,-0.0877 0.0226,-0.15413 0.0664,-0.19798 -1.50545,-1.55062 -2.63486,-3.54371 -3.38825,-5.97927 -0.57534,-1.90539 -1.0404,-4.56285 -1.39517,-7.97236 -0.35477,-3.27797 -0.68695,-5.3375 -0.99654,-6.17858 -0.84109,-2.30269 -2.83418,-6.95323 -5.97927,-13.95164 -0.62052,-1.37257 -1.06299,-3.05607 -1.32873,-5.04916 -0.48764,-1.50678 -0.86367,-3.16768 -1.12942,-4.98273 -0.39862,-10.49694 -0.90885,-17.33988 -1.52803,-20.52883 -0.62052,-3.27797 -1.79379,-7.17513 -3.52113,-11.6928 -0.0438,0 -0.0877,0.0226 -0.13287,0.0664 h -0.19931 c -0.0438,-0.35477 -0.33219,-1.32873 -0.86368,-2.9232 -0.39861,-0.93011 -0.79723,-1.88148 -1.19585,-2.85544 -0.62052,-1.3739 -1.17327,-2.65745 -1.66091,-3.8533 0.39862,1.15067 0.86367,2.36912 1.39516,3.654 l -0.13287,0.13287 c -0.30959,-0.39862 -0.57667,-0.86235 -0.79723,-1.39517 0.26574,1.10816 0.57533,2.30269 0.9301,3.58757 -0.9301,-1.06298 -1.61573,-2.72389 -2.05952,-4.98273 -0.0438,-0.2219 -0.0664,-0.44246 -0.0664,-0.66436 -0.35477,-0.39862 -0.68695,-0.90885 -0.99654,-1.52804 0.39861,1.50678 0.88626,2.90194 1.4616,4.18549 l -0.13288,0.13287 c -0.88626,-1.28355 -1.52803,-2.96704 -1.92665,-5.04916 -0.0438,-0.26574 -0.0664,-0.5089 -0.0664,-0.7308 -0.089,-0.17805 -0.15546,-0.35477 -0.19931,-0.53149 -0.17672,-0.30959 -0.33218,-0.64177 -0.46505,-0.99654 0.57534,2.65745 0.90752,4.23066 0.99654,4.71831 v 0.13287 c -0.30959,-0.39862 -0.62051,-1.30614 -0.93011,-2.72389 -0.39861,-0.53149 -0.66436,-1.26229 -0.79723,-2.1924 v -0.0664 h -0.0664 c 0,-0.35477 -0.0226,-0.7308 -0.0664,-1.12942 -0.13288,-0.66436 -0.2219,-1.19585 -0.26575,-1.59447 -0.13287,-0.35477 -0.24449,-0.68695 -0.33218,-0.99654 -0.53149,-1.86022 -0.99655,-3.45602 -1.39517,-4.78475 0.35478,2.12729 0.79724,4.29577 1.32873,6.51076 -0.53149,-0.79723 -0.93011,-1.90539 -1.19585,-3.32182 -0.2219,-0.39861 -0.41988,-0.88626 -0.59793,-1.4616 0.0438,0.3096 0.0877,0.61919 0.13287,0.92879 0,0.57666 -0.11028,0.64177 -0.33218,0.1993 -0.30959,-0.9301 -0.70821,-3.38825 -1.19585,-7.37443 -0.0438,-0.48764 -0.0877,-0.93011 -0.13288,-1.32873 0.0452,1.24103 0.11029,2.59102 0.19931,4.05262 0.0439,0.75206 0.0877,1.52804 0.13288,2.32527 h -0.33219 c -0.0438,-0.84241 -0.11028,-1.61706 -0.1993,-2.32527 h -0.13288 c -0.22189,-1.24103 -0.39862,-2.65745 -0.53149,-4.25193 -0.0877,-0.53016 -0.17672,-1.10683 -0.26574,-1.72734 h -0.19931 c -0.26575,-1.72735 -0.50891,-3.34441 -0.7308,-4.84986 0,0.3096 -0.0226,0.59793 -0.0664,0.86368 h -0.19931 c 0,-0.84242 -0.0226,-1.83896 -0.0664,-2.98964 -0.2219,-1.37257 -0.42121,-2.61361 -0.59793,-3.72044 v 4.04465 h -0.33218 c 0.13287,-0.88626 0.17672,-1.88281 0.13287,-2.98964 h -0.13287 c -0.26575,-1.06298 -0.68696,-3.27797 -1.26229,-6.64363 -0.39862,-1.28488 -0.79724,-2.61361 -1.19586,-3.98618 0.0877,1.24103 0.13287,2.30268 0.13287,3.18894 0,0.66437 -0.0438,1.15068 -0.13287,1.4616 h -0.19931 c 0,-2.34786 -0.0877,-4.42865 -0.26574,-6.24502 -0.39862,-1.19452 -0.77465,-2.41296 -1.12942,-3.654 0.2219,1.50678 0.35477,2.81292 0.39862,3.91975 H 150.863 c -0.13288,-1.50678 -0.35477,-3.47595 -0.66437,-5.91284 -0.75206,-2.52325 -1.48419,-4.96013 -2.1924,-7.30799 0.0439,0.48764 0.11029,1.01913 0.19931,1.59447 h -0.19931 c 0.0439,0.30959 0.11029,0.62051 0.19931,0.93011 0.88626,4.11905 1.32873,6.33404 1.32873,6.64363 v 0.39862 c 0,0.13287 -0.0438,0.24449 -0.13287,0.33218 -0.62052,-2.39171 -1.12942,-4.60669 -1.52804,-6.64363 h -0.33218 c -0.0438,-0.57667 -0.0664,-1.15068 -0.0664,-1.72735 -0.53149,-2.65745 -0.90752,-4.91629 -1.12942,-6.77784 -0.48764,-1.50544 -0.95269,-2.94445 -1.39516,-4.31836 -0.0439,0.0452 -0.0664,0.11161 -0.0664,0.19931 0.13288,1.24103 0.3096,2.68004 0.53149,4.31836 l -0.33218,0.46506 c -0.53149,-0.66437 -1.01913,-1.99309 -1.4616,-3.98618 -0.57666,-1.19453 -1.17326,-3.18762 -1.79378,-5.97928 0.13287,2.30269 0.48764,4.25193 1.06298,5.8464 -0.44246,-0.0877 -0.79723,-0.44246 -1.06298,-1.06298 l -0.0664,0.0664 c -0.48764,-0.70821 -0.79723,-1.77119 -0.9301,-3.18895 -0.0438,-0.57534 -0.0664,-1.7486 -0.0664,-3.51979 0,-0.0877 0,-0.17805 0,-0.26575 -0.13287,1.94924 -0.17672,3.49987 -0.13287,4.65054 l 0.13287,0.33219 c -0.35477,-0.17805 -0.53149,-1.0404 -0.53149,-2.59102 0,-0.93011 0.0452,-2.03694 0.13287,-3.32182 -0.30959,-0.62051 -0.59793,-1.30614 -0.86367,-2.05953 0.0439,0.44247 0.0664,0.77465 0.0664,0.99655 0,0.44247 -0.0226,0.62051 -0.0664,0.53149 0,0.97396 0.0226,2.08079 0.0664,3.32182 l -0.13287,0.13287 c -0.2219,-0.75206 -0.33218,-1.57321 -0.33218,-2.45814 0,-0.70954 0,-1.32873 0,-1.86022 -0.13287,-0.3096 -0.24449,-0.64178 -0.33218,-0.99655 h -0.0664 c -0.0438,0.57667 -0.0877,1.12942 -0.13287,1.66091 h -0.33218 c -0.0877,-0.48631 -0.13287,-1.01913 -0.13287,-1.59447 0,-0.39862 0.0664,-1.08424 0.1993,-2.05953 -0.13287,-0.88626 -0.22189,-1.81504 -0.26574,-2.79033 -0.0877,-0.22189 -0.15546,-0.4212 -0.19931,-0.59792 0,0.70821 -0.0226,1.28488 -0.0664,1.72734 h -0.13287 c -0.089,0.44247 -0.13287,0.93011 -0.13287,1.4616 0.13287,1.01914 0.26574,2.08212 0.39862,3.18895 -0.26575,-0.35477 -0.48765,-0.99655 -0.66437,-1.92666 0,0.0438 0,0.0877 0,0.1342 -0.26574,-0.39994 -0.59792,-1.70608 -0.99654,-3.91974 v 1.06298 h -0.33218 v -3.12251 c -0.17673,-1.10816 -0.3096,-2.08211 -0.39862,-2.9232 -0.17672,-0.53149 -0.33218,-1.17459 -0.46506,-1.92665 -0.13287,-0.84241 -0.22189,-1.50678 -0.26574,-1.99309 h -0.46506 c -0.0438,-0.17805 -0.24448,-1.1746 -0.59792,-2.98964 0.0438,0.66437 0.11028,1.39517 0.1993,2.1924 0.26575,2.25751 0.55408,3.7417 0.86368,4.45124 -0.48765,-0.35477 -0.84109,-1.24103 -1.06298,-2.65746 -0.0438,-0.13287 -0.0877,-0.26574 -0.13288,-0.39861 -0.0438,0 -0.0877,0.0226 -0.13287,0.0664 -0.88626,-1.90539 -1.9705,-5.38134 -3.25538,-10.43051 -0.44247,-1.68349 -0.81983,-3.18894 -1.12942,-4.51767 0.13287,0.79724 0.26575,1.50678 0.39862,2.12597 v 0.1993 c -0.2219,-0.57666 -0.42121,-1.19585 -0.59793,-1.86021 0.0438,0.26574 0.089,0.55408 0.13287,0.86367 l -0.1993,0.33218 c -0.79724,-1.32873 -1.43902,-2.9232 -1.92666,-4.78342 0.13287,0.79724 0.26575,1.61706 0.39862,2.45815 h -0.33218 c -0.39862,-2.21499 -0.75206,-4.22934 -1.06298,-6.04571 -0.0438,-0.089 -0.089,-0.17672 -0.13288,-0.26575 0.13288,1.37258 0.19931,2.30269 0.19931,2.79033 0,0.17672 -0.15546,0.79724 -0.46505,1.86022 h -0.19931 c -0.26575,-1.28488 -0.48764,-2.65745 -0.66436,-4.11905 l -0.13288,2.79032 -0.33218,0.33218 c -0.13287,-0.089 -0.26574,-0.22189 -0.39862,-0.39861 -0.0877,0.88626 -0.17672,1.90406 -0.26574,3.05607 h -0.19931 l -0.26575,-3.58756 c 0,-0.39862 0.0226,-1.0404 0.0664,-1.92666 -0.0877,-0.57667 -0.15546,-1.21844 -0.19931,-1.92665 -0.0439,-0.44247 -0.0664,-1.26229 -0.0664,-2.45815 -0.35477,2.21499 -0.57666,3.63141 -0.66436,4.25193 h -0.19931 c -0.0877,-0.3096 -0.13287,-0.75339 -0.13287,-1.32873 0.30959,-3.41084 0.53149,-5.91283 0.66436,-7.50731 -0.089,-0.30959 -0.17672,-0.59792 -0.26574,-0.86367 -0.0438,0.17672 -0.0664,0.35477 -0.0664,0.53149 -0.089,1.99309 -0.19931,3.56498 -0.33218,4.71698 l -0.66437,0.13288 c 0,-0.0438 0,-0.089 0,-0.13288 -0.0452,0.13288 -0.0664,0.26575 -0.0664,0.39862 0.0438,1.19585 0.11028,2.43556 0.19931,3.72044 0.26574,0.089 0.13287,0.13287 -0.39862,0.13287 -0.88626,0 -1.41775,-1.19586 -1.59447,-3.58756 0,-0.3096 0,-0.59793 0,-0.86368 -0.53149,-0.57534 -0.79724,-1.32872 -0.79724,-2.25883 0,-0.35477 0.0438,-0.81983 0.13287,-1.39517 0.2219,-2.56843 0.39862,-4.76083 0.53149,-6.5772 v -0.1993 c 0,-1.81637 0.0438,-3.47728 0.13288,-4.98273 -0.70821,3.36566 -1.37258,7.06484 -1.99309,11.09487 h -0.33219 c -0.17672,-0.88626 -0.26574,-1.79378 -0.26574,-2.72389 0,-0.93011 0.48764,-3.32182 1.4616,-7.17513 -1.06298,2.16981 -1.94924,3.91975 -2.65746,5.24848 h -0.1993 c 0.53149,-2.12597 1.57321,-4.67314 3.1225,-7.64019 0.2219,-0.44246 0.44247,-0.86367 0.66437,-1.26229 0.089,-0.26574 0.17672,-0.5089 0.26574,-0.7308 0,-0.53149 0,-1.01913 0,-1.4616 -2.03694,3.67659 -4.20808,6.93197 -6.51076,9.76615 h -0.19931 c 1.55063,-2.30269 3.76429,-5.82381 6.64364,-10.56338 -0.3096,-1.72735 -0.55408,-3.654 -0.7308,-5.77997 -0.0438,-0.75338 -0.0664,-1.46159 -0.0664,-2.12596 -0.30959,-1.01913 -0.62052,-2.03694 -0.93011,-3.05607 0,0.35477 0.0226,0.70954 0.0664,1.06298 0,0.30959 0,0.59793 0,0.86367 -0.0439,0.57534 -0.0877,1.01914 -0.13287,1.32873 h -0.19931 c 0,-0.44247 0,-0.9527 0,-1.52804 -0.44247,-1.99309 -0.86368,-3.78687 -1.26229,-5.38134 0.0877,2.43556 0.17672,5.29232 0.26574,8.57029 l -0.13287,0.13287 c -0.93011,-1.152 -1.39517,-2.87935 -1.39517,-5.18203 -0.0877,0.93011 -0.17672,1.61573 -0.26574,2.05952 h -0.19931 c -0.0877,-0.44246 -0.15546,-0.93011 -0.19931,-1.4616 -0.0877,0.17672 -0.17672,0.44247 -0.26574,0.79724 h -0.19931 c -0.35477,-2.65745 -0.61919,-4.76083 -0.79724,-6.31145 -0.0452,0.30959 -0.11028,0.64177 -0.19931,0.99654 h -0.33218 c -0.0877,-0.44246 -0.13287,-1.21844 -0.13287,-2.32527 0,-0.26575 0,-0.53149 0,-0.79724 v -0.0664 c -0.0452,0.17672 -0.0664,0.33218 -0.0664,0.46505 -0.0438,0.93011 -0.0877,1.72735 -0.13287,2.39171 h -0.13288 c -0.13287,1.32873 -0.1993,2.28142 -0.1993,2.85676 l -0.13288,0.13288 c -0.13287,-0.2219 -0.19931,-0.64178 -0.19931,-1.26229 0,-0.48765 0.11029,-1.63833 0.33219,-3.4547 v -0.66436 c -0.39862,3.40951 -0.66437,5.31491 -0.79724,5.71353 h -0.19931 c 0.35477,-1.55063 0.53149,-3.21154 0.53149,-4.98273 0,-0.79724 0.13287,-2.59102 0.39862,-5.38134 v -3.38826 l -0.0664,-0.0664 c -0.35477,2.6136 -0.53149,4.11905 -0.53149,4.51767 0,0.13287 -0.0439,0.24315 -0.13287,0.33218 -0.17672,-0.35477 -0.28833,-0.93011 -0.33218,-1.72735 -0.089,0.0439 -0.17672,0.0877 -0.26575,0.13288 0.13288,1.24103 0.26575,2.43555 0.39862,3.58756 -0.84108,-1.01913 -1.35131,-2.39171 -1.52804,-4.11905 -0.0438,-0.26575 -0.0664,-0.64178 -0.0664,-1.12942 l -0.19931,4.58411 h -0.19931 c -0.0438,-1.63832 -0.0226,-3.91975 0.0664,-6.84295 0.0877,-2.7013 0.13287,-4.73957 0.13287,-6.11214 0,-0.3096 0,-0.59793 0,-0.86368 -0.089,0.2219 -0.19931,0.39862 -0.33218,0.5315 h -0.13288 c -0.089,0.9301 -0.15546,1.92665 -0.1993,2.98963 h -0.19931 v -8.96891 c 0.089,-0.57534 0.15546,-1.28488 0.19931,-2.12596 -0.17673,-0.62052 -0.35477,-1.2397 -0.5315,-1.86022 -0.0438,1.41775 -0.0877,2.52458 -0.13287,3.32182 h -0.19931 c 0,-1.63832 0,-3.12251 0,-4.45124 -0.13287,-0.35477 -0.24315,-0.68695 -0.33218,-0.99654 v 0.46505 h -0.33218 c 0,-0.53149 0,-1.06298 0,-1.59447 -0.30959,-1.10683 -0.61919,-2.16981 -0.93011,-3.18894 -0.13287,0.75338 -0.26575,1.57321 -0.39862,2.45814 0,0.13287 -0.0438,0.24316 -0.13287,0.33218 -0.089,0 -0.15546,-0.0226 -0.19931,-0.0664 v -0.53149 c 0.17672,-1.23971 0.30959,-2.30269 0.39862,-3.18895 -1.86022,-6.24502 -3.4321,-11.60378 -4.71698,-16.0776 -7.13128,19.88706 -15.14749,29.82993 -24.04996,29.82993 -6.0683,0 -11.4709,-2.4143 -16.21047,-7.24157 -3.1451,-3.18894 -5.24847,-6.31145 -6.31146,-9.36752 -0.84108,-2.39171 -2.10337,-5.3375 -3.78687,-8.83604 -2.21499,-1.32873 -3.72043,-2.68004 -4.51767,-4.05262 -0.79724,-1.32873 -1.19585,-3.32182 -1.19585,-5.97927 0,-0.35477 0,-0.68695 0,-0.99655 -0.62105,-0.88613 -1.06352,-2.19227 -1.32926,-3.91962 -0.44247,-2.7013 -1.01913,-4.78342 -1.72735,-6.24502 -6.865529,-4.11905 -12.888649,-6.73133 -18.070684,-7.83949 0,-0.089 -0.04518,-0.28833 -0.132873,-0.59792 -0.08902,-0.17672 -0.155461,-0.48765 -0.199309,-0.93011 0,-0.0438 -0.02259,-0.0664 -0.06644,-0.0664 -0.797237,-0.61919 -1.195855,-1.81637 -1.195855,-3.58757 0.04385,-0.39861 0.06644,-0.77464 0.06644,-1.12941 -0.309594,-0.88626 -0.465055,-1.81637 -0.465055,-2.79033 0,-0.57534 0.02259,-1.06298 0.06644,-1.4616 -0.664363,-2.30268 -1.328727,-5.04916 -1.99309,-8.23811 -0.04385,-0.30959 -0.110285,-0.59793 -0.199309,-0.86367 -1.062982,-0.84108 -1.860218,-2.37045 -2.391709,-4.58411 -0.0877,-0.44247 -0.176721,-0.93011 -0.265745,-1.461598 -1.372576,-2.657455 -2.059527,-5.159448 -2.059527,-7.507308 0,-1.019134 0.17672,-2.059527 0.53149,-3.122509 0.176721,-0.620516 0.398618,-1.10683 0.664364,-1.4616 0,-0.0877 0,-0.155461 0,-0.199309 0.0877,-1.63832 0.132873,-2.480733 0.132873,-2.524581 0,-2.834175 0.04518,-4.694393 0.132872,-5.580654 0.176721,-2.169812 0.641776,-3.897157 1.395164,-5.182036 -0.576668,1.328727 -0.930109,3.122509 -1.062982,5.381345 -0.0877,0.930109 -0.132873,2.701302 -0.132873,5.314908 0,0.221898 0,0.442466 0,0.664364 0.132873,-2.480734 0.465055,-4.783418 0.996546,-6.909381 0,-0.176721 0,-0.332182 0,-0.465055 h 0.06644 c 0.132873,-0.487643 0.265745,-0.952697 0.398618,-1.395163 0.398618,-3.631411 1.195855,-6.045709 2.391709,-7.241564 -0.797236,1.4616 -1.373904,3.188946 -1.727345,5.182037 0.620515,-1.683497 1.417752,-3.232794 2.391709,-4.650546 0.88626,-3.188945 2.325272,-5.912835 4.318363,-8.171671 -1.550625,2.125963 -2.767739,4.517672 -3.654,7.175126 0.132873,-0.221898 0.287005,-0.419878 0.465055,-0.597927 0.132872,-0.309594 0.244485,-0.597928 0.332181,-0.863673 1.019134,-2.347861 2.237577,-4.208079 3.654,-5.580654 1.683497,-2.746479 3.963593,-5.890247 6.842944,-9.433962 -1.949242,2.834175 -3.432102,5.005315 -4.451235,6.510763 0.487642,-0.487643 0.996545,-0.930109 1.528036,-1.328728 1.195854,-2.169811 2.281424,-3.897156 3.255381,-5.182035 l 0.132873,0.132873 c 0.35477,-1.239702 0.641775,-2.125963 0.863673,-2.657454 0.841084,-2.347861 1.727345,-3.83072 2.657454,-4.451236 -0.221898,1.241031 -0.797237,2.856764 -1.727346,4.849854 -0.309593,0.664364 -0.597927,1.284879 -0.863672,1.860217 0.886261,-1.195853 1.683497,-2.258835 2.391709,-3.188944 0.53149,-1.062981 0.908849,-1.81637 1.129415,-2.258836 h -0.0664 C 37.478593,46.87718 37.34572,46.788156 37.256695,46.744308 37.83336,46.079944 38.23065,45.747762 38.45255,45.747762 l 0.0664,0.132873 c 0,-0.398618 0.0226,-0.774648 0.0664,-1.129418 h 0.19931 l 0.0664,-0.06644 c 0.0438,0.04385 0.0664,0.243157 0.0664,0.597927 0,0.221897 -0.0226,0.487643 -0.0664,0.797236 0.089,-0.132873 0.17672,-0.243157 0.26574,-0.332182 l 0.0664,0.06644 c 0.48765,-0.753389 0.79724,-1.218443 0.93011,-1.395164 -0.089,0.176721 -0.15546,0.35477 -0.19931,0.531491 0.26575,-0.309593 0.55408,-0.597927 0.86368,-0.863673 -0.57667,0.886261 -1.19586,1.905395 -1.86022,3.056073 -0.13288,0.221897 -0.28701,0.487643 -0.46506,0.797236 -0.089,0.309593 -0.17672,0.686952 -0.26574,1.129418 0.57534,-0.708211 1.21844,-1.395163 1.92665,-2.059527 0.75206,-1.10683 1.52804,-2.082115 2.32527,-2.9232 -0.22189,1.019134 -0.5089,1.617061 -0.86367,1.793782 0,-0.221897 0.0664,-0.442466 0.19931,-0.664363 -0.39862,0.575338 -0.81982,1.195854 -1.26229,1.860217 h 0.26575 c -0.2219,0.176721 -0.42121,0.37603 -0.59793,0.597928 -0.26575,0.35477 -0.5089,0.752059 -0.7308,1.195854 h 0.13287 c -0.13287,0.132873 -0.26574,0.243157 -0.39862,0.332182 -0.17672,0.265745 -0.33218,0.531491 -0.46505,0.797236 0.089,-0.08902 0.19931,-0.176721 0.33218,-0.265745 0.089,-0.0877 0.17672,-0.155461 0.26575,-0.199309 0.44246,-0.620516 0.81982,-1.10683 1.12941,-1.4616 -0.30959,0.398618 -0.59792,0.797236 -0.86367,1.195854 0.35477,-0.309593 0.70954,-0.597927 1.06298,-0.863672 1.32873,-1.993091 2.74515,-4.096466 4.25193,-6.311454 h 0.19931 c 0.0877,0.176721 0.13287,0.442466 0.13287,0.797236 0,0.08902 -0.24316,0.531491 -0.7308,1.328727 0.2219,-0.17672 0.53149,-0.332182 0.93011,-0.465054 l 0.0664,-0.06644 c 0.0439,0.04385 0.0664,0.243157 0.0664,0.597928 0,0.753388 -0.68695,2.214988 -2.05953,4.384799 -0.089,0.176721 -0.17672,0.37603 -0.26574,0.597927 2.74648,-3.145097 4.18549,-5.536806 4.31836,-7.175126 h 0.19931 c 0.0438,0.08902 0.0877,0.132873 0.13287,0.132873 v 0.53149 c 0,1.019134 -0.81982,2.657455 -2.45814,4.916291 0.13287,-0.132873 0.287,-0.244486 0.46505,-0.332182 0.97396,-1.284879 1.63832,-2.369121 1.99309,-3.255382 h 0.19931 c 0.0877,0.08902 0.19931,0.155462 0.33218,0.19931 0.0877,0.04518 0.13288,0.199309 0.13288,0.465054 1.28488,-2.258836 2.45814,-3.919745 3.52112,-4.982727 -1.68349,2.657455 -3.03481,4.895031 -4.05261,6.710072 h 0.13287 c 0.2219,-0.265745 0.4212,-0.531491 0.59793,-0.797236 0.61918,-1.284879 1.28355,-2.391709 1.99309,-3.321818 l 0.33218,0.06644 c 0.26574,0.08902 0.41988,0.17672 0.46505,0.265745 -0.48764,0.309593 -0.93011,0.7308 -1.32873,1.262291 0.35478,-0.398618 0.64178,-0.686952 0.86368,-0.863673 -0.2219,0.398618 -0.44247,0.774648 -0.66437,1.129418 1.28355,-1.63832 2.39171,-2.790327 3.32182,-3.45469 0,0.132872 0.0438,0.309593 0.13287,0.531491 1.50545,-1.683498 2.34787,-2.745151 2.52459,-3.188945 l 0.0664,-0.06644 c 0.0438,0.04385 0.0664,0.243157 0.0664,0.597927 0,0.265746 -0.81983,1.328727 -2.45815,3.188945 0,0.132873 0,0.287005 0,0.465055 0,0.221897 -0.11028,0.531491 -0.33218,0.930109 0.26574,-0.309594 0.48764,-0.597927 0.66436,-0.863673 l 0.79724,0.199309 c -0.35477,0.309594 -0.7308,0.641776 -1.12942,0.996546 0.79724,-0.575339 1.6835,-1.173266 2.65745,-1.793782 0,0.04385 -0.0226,0.08902 -0.0664,0.132873 0.26575,-0.221898 0.50891,-0.398618 0.7308,-0.531491 v 0.19798 c -0.84108,0.575339 -2.01567,1.81637 -3.52112,3.720436 0.26574,-0.132873 0.53149,-0.265745 0.79723,-0.398618 0.70822,-0.797236 1.59448,-1.793782 2.65746,-2.989636 l 0.0664,-0.06644 c 0.30959,-0.35477 0.53149,-0.597927 0.66436,-0.7308 -0.0412,0.08238 -0.0864,0.150146 -0.13287,0.199309 0.22455,-0.223226 0.46904,-0.422535 0.7308,-0.597927 0.75339,-1.10683 1.32873,-2.082116 1.72734,-2.9232 -0.26574,0.753388 -0.66436,1.573213 -1.19585,2.458145 0.84108,-0.708211 1.57321,-1.173266 2.1924,-1.395163 0.79723,-0.664364 1.57188,-1.241031 2.32527,-1.727346 l -3.654,3.654 c -0.26574,0.221897 -0.75339,0.7308 -1.4616,1.528036 1.28488,-1.28355 2.54717,-2.347861 3.78687,-3.188945 -0.97395,1.4616 -1.79378,2.701302 -2.45814,3.720436 0.17672,-0.221897 0.35477,-0.398618 0.53149,-0.531491 1.10683,-1.062981 1.92665,-1.860218 2.45814,-2.391709 0.17673,-0.221897 0.33219,-0.398618 0.46506,-0.53149 0.66436,0.0877 0.99654,0.265745 0.99654,0.53149 -0.70954,0.354771 -1.57321,0.973957 -2.59101,1.860218 -0.17672,0.309594 -0.35477,0.620516 -0.53149,0.930109 0.0439,-0.04385 0.13287,-0.06644 0.26574,-0.06644 0.62052,-1.10683 1.35132,-1.83763 2.1924,-2.1924 -0.0452,0.35477 -0.11029,0.7308 -0.19931,1.129418 0.66436,-1.152006 1.19585,-1.904066 1.59447,-2.258836 0.44247,-0.619187 0.86367,-1.129418 1.26229,-1.528036 -0.13287,1.062982 -0.7308,2.524582 -1.79378,4.384799 0.13287,0 0.28833,0 0.46505,0 0.79724,-0.930108 1.39517,-1.63832 1.79379,-2.125963 0,-0.132873 0,-0.221897 0,-0.265745 h 0.19931 l 0.13287,-0.06644 c 0.66436,-2.302684 0.99654,-3.610151 0.99654,-3.919745 h 0.19931 c 0.0438,0.08902 0.0877,0.132873 0.13288,0.132873 v 0.531491 c 0,0.35477 -0.2219,1.372575 -0.66437,3.056072 h 0.13287 c 0.3096,-0.620515 0.68696,-1.26229 1.12942,-1.926654 0.26575,-0.575339 0.57534,-1.173266 0.93011,-1.793782 -0.0452,0.132873 -0.11028,0.354771 -0.19931,0.664364 0.13287,-0.221897 0.26575,-0.419878 0.39862,-0.597927 0.70821,-1.905395 1.12942,-3.034813 1.26229,-3.388254 h 0.19931 l 0.0638,-0.06644 c 0.0438,0.04385 0.0664,0.243157 0.0664,0.597927 0,0.221898 -0.7308,2.148552 -2.1924,5.779963 -0.3096,0.708212 -0.57534,1.372575 -0.79724,1.993091 0.30959,-0.309593 0.62051,-0.620516 0.93011,-0.930109 0.26574,-0.35477 0.53149,-0.664364 0.79723,-0.930109 0.0438,-0.132873 0.0877,-0.243157 0.13288,-0.332182 0.22189,-0.35477 0.41988,-0.686952 0.59792,-0.996545 1.06299,-2.701302 2.1924,-5.204624 3.38826,-7.507308 l 0.46505,0.06644 c 0.93011,-1.81637 1.7712,-3.255381 2.52458,-4.318363 -0.79723,1.81637 -1.52803,3.498539 -2.1924,5.049163 v 0.06644 c -0.35477,0.753389 -0.66436,1.484189 -0.9301,2.1924 1.2397,-2.125963 2.05952,-3.344406 2.45814,-3.653999 -0.2219,0.531491 -0.42121,1.040393 -0.59793,1.528036 2.56843,-4.473824 4.54026,-7.307999 5.91284,-8.503854 -2.34786,3.942334 -4.36354,7.529897 -6.04571,10.76269 0.62052,-0.575339 1.21844,-1.129418 1.79378,-1.660909 l 0.0664,-0.06644 c 0.26574,-0.753389 0.57667,-1.505448 0.93011,-2.258836 1.28488,-2.879352 2.48073,-5.138188 3.58756,-6.776509 -0.30959,1.372575 -0.7308,2.856764 -1.26229,4.451236 1.6835,-3.056072 2.7013,-5.204624 3.05607,-6.444326 h 0.19931 c 0.0877,0.08902 0.19931,0.155461 0.33218,0.199309 0.0877,0.04518 0.13288,0.244486 0.13288,0.597927 0,0.487643 -1.10683,2.680043 -3.32182,6.577199 l 0.33218,0.06644 c 0.0452,-0.04385 0.089,-0.08902 0.13287,-0.132873 0.35477,-0.620516 0.75339,-1.284879 1.19586,-1.993091 1.41775,-3.188945 2.1924,-5.182036 2.32527,-5.979272 h 0.19931 l 0.53149,0.797236 c -0.2219,0.531491 -0.48764,1.129418 -0.79724,1.793782 0.79724,-1.10683 1.48419,-1.860218 2.05953,-2.258836 0.53149,-0.930109 1.08557,-1.926654 1.66091,-2.989636 0.13287,0 0.30959,0.04385 0.53149,0.132873 0.2219,0.132872 0.33218,0.243157 0.33218,0.332181 -0.57667,0.620516 -1.12942,1.351316 -1.66091,2.1924 -0.0452,0.04385 -0.089,0.110285 -0.13287,0.199309 -0.57667,0.886261 -1.12942,1.882807 -1.66091,2.989636 0.26575,-0.35477 0.5089,-0.619187 0.7308,-0.797236 1.10683,-1.594473 2.23758,-2.834175 3.38826,-3.720436 l 0.13287,0.132873 c -1.01914,1.062981 -2.14855,2.680042 -3.38826,4.849854 0.39862,-0.265746 0.79724,-0.531491 1.19586,-0.797237 1.19585,-2.258836 2.43556,-4.096465 3.72043,-5.514217 -0.84108,1.241031 -1.74993,2.856763 -2.72389,4.849854 0.26575,-0.221898 0.55408,-0.419878 0.86368,-0.597927 1.50544,-2.391709 2.94578,-3.720436 4.31836,-3.986182 -0.44247,0.797237 -0.84108,1.505448 -1.19585,2.125964 0.48764,-0.309594 1.01913,-0.597927 1.59447,-0.863673 1.10683,-1.4616 1.86022,-2.634866 2.25883,-3.521127 h 0.19931 c 0.0438,0.08902 0.0877,0.155461 0.13288,0.199309 0.0452,0.04518 0.0664,0.244486 0.0664,0.597928 0,0.353441 -0.28833,0.973957 -0.86367,1.860218 0.79724,-0.442467 1.63832,-0.841085 2.52458,-1.195855 0.39862,-0.973957 0.77465,-1.571884 1.12942,-1.793781 -0.2219,0.576667 -0.44247,1.106829 -0.66436,1.594472 0.44246,-0.221897 0.9301,-0.421206 1.4616,-0.597927 0.26574,-0.575339 0.59792,-1.218443 0.99654,-1.926654 l 0.46505,-0.132873 c 0.13288,0.04385 0.19931,0.221897 0.19931,0.531491 0,0.08902 -0.13287,0.421206 -0.39861,0.996545 2.34786,-0.930109 4.806,-1.704757 7.37443,-2.325272 1.10683,-1.019134 1.72735,-1.617061 1.86022,-1.793781 -0.2219,0.442466 -0.55408,0.952697 -0.99655,1.528036 4.91629,-1.239703 10.12092,-2.015679 15.61255,-2.325273 v -0.06644 h 17.27345 c 0.66436,0.132873 1.32873,0.288334 1.99309,0.465054 7.75047,-4.5176724 19.0008,-5.8463994 33.74967,-3.9861814 6.46691,0.797236 14.54956,2.347861 24.24927,4.6505454 5.4026,1.239702 13.19824,3.09992 23.3856,5.580653 30.51554,5.624502 46.30613,8.526442 47.36912,8.703163 21.61307,3.631411 43.8254,6.599787 66.63566,8.902471 l 21.85756,0.265746 c 9.87776,0.35477 24.07122,3.299229 42.5857,8.836035 6.68749,1.993091 12.33458,3.942333 16.94128,5.846399 6.24501,-0.35477 10.34148,-0.243157 12.29072,0.332182 l 18.40287,0.265745 c 7.2203,2.391708 13.04412,6.400478 17.47276,12.02498 2.25884,2.879351 5.02658,7.862078 8.30455,14.948181 z M 369.30289,220.60692 c 0.13288,-0.53149 0.3096,-1.06298 0.53017,-1.59447 -0.17673,0.2219 -0.33219,0.46506 -0.46506,0.7308 -0.0425,0.26575 -0.0651,0.55408 -0.0651,0.86367 z m -1.12941,3.18895 c -0.0439,0.0438 -0.0664,0.089 -0.0664,0.13287 h 0.0664 z m -2.52459,5.24847 h -0.19931 c -0.17672,0.75206 -0.37603,1.59447 -0.59792,2.52458 0.17805,-0.22189 0.37736,-0.44246 0.59792,-0.66436 0.26575,-0.26575 0.55408,-0.57534 0.86368,-0.93011 0.22057,-0.84108 0.48631,-1.6835 0.79723,-2.52458 -0.0438,-0.30959 -0.0877,-0.59793 -0.13287,-0.86367 h -0.19931 c 0.0439,-0.089 0.11161,-0.17672 0.19931,-0.26575 -0.0438,-0.0438 -0.0664,-0.11028 -0.0664,-0.19931 -0.35477,0.79724 -0.51023,1.50545 -0.46638,2.12596 l -0.13287,0.13288 -0.39862,-0.0664 c -0.0877,0.26575 -0.17539,0.5089 -0.26442,0.7308 z m 78.26203,-39.19745 c -0.13287,0.3096 -0.24316,0.64178 -0.33218,0.99655 0.30959,0.66436 0.68695,1.41642 1.13074,2.25883 -0.0877,-0.66436 -0.1993,-1.48419 -0.33218,-2.45814 -0.17938,-0.26575 -0.33351,-0.53149 -0.46638,-0.79724 z m -8.30454,21.99044 c 0,0.26574 0,0.53149 0,0.79723 0.17804,0.84109 0.37735,1.66091 0.59792,2.45815 l -0.13287,-4.3848 c -0.1342,0.30959 -0.26575,0.62051 -0.39862,0.93011 0,0.0438 -0.0213,0.11028 -0.0664,0.19931 z m 6.90938,-0.19931 c -0.26575,-1.10683 -0.50891,-2.1924 -0.7308,-3.25539 0.0877,0.75339 0.19931,1.52804 0.33218,2.32528 0.13287,0.30959 0.26574,0.62051 0.39862,0.93011 z m 13.45336,-54.51103 c -0.0146,-0.0824 -0.003,-0.15945 0.0332,-0.23253 -0.0877,-0.13287 -0.17805,-0.26575 -0.26575,-0.39862 0.0824,0.20595 0.15945,0.41589 0.23253,0.63115 z m -39.8286,124.2692 c -0.22189,-1.50678 -0.37603,-2.7013 -0.46638,-3.58756 -0.0439,0.44379 -0.0877,0.9301 -0.13287,1.46292 0.22322,0.70822 0.4212,1.41643 0.59925,2.12464 z m 1.52804,10.62982 c 0,0.44246 0,0.9301 0,1.4616 0.2219,0.44379 0.42121,0.95269 0.59793,1.52803 -0.13288,-0.93011 -0.28834,-1.92665 -0.46506,-2.98963 z m -0.0664,19.00079 c 0.35477,1.24103 0.81983,2.50333 1.39517,3.7882 -0.48632,-1.94924 -0.92878,-3.87589 -1.32873,-5.78129 -0.0452,0.66437 -0.0664,1.32873 -0.0664,1.99309 z m 0.33218,-3.38825 c 0,-1.94924 -0.0877,-3.5663 -0.26574,-4.84985 0,0.75338 0,1.52803 0,2.32527 0,0.48764 0,0.99654 0,1.52803 0.089,0.3096 0.17672,0.64178 0.26574,0.99655 z m -66.1706,35.94207 c -1.72735,4.69439 -2.79033,7.61759 -3.18895,8.77092 0.93011,-2.34786 1.6835,-4.25192 2.25884,-5.71485 0.35477,-0.92878 0.70821,-1.83763 1.06298,-2.72389 0.089,-0.39862 0.17805,-0.79724 0.26574,-1.19453 -0.13287,0.22057 -0.24448,0.46506 -0.33218,0.7308 -0.0438,0.0425 -0.0664,0.0877 -0.0664,0.13155 z m -5.91284,28.7005 c -0.88493,1.99309 -1.63832,4.09647 -2.25884,6.31146 0.2219,-0.48765 0.46639,-1.01914 0.73213,-1.59448 0.3096,-0.93011 0.68695,-2.01568 1.12942,-3.25538 0.0439,-0.17805 0.11028,-0.33218 0.19931,-0.46505 0.0438,-0.35344 0.10896,-0.68563 0.19798,-0.99655 z m -2.85676,8.63673 c -0.089,0.35477 -0.15546,0.70821 -0.19931,1.06298 0.13287,-0.30959 0.26574,-0.59793 0.39862,-0.86367 v -0.33218 c 0,-0.0877 0.0226,-0.22057 0.0664,-0.39862 -0.089,0.17805 -0.17672,0.35477 -0.26574,0.53149 z m 1.39516,-0.86367 c -0.35477,0.88626 -0.68695,1.77119 -0.99655,2.65745 0.26575,-0.62052 0.55276,-1.26229 0.86235,-1.92665 0.0465,-0.26575 0.0904,-0.50891 0.1342,-0.7308 z m -0.66436,0.0664 c 0.35477,-0.62051 0.68695,-1.21711 0.99654,-1.79378 0.0877,-0.62051 0.19798,-1.21844 0.33218,-1.79511 -0.22189,0.39995 -0.41987,0.81983 -0.59792,1.26229 -0.39862,0.97396 -0.66437,1.77252 -0.79724,2.39171 z m -0.7308,8.37098 c -0.26575,0.66437 -0.48765,1.30614 -0.66437,1.92666 0.17672,-0.39862 0.35477,-0.75206 0.53017,-1.06298 0.0452,-0.3096 0.089,-0.59793 0.1342,-0.86368 z M 183.08179,167.05922 c -0.84108,-1.06298 -1.59447,-1.92665 -2.25884,-2.59102 -0.22189,-0.17672 -0.44246,-0.33218 -0.66436,-0.46505 0.0877,1.86022 0.17672,3.89848 0.26575,6.11214 0.30959,8.23811 1.26229,14.99203 2.85676,20.26309 v 17.33989 c 0.75206,0.84109 1.52804,1.77119 2.32527,2.79033 3.94101,4.96014 7.5299,10.38666 10.76269,16.27691 3.23412,5.97927 4.84985,10.16476 4.84985,12.55647 0,1.06298 -0.48764,4.40606 -1.46159,10.03189 0.17672,0.39861 0.37602,0.81849 0.59792,1.26096 1.55063,3.32182 2.63487,5.8464 3.25538,7.57374 1.10683,2.96705 1.99309,6.53335 2.65746,10.69626 1.19585,2.39303 2.05952,4.34095 2.59102,5.84639 -0.5315,-0.75205 -1.28488,-2.05952 -2.25884,-3.91974 0.089,0.79856 0.19931,1.59447 0.33218,2.39171 1.10683,1.90539 1.86022,3.52113 2.25884,4.84985 h -0.19931 c 0.57667,1.19586 1.08557,2.30269 1.52803,3.32182 h -0.53149 c -0.30959,-1.06298 -1.2397,-3.03348 -2.79032,-5.91284 0.13287,1.32873 0.287,2.56976 0.46505,3.72044 0,0.089 0.0226,0.17805 0.0664,0.26575 0.57534,1.41642 1.43901,3.49986 2.59102,6.24501 h -0.33219 c -0.79723,-1.81504 -1.50544,-3.4321 -2.12596,-4.84985 0.17672,1.50678 0.35477,2.87935 0.53149,4.12038 0.79724,1.63832 1.32873,2.98964 1.59447,4.05262 h -0.33218 c -0.13287,-0.44247 -0.46505,-1.24103 -0.99654,-2.39171 0.17672,1.32873 0.35477,2.34786 0.53149,3.05607 0.0877,0.35477 0.17672,0.7308 0.26574,1.12942 0.44247,1.50678 0.9527,3.07866 1.52804,4.71831 l -0.13287,0.13287 c -0.3096,-0.48631 -0.59793,-1.01913 -0.86368,-1.59447 0.0452,0.30959 0.11029,0.64178 0.19931,0.99655 0.39862,1.24103 0.88626,2.65745 1.4616,4.25192 -0.39862,-0.79723 -0.84108,-1.83895 -1.32872,-3.12251 0.13287,0.84109 0.28833,1.74861 0.46505,2.7239 1.01913,2.87802 1.52804,5.07042 1.52804,6.57719 v 0.46373 c -0.0438,-0.0438 -0.0877,-0.0438 -0.13288,0 h -0.19931 c -0.0877,-0.53149 -0.22189,-1.12942 -0.39861,-1.79378 0.0438,0.39862 0.089,0.79723 0.13287,1.19452 0.30959,2.08079 0.59793,4.03003 0.86367,5.8464 0.48764,1.37258 1.06298,2.94579 1.72735,4.71698 h -0.33218 c -0.2219,-0.53149 -0.61919,-1.68349 -1.19586,-3.45469 0.30959,1.72735 0.62052,3.32182 0.93011,4.78342 0.79724,1.81504 1.32873,3.21154 1.59447,4.18549 l -0.13287,0.13287 c -0.35477,-0.75205 -0.68695,-1.43901 -0.99655,-2.05952 0.0877,0.48631 0.19931,0.97395 0.33219,1.4616 0.22189,0.79856 0.41987,1.63832 0.59792,2.52458 0.35477,1.28488 0.53149,2.25884 0.53149,2.9232 v 0.46505 h -0.0664 c 0.13287,0.93011 0.2219,1.92666 0.26574,2.98964 0.26575,0.75206 0.53149,1.57321 0.79724,2.45814 -0.26575,-0.35477 -0.5089,-0.75206 -0.7308,-1.19452 0.0438,0.84108 0.0664,1.72734 0.0664,2.65745 0.66436,1.63832 1.06298,2.65746 1.19585,3.05608 -0.35477,-0.62052 -0.75339,-1.4616 -1.19585,-2.52459 0,0.17805 0,0.37736 0,0.59793 0.39861,1.6835 0.84108,3.54372 1.32872,5.58065 h -0.33218 c -0.30959,-1.4616 -0.64177,-2.96704 -0.99654,-4.51767 -0.0439,0.26575 -0.0664,0.53149 -0.0664,0.79857 -0.0439,0.88493 -0.089,1.85889 -0.13287,2.9232 0.30959,1.85889 0.59792,3.3444 0.86367,4.45123 v 2.1924 l -0.13287,0.13288 c -0.26575,-2.21499 -0.50891,-3.9636 -0.7308,-5.24848 0,-0.0877 0,-0.19798 0,-0.33218 -0.0877,1.01914 -0.15546,2.10471 -0.19931,3.25538 0.57534,2.79033 0.93011,4.67314 1.06298,5.64709 h -0.33218 c -0.13288,-1.24103 -0.37603,-2.76774 -0.7308,-4.58411 0.089,0.66437 0.19931,1.46293 0.33218,2.39171 0.44247,2.52458 0.68695,4.03136 0.7308,4.51768 h -0.33218 c -0.35477,-1.9931 -0.64178,-3.67659 -0.86368,-5.04917 -0.0877,1.5493 -0.17672,3.23412 -0.26574,5.04917 0,9.16821 0.66436,18.4693 1.99309,27.90326 0.79724,-0.88626 1.9705,-1.72734 3.52113,-2.52458 1.99309,-1.01913 5.82381,-2.83417 11.49349,-5.44778 0.30959,-0.17805 4.73957,-1.21844 13.28727,-3.12251 8.14908,-1.81637 12.79963,-3.32181 13.95163,-4.51767 1.06298,-1.10683 1.94924,-2.96705 2.65746,-5.58065 0.93011,-3.23412 1.48418,-5.02658 1.6609,-5.38135 0.35478,-0.70821 0.64178,-1.68349 0.86368,-2.9232 -0.79724,1.50678 -1.66091,3.1451 -2.59102,4.91629 h -0.53149 c 0.57667,-1.01913 1.26229,-2.23757 2.05953,-3.654 0,-0.22189 0.0226,-0.44246 0.0664,-0.66436 h -0.13287 c 0.0452,-0.39862 0.11028,-0.84241 0.19931,-1.32873 h -0.19931 c 0.17672,-0.53149 0.35477,-1.08424 0.53149,-1.66091 0.26575,-1.06298 0.61919,-2.1924 1.06298,-3.38825 0,-0.57667 0,-1.17459 0,-1.79511 -0.39862,0.93011 -0.7308,1.83896 -0.99654,2.72522 -0.0439,0.17672 -0.0664,0.33218 -0.0664,0.46505 h -0.0664 c -0.35477,1.19586 -0.55408,2.30269 -0.59792,3.32182 h -0.19931 v -1.99309 c 0.13287,-0.48631 0.28833,-0.99654 0.46505,-1.52804 -0.0877,0.17805 -0.17672,0.35477 -0.26574,0.5315 l -0.13288,-0.0664 c -0.0438,0.26574 -0.0664,0.5089 -0.0664,0.7308 h -0.33218 c -0.0439,-3.09992 0.46505,-6.71007 1.52803,-10.82913 -0.089,-0.0438 -0.15546,-0.0877 -0.19931,-0.13287 h 0.26575 c 0.17672,-0.84241 0.39862,-1.70476 0.66436,-2.59102 0.13287,-0.39862 0.26575,-0.84108 0.39862,-1.32872 0.13287,-1.5493 0.28833,-3.07734 0.46505,-4.58411 -0.62051,1.46293 -0.95269,2.28142 -0.99654,2.45947 -0.84108,2.25884 -1.52804,4.3848 -2.05953,6.37789 -0.0439,0.2219 -0.0664,0.44247 -0.0664,0.66436 h -0.0664 c -0.44247,1.7712 -0.75339,3.43211 -0.93011,4.98273 h -0.33218 c 0.17672,-3.01222 0.75339,-6.15732 1.72734,-9.43396 0.17672,-0.79857 0.39862,-1.63832 0.66437,-2.52458 0.2219,-2.12597 0.70821,-4.56285 1.4616,-7.308 l -0.0664,-0.0664 c -0.88626,2.30269 -1.37257,4.31836 -1.4616,6.04571 h -0.33218 c 0.2219,-2.9232 1.17327,-6.4895 2.85676,-10.69625 0.26575,-0.70821 0.55408,-1.35132 0.86368,-1.92666 0.48764,-2.6136 1.39516,-5.38134 2.72389,-8.30454 0.0438,-0.17805 0.089,-0.33218 0.13287,-0.46506 0.089,-0.35477 0.19931,-0.73212 0.33218,-1.13074 -0.48764,0.93011 -0.99654,1.92665 -1.52804,2.98963 -1.94924,4.16423 -3.18894,7.79564 -3.72043,10.89557 h -0.33218 c 0.62051,-3.23413 1.81637,-6.86554 3.58756,-10.89557 0.88626,-1.94924 1.86022,-3.87457 2.9232,-5.77996 3.05607,-9.16822 7.72788,-19.64257 14.01807,-31.4244 1.28488,-2.43555 2.94579,-5.1156 4.98273,-8.03879 0.97395,-6.59979 2.87935,-15.19267 5.71352,-25.77731 0.88626,-3.32182 3.40952,-11.95854 7.57375,-25.91018 0,-0.57667 0.0226,-1.12942 0.0664,-1.66091 -0.39861,0.39862 -0.84108,0.68695 -1.32872,0.86367 0.53149,-1.28487 1.01913,-2.43555 1.46293,-3.45469 0.0877,-1.68349 0.19798,-3.36566 0.33218,-5.04916 -0.62052,1.32873 -1.21845,2.79033 -1.79511,4.3848 l -0.13288,0.13287 c -0.0877,0 -0.15546,-0.0226 -0.1993,-0.0664 v -0.53149 c 0,-0.0877 0.0226,-0.2219 0.0664,-0.39862 h -0.39862 c 0.4438,-0.70821 1.30614,-2.34786 2.59102,-4.91629 0.0439,-0.66437 0.11029,-1.32873 0.19931,-1.99309 -0.75339,1.3739 -1.39649,2.56976 -1.92665,3.58756 h -0.19931 c 0.66436,-1.28488 1.41642,-2.72389 2.25883,-4.31836 0.13288,-1.55063 0.3096,-3.12251 0.53149,-4.71698 -0.88626,1.63832 -1.52803,3.09992 -1.92665,4.3848 -0.1342,0.39861 -0.19931,0.30959 -0.19931,-0.26575 0,-0.79724 0.75206,-2.39171 2.25884,-4.78342 0.0438,-0.48764 0.11028,-0.97395 0.19931,-1.4616 -1.37391,2.43556 -2.28143,4.1629 -2.72522,5.18204 h -0.39862 c 0.79856,-1.63832 1.8828,-3.69785 3.25538,-6.17858 0.17805,-1.10683 0.35477,-2.21499 0.53149,-3.32182 -0.0452,0.0439 -0.0678,0.0877 -0.0678,0.13287 -0.66437,1.06298 -1.21712,2.01568 -1.66091,2.85677 v 0.0664 l -0.0664,0.0664 c -0.62052,1.4616 -1.43901,3.58756 -2.45814,6.37789 h -0.19931 c 0.84241,-3.45469 1.57321,-6.0683 2.1924,-7.83949 0.0877,-0.17672 0.15413,-0.35477 0.19798,-0.53149 -0.0439,0 -0.0664,-0.17672 -0.0664,-0.53149 0,-0.70821 0.66436,-2.2801 1.99309,-4.71698 0.4438,-0.84109 0.88626,-1.59448 1.32873,-2.25884 0.0438,-0.2219 0.0877,-0.44247 0.1342,-0.66436 -0.30959,0.48764 -0.64178,0.99654 -0.99655,1.52803 -1.55062,2.39171 -2.52458,3.9636 -2.9232,4.71698 l -0.1993,-0.13287 c 0.70821,-0.97396 1.77252,-2.76774 3.18894,-5.38134 0.48631,-0.84109 0.90885,-1.57322 1.26229,-2.1924 0.0439,-0.13288 0.0664,-0.26575 0.0664,-0.39862 -0.0877,0.13287 -0.17805,0.28833 -0.26575,0.46505 -1.24103,2.03694 -2.03694,3.47728 -2.39171,4.31837 -0.0877,0 -0.15546,0 -0.19931,0 v -0.46506 c 0,-0.2219 0.66437,-1.52803 1.99309,-3.91974 0.5315,-0.97396 0.97396,-1.74994 1.32873,-2.32528 0.35477,-1.63832 0.7308,-3.21153 1.13075,-4.71698 -1.10816,0.48765 -2.1924,0.9527 -3.25538,1.39517 -0.39862,0.53149 -0.9527,1.21844 -1.66091,2.05952 l -0.0664,-0.0664 c -0.53149,0.61918 -0.84241,0.97395 -0.93011,1.06298 l -0.19931,-0.13287 c 0.35477,-0.70822 0.90885,-1.50545 1.66091,-2.39171 -0.0877,0 -0.13287,0.0226 -0.13287,0.0664 -2.03694,1.06298 -3.38825,1.81637 -4.05262,2.25884 -2.17114,1.37257 -3.36699,2.48073 -3.58756,3.32182 l -0.53149,-0.13288 c 0.44379,-0.57533 1.86022,-1.72734 4.25193,-3.45469 0.48631,-0.35477 1.01913,-0.7308 1.59447,-1.12941 -1.32873,0.48764 -2.63487,0.95269 -3.91975,1.39516 -1.90539,1.59447 -3.32182,2.76774 -4.25192,3.52113 0.44379,-0.70822 1.44034,-1.72735 2.98963,-3.05608 -1.15068,0.35477 -2.28142,0.68696 -3.38825,0.99655 -1.41643,0.61919 -2.17114,1.08424 -2.25884,1.39516 -0.0877,0.089 -0.30959,0.13288 -0.66436,0.13288 -0.0877,0.17672 -0.13287,0 -0.13287,-0.5315 -0.88627,0.44247 -1.88281,0.97396 -2.98964,1.59448 -0.0438,0 -0.0877,0 -0.1342,0 -0.66437,0.48764 -1.35132,0.93011 -2.05953,1.32872 -0.0877,0.17672 -0.13287,0.11029 -0.13287,-0.1993 -0.2219,0.26574 -0.4438,0.53149 -0.66437,0.79723 l -0.53149,-0.13287 c 0.26575,-0.62052 0.9527,-1.43901 2.05953,-2.45815 -0.61919,0.13288 -1.21711,0.26575 -1.79378,0.39862 -0.44247,0.26575 -0.88626,0.55408 -1.32873,0.86367 -1.90539,1.23971 -3.40951,2.21499 -4.51767,2.9232 l -0.0664,1.12942 -0.13287,0.13287 c -0.0439,-0.39861 -0.0664,-0.77464 -0.0664,-1.12941 -0.089,0.0438 -0.17804,0.089 -0.26574,0.13287 l -0.19931,-0.13287 c 0.1342,-0.13288 0.26575,-0.24316 0.39862,-0.33219 -0.0877,-1.01913 -0.17672,-1.86021 -0.26442,-2.52458 -0.44379,0.0439 -0.86367,0.089 -1.26229,0.13288 -0.39862,0.84108 -0.77465,1.55062 -1.12942,2.12596 0.13288,0.35477 0.2219,0.66436 0.26575,0.93011 l -0.13287,0.13287 c -0.13288,-0.13287 -0.26575,-0.33218 -0.39862,-0.59793 -0.0877,0.089 -0.17672,0.17672 -0.26575,0.26575 -0.2219,-0.0438 -0.37736,-0.11029 -0.46505,-0.19931 -0.0438,-0.0438 -0.0664,-0.24449 -0.0664,-0.59793 0,-0.22189 0.089,-0.48764 0.26575,-0.79723 l -0.0664,-0.13288 c -0.13287,0.17672 -0.24449,0.35477 -0.33218,0.53149 v 0.0664 c 0,0.48764 -0.2219,0.86367 -0.66437,1.12942 -0.35477,-0.2219 -1.17326,-0.97396 -2.45814,-2.25884 -0.26575,0 -0.53149,0.0226 -0.79724,0.0664 0.17672,0.13287 0.37603,0.28833 0.59793,0.46505 1.01913,0.88627 1.72735,1.4616 2.12596,1.72735 -1.10683,0.0439 -2.08078,-0.42121 -2.9232,-1.39516 -0.22189,-0.3096 -0.4212,-0.55408 -0.59792,-0.7308 -0.48765,0 -0.97396,0.0226 -1.4616,0.0664 1.19585,0.39862 1.92665,0.68695 2.1924,0.86367 v 0.19931 c -1.94925,-0.44246 -3.34441,-0.77464 -4.18549,-0.99654 -0.0439,0 -0.0877,0 -0.13288,0 h -0.7308 c 1.41776,0.39862 2.25884,0.7308 2.52459,0.99654 -1.10683,0.13288 -2.43556,-0.0664 -3.98619,-0.59792 -0.44246,-0.13288 -0.84108,-0.26575 -1.19585,-0.39862 h -2.9232 c 1.32873,0.79723 2.59102,1.2397 3.78687,1.32873 0.0452,0.089 -0.19931,0.13287 -0.7308,0.13287 -1.90406,0 -3.47728,-0.46506 -4.71698,-1.39517 -0.0452,0 -0.0664,-0.0226 -0.0664,-0.0664 h -1.4616 l 3.32181,1.32873 c -0.93011,-0.2219 -1.7486,-0.44247 -2.45814,-0.66437 -1.63832,-0.089 -3.4321,-0.30959 -5.38135,-0.66436 h -0.13287 c 1.28488,0.30959 2.72389,0.64177 4.31836,0.99654 -0.13287,0.13288 -0.61918,0.19931 -1.4616,0.19931 -1.152,0 -2.74648,-0.26574 -4.78341,-0.79723 -1.24103,-0.0877 -2.45815,-0.2219 -3.654,-0.39862 h -1.79378 c 1.28487,0.26574 2.36912,0.48764 3.25538,0.66436 l 0.79723,0.33218 c -0.13287,0.13288 -0.57534,0.19931 -1.32872,0.19931 -2.9232,0 -5.66968,-0.39862 -8.23811,-1.19585 -0.3096,0 -0.62052,0 -0.93011,0 1.90539,0.70821 4.0752,1.26229 6.51076,1.66091 -2.96705,-0.3096 -5.4026,-0.81983 -7.308,-1.52804 0,0.0439 0,0.0877 0,0.13287 l 3.32182,1.39517 c -1.19585,-0.44247 -2.36912,-0.88626 -3.52113,-1.32873 -0.13287,0 -0.30959,0 -0.53149,0 -0.089,0 -0.15546,0 -0.19931,0 2.56843,1.37258 4.76083,2.36912 6.5772,2.98964 -1.90406,-0.3096 -4.03003,-1.08557 -6.37789,-2.32528 -0.66436,-0.35477 -1.30614,-0.68695 -1.92665,-0.99654 -0.13287,-0.0439 -0.26575,-0.089 -0.39862,-0.13287 -0.2219,0.089 -0.55408,0.13287 -0.99655,0.13287 -0.089,0 -0.17672,0 -0.26574,0 0.70954,0.30959 1.43901,0.57534 2.1924,0.79723 v 0.19931 c -1.06298,-0.35477 -2.01568,-0.68695 -2.85676,-0.99654 -0.66437,-0.13287 -1.55063,-0.37603 -2.65746,-0.7308 -1.81637,-0.30959 -3.63141,-0.68695 -5.44778,-1.12942 1.10683,0.66436 2.32527,1.21844 3.654,1.66091 v 0.19798 c 0.26575,0.089 0.55408,0.2219 0.86367,0.39862 1.37258,0.44246 2.79033,0.79723 4.25193,1.06298 0.39862,0.13287 0.30959,0.19931 -0.26575,0.19931 -0.48764,0 -0.99654,-0.0439 -1.52803,-0.13287 v 0.13287 c -0.17672,-0.089 -0.33218,-0.15546 -0.46506,-0.19931 -1.55062,-0.35477 -3.38825,-1.01913 -5.51421,-1.99309 -1.4616,-0.70821 -2.59102,-1.37258 -3.38826,-1.99309 -0.2219,-0.0439 -0.39862,-0.089 -0.53149,-0.13287 0.39862,0.48764 0.7308,0.90752 0.99655,1.26229 0.39861,0.30959 0.75338,0.55408 1.06298,0.7308 -0.26575,-0.13288 -0.55408,-0.28834 -0.86367,-0.46506 0,0.0439 0.0226,0.089 0.0664,0.13287 0.17672,0.089 0.33218,0.15547 0.46506,0.19931 2.3917,1.15201 4.82726,2.08212 7.308,2.79033 -2.12597,-0.35477 -4.76083,-1.28488 -7.90593,-2.79033 -0.13287,0 -0.26575,0 -0.39862,0 0.75339,0.79724 1.19586,1.28488 1.32873,1.4616 -0.44247,-0.26574 -1.0404,-0.75338 -1.79378,-1.4616 -0.57667,0 -1.15201,-0.0877 -1.72735,-0.26574 0.66436,0.70821 1.12942,1.2397 1.39516,1.59447 v 0.13287 c -0.57666,-0.48764 -1.28487,-1.152 -2.12596,-1.99309 -0.26574,-0.089 -0.5089,-0.17672 -0.7308,-0.26574 0.57667,0.44246 1.19586,0.93011 1.86022,1.4616 v 0.13287 c -1.06298,-0.66436 -2.05953,-1.28488 -2.98964,-1.86022 v 0.19931 c 0.13288,0.089 0.17672,0.17672 0.13288,0.26575 0.26574,0.17672 0.55408,0.37603 0.86367,0.59792 v 0.13288 c -0.35477,-0.2219 -0.68695,-0.44247 -0.99655,-0.66437 -0.089,0 -0.24448,0 -0.46505,0 -0.17672,0 -0.35477,-0.0226 -0.53149,-0.0664 0.93011,0.75206 2.03694,1.61573 3.32182,2.59101 v 0.13288 c -0.84109,-0.57534 -1.61707,-1.10683 -2.32528,-1.59448 0.44247,0.35477 0.88626,0.7308 1.32873,1.12942 v 0.13288 c -1.24103,-0.79724 -2.65745,-1.81637 -4.25193,-3.05608 0.26575,0.53149 0.39862,0.93011 0.39862,1.19586 0,0.17672 0,0.30959 0,0.39862 0.39862,0.35477 0.84109,0.7308 1.32873,1.12941 -2.03694,-1.28488 -4.03003,-2.90061 -5.97927,-4.84985 -0.35477,-0.30959 -0.66437,-0.62052 -0.93011,-0.93011 0.0877,0.30959 0.13287,0.62052 0.13287,0.93011 0.88626,0.88626 1.88281,1.83763 2.98964,2.85676 -0.66437,-0.44246 -1.66091,-1.32872 -2.98964,-2.65745 0,0.13287 0,0.24316 0,0.33218 1.15201,1.2397 1.9705,2.16981 2.45815,2.79033 l -0.13288,0.19931 c -0.88626,-0.79724 -1.74993,-1.57189 -2.59101,-2.32528 -0.17673,0.2219 -0.42121,0.33219 -0.7308,0.33219 -0.70955,0 -1.12942,-0.33219 -1.2623,-0.99655 -0.089,-0.66436 -0.44246,-0.99654 -1.06298,-0.99654 -0.26574,0 -2.54717,-2.43556 -6.84294,-7.308 h -0.99655 c -0.17672,0 -0.33218,0 -0.46505,0 -0.70954,0 -1.41775,-0.0226 -2.12596,-0.0664 -6.55329,-0.30959 -10.78395,-1.41775 -12.68802,-3.32182 z m 26.70741,10.09833 c 1.24104,1.28488 2.83418,2.76774 4.78342,4.45123 -0.30959,-0.53149 -0.75339,-1.28488 -1.32872,-2.25883 -0.5315,-0.39862 -1.08557,-0.86368 -1.66091,-1.39517 -0.17672,-0.17672 -0.35477,-0.33218 -0.53149,-0.46505 -0.0439,-0.0439 -0.089,-0.0664 -0.13288,-0.0664 0.44247,0.62052 0.79724,1.06298 1.06298,1.32873 -0.66436,-0.35477 -1.35131,-0.88626 -2.05952,-1.59447 -0.0438,0 -0.089,0 -0.13288,0 z m 17.14058,4.91629 c -0.75206,-0.35477 -1.77119,-0.90752 -3.05607,-1.66091 -0.30959,-0.13287 -0.62051,-0.2219 -0.93011,-0.26575 0.57667,0.3096 1.26229,0.66437 2.05953,1.06299 0.62052,0.30959 1.26229,0.59792 1.92665,0.86367 z m 51.8868,1.59447 c 1.19585,-1.10683 2.39304,-2.08211 3.58756,-2.9232 -1.19452,0.2219 -2.39171,0.42121 -3.58756,0.59793 0,0.30959 0,0.66436 0,1.06298 z m -3.52113,-1.66091 c 0,0.0439 0.0226,0.0877 0.0664,0.13287 0.089,-0.13287 0.17672,-0.26574 0.26574,-0.39861 -0.089,0 -0.15546,0 -0.19931,0 -0.0438,0.089 -0.089,0.17672 -0.13287,0.26574 z m -19.66516,0.39862 h -0.59793 c 0.57534,0.13287 1.19586,0.26575 1.86022,0.39862 -0.44247,-0.13287 -0.86367,-0.26575 -1.26229,-0.39862 z m 50.15945,3.78687 c 0.30959,-0.53149 0.61918,-0.99654 0.92878,-1.39516 0.0452,-0.39862 0.11161,-0.77465 0.19931,-1.12942 -0.66437,1.2397 -1.19586,2.25884 -1.59448,3.05607 0.13421,-0.22189 0.28967,-0.39862 0.46639,-0.53149 z M 85.61966,24.420368 c 0.26574,-0.620516 0.59792,-1.284879 0.99654,-1.993091 -0.57667,0.75206 -1.12942,1.550625 -1.66091,2.391709 v 0.06644 l -0.0664,0.06644 c -0.0877,0.265745 -0.19931,0.554079 -0.33218,0.863672 0.35477,-0.531491 0.70821,-0.996545 1.06298,-1.395163 z M 38.98134,48.736074 h 0.0664 c 0,-0.03853 0.0226,-0.06112 0.0664,-0.06644 -0.0492,0.0053 -0.0943,0.0279 -0.13287,0.06644 z m -0.59793,-1.926655 c 0,-0.17672 0.0226,-0.332181 0.0664,-0.465054 -0.66436,0.973957 -1.284877,1.949242 -1.860216,2.923199 0.620516,-0.886261 1.173266,-1.63832 1.660906,-2.258836 0.0438,-0.08902 0.089,-0.155461 0.13288,-0.199309 z m 5.91284,-2.258836 c -0.17672,0.309594 -0.39862,0.664364 -0.66437,1.062982 0,0.04518 0,0.132873 0,0.265745 0,0.08902 -0.0226,0.221898 -0.0664,0.398618 0.26575,-0.17672 0.53149,-0.332181 0.79724,-0.465054 0.13287,-0.265745 0.26575,-0.508902 0.39862,-0.7308 -0.0452,0.08902 -0.0664,0.176721 -0.0664,0.265746 0.17672,-0.354771 0.35477,-0.686952 0.53149,-0.996546 z m 0.59792,3.853309 c -0.17672,0.221897 -0.37603,0.487643 -0.59792,0.797236 0.26574,-0.35477 0.53149,-0.664363 0.79723,-0.930109 -0.089,0 -0.15546,0.04385 -0.19931,0.132873 z m 1.26229,-0.797236 c -0.44246,0.487642 -0.97395,1.062981 -1.59447,1.727345 -0.39862,0.442466 -0.79723,0.886261 -1.19585,1.328727 0.66436,-0.487643 1.37257,-1.195854 2.12596,-2.125963 0.26575,-0.309594 0.53149,-0.641776 0.79724,-0.996546 -0.0439,0.04385 -0.089,0.06644 -0.13288,0.06644 z m -2.79032,-0.930109 c -0.26575,0.708211 -0.75206,1.81637 -1.4616,3.321817 h 0.0664 c 0.70821,-1.284879 1.50545,-2.657454 2.39171,-4.119054 -0.17672,0.132873 -0.50891,0.398618 -0.99655,0.797237 z m 4.84985,-1.328727 c -0.13287,0.17672 -0.33218,0.398618 -0.59793,0.664363 -0.0439,0.132873 -0.089,0.265745 -0.13287,0.398618 h 0.13287 c 0.2219,-0.35477 0.42121,-0.708211 0.59793,-1.062981 z m -0.99654,1.727345 c -0.17407,0.349455 -0.37338,0.714855 -0.59793,1.0962 0.0505,-0.06644 0.11693,-0.09966 0.19931,-0.09966 0.13287,-0.35477 0.28833,-0.686952 0.46505,-0.996545 z m 0.13287,0.465054 c 0.17672,-0.265745 0.37603,-0.508902 0.59793,-0.7308 -0.089,0 -0.15546,0.02259 -0.19931,0.06644 -0.13288,0.221897 -0.26575,0.442466 -0.39862,0.664363 z m 5.8464,-2.059527 c -0.085,0.08504 -0.13022,0.174063 -0.13287,0.265746 0.003,-0.04385 0.0252,-0.06644 0.0664,-0.06644 0.0438,-0.08902 0.089,-0.17672 0.13287,-0.265745 z m 3.98618,-2.989636 v 0.06644 c 0.0452,-0.04385 0.089,-0.08902 0.13287,-0.132873 -0.0439,0 -0.089,0.02259 -0.13287,0.06644 z m 1.06298,-0.797236 c 0.97396,-0.973957 1.92666,-1.860218 2.85676,-2.657454 -0.70821,0.487643 -1.52803,1.173266 -2.45814,2.059527 -0.13287,0.17672 -0.26575,0.37603 -0.39862,0.597927 z m -2.65745,2.723891 c 0.0438,-0.0877 0.0877,-0.176721 0.13287,-0.265746 0.0226,-0.03322 0.0439,-0.06777 0.0664,-0.09965 -0.18868,0.178049 -0.36673,0.366728 -0.53149,0.564709 0.0439,-0.04385 0.11028,-0.06644 0.19931,-0.06644 0.0438,-0.08902 0.089,-0.132872 0.13287,-0.132872 z m 12.29072,-4.783418 c -0.089,0 -0.13287,0.02259 -0.13287,0.06644 -0.089,0.176721 -0.15546,0.35477 -0.19931,0.531491 0.089,-0.221897 0.19931,-0.421206 0.33218,-0.597927 z m 1.06298,-0.996545 c -0.2219,0.576667 -0.48764,1.241031 -0.79723,1.99309 -0.17672,0.442466 -0.33219,0.863673 -0.46506,1.262291 0.0877,-0.08902 0.15546,-0.155461 0.19931,-0.199309 0.2219,-0.576668 0.46505,-1.195854 0.7308,-1.860218 0.35477,-0.886261 0.68695,-1.706086 0.99655,-2.458145 -0.2219,0.398618 -0.44247,0.819825 -0.66437,1.262291 z M 41.30661,49.865492 c 0.0877,-0.221898 0.17672,-0.421207 0.26575,-0.597928 -0.0877,0.132873 -0.17672,0.265746 -0.26575,0.398619 z m -4.251925,0.465054 c 0.221897,-0.309593 0.465054,-0.597927 0.730795,-0.863672 0.0439,-0.221898 0.11029,-0.442467 0.19931,-0.664364 -0.13287,0.221897 -0.26574,0.442466 -0.39861,0.664364 v 0.06644 h -0.06644 c -0.176721,0.265745 -0.332182,0.531491 -0.465054,0.797236 z m 1.195855,-0.265745 c -0.17672,0.17672 -0.35477,0.35477 -0.53149,0.531491 -0.0877,0.132872 -0.15546,0.288333 -0.199311,0.465054 0.132871,-0.132873 0.265741,-0.243157 0.398621,-0.332182 0.089,-0.221897 0.19931,-0.442466 0.33218,-0.664363 z m -0.797237,2.458144 v 0.132873 c 0.265747,-0.132873 0.907517,-0.930108 1.926657,-2.391708 -0.48765,0.35477 -0.90752,0.7308 -1.26229,1.129418 -0.17672,0.221897 -0.33219,0.442466 -0.46506,0.664363 0.30959,-0.265745 0.62052,-0.53149 0.93011,-0.797236 -0.44247,0.442466 -0.84108,0.88626 -1.195854,1.328726 0,0.08902 0.02259,0.06644 0.06644,-0.06644 z m -0.996546,-0.730799 c -0.08902,0.04385 -0.17672,0.132873 -0.265745,0.265745 -0.265745,0.309593 -0.508902,0.664363 -0.7308,1.062981 0.04385,-0.04518 0.0877,-0.06644 0.132873,-0.06644 0.04518,0 0.110284,-0.06644 0.199309,-0.199309 0.0877,-0.08903 0.199309,-0.221897 0.332182,-0.398618 0.08902,-0.176721 0.199309,-0.398618 0.332181,-0.664363 z m -3.45469,1.860217 c -0.35477,0.575339 -0.7308,1.218443 -1.129418,1.926654 0.309593,-0.442466 0.641775,-0.863672 0.996545,-1.26229 0.04385,-0.265746 0.08902,-0.487643 0.132873,-0.664364 z m -7.374435,9.832581 c -0.0877,0.08902 -0.155461,0.199309 -0.199309,0.332181 l -0.19931,0.332182 c -0.17672,0.35477 -0.35477,0.7308 -0.53149,1.129418 -0.04385,0.132873 -0.08902,0.265746 -0.132873,0.398618 0.08903,-0.0877 0.199309,-0.199309 0.332182,-0.332181 0.398618,-0.841085 0.952697,-1.771194 1.660909,-2.790327 -0.354771,0.309593 -0.664364,0.620515 -0.930109,0.930109 z m 3.321817,-4.119054 c 0.132873,-0.176721 0.265746,-0.332182 0.398619,-0.465055 0.17672,-0.309593 0.332181,-0.597927 0.465054,-0.863673 -1.328727,1.195855 -2.458145,2.524582 -3.388254,3.986182 l 0.398618,0.132873 c 0.620516,-0.886261 1.328727,-1.81637 2.125963,-2.790327 z m -0.132872,2.391708 c 0.17672,-0.221897 0.376029,-0.465054 0.597927,-0.7308 -0.132873,0.04385 -0.243157,0.110285 -0.332182,0.19931 -0.08903,0.17672 -0.176721,0.35477 -0.265745,0.53149 z m -6.245018,6.112145 c 0.08902,-0.132873 0.199309,-0.265745 0.332182,-0.398618 h -0.132873 c -0.08902,0.132873 -0.155461,0.265745 -0.199309,0.398618 z m 0.996546,-1.129418 c 0.221897,-0.620516 0.508902,-1.241031 0.863672,-1.860218 -0.575339,0.70954 -1.084241,1.484188 -1.528036,2.325272 0.221898,-0.17672 0.442466,-0.332181 0.664364,-0.465054 z m -8.038799,22.721234 c -0.35477,1.152007 -0.531491,2.148552 -0.531491,2.989636 0,1.860218 0.508902,3.919745 1.528036,6.178581 -0.35477,-1.373904 -0.531491,-2.680042 -0.531491,-3.919745 v -2.790327 h 0.199309 c 0,0.797237 0.04385,1.573213 0.132873,2.325273 0,-0.487643 0.02259,-0.930109 0.06644,-1.328727 -0.04385,-0.0877 -0.06644,-0.155461 -0.06644,-0.199309 v -0.199309 c -0.221897,-1.372576 -0.332182,-2.082116 -0.332182,-2.125964 0,-0.487643 0,-0.886261 0,-1.195854 -0.04385,-0.265746 -0.06644,-0.531491 -0.06644,-0.797236 -0.132873,0.265745 -0.265746,0.620515 -0.398618,1.062981 z m 1.26229,7.83949 c 0.265746,1.328727 0.620516,2.612278 1.062982,3.853311 0.0877,0.26574 0.221898,0.5089 0.398618,0.7308 -0.398618,-1.10683 -0.774648,-2.547172 -1.129418,-4.318365 -0.0877,-0.487643 -0.155461,-0.952698 -0.199309,-1.395164 0.08902,0.620516 0.221898,1.218443 0.398618,1.793782 0.309594,1.106829 0.641775,2.080787 0.996546,2.923197 -0.176721,-0.930107 -0.354771,-1.816368 -0.531491,-2.657452 -0.487643,-1.239702 -0.863673,-2.458145 -1.129418,-3.653999 0,0.973957 0.04385,1.882806 0.132872,2.72389 z m 1.395164,5.779961 c -0.309594,-0.66436 -0.597927,-1.30614 -0.863673,-1.92665 0.487643,2.08078 1.152007,3.56497 1.993091,4.45123 -0.04385,-0.17672 -0.06644,-0.35477 -0.06644,-0.53149 -0.398619,-0.66436 -0.753389,-1.32872 -1.062982,-1.99309 z m 0.797236,0.79724 c -0.04385,-0.17672 -0.0877,-0.33218 -0.132873,-0.46506 -0.132872,-0.17672 -0.244485,-0.35477 -0.332181,-0.53149 0.132872,0.35477 0.288333,0.68695 0.465054,0.99655 z m 90.353444,75.4717 v 2.65745 c 0,0.13287 0.0226,0.28701 0.0664,0.46506 0,-0.0877 0.0226,-0.17672 0.0664,-0.26575 v -2.45814 c -0.0438,-0.13288 -0.089,-0.26575 -0.13287,-0.39862 z m -0.53149,2.1924 c -0.0438,-1.55063 -0.0664,-2.7013 -0.0664,-3.45469 -0.13287,1.55062 -0.24449,3.38825 -0.33218,5.51421 0.13287,-0.57533 0.26574,-1.26229 0.39862,-2.05952 z m 5.18203,15.67898 c 0,0.12888 0,0.27239 0,0.43183 0.003,-0.1156 0.0252,-0.21658 0.0664,-0.29896 -0.0425,-0.0425 -0.0651,-0.0864 -0.0664,-0.13287 z m 0.99655,6.34467 c 0.004,-0.17141 0.0266,-0.3375 0.0664,-0.49827 -0.0425,-0.0425 -0.0651,-0.0864 -0.0664,-0.13288 0,0.20596 0,0.4159 0,0.63115 z m 1.39516,-1.49482 c 0.2219,0.97396 0.46505,2.03827 0.7308,3.18895 -0.0438,-0.39862 -0.0877,-0.84109 -0.13287,-1.32873 -0.17672,-0.62052 -0.37603,-1.2397 -0.59793,-1.86022 z m 5.64709,17.73851 c -0.0425,-0.0425 -0.0651,-0.0864 -0.0664,-0.13287 0,0.0465 0,0.0904 0,0.13287 -0.0438,0.17672 -0.0438,0.35477 0,0.53149 z m -1.99309,-6.17858 c -0.0439,-0.17672 -0.089,-0.35477 -0.13287,-0.53149 0,0.17672 0,0.35477 0,0.53149 z m 7.308,23.25272 c 0,0.0438 0.0226,0.11029 0.0664,0.19931 0,-0.17672 0.0226,-0.33218 0.0664,-0.46505 -0.13287,-0.3096 -0.2219,-0.59793 -0.26574,-0.86368 0,0.35477 0.0438,0.7308 0.13287,1.12942 z m 209.47383,59.19479 c 0.0438,-0.30959 0.0877,-0.59792 0.13287,-0.86234 -0.0439,0.0877 -0.0664,0.19798 -0.0664,0.33218 -0.0439,0.13155 -0.0664,0.30959 -0.0664,0.53016 z m -3.25539,11.22775 v 0.53149 c 0,1.06298 -0.0877,2.25751 -0.26574,3.58623 0.30959,-1.4616 0.64177,-2.76774 0.99654,-3.91841 0.17805,-0.97396 0.70954,-3.74303 1.59448,-8.30455 -0.70822,2.61228 -1.50545,5.31491 -2.39171,8.10524 z m 2.52459,-6.84295 c -0.0438,0.0452 -0.0664,0.089 -0.0664,0.1342 -0.2219,1.24104 -0.39995,2.32528 -0.53149,3.25539 0.26574,-1.24104 0.46505,-2.37178 0.59793,-3.38959 z m -69.49243,22.25618 c 0.26574,-1.63832 0.55408,-3.25405 0.86367,-4.84852 -0.0877,0.22057 -0.17672,0.44246 -0.26574,0.66436 -1.01914,3.23412 -1.86022,6.28887 -2.52459,9.16689 0.13288,-0.44247 0.28701,-0.90752 0.46506,-1.39517 0.26574,-0.75338 0.75339,-1.94924 1.4616,-3.58756 z m -1.39517,14.08451 c -1.19585,4.20675 -1.86021,7.37443 -1.99309,9.49907 0.35477,-0.97396 0.70822,-1.90407 1.06299,-2.79033 0.22189,-0.84241 0.48764,-1.72734 0.79723,-2.65745 0,-1.37125 0.0439,-2.72256 0.13287,-4.05129 z m -0.26574,9.89902 c -0.2219,0.61918 -0.41988,1.2397 -0.59793,1.85889 0.17672,-0.57667 0.37603,-1.15068 0.59793,-1.72735 0,-0.0877 0.0226,-0.17805 0.0664,-0.26575 -0.0439,0.001 -0.0664,0.0452 -0.0664,0.13421 z m -0.19931,2.85676 c 0.0439,-0.44247 0.089,-0.88493 0.13287,-1.32873 -0.39862,1.01914 -0.70821,1.94924 -0.93011,2.79166 0.26575,-0.48897 0.53149,-0.97529 0.79724,-1.46293 z m -131.47755,-91.5493 c -0.0438,-0.089 -0.0664,-0.17805 -0.0664,-0.26574 l -0.0664,0.0664 h -0.13287 c 0.0877,0.53149 0.19931,1.0404 0.33218,1.52804 -0.0438,-0.4438 -0.0664,-0.88626 -0.0664,-1.32873 z m 1.32873,2.45815 c -0.17672,-0.44247 -0.35477,-0.90885 -0.53149,-1.39517 0.17672,0.70822 0.35477,1.4616 0.53149,2.25884 z m 2.65746,5.64709 h -0.33219 l -0.0664,-1.92666 c -0.13288,-0.39862 -0.26575,-0.79723 -0.39862,-1.19452 0.0438,0.66436 0.11028,1.37257 0.19931,2.12596 0.13287,1.37258 0.26574,2.65745 0.39862,3.85331 0,0.0877 0.0226,0.17672 0.0664,0.26442 0.0438,-0.97396 0.11029,-1.88148 0.19931,-2.72389 -0.0439,-0.13288 -0.0664,-0.26575 -0.0664,-0.39862 z m 1.26229,3.18894 c 0.0438,0.22057 0.089,0.44247 0.13287,0.66437 0,-0.26575 0.0226,-0.51024 0.0664,-0.73213 -0.13287,-0.35477 -0.26574,-0.70821 -0.39861,-1.06298 0.089,0.35477 0.15546,0.73212 0.19931,1.13074 z m 1.39516,3.12251 c 0.13287,0.53149 0.30959,1.12942 0.53149,1.79378 0,-0.13287 0,-0.26441 0,-0.39862 -0.17672,-0.48631 -0.35477,-0.95269 -0.53149,-1.39516 z m 1.79378,5.8464 c 0.35477,1.10683 0.66436,2.12596 0.93011,3.05607 -0.089,-0.70821 -0.13287,-1.30614 -0.13287,-1.79511 -0.3096,-0.79723 -0.57534,-1.57188 -0.79724,-2.32527 0,0.31092 0,0.66569 0,1.06431 z m 1.26229,5.8464 c -0.089,-0.13287 -0.17672,-0.30959 -0.26574,-0.53016 0.17672,0.75206 0.37603,1.50545 0.59792,2.2575 -0.13287,-0.61918 -0.24315,-1.19585 -0.33218,-1.72734 z m 13.22084,39.6625 c 0,0.0877 0,0.19798 0,0.33219 0.13287,0.70821 0.26574,1.37257 0.39861,1.99309 -0.089,-0.62052 -0.15546,-1.19586 -0.1993,-1.72868 -0.0452,-0.22057 -0.11029,-0.44246 -0.19931,-0.66436 z m 0.79723,4.45124 c -0.0438,-0.70821 -0.0664,-1.41642 -0.0664,-2.12596 -0.0438,-0.13421 -0.089,-0.26575 -0.13288,-0.39995 0.0438,0.88759 0.11029,1.72867 0.19931,2.52591 z m -2.52458,-9.96545 c -0.089,-0.35477 -0.15546,-0.70822 -0.19931,-1.06299 -0.089,-0.30959 -0.17672,-0.62051 -0.26574,-0.9301 0.22189,1.37257 0.48764,2.68004 0.79723,3.91974 -0.089,-0.62052 -0.19931,-1.26229 -0.33218,-1.92665 z m 4.71698,15.61254 v -0.33218 c 0,-0.0877 -0.0226,-0.17805 -0.0664,-0.26575 0,0.17805 0.0226,0.37603 0.0664,0.59793 z m 0.59793,1.79378 c 0.35477,1.32873 0.81982,2.85676 1.39516,4.58411 v -0.39862 c 0,-0.0439 0,-0.0877 0,-0.13287 -0.17672,-0.4438 -0.30959,-0.81983 -0.39862,-1.13075 -0.17672,-0.53016 -0.53149,-1.6835 -1.06298,-3.45469 0,0.17805 0.0226,0.3561 0.0664,0.53282 z m 2.59102,7.308 c 0.0439,0.2219 0.0877,0.42121 0.13287,0.59793 0.089,0.48764 0.19931,0.95269 0.33218,1.39516 0.089,0.26575 0.17672,0.55408 0.26575,0.86367 -0.089,-0.44246 -0.17672,-0.84241 -0.26575,-1.19585 v -0.53149 c -0.17672,-0.39862 -0.33218,-0.77598 -0.46505,-1.12942 z m 1.26229,4.18549 c 0.44246,1.24103 0.90885,2.52458 1.39516,3.85331 v 0.13287 c -0.13287,-0.17805 -0.26574,-0.37603 -0.39862,-0.59793 0.2219,0.5315 0.46506,1.0404 0.7308,1.52804 -0.0452,-0.26574 -0.089,-0.53149 -0.13287,-0.79856 -0.2219,-0.61919 -0.42121,-1.26097 -0.59793,-1.92533 -0.30959,-1.15201 -0.59792,-2.14855 -0.86367,-2.98964 -0.17672,-0.39994 -0.33218,-0.77597 -0.46505,-1.13074 0.089,0.66569 0.19931,1.30746 0.33218,1.92798 z"
   id="path5"
   style="fill-rule:evenodd;stroke-width:1" />
    
<rect
   style="overflow:inherit;fill:none;stroke:#1a1a1a;stroke-width:1.88976;stroke-linecap:round;stroke-linejoin:round;opacity:0"
   id="rect1"
   width="498.11014"
   height="498.11014"
   x="0.94488001"
   y="0.94488001"
   ry="9.9237108" /></svg>
