<?xml version="1.0" encoding="UTF-8" standalone="no"?>
<svg
   version="1.0"
   width="374.99994pt"
   height="374.99994pt"
   viewBox="0 0 374.99994 374.99994"
   preserveAspectRatio="xMidYMid"
   id="svg1"
   sodipodi:docname="papAnu4_Margot Michaud.svg"
   inkscape:version="1.3.2 (1:1.3.2+202311252150+091e20ef0f)"
   xmlns:inkscape="http://www.inkscape.org/namespaces/inkscape"
   xmlns:sodipodi="http://sodipodi.sourceforge.net/DTD/sodipodi-0.dtd"
   xmlns="http://www.w3.org/2000/svg"
   xmlns:svg="http://www.w3.org/2000/svg">
  <defs
     id="defs1" />
  <sodipodi:namedview
     id="namedview1"
     pagecolor="#ffffff"
     bordercolor="#cccccc"
     borderopacity="1"
     inkscape:showpageshadow="0"
     inkscape:pageopacity="1"
     inkscape:pagecheckerboard="0"
     inkscape:deskcolor="#d1d1d1"
     inkscape:document-units="pt"
     inkscape:zoom="0.55731469"
     inkscape:cx="285.29662"
     inkscape:cy="236.85003"
     inkscape:window-width="1850"
     inkscape:window-height="1136"
     inkscape:window-x="70"
     inkscape:window-y="27"
     inkscape:window-maximized="1"
     inkscape:current-layer="svg1" />
  <metadata
     id="metadata1">
Created by potrace 1.16, written by Peter Selinger 2001-2019
</metadata>
  <g
     transform="matrix(-0.00909059,0,0,-0.00909059,362.5639,321.30899)"
     fill="#000000"
     stroke="none"
     id="g1"
     style="stroke-width:11.0004">
    <path
       d="m 28270,29429 c -769,-44 -910,-62 -1390,-183 -1190,-300 -1445,-372 -3055,-866 -308,-94 -654,-197 -770,-227 -115,-30 -211,-56 -212,-57 -1,-1 47,-40 108,-86 60,-46 109,-87 109,-90 0,-8 -287,-108 -365,-126 -38,-10 -83,-23 -100,-30 -16,-6 -57,-20 -90,-29 -67,-19 -264,-115 -350,-171 -31,-19 -91,-67 -133,-106 -84,-76 -220,-170 -350,-240 l -83,-45 66,-53 c 36,-29 65,-54 63,-55 -2,-2 -60,-26 -129,-53 -398,-159 -620,-264 -686,-325 -25,-23 -170,-184 -322,-357 -151,-173 -331,-377 -399,-452 l -124,-137 -126,-50 c -156,-61 -308,-118 -607,-226 l -230,-83 -715,-47 c -393,-26 -721,-49 -729,-51 -10,-3 13,-33 69,-89 l 84,-84 -75,-34 c -101,-47 -392,-158 -514,-197 -55,-17 -239,-68 -410,-111 -315,-82 -1613,-425 -2385,-632 l -425,-114 -530,-226 c -1529,-650 -1384,-595 -2075,-785 -343,-95 -452,-118 -759,-157 -114,-15 -136,-15 -265,0 -414,47 -806,98 -921,120 -452,88 -790,185 -878,253 -185,142 -654,530 -724,599 -50,49 -150,167 -224,263 -74,96 -247,321 -384,500 -296,385 -505,648 -566,710 -34,34 -113,82 -319,191 -659,352 -851,455 -938,506 -138,80 -208,101 -602,178 -129,25 -283,56 -342,68 -91,19 -122,22 -220,15 -62,-3 -268,-14 -458,-23 -190,-8 -364,-18 -388,-21 -41,-5 -43,-7 -40,-36 3,-28 10,-33 126,-82 l 124,-53 -217,-178 c -317,-259 -469,-389 -569,-485 -127,-122 -462,-543 -811,-1020 -71,-96 -182,-240 -248,-320 -245,-295 -298,-402 -462,-925 -26,-82 -84,-242 -130,-355 C 1007,22345 996,22289 876,21280 769,20381 572,18626 300,16140 222,15428 225,15481 145,13810 62,12077 16,10948 4,10385 l -7,-320 33,-115 c 38,-134 144,-443 310,-903 160,-440 196,-574 275,-1007 19,-107 38,-202 42,-210 3,-8 9,-159 13,-335 9,-458 9,-458 246,-463 81,-2 167,1 198,8 57,12 313,136 393,191 140,97 209,213 234,394 16,119 23,911 10,1185 -13,281 -8,248 -278,2018 l -47,313 208,2217 c 232,2474 243,2589 391,4242 211,2347 354,3842 396,4135 7,55 36,129 131,345 226,509 352,745 522,975 52,72 144,215 203,320 162,284 224,339 481,424 237,79 455,93 562,38 112,-58 215,-163 397,-402 156,-206 210,-293 324,-517 56,-111 129,-242 162,-292 76,-112 197,-235 304,-306 45,-30 84,-59 86,-65 3,-5 219,-944 482,-2085 l 477,-2076 -62,-144 c -262,-613 -508,-1223 -578,-1435 -84,-253 -176,-845 -207,-1325 -15,-229 -105,-668 -540,-2620 -134,-602 -253,-1143 -265,-1203 l -21,-107 36,-148 c 42,-172 151,-560 271,-962 119,-400 149,-490 204,-616 27,-61 64,-163 84,-225 88,-282 182,-706 192,-864 6,-95 0,-152 -151,-1455 -152,-1311 -257,-2293 -309,-2890 -52,-589 -55,-772 -22,-1000 35,-233 31,-696 -10,-1145 -13,-142 -14,-197 -4,-330 13,-172 51,-458 95,-702 27,-144 27,-153 11,-186 -45,-96 11,-198 153,-281 167,-97 757,-322 966,-368 155,-34 220,-39 585,-41 389,-2 415,0 630,59 147,40 287,58 385,49 158,-14 644,-90 895,-140 l 76,-15 804,204 c 443,113 825,208 850,212 25,4 52,11 62,15 11,6 39,0 85,-17 145,-56 367,-118 502,-140 122,-20 149,-11 300,104 164,125 193,137 361,152 273,25 482,15 702,-36 219,-50 241,-38 306,166 74,233 65,341 -38,433 -70,64 -214,166 -535,381 -331,223 -370,246 -410,246 -47,0 -288,-51 -401,-85 -236,-72 -558,-115 -915,-122 -255,-5 -267,-5 -273,13 -3,11 -162,703 -354,1539 l -349,1520 37,150 c 23,93 67,339 114,645 43,272 78,495 79,495 1,1 37,14 81,30 l 78,28 -6,141 c -4,78 -16,256 -26,396 -10,140 -24,397 -30,570 -6,173 -18,423 -26,555 -17,279 -19,627 -4,735 13,92 38,170 103,320 133,309 492,978 533,994 30,12 68,6 98,-16 34,-24 68,-64 235,-283 154,-203 244,-306 402,-460 156,-153 265,-242 525,-430 265,-193 336,-248 411,-318 163,-153 237,-296 318,-616 75,-301 104,-521 115,-886 9,-295 22,-417 61,-567 55,-217 179,-436 258,-453 l 27,-6 89,-414 89,-415 h 31 c 31,0 31,1 44,73 7,39 18,86 25,102 l 13,30 21,-58 c 13,-32 34,-118 48,-190 33,-173 66,-272 116,-349 22,-35 122,-146 222,-248 193,-196 361,-380 407,-444 70,-96 281,-716 339,-996 11,-52 29,-216 40,-365 40,-531 86,-760 194,-961 25,-45 68,-133 96,-195 86,-190 157,-280 315,-397 156,-115 325,-162 657,-182 248,-15 701,13 813,51 43,14 341,42 1045,99 1136,92 1563,130 1945,175 484,57 623,97 1010,289 323,161 348,169 495,170 260,2 1011,-16 1095,-25 50,-6 160,-24 245,-41 111,-22 188,-31 271,-32 108,-1 118,1 152,24 57,39 88,106 94,204 l 6,83 -112,134 c -162,193 -301,340 -379,398 -121,92 -511,271 -695,321 -151,40 -763,105 -902,96 -49,-4 -421,-27 -825,-52 l -735,-46 -540,6 c -365,5 -583,12 -674,22 -245,26 -255,29 -386,101 -160,88 -243,143 -287,189 -43,45 -146,207 -155,243 -7,29 47,341 59,341 5,0 55,-29 111,-64 l 102,-65 7,117 c 23,379 65,608 123,662 22,20 27,21 54,11 16,-7 39,-23 52,-37 12,-13 31,-24 40,-24 35,0 42,35 33,164 -4,67 -8,351 -9,631 v 510 l -33,150 c -66,298 -158,677 -397,1635 -134,536 -271,1088 -305,1225 -61,253 -340,1350 -431,1700 -28,105 -102,347 -165,539 -125,378 -135,425 -150,706 l -7,115 53,110 c 29,61 54,112 56,114 6,6 188,-155 256,-227 37,-39 79,-92 94,-119 171,-302 342,-575 355,-568 5,4 10,43 10,88 1,45 4,111 8,145 l 6,64 285,-209 c 474,-348 512,-373 754,-493 l 221,-109 255,-16 c 140,-8 293,-22 340,-30 47,-8 146,-26 220,-39 74,-13 136,-23 137,-22 1,1 6,41 10,89 l 8,88 118,-91 c 114,-89 119,-92 137,-75 16,14 18,26 13,61 l -6,44 44,20 c 38,17 66,20 194,20 238,0 882,-32 1185,-60 120,-11 812,-13 1066,-3 l 171,6 269,233 c 148,128 270,231 272,229 5,-4 60,-302 83,-449 17,-109 20,-157 15,-286 -34,-852 -46,-1158 -51,-1232 l -6,-87 117,39 c 65,22 119,40 121,40 2,0 -29,-61 -68,-136 -39,-74 -69,-137 -66,-140 3,-3 67,0 142,6 75,7 137,11 139,9 1,-2 13,-227 25,-499 35,-786 80,-1672 86,-1712 3,-20 30,-117 61,-215 94,-304 111,-380 119,-548 4,-82 13,-204 20,-270 17,-149 27,-160 120,-152 33,3 70,9 83,13 22,6 19,-2 -32,-104 -31,-61 -86,-159 -124,-219 -38,-59 -88,-144 -112,-187 -56,-102 -57,-34 10,-856 16,-201 34,-432 39,-515 7,-111 19,-192 46,-310 49,-213 53,-303 25,-543 -12,-107 -18,-197 -13,-205 4,-7 57,-77 116,-154 l 108,-141 87,-40 c 129,-60 258,-111 337,-133 73,-20 150,-25 159,-10 10,16 121,41 251,56 165,19 435,19 590,0 140,-18 247,-18 292,-2 53,20 119,72 168,134 52,66 129,215 145,283 6,25 15,188 21,362 12,348 1,704 -25,813 -19,80 -36,194 -50,343 l -12,123 68,91 c 127,169 132,183 304,893 101,416 112,475 349,1820 265,1502 274,1542 410,1950 92,276 327,786 352,762 3,-3 20,-50 38,-105 19,-55 47,-129 63,-165 29,-63 32,-65 58,-58 l 27,7 1,309 c 1,282 4,320 24,420 13,61 27,114 32,119 5,5 29,-8 57,-31 63,-52 284,-213 398,-290 116,-78 157,-98 370,-183 271,-108 265,-105 307,-197 20,-43 48,-110 63,-148 44,-114 83,-135 169,-94 37,17 48,18 67,8 47,-25 356,-223 409,-261 30,-23 175,-163 321,-312 l 265,-270 45,113 46,113 158,-168 c 202,-216 319,-348 404,-460 56,-74 72,-90 98,-92 40,-4 77,39 99,116 31,112 6,110 204,20 359,-161 729,-352 885,-456 83,-55 224,-142 315,-193 244,-136 697,-366 787,-399 43,-15 231,-98 418,-184 187,-86 342,-152 346,-148 3,4 26,87 50,185 24,97 46,177 49,176 3,0 61,-77 130,-170 152,-207 234,-297 389,-427 150,-125 230,-182 306,-216 55,-25 66,-35 138,-136 107,-149 133,-201 141,-279 8,-89 44,-160 118,-237 135,-141 253,-220 364,-243 l 62,-13 -5,-37 c -7,-49 27,-136 84,-213 26,-35 112,-128 192,-208 118,-118 172,-163 281,-236 74,-49 148,-95 163,-102 53,-23 109,-13 307,53 107,36 198,65 203,65 16,0 220,-206 273,-277 40,-53 75,-85 129,-120 l 74,-48 15,-67 c 9,-37 16,-79 16,-94 0,-44 39,-113 82,-144 22,-16 70,-41 109,-56 62,-24 73,-26 108,-15 22,6 58,27 81,46 40,34 45,35 125,35 88,0 219,21 257,41 13,7 43,29 68,50 25,21 57,42 71,48 36,13 63,74 64,141 0,66 7,73 114,112 104,39 118,50 136,110 27,91 20,112 -85,268 -103,153 -170,228 -298,333 -69,56 -135,111 -148,122 -47,40 -94,180 -94,280 0,85 -36,151 -141,260 -53,55 -136,132 -183,170 -82,66 -270,276 -301,336 -8,15 -32,125 -55,245 -22,121 -47,238 -55,261 -23,70 -152,248 -266,369 -149,157 -243,316 -297,505 -45,154 -61,192 -155,367 -46,86 -146,274 -222,417 -150,283 -274,503 -341,606 -54,81 -88,114 -449,424 -159,138 -323,281 -363,320 -41,38 -159,180 -264,314 l -189,246 -247,210 c -1762,1499 -1778,1513 -2002,1744 -241,250 -272,290 -237,319 7,6 83,14 170,18 87,4 154,10 150,15 -19,18 -410,237 -547,306 -230,115 -519,304 -652,426 -134,123 -140,230 -19,388 52,66 104,98 240,143 155,52 484,125 703,156 45,7 82,16 82,20 0,5 -12,56 -26,115 -41,171 -64,323 -64,424 0,85 5,111 54,275 113,375 166,587 191,766 29,200 43,277 57,303 9,18 10,18 30,1 11,-10 60,-71 108,-135 49,-64 96,-119 105,-123 9,-3 24,-2 34,4 16,8 19,31 24,182 4,95 7,353 8,573 0,463 23,1325 40,1565 10,129 10,211 1,380 -14,232 -28,336 -60,415 -18,46 -62,227 -62,257 0,7 57,-44 128,-114 107,-107 155,-145 302,-243 269,-179 316,-197 668,-270 167,-34 181,-35 391,-35 h 217 l 220,164 c 174,130 239,185 319,271 69,75 174,168 346,306 203,163 258,213 306,276 64,85 111,123 153,123 47,0 250,50 332,82 127,49 136,77 94,310 -13,73 -32,183 -41,243 -34,230 -76,461 -100,549 -29,109 -85,381 -155,759 -52,279 -52,279 -200,720 -82,244 -153,476 -160,517 l -12,75 81,127 c 139,217 143,230 200,568 28,162 66,403 86,535 l 37,240 65,140 c 170,362 228,591 240,935 6,197 -9,309 -61,433 -134,324 -480,965 -596,1106 -143,173 -488,550 -629,686 -448,432 -856,816 -916,860 -16,12 -127,66 -245,120 -353,160 -779,359 -929,435 -171,85 -234,110 -416,159 -175,48 -347,88 -685,157 -415,85 -486,102 -625,149 -211,70 -859,214 -2158,480 -272,55 -439,84 -475,84 -32,-1 -118,-5 -192,-10 z"
       id="path1"
       style="stroke-width:11.0004" />
  </g>
  <rect
     style="overflow:inherit;fill:none;stroke:#1a1a1a;stroke-width:1.41732;stroke-linecap:round;stroke-linejoin:round;opacity:0"
     id="rect1"
     width="373.58261"
     height="373.58261"
     x="0.70866001"
     y="0.70866001"
     ry="7.4427834" />
</svg>
