<?xml version="1.0" encoding="UTF-8" standalone="no"?>
<!-- Created with Inkscape (http://www.inkscape.org/) -->

<svg
   version="1.2"
   width="499.99991"
   height="499.99991"
   viewBox="0 0 499.9999 499.99991"
   id="Layer_1"
   xml:space="preserve"
   style="overflow:inherit"
   sodipodi:docname="rheMac10_T. Michael Keesey.svg"
   inkscape:version="1.3.2 (1:1.3.2+202311252150+091e20ef0f)"
   xmlns:inkscape="http://www.inkscape.org/namespaces/inkscape"
   xmlns:sodipodi="http://sodipodi.sourceforge.net/DTD/sodipodi-0.dtd"
   xmlns="http://www.w3.org/2000/svg"
   xmlns:svg="http://www.w3.org/2000/svg"><sodipodi:namedview
   id="namedview1"
   pagecolor="#ffffff"
   bordercolor="#cccccc"
   borderopacity="1"
   inkscape:showpageshadow="0"
   inkscape:pageopacity="1"
   inkscape:pagecheckerboard="0"
   inkscape:deskcolor="#d1d1d1"
   inkscape:zoom="0.74499008"
   inkscape:cx="120.80698"
   inkscape:cy="451.01272"
   inkscape:window-width="1850"
   inkscape:window-height="1136"
   inkscape:window-x="70"
   inkscape:window-y="27"
   inkscape:window-maximized="1"
   inkscape:current-layer="Layer_1" /><defs
   id="defs18">
	

		
		
		
		
		
	</defs>
<path
   d="m 154.321,227.68 c -0.282,0.038 -0.269,0.371 -0.48,0.48 0.224,0.369 0.57,-0.139 0.48,-0.48 z"
   id="path6"
   style="fill-rule:evenodd" /><path
   d="m 269.881,244 c 0.296,0.016 0.578,0.019 0.72,-0.12 0,-0.16 0,-0.32 0,-0.479 -0.372,0.066 -0.737,0.142 -0.72,0.599 z"
   id="path8"
   style="fill-rule:evenodd" /><path
   d="m 4.8508924,349.52072 c 0.207726,0.85433 0.568513,1.5556 1.311952,1.87421 1.027697,0.0297 2.01947,0.0203 2.811327,-0.18742 3.4095156,1.52593 9.2149056,1.4697 11.6201526,-0.74812 0.290503,-1.83518 1.326009,-2.92222 1.499374,-4.87297 1.535297,0.15462 2.06164,-2.4318 3.561014,-2.24906 0.192108,2.5177 -1.201061,4.40441 -0.749687,6.55976 1.964805,-0.72157 4.557474,-1.39004 6.747185,-1.31195 1.621199,-2.9394 2.573926,-6.54571 5.247811,-8.43398 0.293628,0.0812 0.160871,0.59038 0.749688,0.37484 3.812472,-2.04758 9.164926,-1.6868 12.932104,-2.99875 2.562994,1.34475 5.888169,2.49271 8.24656,3.74688 1.096417,0.58413 2.235005,1.33538 3.373592,1.87421 0.221783,0.10465 0.696585,-0.1062 0.937109,0 2.231882,0.99959 3.556329,4.15296 6.933046,3.56102 1.271344,-1.35725 4.113908,-0.93867 4.685545,-2.62391 0.348292,-1.02145 0.01718,-3.8359 -0.374844,-5.06039 -0.274885,-0.85745 -1.244793,-1.44002 -1.499374,-2.2475 -0.773115,-2.46459 -0.0047,-4.71522 -0.187422,-7.12359 1.974176,0.0875 2.736358,1.38692 3.935858,2.2475 -0.0656,-2.81289 0.59194,-4.81361 1.311952,-6.37078 -0.259266,-0.38577 -0.890253,0.42951 -0.748125,-0.56226 0.148376,-0.49511 0.880883,0.42014 0.937109,-0.37485 0,-0.74812 0,-1.49937 0,-2.2475 1.408787,-0.089 0.738754,-2.30528 2.06164,-2.99874 0.12651,-0.94024 -0.173365,-1.45252 -0.187422,-2.24907 0.908996,-0.002 0.448251,0.65598 0.749687,0.93868 2.5177,-1.29478 1.824239,-5.79759 3.748437,-7.68586 0.123386,-0.68409 -0.406081,-0.71845 -0.374844,-1.31195 1.594647,-0.46856 1.985109,-2.13817 2.438045,-3.74688 1.291649,-0.64504 2.105372,-1.76957 2.623906,-3.18617 -0.0094,0.32174 0.14369,0.48105 0.374843,0.5607 0.932424,-1.62744 2.709808,-2.41149 2.99875,-4.68554 0.940232,-0.37172 1.529049,-1.09486 1.686796,-2.2475 0.401395,-0.22491 1.046438,-0.20304 1.311952,-0.56227 2.969074,-4.74645 6.431691,-9.24301 9.558511,-13.30694 0.58882,0.089 0.73251,-0.26708 1.12453,-0.37485 3.02374,-3.5985 5.06195,-8.18252 8.05914,-11.80913 1.74927,-1.56185 3.6969,-2.92378 4.87297,-5.05883 0.0281,0.46543 0.63411,0.0547 0.74968,0 2.40057,-2.87849 4.42472,-6.42388 7.30946,-9.37109 0.9168,-0.93711 2.12255,-1.58684 2.99874,-2.62547 1.01677,-1.20574 1.92264,-2.76603 2.81133,-4.12328 1.29634,-1.98355 2.38651,-3.22834 3.74844,-4.87296 0.51228,-0.6185 0.74188,-1.68836 1.31195,-2.43649 0.59975,-0.78717 1.42284,-1.14327 1.87422,-1.87422 2.99094,-4.83704 1.12297,-12.51665 1.68679,-18.9296 0.74344,-1.64775 0.53259,-4.3107 1.6868,-6.18492 1.13234,-1.83829 3.18305,-3.53134 3.37359,-5.24781 0.16712,-1.51031 -1.11828,-2.54894 -0.74968,-4.49812 1.49937,-0.49042 2.16316,0.92461 3.56101,0.74968 -0.25302,-1.76176 -2.29904,-2.67544 -2.06164,-4.3107 0.95898,-0.63255 2.67545,0.8231 3.56101,0.56227 -0.442,-1.20575 -1.11203,-1.30102 -0.9371,-2.99875 0.58569,-0.4873 1.24947,0.26083 1.87421,-0.18742 0.30144,-0.75437 0.43888,-1.6009 1.12453,-1.49938 0.63255,-2.5583 0.73564,-4.59808 1.49938,-7.12203 4.09204,1.30259 7.336,2.29748 11.43273,3.56102 0.54352,1.33069 1.93357,1.81487 3.56101,2.06164 0.10309,-0.27176 -0.21866,-0.96835 0.18743,-0.93711 0.31861,0.70908 0.16711,0.91056 0.37484,1.49937 2.92378,0.71689 5.88973,3.005 8.6214,4.68555 1.00114,0.61693 1.5759,0.68877 2.24906,1.12453 1.10891,0.71689 1.73365,1.19325 3.18617,0.74969 0.36547,-0.44669 0.25927,-1.36662 0.93711,-1.49938 1.38692,1.56654 3.68128,1.74771 5.06039,2.81133 -0.005,0.91368 -0.90431,2.2678 -1.87422,2.81133 0.10152,1.65868 -1.93357,1.32601 -2.06164,3.18617 -1.70398,-0.0812 -1.65868,1.59152 -3.18617,1.68679 0,0.31237 0,0.62474 0,0.93711 -2.97844,2.45679 -3.51572,7.35475 -5.81008,10.49562 -3.65628,2.71762 -5.14628,7.27666 -8.05913,10.68305 -0.54665,0.64036 -1.351,1.0152 -1.87422,1.68679 -1.9773,2.53488 -3.5329,5.42899 -5.43523,8.05914 -0.72938,3.4267 -1.68992,5.52582 -2.99875,8.43398 -0.0562,0.49199 0.72626,0.14838 0.56227,0.74813 -0.47324,0.61693 -1.13703,0.7247 -1.49938,0.56226 -2.13036,3.99209 -4.92294,7.32195 -7.12203,11.24531 -3.84371,2.66764 -8.21844,5.77572 -9.55851,10.87047 -0.86058,3.27676 -0.93086,5.76478 -1.6868,7.87171 -0.46543,0.59663 -1.04175,1.08236 -1.12453,2.06164 -3.54383,2.43024 -6.32861,5.49146 -11.05788,6.18492 -3.07528,0.44982 -7.058,-0.003 -9.93336,0.93711 -0.92617,-0.72938 -2.60204,0.16712 -3.18617,0.93711 -0.0922,0.58882 0.64661,0.49511 0.18742,0.93867 -1.73209,0.82934 -3.40483,1.7196 -4.68554,2.99875 -0.18742,1.12609 -0.85121,1.7727 -0.74969,3.18617 -1.81955,2.13349 -1.45564,5.27436 -1.6868,8.245 -0.21709,2.80196 -1.29165,6.5254 -1.31195,8.81039 -0.0234,2.75197 1.36037,5.4649 0.93711,8.24656 0.88713,0.42326 1.60558,1.01832 2.43648,1.49937 0.99959,0.17024 0.74188,-1.65087 1.49938,-1.12609 1.85547,1.51811 3.38452,3.36266 5.43523,4.68554 4.17014,-0.29363 3.24708,-4.86047 3.37359,-8.43242 1.17451,0.61693 1.48844,2.53332 2.99875,2.99875 1.60871,0.49355 3.59381,-0.3561 5.81008,0 0.18742,-1.9976 1.87422,-2.5911 1.87422,-4.3107 0,-2.4193 -3.12058,-4.34975 -2.99875,-7.31101 6.52228,-0.93711 11.11255,-3.04404 17.80507,-2.99875 1.81643,-1.46814 4.51686,-1.06518 6.55976,-2.43648 1.07299,0.002 1.19482,-0.20617 1.87422,0.18742 -0.12963,-0.87932 0.62318,-0.87776 0.74813,-1.49938 0.43731,0 0.87619,0 1.31195,0 2.96282,-2.65982 3.42513,-7.82017 6.93461,-9.93335 0.31236,-0.2499 0.0625,-1.06206 0.37484,-1.31196 0.77936,-0.15774 1.20262,-0.67159 1.31195,-1.49937 2.49115,-0.70596 2.92378,-3.0456 4.12328,-5.24781 1.28696,-2.36308 3.30019,-4.77926 4.87297,-6.55976 0.15618,-0.17649 0.58569,-0.0234 0.74969,-0.18743 0.15306,-0.15306 0.0375,-0.59506 0.18742,-0.74812 2.32402,-2.38494 4.34974,-5.06195 5.62265,-8.24656 3.9546,-2.29123 6.44106,-6.05373 10.68304,-8.05914 0.442,-0.003 0.5529,0.3233 1.12453,0.18742 4.64338,-5.2275 9.78498,-9.95522 14.80632,-14.80476 0.85902,2.0757 1.5681,4.30446 2.62391,6.18492 1.94762,0.74032 2.37557,2.99875 3.93742,4.12328 1.38848,3.98428 3.19398,7.55154 4.49812,11.62015 0.2499,0 0.49979,0 0.74969,0 0.0765,0.45138 -0.34205,0.40765 -0.18742,0.93711 2.02415,2.03665 2.67388,5.44617 4.68554,7.49688 0.86839,-0.0687 1.17451,-0.69815 2.24906,-0.56071 0.72314,3.0253 2.28343,5.21189 3.74844,7.49687 0.31237,0 0.62474,0 0.93711,0 0,0.31237 0,0.62318 0,0.93711 1.49313,1.28228 3.83277,2.89879 5.43523,4.68555 1.05269,1.17295 1.86172,2.99406 2.99875,4.49812 0.55758,0.73876 1.34007,1.32289 1.87422,2.06164 0.57632,0.79654 0.95116,1.79144 1.49937,2.43805 1.66806,1.96168 6.34423,6.0506 4.49813,8.6214 -2.07414,-0.73719 -4.21543,-1.40566 -6.74719,-1.6868 -0.12026,0.40921 0.53103,0.59663 -0.18742,0.56227 -0.67003,-0.14213 -1.00115,-0.62318 -1.12453,-1.31352 -2.51926,-1.85391 -5.01197,-3.73437 -7.49687,-5.62265 -5.54613,-2.3865 -10.17857,-5.69138 -17.05539,-6.74718 -0.4873,0.0765 -0.56539,0.55914 -1.12453,0.56226 -1.40098,-0.65441 -3.49698,0.39827 -5.43523,0.93867 -2.3662,3.87963 -4.25916,8.23407 -6.18492,12.5557 1.20262,2.54738 1.91639,5.58205 4.87297,6.37234 0.65129,0.63724 0.15306,1.35569 0.74968,1.87422 3.43138,0.82778 6.3661,-2.44429 5.62266,-6.93304 2.02728,0.0609 4.24354,-0.93243 6.18492,-0.74969 2.08194,0.19367 2.87848,1.44627 4.49812,2.24906 2.18815,1.08392 4.74177,1.71803 5.81008,3.18617 -0.54977,2.08194 -2.48647,2.42711 -3.93586,3.74687 -1.37287,1.25261 -3.13776,3.26895 -3.18617,4.87297 -0.0172,0.58257 0.48573,1.07768 0.74968,1.87422 0.909,2.73323 1.6665,4.15295 3.74844,5.24625 2.47865,-0.33267 3.82653,0.89806 6.74719,0.56226 2.50208,-0.92461 6.0506,-1.77894 8.99624,-2.81132 1.48063,0.60912 3.69534,0.19835 5.43523,0 3.65317,2.96907 12.27926,1.84923 16.68055,0.74968 0.63879,0.49199 -0.93555,0.86683 0,1.12454 0.86682,0.17805 0.15618,-1.21825 0.93867,-1.12454 2.64108,-0.442 5.86161,0.85746 8.24499,0 1.07299,-0.38577 2.32872,-1.05893 3.18618,-1.68679 3.71095,-0.72626 4.8058,-4.06706 6.74718,-6.55977 0.55914,-0.12807 1.1464,-0.22803 1.31195,-0.74968 -2.05383,-4.12953 -3.17523,-9.19304 -5.62265,-12.93211 0.24677,-0.59975 0.0828,-1.52436 -0.18742,-2.2475 -0.94961,-2.54737 -3.00656,-5.59141 -4.12328,-8.05913 0,-0.37485 0,-0.74813 0,-1.12454 -0.1312,-0.49354 -0.85433,-0.39671 -0.93867,-0.93867 0.33579,-2.16784 0.61536,-4.30601 0.56226,-6.74562 -0.0468,-2.16785 -0.80279,-2.62547 -1.31195,-3.93742 -0.0875,-0.22491 0.24365,-0.70439 0.18742,-0.93711 -0.26083,-1.04488 -0.98553,-1.75083 -1.12609,-2.81133 -0.0984,-0.75749 0.13432,-1.52124 0,-2.24906 -0.38422,-2.08819 -2.94721,-3.84058 -1.6868,-5.81007 -0.27332,-1.03863 -0.5935,-2.03197 -0.93711,-2.99875 -0.33423,-0.16556 -0.47636,-0.52322 -1.12453,-0.37485 -0.74656,-2.4396 -3.85308,-2.51926 -3.56101,-5.99749 -0.95742,-1.35413 -1.09954,-3.52353 -1.6868,-5.24781 1.46814,-0.5201 3.64379,1.09485 4.87297,-0.74813 -0.28894,-0.7122 -0.59663,-1.40254 -0.56227,-2.43805 1.44315,0.15619 4.35756,0.89651 6.55977,0.93868 0.3233,-1.54623 1.19325,-2.72387 0.56226,-4.68555 0.28113,-0.36235 0.78873,0.32643 0.93711,-0.37484 0.82934,-0.26708 0.49042,0.63411 1.12453,0.56226 0.70908,-0.52946 0.91056,0.49511 1.49938,0 1.52748,1.89609 5.13535,1.77426 6.55976,2.81133 2.31778,-2.10381 5.69762,-0.29831 8.05914,-1.31195 -0.84184,-1.23074 -1.90702,-2.55675 -2.06164,-3.93742 1.76489,-0.65754 3.76405,0.90587 5.62421,1.31195 0.81685,-0.61849 0.63255,-2.23969 1.12453,-3.18617 1.84455,-0.12963 3.25021,0.53259 4.68555,-0.74969 -0.26239,-1.43221 -0.41233,-2.62078 -0.18742,-4.12328 1.72428,0.3686 2.4396,0.58882 3.93742,1.12453 0.5935,-0.15618 0.95116,-0.54664 1.31195,-0.93711 0.66379,-0.039 0.37016,0.87932 1.12453,0.74969 0.92618,-0.80279 1.61808,-0.75125 2.62547,-1.31195 0.28113,0.40608 0.20772,1.1667 0.74812,1.31195 -0.65754,1.52905 -0.99489,3.37828 -1.31195,5.24781 0.0328,0.21866 0.29519,0.20304 0.56227,0.18742 -2.4318,6.98927 -4.33101,14.68919 -4.49969,23.42773 0.17493,0.19992 0.6919,0.0593 0.56227,0.56226 -0.70284,1.6665 -0.41546,3.29238 -0.74813,5.43524 -0.075,0.44825 0.85277,-0.10465 0.5607,0.5607 -1.41972,3.48605 -0.59818,8.81976 -0.74968,12.74468 -0.22179,5.77103 -2.46304,11.78103 -2.2475,17.43023 0.16555,4.36224 1.78519,8.13567 2.2475,11.995 1.5431,0.76843 2.16784,2.45679 3.00031,3.93742 1.9242,0.88557 2.24125,3.3814 4.49812,3.93586 0.606,1.73209 2.43961,2.08506 3.55945,3.18617 0.40765,0.39983 0.52166,0.92773 0.93867,1.31195 1.53999,1.4244 3.52353,2.56299 5.06039,4.12484 0.27957,0.28426 0.29832,0.81997 0.56071,1.12453 0.91836,1.0605 2.35839,1.78832 3.18617,2.81133 1.20574,1.49156 2.16784,3.52197 3.37359,5.24781 2.5708,3.67659 4.93076,7.99354 8.43398,10.49562 -0.0984,0.73095 0.90275,0.96054 1.12453,1.87422 0.59819,0.11089 0.57945,-0.35298 0.93711,0 0.53572,1.58215 1.45096,3.9546 3.37359,2.99875 0,0.37484 0,0.74812 0,1.12453 2.10069,0.71064 3.16431,2.45679 5.06039,3.37359 1.37912,-0.63255 1.95544,1.6087 3.56102,0.74969 -0.0781,1.06674 0.73407,0.95429 1.49937,0.74812 0.0968,1.30102 1.72584,1.77426 2.81133,1.49938 0.0953,1.91951 2.29748,3.14556 2.99875,5.06039 -0.3155,1.05893 -1.515,1.23386 -1.6868,2.43648 -6.30674,3.75156 -11.8513,8.2653 -18.36734,11.80914 -0.089,1.34787 -1.70553,1.16826 -1.68679,2.6239 -2.30841,0.9418 -3.77655,2.72074 -5.9975,3.74844 -0.23115,0.60599 0.606,0.14213 0.37484,0.74812 -0.95429,0.50292 -2.62703,1.00896 -2.24906,2.24906 -1.13859,-0.15149 -1.56185,1.06518 -2.43648,1.6868 0.0984,0.38578 0.88557,0.0437 0.37328,0.5607 -1.16358,1.14796 -3.02842,1.59465 -3.93586,2.99875 0.39827,-0.11245 1.19325,-0.78873 1.49938,-0.37328 -1.95075,2.7348 -5.40868,3.96241 -6.74719,7.30945 -1.12765,0.81216 -2.79883,2.07101 -2.99875,3.18617 0.42951,-0.50604 1.04488,-0.82934 1.6868,-1.12453 -0.12807,1.05893 -0.88088,1.49157 -1.31195,2.2475 -1.12297,-0.55914 -1.43378,1.1464 -2.43805,0.74969 0.003,0.52478 0.51229,-0.44669 0.37484,0.37484 -2.00697,1.44315 -2.56924,3.85152 -4.12328,5.81008 -1.48063,1.86328 -3.54695,3.35485 -4.12327,4.87297 -0.0375,0.0968 0.0937,0.78717 0,0.9371 -0.49823,0.79499 -2.02728,1.20419 -1.6868,2.62391 -0.025,0.33736 0.18586,0.43888 0.5607,0.37484 -1.52905,1.09486 -1.62432,3.62349 -3.18617,4.68555 0.0859,-0.85121 1.01989,-1.64307 0.74969,-2.2475 -2.22407,2.399 -3.33767,5.90847 -5.62422,8.245 0.0812,0.29362 0.59038,0.16087 0.37485,0.74968 -0.52947,0.15463 -0.48574,-0.26551 -0.93711,-0.18742 -1.42909,1.81799 -2.23969,3.41889 -2.81289,5.81008 -0.58882,0.21553 -0.4545,-0.29363 -0.74813,-0.37485 -0.50604,1.06675 -1.5025,2.39744 -1.12453,3.74844 -1.43534,0.80123 -0.37953,2.28967 -0.56226,3.37359 -0.49355,0.5732 -0.39671,-0.80903 -0.93711,-0.18742 -0.59038,6.48011 -3.5657,12.16992 -4.12484,19.30445 -0.075,0.48729 -0.55758,0.56382 -0.56071,1.12453 0.2702,2.13192 -0.55133,5.28061 0.93711,6.55976 0.0406,0.60288 -0.33111,0.79342 -0.18742,1.49938 0.42326,1.23854 3.11589,1.26822 3.37359,-0.18743 0.78717,0.42483 1.3635,-0.17961 2.06164,-0.37484 0.36235,-1.69773 1.54311,-2.57861 1.49938,-4.68554 1.15264,-2.85819 3.26738,-5.71012 3.37203,-8.99625 0.55133,0.21397 0.69658,0.10933 0.93867,-0.37484 0.19523,-1.80394 1.48688,-2.5099 1.49937,-4.49813 0.66379,-0.39983 1.10735,-1.01676 0.93711,-2.24906 1.07455,0.11714 1.13234,-1.8461 1.31195,-3.18461 2.10381,-2.9597 3.86402,-6.25989 5.24782,-9.93335 0.49979,-0.2624 0.61849,-0.77 0.93867,-0.74969 0.64504,-1.94607 2.60047,-3.4798 2.6239,-5.43367 1.96949,-1.34163 2.83476,-3.78748 3.93586,-5.9975 3.55164,-4.0077 7.19856,-7.92013 10.12078,-12.55726 0.49198,-0.4873 0.14837,0.30144 0.74968,0.18742 1.40254,-2.34433 3.9343,-3.56258 4.87141,-6.37234 2.64108,-0.91993 4.2451,-2.87849 5.62422,-5.06039 0.5279,-0.16087 0.76842,-0.606 1.49937,-0.56227 -0.21554,-0.77623 0.39359,-0.73094 0.37484,-1.31195 1.81019,0.81372 2.52083,-2.04914 3.74688,-2.99875 0.0297,0.22179 -0.0328,0.53259 0.18742,0.56227 1.81643,-1.80706 4.03269,-3.21429 5.62265,-5.24781 3.70158,-1.8586 6.83153,-4.28884 9.55852,-7.12203 0.57319,0.13432 0.68409,-0.19211 1.12453,-0.18742 1.75083,-2.31154 4.93856,-3.18461 6.18648,-5.99906 1.49937,-0.0562 3.19866,-1.38224 4.3107,-2.43649 2.34277,-0.5935 3.46106,-2.41149 5.62265,-3.18617 0.77312,-0.14837 0.35298,0.8965 1.1261,0.74969 0.29831,-0.139 -0.0422,-0.91837 0.5607,-0.74969 0.36235,2.8863 2.46147,4.03582 4.3107,5.43524 0.17493,1.41972 0.164,2.64421 -0.37328,3.74687 -1.83361,-0.0484 -2.64733,0.69658 -4.31226,0.37484 -1.67274,1.57435 -3.99365,2.50521 -5.24625,4.49813 -3.17524,1.94762 -4.95575,5.29154 -8.43398,6.9346 -1.18701,1.87422 -3.48917,2.63328 -3.74844,5.43367 -0.2374,0.26083 -0.9168,0.0828 -0.93711,0.56227 1.1792,2.8207 -0.65597,6.77686 -0.74812,10.11922 -0.85746,1.5962 -3.11745,4.47782 -2.81133,7.49843 0.0562,0.56695 0.89181,1.42597 1.12453,2.43648 0.22491,0.98397 -0.05,1.88672 0.18742,2.43649 0.76062,1.76645 3.11901,2.38338 4.87141,1.12609 0.99177,1.25885 1.83673,2.66139 2.99875,3.74687 2.25843,-0.67784 4.0608,-1.8133 5.43523,-3.37203 0.32955,-1.6087 0.15618,-3.71876 0.56226,-5.24781 1.13391,0.2374 2.18659,1.71335 3.93586,1.87422 2.22407,0.2046 4.01551,-1.19794 5.24781,-2.43804 0.35142,-1.52281 0.35767,-3.39078 1.49938,-4.12328 -0.24521,-1.0074 -0.0437,-1.67274 0.37484,-2.62547 0.61849,-0.25302 1.20419,-0.54509 1.87422,-0.74813 0.85433,-0.73563 2.20689,-2.30529 3.18461,-2.6239 5.08225,-1.65712 10.45345,-4.23105 14.80632,-6.93461 0.83403,-0.96678 1.61651,-1.45252 2.81133,-1.6868 1.2526,-1.77894 3.586,-2.58017 5.24781,-4.12328 0.59038,-0.5482 0.8637,-1.38535 1.49937,-1.87421 1.56654,-1.20419 3.60006,-2.02104 4.87297,-3.56102 2.28811,-2.76603 4.99323,-8.20751 5.81008,-11.80757 -0.42639,-1.37911 -1.13859,-3.27988 -0.56227,-5.06039 -1.21512,-0.0515 -1.08861,-1.73521 -2.43648,-1.12453 0.27644,-0.83871 -0.54977,-0.57632 -0.37485,-1.31195 -1.9976,-0.43732 -2.45054,-2.42243 -4.68554,-2.62547 -1.08705,-1.41035 -2.37401,-2.62391 -4.49813,-2.99875 -0.37796,-1.3713 -1.44471,-2.05227 -2.6239,-2.62391 -0.43732,-0.93867 -0.97772,-1.77113 -2.06164,-2.06164 -0.47324,-2.40056 -3.35017,-2.39743 -3.74844,-4.87296 3.14088,-2.48334 6.20991,-5.03696 10.49719,-6.37078 0.28894,-0.39984 0.53883,-0.83559 0.74812,-1.31352 4.72928,-3.15649 9.18679,-5.95376 13.30851,-9.37109 2.52239,-0.57944 5.17597,-2.53956 6.74562,-4.68554 0.0453,0.32955 0.32331,0.42638 0.74969,0.37484 2.03197,-2.6895 5.50552,-3.07996 7.30945,-6.18492 1.25885,-0.48417 3.50948,-1.27447 2.24906,-2.6239 1.67899,-0.0593 2.08039,-1.10892 2.99875,-1.49938 -0.64973,0.16243 -0.64348,-0.28894 -0.37484,-0.56226 0.87463,-0.29363 2.70824,-0.73876 1.49937,-2.06164 0.68722,0.19991 1.24167,-0.22491 1.87422,-0.18586 0.0968,-0.83872 1.25417,-0.97928 0.74969,-1.87422 0.72314,-0.0906 0.9621,-0.66066 1.49781,-0.93867 1.16358,-2.83476 4.18888,-3.80779 5.43523,-6.5582 0.51541,-0.10933 0.78249,-0.467 1.31196,-0.56227 1.41191,-2.71137 3.99208,-4.25604 5.24781,-7.12359 1.45095,-0.45606 2.23344,-2.03977 2.43648,-3.18617 0.51541,-0.10777 0.78405,-0.46699 1.31195,-0.5607 0.73407,-2.33341 3.17368,-3.72814 3.56102,-5.81164 4.1264,-3.55789 6.29581,-9.07278 9.37109,-13.68179 0.85902,-0.41702 0.85745,-0.3686 1.49937,-0.37485 0.53572,-2.56768 0.64505,-4.43565 1.87422,-6.18492 -0.002,0.99334 -0.81685,1.98043 -0.56226,2.62547 1.3588,-2.34902 3.64379,-3.53759 3.74843,-7.49687 1.48532,-1.95075 1.97418,-4.90108 3.18617,-7.12359 -0.57476,-0.66066 -0.40764,-2.68794 -0.37484,-3.3736 1.04644,-0.0453 0.19367,1.8055 0.74969,2.24907 1.08704,-4.4419 4.0608,-7.84048 5.05882,-13.30851 -0.22022,-0.46231 -0.7778,0.45606 -0.74812,-0.37329 -0.0109,-0.76062 1.16045,-0.33892 1.12453,-1.12609 0.21553,-6.1568 2.66295,-10.08173 2.24906,-16.86796 -0.0515,-0.73876 0.80123,-0.5732 0.74813,-1.31195 -0.0625,-0.62474 -0.54353,-0.83091 -0.37485,-1.6868 0.91056,-5.46335 0.5529,-11.50458 0.18742,-17.05538 -0.22803,-0.64661 -0.75749,-0.99022 -1.12453,-1.49938 0.78405,-1.65087 -0.51541,-3.61255 0,-5.24781 -0.72469,-0.54508 -0.74031,0.66847 -1.31195,0.18742 -0.25614,-1.50874 -1.31664,-2.30372 -0.37484,-3.56101 -1.21668,-3.26583 -1.48844,-5.35089 -1.6868,-9.37109 -1.64775,-0.42483 -2.66451,-2.90348 -3.74687,-4.49813 0.22022,-0.0297 0.53259,0.0328 0.5607,-0.18742 -0.78405,-0.65285 -1.2854,-1.58684 -2.2475,-2.06164 0.67628,-0.65129 -0.0406,-1.38223 -0.74969,-1.68679 -0.24365,-0.74032 0.68722,-0.4545 0.18742,-0.93711 -0.51697,-1.29478 -1.92732,-1.69617 -2.43648,-2.99875 0.34673,-0.36079 0.34361,-0.14838 0.18742,-0.74969 -1.77894,-1.89608 -2.5052,-3.82965 -4.12484,-5.99749 -3.40483,-0.90588 -3.91868,-4.70273 -7.30945,-5.62266 -0.35922,-1.26353 -1.22605,-2.02259 -2.6239,-2.2475 -0.19055,-1.81018 -2.10694,-1.89296 -3.18774,-2.81133 -0.24208,-0.46386 0.42014,-0.91055 0,-0.9371 -0.89806,-0.0375 -1.48844,-0.74188 -1.49781,-1.12454 -0.30612,0.83403 -1.29165,0.0312 -1.87422,0 -0.3233,-0.74187 0.0843,-1.36193 -0.18742,-1.87421 -2.59267,-0.38578 -4.92451,-0.90119 -6.55976,-2.62391 1.09954,0.14994 1.75395,0.745 2.99875,0.74813 -1.4291,-1.30571 -3.21741,-1.65088 -6.18492,-1.6868 0.005,-0.68409 0.48105,-0.89494 0.74968,-1.31195 -0.39671,-0.41702 -0.6794,-0.94648 -1.31195,-1.12453 0.0968,0.95272 -0.70908,1.20731 -1.31351,0.93711 -0.66691,-0.39828 0.82778,-0.69815 0.18742,-1.12453 -1.32913,-1.32914 -2.81758,-0.57789 -4.12328,-1.49938 -1.30102,-0.11401 -2.02728,0.34829 -2.99875,0.56227 -0.303,-0.99022 1.00895,-0.36391 0.93711,-1.12453 -0.6919,-0.35611 -1.6415,0.42013 -2.62391,0.37484 -0.50447,-1.51343 -2.15222,-2.17253 -4.12328,-1.6868 -0.23115,-0.60599 0.606,-0.14369 0.37329,-0.74968 -1.21356,0.25301 -1.26979,0.0406 -1.87422,-0.56227 -0.73563,0.58101 -1.76333,1.05269 -2.81133,0.37484 0.19835,-1.04956 1.22293,0.59663 1.49937,-0.37484 -2.00541,-1.30102 -4.43877,-1.46501 -8.24499,-0.93711 0.0515,-0.49042 -0.0687,-0.80591 -0.56227,-0.74969 -0.93867,-0.12651 -1.45096,0.17337 -2.24906,0.18743 -0.45606,-0.18899 0.36703,-0.82935 -0.5607,-0.74969 -1.77895,0.90431 -3.38921,-0.65129 -5.06039,-0.74969 -1.64931,-0.0968 -2.86131,1.12141 -4.68555,1.12453 -0.56226,-0.0609 -0.22022,-1.02926 -0.74969,-1.12453 -5.84443,-0.10777 -9.20865,0.05 -14.61733,1.6868 -0.26396,-0.53728 0.581,-1.02301 -0.18743,-0.93711 -1.37598,-0.0859 -0.26239,1.24479 -1.49937,1.12453 -1.31039,-1.71179 -4.27947,0.12963 -5.81164,0.56226 -0.17805,-0.34985 0.56227,-0.6263 0,-0.74968 -1.73834,0.73563 -3.51103,2.57861 -5.05883,1.87422 -0.48261,1.19169 -2.62546,1.05112 -3.37359,2.43648 -2.28498,-0.29207 -4.39504,0.93867 -6.18492,-0.18742 -0.55289,0.51072 -0.7122,1.41191 -1.87422,1.31195 -0.68096,-0.12026 0.4342,-0.8762 -0.18742,-0.93711 -1.05581,0.1312 -1.84454,0.52947 -2.81132,0.74969 -0.24365,-0.46543 0.55133,-0.7778 0,-0.93711 -0.30769,0.4873 -1.53999,0.50448 -1.31196,-0.56227 -1.32757,1.71179 -2.40837,-0.80279 -3.56101,0.18743 -2.1288,-1.68212 -3.83278,-3.78905 -5.9975,-5.43524 -0.59819,-0.11089 -0.57945,0.35142 -0.93711,0 -1.58996,-1.28697 -2.81601,-2.93159 -5.24781,-3.37359 -2.28186,-1.84142 -4.09985,-4.14671 -7.30945,-5.06039 -0.26083,-0.23897 -0.11401,-0.88401 -0.37484,-1.12453 -1.1667,-0.45763 -1.61652,-1.63214 -3.18617,-1.6868 -0.47481,-1.39942 -2.41931,-1.3307 -2.99875,-2.62391 -1.81487,-0.26707 -2.50365,-2.37869 -4.12484,-2.24906 -0.0312,-0.28113 0.0671,-0.6919 -0.18586,-0.74968 -1.8586,-1.14015 -3.81872,-2.17878 -5.24782,-3.74844 -4.09829,-1.96168 -6.62067,-5.49927 -11.05788,-7.12203 -0.26083,-0.23896 -0.11402,-0.88401 -0.37485,-1.12453 -2.71605,-1.28072 -4.30289,-3.69377 -7.49687,-4.49812 -2.36776,-1.69305 -4.0733,-4.04675 -7.12203,-5.06039 -0.37172,-2.57549 -4.61994,-2.69888 -5.62421,-5.24781 -2.18347,-0.43888 -2.63328,-2.61454 -5.24625,-2.62391 -0.0328,-2.33652 -3.48605,-1.16045 -4.49969,-2.43648 -0.2702,-0.70908 0.51541,-0.35923 0.37485,-0.93711 -0.69503,0.13276 -0.80435,-0.32018 -1.49938,-0.18742 -0.44356,-0.38422 0.25771,-0.74188 -0.18742,-1.12453 -1.01208,0.44512 -0.7981,-0.61693 -1.6868,-0.74969 -1.38848,0.0141 -1.9851,-0.76374 -3.37203,-0.74969 -0.0562,-0.41857 -1.02457,-1.688357 -2.06164,-1.12453 -0.4748,-1.197937 -1.59308,-1.151082 -3.37359,-1.311952 -0.99646,-0.690337 -1.82111,-1.552477 -3.56101,-1.499374 -1.41504,-1.386922 -2.64421,-2.064764 -4.87297,-2.811327 0.0187,-0.70127 0.21085,-0.534153 0,-1.124531 -1.44783,-0.114015 -1.40254,-1.719595 -2.99875,-1.686797 -0.0593,-1.655559 -2.98938,-1.14952 -4.12328,-2.249061 -0.76999,-0.43107 0.66847,-0.179613 0.37484,-0.749687 -1.71803,-0.532591 -3.39858,-1.101104 -4.49812,-2.249062 -0.84027,-0.131195 -1.45876,-0.0656 -2.62547,-0.187422 -0.23271,-0.796543 0.62318,-0.501353 0.74969,-0.937109 -1.95231,-0.882444 -3.48136,-1.499374 -6.37234,-1.686796 -0.51853,0.08122 -0.17649,-0.698147 -0.56227,-0.749688 -2.46147,-0.295189 -4.44189,-2.056954 -7.12202,-1.499374 -0.6591,-0.423261 0.60287,-0.823094 0,-1.124531 -0.49823,0.12651 -0.89182,0.357663 -1.31196,0.562266 -0.53571,-0.292066 0.39047,-0.874636 -0.18742,-1.124531 -1.81955,0.381091 -3.40639,-1.560287 -5.06039,-0.749687 -1.14015,-1.533736 -3.00343,-1.817992 -5.06039,-2.061641 -0.4217,-0.07809 0.0281,-1.027696 -0.56226,-0.937109 -0.62474,0 -1.24948,0 -1.87422,0 -0.0219,-1.129216 -1.93825,-1.507183 -2.99875,-0.749687 -0.0422,-0.559142 0.6919,-0.637234 0.18742,-1.124531 -2.55987,0.10152 -3.87807,-1.536859 -3.74843,-3.561014 -2.11943,0.445127 -4.0733,1.54623 -5.24781,-0.562266 0.65285,-0.421699 0.36235,-2.414617 0,-3.561014 -1.84611,0.315493 -3.5454,1.008954 -5.81008,1.686796 -0.73251,-0.829341 -1.35725,-1.764888 -2.06164,-2.623905 0.0875,1.34319 -0.60443,0.08122 -1.49937,0.562265 0.10776,-0.60912 -0.12808,-0.871511 -0.18743,-1.311952 0.63724,-0.566951 2.56144,-1.147959 1.6868,-2.06164 -0.41545,0.334235 -0.77936,0.720012 -1.49937,0.749687 -1.00271,-1.760203 -2.71606,-0.98865 -4.12328,-2.436483 -0.0281,-0.552895 0.54508,-1.322886 -0.18742,-1.499375 0.32799,1.051124 -0.74344,1.369741 -0.18742,2.06164 -1.01989,0.145252 -0.20929,-1.539983 -0.93711,-1.686796 -0.50136,0.18586 0.24833,1.62276 -0.56227,1.499374 -1.37911,-0.243648 -1.42441,-1.824239 -2.43648,-2.436483 -0.19992,0.174927 -0.0593,0.691899 -0.56227,0.562265 -0.11089,-1.741461 -2.1491,-0.45606 -2.6239,-1.686796 -0.59351,-0.03124 -0.6263,0.498229 -1.31196,0.374843 -0.0172,-0.543523 0.7903,-1.077675 0,-1.311952 -0.71845,0.59194 -1.07299,1.550915 -2.06164,1.874218 -0.69814,-1.641503 0.1,-3.799977 -1.31195,-4.12328 -1.15577,-0.263952 -1.39473,1.058933 -2.24906,1.686796 -0.28894,0.212412 -0.68409,-0.140566 -0.93711,0 -0.9824,0.548209 -0.63411,1.677426 -1.31195,2.249062 -0.32955,-1.499374 0.51853,-3.167428 -0.56227,-4.498123 -0.39983,1.169824 -1.76176,1.021449 -2.99875,1.686796 -0.49666,-0.635672 0.10152,-1.761765 -0.18742,-2.249062 -1.26666,0.267076 -0.96366,-1.035505 -1.87422,-1.124531 -0.77467,0.662224 -2.03977,0.834027 -3.18617,1.124531 -0.4951,-1.255726 0.008,-2.224072 0,-3.373592 -0.005,-0.751249 -0.47948,-1.552478 -0.56226,-2.436484 -0.43107,-4.591834 1.23698,-9.78498 -0.37485,-13.30851 -1.3916,-0.199917 -2.14753,-0.192107 -2.81132,-1.311953 -1.82892,-0.415451 -6.14587,0.206164 -7.30945,-0.187421 -0.61537,1.327571 -2.37713,0.635672 -2.81133,1.874218 -0.43732,0 -0.87463,0 -1.31195,0 -1.83517,1.163577 -3.45481,2.542689 -5.62265,3.373592 -0.5857,-0.673156 -0.96054,-1.530611 -0.37485,-2.436483 -1.02145,-1.971053 -3.49542,-2.753539 -3.56101,-4.685546 -0.54196,-0.257705 -0.97616,-0.635672 -1.49157,-0.932423 -0.0453,-0.579446 -0.19054,-1.058933 -0.37484,-1.499375 -0.40452,-0.407642 -0.97303,-0.65129 -1.6868,-0.749687 -1.55716,-2.378695 -2.34277,-5.530505 -5.24781,-6.559763 0.0125,-0.699708 -0.30144,-1.07299 -0.74969,-1.311953 -1.40566,-0.168679 -2.66763,-1.010516 -4.12328,-0.562265 -0.38421,-0.304561 0.008,-1.383798 -0.37484,-1.686796 -1.13859,0.876197 -1.51968,-0.576322 -2.6239,0.374843 -0.24678,-1.037067 -1.28853,-1.530611 -2.06164,-1.686796 -4.12641,-0.832465 -8.04821,1.661807 -11.24531,2.06164 -0.72626,-0.0859 -0.6716,-0.952728 -1.12453,-1.311953 -0.66691,0.332674 -0.54196,1.458767 -1.49938,1.499375 -2.51145,-2.890982 -3.77499,0.905872 -5.24781,2.623905 -0.2374,-2.447416 -2.38026,-2.992502 -3.93586,-4.12328 -0.59506,0.342045 -1.14639,0.727822 -1.68679,1.124531 -0.95898,-0.10152 -1.07455,-1.049562 -2.43649,-0.749687 -0.12807,0.6591 -0.59818,0.974593 -1.31195,0.562265 -0.0375,0.651291 0.0656,1.440024 -0.56226,1.499375 -0.66848,-0.45606 -1.11204,-1.137026 -2.43649,-0.937109 -0.58569,0.103082 -0.11089,1.263535 -0.93711,1.124531 -1.936689,-0.352978 -4.468445,-0.409205 -5.060386,1.12453 -0.295189,-0.01718 -0.146814,-0.477925 -0.562265,-0.374843 -0.274886,1.536859 -2.652019,0.971469 -3.186172,2.249061 -1.944501,-0.0859 -3.651601,1.077676 -4.872967,0.374844 -0.362348,0.324865 0.160871,1.535297 -0.562265,1.499375 -0.627863,-0.05935 -0.188984,-1.185443 -0.749687,-1.311953 0.02655,0.588817 -0.481049,0.643481 -0.937109,0.749687 -0.662224,-0.01093 -0.685652,-1.280716 -1.311953,-0.749687 0.584131,1.5884 0.128072,2.717616 -0.374844,4.12328 -1.279153,0.345168 -2.820698,0.427946 -3.561014,1.311952 0,0.499792 0,0.999583 0,1.499375 -2.270927,2.077258 -5.461784,4.109223 -5.435232,7.871716 -1.180758,0.04685 -1.058934,2.259994 -1.124531,2.811327 0.201478,-0.548209 0.840274,-0.657538 1.686796,-0.562266 0.285818,1.160454 -0.527905,1.221366 -0.374843,2.249062 0.866825,0.801228 1.678987,1.632132 1.12453,3.373593 -1.983547,0.0656 -3.218969,-1.391607 -4.872967,-0.562266 -0.640357,0.01718 -0.107767,-1.140149 -0.748125,-1.124531 -0.76062,-0.356101 -1.653997,0.318617 -2.06164,-0.562265 0.02343,0.965222 -1.010516,0.460745 -1.124531,0 -0.18586,0.563827 -0.663785,0.837151 -0.562265,1.686796 -0.999583,0.249896 -0.499792,-0.999583 -1.499375,-0.749687 -1.633693,1.927321 -3.278319,3.843709 -2.998749,7.684294 1.87578,1.872656 0.52322,6.972091 2.249062,8.996247 0.279571,4.3435 1.550916,7.695227 2.811327,11.057887 1.368179,0.506038 2.17097,1.577466 2.623906,2.998748 1.64775,0.538838 2.586421,1.786755 3.561014,2.99875 0.466993,0.157746 1.004268,0.24521 1.686796,0.187422 0.276447,0.410766 0.365473,1.008954 0.748126,1.311952 0.27957,-1.644626 1.646188,0.655977 2.998748,-0.187422 0.03124,1.719596 1.130779,2.369324 2.06164,3.186171 0.112453,1.074552 0.365473,2.008537 0.937109,2.623905 0.134319,0.509163 -0.884006,-0.134318 -0.749687,0.374844 -0.0656,2.795709 0.132757,5.205641 -0.187422,7.871716 0.293628,0.01874 0.649729,-0.02499 0.562266,0.374844 0.05935,3.504787 -1.204185,7.804553 0,11.432733 0.620054,-0.37953 1.199499,-0.79967 2.06164,-0.93711 0.05935,0.75281 0.713764,0.91056 0.937109,1.49937 -0.359225,1.07612 -1.160454,3.28769 -0.562266,4.12328 0.64192,0.0172 0.107768,-1.14015 0.749688,-1.12453 0.13588,0.42482 -0.33736,1.46189 0.374843,1.31195 0.495106,-0.0656 0.16868,-0.95429 0.562266,-1.12453 0.413889,0.27489 -0.10933,1.48532 0.562265,1.49938 0.31237,-0.68722 0.04061,-1.95856 0.749687,-2.2475 0.139005,0.88713 -0.210849,1.28852 -0.187422,2.06164 0.331112,0.0422 0.938671,-0.18899 0.749688,0.37484 -0.08278,0.64504 0.07341,1.05113 0.187421,1.49938 1.629008,1.55716 2.673885,3.69845 4.12328,5.43523 0.566951,-0.55758 1.550916,-0.69815 1.311953,-2.06164 0.738755,-0.11089 0.502915,1.31664 1.311953,0.56226 -0.167118,1.60402 0.663785,2.21158 0.374844,3.93586 0.498229,0.25146 1.358808,0.14057 1.499374,0.74969 0.171803,-0.32799 0.0656,-0.93555 0.374844,-1.12453 -0.0062,0.81841 -0.06872,1.69304 0.374843,2.06164 0.381091,0.3764 0.49823,0.0484 0.748126,-0.18742 0.71845,2.31309 2.427112,2.47709 3.18617,4.68554 0.254583,-0.0593 0.357663,-0.26707 0.749683,-0.18742 -0.638791,1.63369 1.26042,2.27874 1.49938,3.56101 0.38421,2.06633 -0.8434,4.34194 0,6.37235 0.19367,-0.31862 0.14057,-1.84142 0.56226,-1.31196 -0.25458,1.81487 -1.10578,3.10808 0,4.49813 -0.71376,1.2854 -1.81018,2.18815 -2.06164,3.93585 1.42753,3.45325 -2.01478,7.42191 -0.56226,10.87047 0.29831,-0.139 -0.0422,-0.91681 0.56226,-0.74968 -0.646601,2.7879 1.27916,4.44814 0,6.9346 0.44513,0.15619 0.87308,-0.92773 0.93711,0 -0.3889,1.13234 -2.277171,1.26354 -1.49937,2.99875 -1.240108,-0.58725 -0.89494,1.17451 -1.311954,2.24906 -0.540399,1.39161 -1.722718,2.34121 -0.937109,3.74844 0.281133,0.69971 1.074552,-0.19992 1.124531,0.56227 -0.237401,0.70127 -0.476363,2.85037 -0.187422,3.93585 0.482612,-0.76686 0.276448,-2.22251 1.124531,-2.6239 -0.323302,0.88713 0.02655,0.91368 0.187423,1.68679 -1.194815,0.80436 -1.557164,2.44117 -1.874219,4.12328 -0.05466,0.50136 0.727821,-0.49823 0.562265,0.37485 -1.49625,2.56768 -0.413889,4.27009 -1.12453,7.49687 0.293627,-0.0812 0.16087,-0.59038 0.749687,-0.37484 -1.903893,3.31424 -0.61693,7.61088 -1.686796,11.05788 0.960536,1.22293 0.351415,3.93274 0.749687,5.24781 1.21668,-0.25146 1.491565,0.025 2.623906,-0.56226 -0.452937,1.79612 -1.605581,2.89254 -2.061641,4.68554 0.176489,-0.11245 0.965223,-0.83403 0.937109,0 0.813723,2.1616 -2.189711,3.65629 -2.623905,5.81008 -0.231154,0.60756 0.605997,0.14369 0.374844,0.74968 -1.341628,2.41306 -2.309974,5.15723 -3.373593,8.24656 0.07965,0.52479 -0.698146,-0.47011 -0.749687,0.18743 -1.293211,2.95501 -3.268949,5.2275 -3.748437,8.99624 -1.19169,0.93243 -1.568095,2.67857 -2.06164,4.3107 0.07653,0.63255 0.72626,-0.49823 0.562266,0.37485 -0.229592,1.45564 -0.998021,2.37557 -2.06164,2.99875 -1.593085,5.46959 -6.372342,7.87484 -7.122029,13.68179 -0.785609,0.96366 -1.543106,1.95387 -1.499374,3.74687 -0.905872,1.44315 -2.522385,3.05029 -2.249062,5.06039 -0.332674,0.72939 -0.979279,1.14327 -1.124531,2.06164 0.01718,0.29519 0.477926,0.14682 0.374844,0.56227 -0.9293,2.40524 -0.993336,5.99437 -2.623905,8.43242 -0.32955,5.33996 -4.26697,8.79945 -3.935858,14.9953 -0.82778,1.52593 -1.832049,4.3029 -1.311953,5.9975 -0.402957,0.53415 -0.893377,0.98084 -1.124531,1.6868 -0.396709,4.4622 -2.942522,8.41055 -4.498123,12.74312 -2.748853,2.75041 -4.699602,6.29581 -6.934607,9.55851 0.01718,0.29519 0.477925,0.14838 0.374843,0.56227 -0.663785,0.4623 -1.41972,0.82934 -1.874218,1.49937 -0.05623,0.49198 0.727822,0.14838 0.562266,0.74813 -1.180758,0.94335 -2.094439,2.15535 -2.998749,3.37359 -0.335798,-1.22449 -1.299458,0.15618 -1.874218,0.37484 -0.809038,0.24521 -0.232716,-0.89181 -0.937109,-0.74812 -1.722719,0.4951 -4.363805,-0.72314 -5.997498,-1.49938 -0.854331,0.0812 -0.604435,1.26822 -1.499375,1.31195 -0.915243,-0.15306 0.940233,-1.26353 0.187422,-1.87421 -1.297896,1.90233 -5.0354,0.69658 -5.247811,3.93742 -0.869949,0.18117 -0.254581,-1.12141 -1.124531,-0.93867 -4.977611,2.06007 -10.439394,2.50208 -14.993744,4.87296 -0.615369,1.88359 -2.050707,2.94721 -3.561015,3.93586 -0.996459,1.86641 -2.984692,3.25021 -1.311952,5.81164 -3.5922516,2.84256 -6.6113046,6.25833 -8.0591376,11.24375 0.0016,0.6263 0.0016,1.25104 0.0016,1.87578 z M 411.74519,338.65025 c 0,0.18742 0,0.37484 0,0.56227 -1.99604,0.75124 -3.42357,2.07413 -5.81163,2.43648 -5.65233,4.40597 -11.36089,8.75416 -17.61609,12.55726 -1.32133,-0.303 -2.19284,-1.05581 -3.18773,-1.6868 0.0703,-1.92888 1.35568,-2.64108 2.06164,-3.93585 -1.32758,-0.86058 -2.16004,-2.21314 -3.55946,-2.99875 -0.0781,-0.45138 0.34205,-0.40765 0.18586,-0.93867 -1.05737,-0.56539 -1.92888,-1.3182 -2.6239,-2.2475 0.73563,-0.0484 0.69658,0.67784 1.49937,0.5607 -0.37016,-1.93982 -2.38338,-2.23969 -3.93586,-2.99875 0.303,-0.88244 1.00115,-1.37286 0.93711,-2.6239 -1.38536,-0.74032 -2.42711,-1.82268 -4.3107,-2.06164 0.68409,-1.7524 1.80394,-3.06904 2.62391,-4.68555 -0.7372,-0.0812 -1.30571,-0.442 -1.12453,-0.93711 -0.66379,0.0859 -1.08237,0.41702 -1.87422,0.37485 -0.39671,-1.02145 0.70439,-0.54509 0.93867,-0.93868 -0.95273,-0.60912 -2.0101,-1.11359 -3.18773,-1.49937 -0.13276,-0.88244 0.38421,-1.11516 0.56226,-1.6868 0.006,-0.56695 -0.94335,-0.18117 -0.93711,-0.74812 0.81841,0.0687 0.37172,-1.12766 1.12453,-1.12453 -0.10776,-0.32955 0.22647,-1.10111 -0.18742,-1.1261 -0.45918,0.26552 -0.94648,1.16514 -1.68679,0.56227 -0.23116,-0.60756 0.60755,-0.14369 0.37484,-0.74813 -1.46345,-2.14597 -5.40087,-1.98979 -6.93461,-4.49968 -0.57632,0.13119 -0.35922,0.13119 -0.93711,0 -0.22178,-0.96522 -0.92305,-1.45096 -0.93711,-2.62391 0.467,-0.28425 1.23074,-0.26863 1.31196,-0.9371 -2.08976,-0.73095 -3.78124,-3.46106 -6.93461,-3.74844 0.2499,-0.56227 0.19055,-1.43378 0.18742,-2.2475 -0.442,0.0562 -0.34829,0.64973 -0.93711,0.5607 0.68097,-1.32288 1.84923,-3.05341 1.12453,-4.68554 0.42795,-0.70127 1.32289,-1.49313 0.93711,-2.43649 0.46231,0.025 0.90275,0.0281 1.1261,-0.18742 -0.1515,-0.64973 0.27957,-0.72157 0.18742,-1.31195 -0.46856,-0.0953 -0.6263,-0.49823 -1.1261,-0.56227 0.29832,-2.3865 1.52124,-3.85308 2.06164,-5.99749 -0.24989,0 -0.49979,0 -0.74968,0 0.4217,-0.95273 1.58059,-1.16983 1.31195,-2.81133 0.43576,0.0593 0.72001,-0.0312 0.93867,-0.18742 1.33382,-3.10183 3.00968,-5.86318 4.87297,-8.43398 -0.46856,-0.82778 0.18117,-1.36037 0.5607,-1.87422 3.40483,0.0562 4.33413,-3.23771 4.68555,-5.62266 0.0219,-0.35454 0.62005,-0.12963 0.56226,-0.56226 -0.66378,-2.702 0.81372,-4.24354 -0.18742,-6.55977 1.02613,-1.96636 2.28342,-3.65941 2.06164,-5.99749 1.13859,0.0843 0.18742,-0.69971 0.18742,-1.12453 1.31039,-0.81216 0.86214,-2.51458 1.12453,-3.74844 0.909,-4.26228 3.28301,-8.08881 4.87297,-11.61859 -0.003,-0.37172 -0.51073,-0.23896 -0.37484,-0.74969 1.10578,-0.70595 1.97417,-1.65087 2.99874,-2.43648 -0.0203,-2.39431 2.563,-2.18659 2.62547,-4.49812 0.43576,-0.0625 0.80748,-0.19211 0.93711,-0.56227 1.07768,-2.90191 0.94336,-5.35558 1.31195,-8.99625 1.51187,-0.54977 1.73834,-2.38494 2.62391,-3.56101 -0.16556,-0.39515 -0.57008,-0.5529 -0.5607,-1.12453 0.97303,-0.67628 0.38733,-4.11547 -0.74969,-4.49813 0.0109,-0.61536 0.53415,-0.71688 0.37484,-1.49937 0.27333,-0.10308 0.96835,0.21866 0.93711,-0.18742 0,-0.18899 0.15306,-0.22335 0.18742,-0.37485 -0.33111,-0.48104 -0.86526,-0.75905 -0.93711,-1.49937 -0.15618,-0.52947 0.26396,-0.48573 0.18743,-0.93711 -1.27916,-0.95897 -1.16827,-3.02061 -2.24907,-3.74843 0.12183,-1.39005 -0.43107,-2.39276 0,-3.56102 -0.33423,-0.60287 -1.23229,-0.64192 -1.31195,-1.49937 0.42639,0.0515 0.70439,-0.0453 0.74969,-0.37485 -0.80123,-2.54581 -2.65514,-4.331 -1.87422,-7.49687 1.15733,0.52791 1.65868,1.71491 2.62391,2.43648 2.81288,0.88401 1.06049,-2.73479 1.87421,-3.37359 1.28853,0.83559 2.42243,1.8258 4.12328,2.24906 -0.42013,-2.15535 -0.48886,-4.13421 1.31196,-4.68554 0.26239,1.21824 0.90899,-0.68253 1.31351,0.56226 0.51072,-0.64816 -0.18586,-1.34006 0,-2.24906 1.07924,-0.0219 -0.0125,2.27093 1.49937,2.24906 -0.13431,-1.08548 0.84496,-0.33267 0.93711,0 0.49199,0.0562 0.14838,-0.72626 0.74969,-0.56226 -0.0531,0.49042 0.0672,0.80591 0.5607,0.74969 0.70596,-0.62162 -0.53259,-2.5505 0.56227,-2.43649 0.85902,0.10308 -0.51697,1.74771 0.93711,1.49938 -0.008,-0.57008 -0.10777,-1.23386 0.56226,-1.12453 0.32175,0.24052 0.23116,0.89181 0.74969,0.9371 0.25771,-0.24208 0.1843,-0.81372 0.18586,-1.31195 0.8637,-0.11245 0.52947,0.97147 1.12609,1.12453 0.164,-0.79654 1.07456,0.24053 1.49938,-0.37484 -0.10308,-0.33267 -0.0968,-0.7778 -0.37484,-0.93711 0.0328,0.4092 -0.15463,0.59506 -0.56227,0.56227 -0.0422,-1.71023 -0.53415,-2.23501 0,-3.74844 0.9496,0.36703 0.51541,-0.26395 1.31195,-0.37484 0.32331,0.83871 0.12495,1.16201 0.56227,1.68679 0.25302,-0.0593 0.35766,-0.26707 0.74812,-0.18742 0.53728,1.21356 1.16046,2.33809 2.43805,2.81133 0.10777,-0.60756 -0.12807,-0.87151 -0.18742,-1.31196 0.72626,-0.16243 0.30612,0.81841 1.12453,0.56227 -0.19992,-0.88869 0.94179,-0.43419 0.93867,-1.12453 0.42014,-1.80394 -0.85746,-3.80154 0.18742,-4.49812 0.94023,1.97417 -0.70596,5.39931 1.31195,6.18492 -0.0859,0.8965 0.13588,1.48844 0.56071,1.87421 0.80591,-0.81841 0.48886,-2.75978 0.56226,-4.3107 0.47012,-0.24833 0.58726,0.74188 0.74969,0.18742 0.35298,-0.77311 0.37328,-1.87578 0.93711,-2.43648 2.18971,0.85277 4.97761,2.10069 6.74718,2.24906 0.14213,-1.5431 1.36506,-2.00854 1.6868,-3.37359 0.67628,0.13432 0.67316,0.95117 0.74813,1.6868 1.32132,-0.32175 0.96678,1.03238 1.87421,1.12453 0.3483,-1.08861 0.0125,-2.86131 0.74813,-3.56102 0.36235,0.60913 0.76843,0.61537 1.31351,0.18743 0.1843,0.44044 0.32799,0.91993 0.37328,1.49937 0.75906,-0.25927 0.59351,0.40608 1.1261,0.37484 -0.0859,-2.09443 -1.00271,-3.54539 0,-5.43367 0.35454,0.45606 0.40295,1.22137 0.37484,2.06164 1.47282,0.42014 1.99761,0.67785 3.37203,1.31196 0.0469,-0.6716 -0.56226,-0.68566 -0.5607,-1.31196 1.24792,0.31394 1.36193,1.76021 2.43648,2.24907 0.27801,-0.606 0.96835,0.0781 0.93711,-0.56227 0.90275,-0.0281 0.7247,1.02457 1.31352,1.31195 1.09954,-0.87307 1.67742,0.47012 2.43648,0.18742 -0.61537,-1.7602 -1.24323,-3.31268 -0.93711,-5.06038 1.85079,1.13077 0.51229,4.68554 2.2475,5.62265 0.29831,-0.13901 -0.0422,-0.91681 0.56227,-0.74969 0.05,0.76218 0.87307,0.75125 1.31195,1.12453 -0.0375,-1.18544 -0.5732,-2.10224 -0.18742,-3.18617 1.44158,0.29051 -0.11558,3.13463 1.31195,3.74844 0,-0.62474 0,-1.24948 0,-1.87422 1.31664,-0.003 0.22178,2.40368 1.12609,2.81133 0.2171,-0.15775 0.50135,-0.24678 0.93711,-0.18743 -0.10621,1.2323 1.49157,0.7575 1.12453,2.24907 0.96991,-0.3358 0.71064,1.1542 1.31352,1.68679 0.79029,-1.1464 2.29591,-1.57747 2.43648,-3.37359 0.57164,0.13588 0.68409,-0.19211 1.12453,-0.18742 0.28738,2.12255 2.17722,1.60245 2.99875,2.99875 0.44044,-0.0593 0.11089,-0.8887 0.74969,-0.74969 -0.10933,0.60912 0.12807,0.87307 0.18742,1.31195 -0.25615,0.13744 -0.96679,0.7575 -0.37485,1.12453 0.38578,-0.0515 0.0437,-0.82934 0.56227,-0.74968 0.48105,1.01832 0.49667,2.50051 1.12453,3.37359 0.53259,0.0328 -0.22803,-1.22605 0.56227,-0.93711 0.81997,4.67617 3.23146,7.76239 5.05882,11.43273 0.0921,-0.22178 0.19992,-0.42482 0.37485,-0.56227 0.2249,1.02614 0.5076,1.99136 0.93711,2.81133 -0.009,-0.3233 0.14525,-0.48105 0.37484,-0.56226 0.27645,0.90118 0.18742,2.33496 1.12453,2.06164 0.24209,1.81955 1.15733,2.96595 2.06164,4.12328 -0.21085,7.52967 1.26822,15.5154 0.74969,23.05288 0.45137,0.0765 0.40764,-0.34205 0.93711,-0.18742 0.0562,2.31934 -2.90504,3.57507 -1.6868,5.81007 -0.6388,1.83049 -1.10891,3.40327 -0.93711,5.24781 0.6716,-0.0781 0.40921,-1.08861 1.12453,-1.12453 -0.58569,2.73948 -2.7223,5.23376 -2.43648,7.6843 0.57163,-0.17649 0.58725,-0.91212 1.31195,-0.93711 -0.36079,1.96793 -3.04873,3.91399 -1.6868,5.81007 -0.46074,0.97772 -0.93554,1.93826 -1.31195,2.99875 0.29363,0.0187 0.64973,-0.025 0.56071,0.37485 -1.34476,1.40253 -2.36464,4.13265 -2.81133,5.81007 1.32132,-0.92774 1.60558,-2.89254 3.18617,-3.55945 -0.0797,1.14171 -1.19481,1.48063 -0.74969,2.6239 -1.49469,1.12922 -3.27363,1.97418 -3.93586,3.93586 0.0328,0.22022 0.29519,0.2046 0.56227,0.18742 -0.89494,2.33341 -3.19242,3.48605 -2.24906,5.81164 -0.7778,1.72116 -2.8863,2.11318 -2.99875,4.49813 0.0328,0.21865 0.29519,0.20304 0.56226,0.18742 -0.19523,0.89962 -0.6794,1.52748 -1.68679,1.12453 -0.0453,1.07923 -0.91525,1.33382 -1.31352,2.06164 0.003,0.37172 0.51229,0.2374 0.37485,0.74812 -0.35767,0.7044 -1.12141,1.00427 -1.31196,1.87422 0.18743,0 0.37485,0 0.56227,0 -0.0656,0.62005 -0.5607,0.81372 -0.93867,1.12453 -0.0297,-0.22178 0.0328,-0.53259 -0.18586,-0.56226 -0.2827,0.40764 -0.93867,0.43731 -0.93867,1.12609 0.18742,0 0.37484,0 0.56226,0 -0.19367,0.88401 -1.16826,1.50562 -1.68679,1.49937 0.14525,1.40567 -2.03665,1.59153 -0.93711,2.81133 -1.75708,0.80279 -2.84413,3.39858 -4.12484,5.24781 0.14681,0.0406 0.36859,0.005 0.37484,0.18742 -0.40452,0.5857 -0.98553,0.7044 -1.49937,0.74813 -1.97887,3.95772 -4.90108,6.97053 -8.24656,9.55851 0.38265,0.10308 0.36703,0.56383 0.74968,0.18742 -0.67003,1.64307 -3.30331,1.31976 -3.56101,3.3736 -0.37484,0 -0.74969,0 -1.12453,0 0,0.37328 0,0.74812 0,1.12453 -1.60714,0.0172 -1.87891,1.36974 -2.99875,1.87421 -0.075,1.36506 -2.52551,1.97262 -2.99875,3.56102 1.71179,-0.78717 2.50989,-2.48646 4.49656,-3.00031 -0.86839,1.54779 -4.28571,4.32788 -5.9975,4.12484 -0.33579,1.09954 -1.79144,1.0808 -1.68679,2.6239 -2.66452,0.89494 -3.46574,3.65629 -5.81008,4.87297 0.21866,0.27801 0.21866,0.47324 0,0.74969 -3.22053,0.96366 -4.3435,4.02644 -6.93304,5.62265 0.009,0.23897 0.23896,0.25927 0.18742,0.56071 -0.44044,0.74812 -2.28499,0.0922 -2.24906,1.31351 0.95585,-0.11089 1.45095,-0.67784 2.25374,-0.93867 z"
   id="path12"
   style="fill-rule:evenodd;stroke-width:1" />
<rect
   style="overflow:inherit;fill:none;stroke:#1a1a1a;stroke-width:1.88976;stroke-linecap:round;stroke-linejoin:round;opacity:0"
   id="rect1"
   width="498.11014"
   height="498.11014"
   x="0.94488001"
   y="0.94488001"
   ry="9.9237108" /></svg>
