<?xml version="1.0" encoding="UTF-8" standalone="no"?>
<!-- Created with Inkscape (http://www.inkscape.org/) -->

<svg
   version="1.0"
   width="374.99994pt"
   height="374.99994pt"
   viewBox="0 0 374.99993 374.99994"
   id="svg2"
   sodipodi:docname="rhiRox1_Yan Wong.svg"
   inkscape:version="1.3.2 (1:1.3.2+202311252150+091e20ef0f)"
   xmlns:inkscape="http://www.inkscape.org/namespaces/inkscape"
   xmlns:sodipodi="http://sodipodi.sourceforge.net/DTD/sodipodi-0.dtd"
   xmlns="http://www.w3.org/2000/svg"
   xmlns:svg="http://www.w3.org/2000/svg">
  <sodipodi:namedview
     id="namedview1"
     pagecolor="#ffffff"
     bordercolor="#cccccc"
     borderopacity="1"
     inkscape:showpageshadow="0"
     inkscape:pageopacity="1"
     inkscape:pagecheckerboard="0"
     inkscape:deskcolor="#d1d1d1"
     inkscape:document-units="pt"
     inkscape:zoom="0.84058451"
     inkscape:cx="248.63651"
     inkscape:cy="233.17108"
     inkscape:window-width="1850"
     inkscape:window-height="1136"
     inkscape:window-x="70"
     inkscape:window-y="27"
     inkscape:window-maximized="1"
     inkscape:current-layer="svg2" />
  <defs
     id="defs12" />
  <g
     transform="matrix(0.02284524,0,0,-0.02284524,6.7314707,381.67386)"
     id="g6"
     style="fill:#000000;stroke:none;stroke-width:4.37728">
    <path
       d="m 2415,16471 c -3,-6 -33,-26 -66,-47 -55,-33 -63,-35 -87,-24 l -27,12 28,14 c 30,16 35,32 13,40 -19,7 -73,-21 -113,-59 -29,-27 -35,-29 -59,-18 -22,10 -24,14 -13,27 28,34 -9,31 -73,-7 -37,-22 -81,-42 -98,-45 -30,-6 -31,-5 -24,20 9,37 -5,33 -56,-16 -55,-53 -78,-66 -109,-58 -21,5 -22,7 -7,19 17,14 21,31 8,31 -4,0 -29,-18 -56,-40 -49,-41 -74,-47 -41,-10 10,11 15,23 12,26 -9,10 -36,-15 -53,-48 -8,-16 -20,-26 -25,-22 -6,3 -26,-10 -44,-29 -20,-21 -36,-31 -38,-24 -6,17 -17,4 -32,-40 -13,-34 -14,-35 -15,-11 -1,63 -43,38 -55,-33 -4,-21 -11,-39 -16,-39 -12,0 -11,17 2,41 11,21 4,59 -11,59 -5,0 -16,-21 -26,-47 -9,-27 -27,-59 -40,-72 l -23,-25 14,49 c 19,60 19,65 0,65 -8,0 -18,-14 -23,-32 -4,-18 -15,-33 -22,-33 -10,0 -17,-18 -23,-50 -10,-59 -25,-80 -33,-47 -4,12 -10,22 -14,22 -13,0 -20,-29 -20,-85 0,-29 -3,-61 -6,-69 -6,-15 -8,-15 -19,1 -8,10 -16,15 -20,12 -11,-12 17,-223 35,-255 9,-16 20,-46 24,-66 3,-19 16,-44 27,-54 34,-31 40,-49 53,-182 11,-102 11,-132 1,-152 -7,-15 -9,-33 -4,-45 4,-11 8,-27 8,-35 1,-21 -120,-81 -147,-73 -14,3 -29,-3 -46,-21 -31,-30 -33,-68 -10,-141 45,-141 55,-234 42,-370 -5,-55 -11,-181 -14,-280 -3,-159 -1,-185 16,-225 25,-60 66,-145 96,-200 13,-24 24,-57 24,-73 0,-15 9,-45 20,-67 11,-22 20,-58 20,-80 0,-38 6,-47 68,-106 37,-35 80,-67 95,-71 22,-4 27,-10 24,-24 -7,-27 10,-34 23,-10 15,28 40,15 40,-20 0,-16 5,-29 10,-29 6,0 10,6 10,14 0,24 28,40 44,26 11,-8 13,-25 9,-62 -5,-41 -3,-50 8,-46 8,2 16,22 19,43 6,50 40,73 83,56 28,-11 29,-13 22,-61 -8,-60 4,-65 35,-15 31,50 54,47 45,-5 -5,-32 -4,-40 8,-40 9,0 18,13 22,29 3,16 12,32 20,35 11,4 11,-1 -1,-30 -8,-19 -12,-39 -9,-44 10,-17 35,-11 35,8 1,9 7,28 14,42 13,23 14,22 19,-30 3,-30 6,-68 6,-84 2,-56 26,-46 36,15 5,29 11,39 23,37 15,-3 23,-22 36,-80 8,-35 26,-37 26,-3 0,17 5,25 18,25 29,0 41,-20 35,-56 -4,-22 -2,-34 6,-34 6,0 14,18 17,40 4,26 13,41 25,45 31,10 42,-4 36,-47 -4,-27 -2,-38 6,-35 7,2 13,16 15,31 4,36 24,28 35,-13 4,-18 11,-31 14,-27 3,3 12,-2 19,-12 19,-26 27,-9 15,34 -11,39 -2,62 18,50 6,-4 11,-17 11,-29 0,-15 11,-28 35,-41 42,-23 50,-17 47,32 -2,25 1,33 7,23 5,-8 18,-12 30,-8 13,3 21,0 21,-8 0,-7 10,-24 21,-39 30,-38 46,-19 23,25 -16,33 -16,34 2,18 11,-9 47,-30 82,-47 45,-22 62,-27 62,-17 0,8 -12,21 -26,28 -26,14 -25,14 30,21 60,7 96,-7 117,-45 14,-26 33,-24 26,3 -7,26 8,48 34,48 12,0 19,-7 19,-19 0,-11 5,-23 10,-26 6,-3 10,5 10,19 0,32 10,56 23,56 6,0 28,-12 48,-26 35,-24 41,-25 74,-14 20,7 38,10 40,8 3,-2 8,-28 12,-58 10,-69 27,-74 42,-13 7,26 20,56 29,67 16,17 17,16 22,-35 5,-51 30,-84 30,-39 0,11 8,35 18,53 l 17,32 3,-45 c 2,-25 7,-49 13,-55 5,-5 9,-28 9,-52 0,-59 16,-54 24,7 4,27 11,52 16,55 10,6 24,-31 16,-44 -4,-5 10,-19 29,-31 33,-20 46,-40 26,-40 -11,0 -45,-90 -36,-98 4,-4 15,4 26,16 l 19,24 11,-26 c 11,-23 9,-29 -9,-49 -12,-13 -22,-29 -22,-35 0,-17 30,-15 36,3 4,8 11,15 16,15 6,0 1,-16 -11,-36 -12,-19 -21,-39 -21,-45 0,-19 20,-8 34,19 l 15,27 1,-27 c 0,-18 -6,-29 -20,-33 -11,-3 -23,-17 -26,-31 -7,-26 5,-49 14,-25 8,22 42,52 52,46 6,-4 4,-18 -5,-35 -8,-16 -15,-42 -15,-59 0,-16 -4,-41 -10,-55 -14,-38 8,-44 36,-10 l 23,29 1,-61 c 0,-43 -5,-65 -15,-74 -16,-14 -20,-40 -6,-40 5,0 15,7 22,17 12,14 15,12 20,-23 4,-21 3,-49 -2,-61 -6,-17 -5,-23 6,-23 27,0 27,-21 0,-61 -29,-45 -27,-63 5,-34 24,22 24,22 45,-40 9,-27 25,-60 36,-71 19,-20 19,-24 6,-50 -20,-39 -76,-83 -178,-139 -101,-56 -135,-71 -214,-95 -117,-36 -228,-81 -284,-115 -53,-32 -213,-95 -243,-95 -7,0 -37,-17 -65,-39 -29,-21 -74,-49 -100,-61 -26,-12 -84,-39 -128,-60 -44,-21 -105,-45 -135,-54 -127,-36 -159,-46 -245,-76 -89,-31 -259,-62 -345,-63 -106,-1 -249,6 -260,13 -6,4 -19,21 -28,40 -9,18 -30,40 -47,48 -79,43 -133,79 -170,112 -22,21 -60,45 -85,54 -25,10 -61,32 -80,51 -19,18 -46,36 -60,40 -26,8 -66,34 -116,76 -19,16 -55,30 -95,38 -35,8 -86,20 -113,27 -27,8 -63,14 -79,14 -17,0 -53,14 -81,32 -54,35 -111,43 -140,19 -26,-22 -20,-67 14,-103 16,-17 30,-37 30,-44 0,-14 53,-45 100,-59 14,-4 48,-26 75,-50 28,-23 60,-47 72,-54 13,-6 30,-26 39,-44 19,-37 92,-106 112,-107 18,0 152,-129 152,-145 0,-7 13,-53 30,-103 l 30,-91 -20,-63 c -26,-82 -25,-118 5,-202 28,-79 43,-98 99,-126 22,-11 55,-29 71,-40 44,-29 64,-25 115,25 51,51 58,52 158,41 59,-6 92,-18 170,-59 60,-31 112,-51 137,-53 144,-9 220,-18 290,-34 165,-38 885,-45 1004,-9 20,5 62,14 93,19 32,5 69,17 83,28 19,15 48,21 122,27 54,4 114,13 133,20 19,7 61,18 92,25 31,6 72,22 91,35 35,23 87,36 148,36 19,0 45,4 59,9 14,5 42,11 62,15 22,3 49,18 68,36 l 30,31 15,-36 c 26,-61 18,-141 -30,-311 -9,-32 -25,-75 -35,-95 -18,-35 -35,-132 -45,-260 -3,-36 -10,-74 -15,-85 -16,-35 -32,-118 -34,-176 -1,-31 -7,-63 -12,-70 -35,-45 -45,-103 -45,-263 0,-136 -10,-281 -33,-501 -2,-22 -11,-59 -20,-82 -15,-41 -54,-243 -56,-293 -7,-193 -19,-267 -46,-288 -14,-10 -39,-13 -90,-9 -64,3 -77,8 -115,39 -84,67 -180,83 -246,42 -12,-8 -33,-14 -47,-14 -16,0 -27,-7 -31,-20 -8,-25 1,-40 23,-40 25,0 52,-55 52,-105 0,-30 -8,-56 -27,-84 -44,-67 -114,-92 -343,-120 -41,-5 -98,-16 -127,-24 -50,-14 -123,-61 -123,-78 0,-15 -72,-90 -110,-115 -101,-67 -138,-97 -177,-144 -47,-57 -51,-69 -27,-105 13,-19 25,-25 54,-25 h 39 l -11,-32 c -6,-18 -14,-62 -18,-98 -9,-76 -12,-88 -48,-157 l -27,-52 21,-28 c 12,-15 38,-34 60,-41 46,-16 74,-39 74,-63 0,-47 42,-79 105,-79 29,0 45,9 83,45 26,25 63,59 82,75 19,17 48,42 64,56 26,23 93,54 118,54 10,0 8,-21 -8,-112 -13,-76 20,-128 82,-128 27,0 42,7 62,30 15,16 36,30 49,30 36,0 66,19 98,61 76,100 75,99 115,99 63,0 172,29 220,59 84,52 212,91 301,91 36,0 60,6 81,21 16,12 44,25 61,30 129,34 156,50 242,141 64,69 97,117 148,211 48,90 80,136 121,175 31,30 56,57 56,62 0,5 24,33 54,62 31,31 57,66 61,83 13,57 26,82 51,94 15,7 33,30 46,59 25,57 98,138 109,120 13,-21 23,1 22,44 -2,48 6,66 58,128 21,25 49,65 63,90 14,25 26,37 26,28 0,-10 5,-18 10,-18 6,0 10,17 10,38 0,48 68,172 111,203 29,20 32,21 41,6 16,-29 28,-18 28,26 0,46 13,77 24,58 16,-26 26,-7 26,48 0,42 5,62 16,72 14,11 18,10 29,-5 8,-10 18,-15 23,-12 12,7 6,94 -8,110 -8,10 -6,15 9,19 12,3 22,-1 25,-9 3,-8 10,-14 16,-14 13,0 13,47 0,55 -12,8 -13,95 -1,95 5,0 16,-11 25,-25 9,-14 21,-25 26,-25 15,0 11,42 -5,64 -12,16 -12,22 1,47 19,37 40,37 47,-1 10,-47 31,-38 24,10 -4,29 1,53 17,87 22,45 23,46 30,20 3,-15 11,-27 17,-27 7,0 9,19 4,60 -5,43 -4,60 5,60 8,0 9,21 5,73 l -6,72 20,-25 c 26,-32 32,-24 19,26 -6,23 -8,48 -5,57 7,18 47,24 47,7 0,-5 5,-10 11,-10 6,0 8,11 5,28 -7,32 7,64 17,38 8,-19 37,-21 37,-3 0,7 -7,22 -15,33 -22,28 -18,62 10,96 14,16 25,41 25,54 0,27 22,75 50,111 l 18,23 15,-23 c 24,-35 29,-14 10,39 -10,27 -17,64 -15,82 3,33 4,33 23,16 15,-13 22,-15 31,-6 9,9 6,24 -13,65 -26,53 -28,87 -5,87 6,0 17,-5 24,-12 6,-6 15,-8 19,-4 5,4 -4,18 -19,30 -21,16 -28,31 -28,56 v 34 l 40,-39 c 22,-21 42,-36 46,-33 10,11 -15,46 -51,74 -51,38 -46,84 5,52 31,-20 36,-1 7,26 -17,16 -27,36 -27,53 v 27 l 16,-23 c 21,-29 41,-14 25,18 -8,14 -8,21 -1,21 16,0 12,19 -15,58 -27,40 -38,124 -12,87 8,-10 19,-15 25,-11 16,9 15,85 -1,112 -71,123 -73,134 -13,134 38,0 52,-7 117,-60 40,-33 78,-60 84,-60 5,-1 26,-14 45,-30 19,-17 41,-30 50,-30 8,0 39,-14 69,-30 30,-17 60,-30 68,-30 8,0 41,-18 73,-40 32,-22 62,-40 65,-40 3,0 28,-18 56,-40 28,-22 55,-40 60,-40 6,0 39,-13 74,-30 35,-16 69,-30 74,-30 5,0 56,-22 113,-49 118,-56 209,-92 288,-115 30,-8 84,-25 119,-36 36,-11 80,-20 98,-20 18,0 72,-13 120,-29 79,-26 110,-30 308,-40 331,-17 428,-26 452,-39 12,-7 60,-12 110,-12 91,0 187,-19 209,-42 25,-26 27,-65 4,-85 -12,-10 -53,-49 -91,-86 -56,-56 -72,-78 -84,-122 -12,-40 -26,-62 -56,-87 -22,-18 -75,-65 -117,-104 -70,-64 -200,-170 -267,-217 -14,-10 -32,-33 -39,-52 -9,-20 -34,-48 -60,-66 -29,-21 -51,-46 -62,-73 -20,-50 -54,-188 -54,-220 0,-13 -7,-29 -16,-37 -26,-21 -44,-66 -44,-109 0,-23 -4,-49 -9,-58 -12,-23 -26,-221 -24,-357 1,-60 1,-130 1,-155 -2,-140 3,-320 9,-320 3,0 12,8 19,18 12,16 13,15 14,-8 0,-14 -9,-49 -20,-78 -21,-55 -26,-102 -11,-102 5,0 13,9 16,20 3,11 11,20 17,20 11,0 4,-89 -17,-193 -9,-44 -2,-55 21,-36 15,12 16,8 10,-61 -4,-41 -7,-93 -6,-115 0,-22 0,-134 0,-248 0,-154 4,-217 15,-245 23,-61 49,-319 49,-482 -1,-216 -39,-301 -160,-353 -79,-35 -204,-38 -286,-8 -29,11 -74,20 -100,20 -31,-1 -67,8 -102,25 -30,14 -62,26 -70,26 -8,0 -36,11 -62,25 -26,14 -57,25 -68,25 -12,0 -31,6 -42,14 -11,8 -62,30 -114,50 -52,20 -106,42 -120,48 -14,6 -74,13 -135,15 -60,1 -134,8 -163,14 -29,6 -85,10 -125,10 -39,0 -145,2 -235,5 -137,5 -168,3 -197,-10 -18,-9 -55,-16 -82,-16 -53,0 -66,-6 -76,-34 -9,-22 18,-56 44,-56 20,0 70,-59 102,-121 20,-37 33,-46 112,-80 50,-22 103,-46 119,-55 16,-8 63,-19 105,-25 42,-6 92,-18 111,-28 99,-51 149,-80 188,-108 25,-18 73,-39 113,-50 58,-14 74,-23 89,-48 10,-16 42,-52 69,-80 46,-45 51,-54 51,-95 1,-25 7,-56 14,-69 7,-13 11,-32 8,-43 -7,-28 16,-74 44,-87 36,-16 58,-14 87,9 34,27 46,25 76,-11 25,-29 27,-30 73,-20 26,6 54,8 63,5 22,-9 43,13 55,57 10,38 41,66 60,54 5,-3 35,-10 67,-16 32,-6 68,-17 80,-25 12,-7 54,-16 93,-18 56,-4 80,-11 109,-30 55,-38 94,-43 120,-15 11,12 21,27 21,32 0,5 18,6 39,2 25,-4 48,-2 63,6 15,8 75,14 166,16 79,1 148,5 153,9 5,3 100,5 212,5 241,0 283,8 303,55 8,18 24,38 35,45 45,24 109,92 109,115 0,13 15,38 35,58 20,20 35,45 35,58 0,13 6,33 14,44 21,30 46,146 46,214 0,32 4,70 10,85 8,22 12,24 29,13 25,-15 38,-4 21,17 -7,9 -9,19 -5,23 4,4 10,1 12,-5 3,-7 9,-13 15,-13 17,0 2,106 -21,151 -23,43 -27,64 -11,54 6,-3 10,-14 10,-24 0,-20 27,-48 36,-38 3,3 1,14 -5,24 -5,11 -13,44 -16,74 -6,48 -5,52 8,37 8,-10 17,-18 21,-18 12,0 6,45 -8,66 -10,13 -11,25 -5,35 7,11 10,10 15,-8 9,-33 28,-29 20,5 -4,15 -12,50 -17,77 -6,28 -15,56 -21,63 -6,7 -6,12 -1,12 5,0 19,-18 32,-40 12,-22 26,-40 32,-40 15,0 10,33 -11,65 -11,17 -20,45 -20,63 0,18 -5,42 -10,53 -8,13 -7,25 1,41 11,21 12,20 32,-18 24,-48 23,-47 36,-40 6,4 3,22 -9,49 -21,44 -26,102 -11,111 5,3 12,-6 15,-21 5,-18 10,-23 18,-15 7,7 7,30 -2,79 -19,105 -12,259 10,223 18,-29 22,0 7,47 -14,45 -33,186 -20,153 9,-25 35,-50 45,-44 5,3 4,11 -2,19 -9,11 -29,71 -47,142 -8,35 15,28 38,-12 12,-19 25,-35 31,-35 11,0 1,39 -17,60 -11,14 -39,189 -31,197 1,2 11,-15 21,-37 18,-39 35,-53 35,-27 0,6 -11,32 -25,55 -19,33 -22,48 -15,62 6,10 10,33 10,50 v 31 l 26,-20 c 41,-32 53,-12 13,21 -36,30 -37,37 -18,111 10,37 11,38 29,22 29,-26 39,-12 29,42 -5,27 -7,62 -3,78 8,39 54,125 67,125 6,0 21,-9 33,-21 12,-11 37,-28 55,-37 30,-15 35,-23 40,-69 5,-34 15,-63 32,-82 22,-27 25,-42 31,-148 14,-239 27,-374 38,-399 9,-20 8,-35 -7,-76 -14,-40 -17,-67 -12,-137 4,-55 11,-89 20,-96 42,-30 86,-168 87,-267 0,-45 4,-78 10,-78 6,0 10,19 10,42 0,23 3,38 6,35 20,-19 43,-120 44,-184 0,-74 15,-106 25,-56 4,15 10,37 14,48 14,36 41,-34 41,-107 0,-109 35,-189 42,-95 l 3,42 38,-64 c 34,-57 37,-68 27,-90 -9,-21 -9,-27 4,-37 9,-6 16,-21 16,-33 0,-12 6,-21 15,-21 12,0 15,13 15,61 0,37 4,58 10,54 6,-3 10,-23 10,-43 0,-59 23,-232 31,-232 4,0 9,12 11,28 4,37 21,32 33,-11 14,-50 27,-59 24,-15 -4,45 10,45 33,-1 15,-30 16,-37 3,-62 -18,-33 -19,-49 -4,-49 5,0 17,17 25,37 14,32 17,35 26,19 12,-22 14,-79 3,-123 -5,-22 -4,-33 4,-33 6,0 14,12 17,28 4,15 9,31 12,36 9,16 22,-19 22,-61 0,-32 4,-43 15,-43 8,0 15,7 15,15 0,8 4,15 9,15 14,0 21,-27 21,-76 0,-24 4,-52 9,-62 5,-9 12,-25 15,-34 9,-29 24,-21 28,15 2,27 8,33 31,35 19,2 29,-2 33,-15 3,-10 12,-31 20,-46 16,-33 18,-57 4,-57 -16,0 -11,-26 8,-43 25,-23 31,-14 25,34 -3,21 -2,39 3,39 22,-1 32,-20 48,-92 18,-81 43,-112 31,-37 -7,39 -6,40 14,30 11,-7 28,-26 37,-44 9,-18 32,-53 50,-78 19,-26 34,-53 34,-61 0,-8 7,-23 15,-34 17,-23 20,-6 6,44 -8,25 -7,32 4,32 23,0 52,-47 75,-121 15,-51 24,-69 32,-61 8,8 6,23 -6,52 l -16,40 28,-6 c 35,-9 57,-28 72,-64 7,-16 22,-31 36,-34 14,-4 32,-19 42,-34 28,-45 232,-222 256,-222 27,0 118,-58 221,-141 39,-31 81,-62 95,-69 14,-7 44,-34 68,-61 24,-27 49,-49 56,-49 7,0 23,-11 36,-25 13,-14 34,-25 47,-25 26,0 63,-32 63,-55 0,-9 20,-35 45,-59 26,-26 45,-53 45,-66 0,-12 -18,-42 -39,-66 -21,-25 -42,-57 -46,-72 -4,-15 -21,-41 -40,-57 -22,-21 -35,-43 -40,-72 -6,-41 -59,-111 -149,-198 -17,-17 -35,-38 -41,-48 -7,-11 -31,-21 -69,-27 -68,-11 -85,-22 -67,-44 16,-20 -4,-92 -36,-127 -30,-33 -29,-62 5,-118 28,-44 29,-50 27,-161 -4,-160 -12,-208 -41,-227 -27,-17 -54,-66 -54,-98 0,-13 -7,-28 -16,-36 -20,-17 -44,-63 -44,-87 0,-13 13,-24 41,-35 l 41,-16 -3,-68 c -4,-61 -2,-69 17,-77 19,-9 19,-12 8,-57 -7,-27 -16,-69 -20,-95 -6,-44 -6,-46 15,-39 12,4 21,2 21,-4 0,-6 6,-11 14,-11 9,0 12,-8 8,-26 -5,-28 24,-66 70,-90 15,-8 30,-24 34,-36 11,-35 34,-47 89,-48 44,0 57,-5 99,-40 l 48,-40 h 138 c 150,0 188,8 238,52 23,20 40,27 54,23 26,-9 54,17 69,64 9,29 62,91 88,103 10,5 61,86 71,113 5,14 16,25 24,25 9,0 31,14 51,31 28,25 35,38 35,68 0,21 3,41 7,45 12,11 43,99 43,121 0,11 14,37 30,59 16,21 32,50 35,66 3,15 16,36 28,47 13,11 30,46 41,84 9,35 24,78 33,94 46,90 64,127 93,190 18,39 37,80 43,93 6,12 16,21 23,18 22,-8 73,97 79,162 8,89 44,227 81,309 13,28 24,56 24,61 0,5 6,15 14,21 11,9 18,4 35,-24 21,-36 41,-46 41,-21 0,8 -11,34 -25,57 -30,53 -34,143 -9,215 9,26 14,57 11,70 -2,13 0,24 4,24 5,0 9,30 9,66 v 65 l 29,-21 c 40,-28 53,-6 15,26 -16,13 -33,24 -39,24 -5,0 -3,5 5,10 8,5 25,7 37,3 14,-3 23,-1 23,7 0,14 -29,44 -36,37 -10,-9 -67,15 -96,41 -29,26 -37,45 -15,37 6,-3 18,-1 26,4 11,7 7,18 -23,54 -41,50 -44,61 -16,52 14,-5 20,-2 20,9 0,10 -9,16 -22,16 -13,0 -31,12 -41,25 l -18,25 26,-10 c 33,-12 35,-12 35,0 0,6 -18,18 -40,27 -26,12 -40,24 -40,36 0,14 5,17 18,12 36,-15 52,-17 52,-6 0,7 -20,20 -44,31 -55,23 -65,38 -23,32 42,-6 26,13 -28,31 -32,11 -41,20 -46,45 -7,32 7,45 17,17 6,-16 34,-21 34,-6 0,17 -40,59 -62,65 -15,4 -32,26 -51,64 -35,72 -35,92 -1,92 18,0 25,5 22,16 -2,11 -23,22 -63,32 -66,16 -105,44 -105,76 -1,12 -9,39 -20,61 -11,22 -19,50 -20,62 0,12 -12,31 -27,44 -25,19 -26,21 -5,15 33,-11 27,9 -13,40 -19,14 -35,32 -35,39 0,8 -11,27 -25,43 -14,17 -25,41 -25,55 0,32 -41,104 -79,141 -23,22 -29,35 -25,55 6,31 -12,51 -77,84 -51,26 -60,43 -23,42 45,0 36,18 -28,61 -75,49 -83,64 -34,64 25,0 36,4 36,15 0,10 -10,15 -32,15 -44,0 -93,19 -107,42 -11,18 -10,19 17,13 42,-9 52,13 13,28 -17,6 -31,16 -31,22 0,6 -26,24 -57,39 l -58,29 32,11 c 42,14 46,30 8,34 -71,6 -115,14 -115,21 0,4 16,15 35,24 19,9 35,21 35,26 0,6 -33,11 -72,13 -60,2 -73,6 -76,20 -3,15 0,16 28,6 47,-16 60,4 18,30 -18,12 -51,35 -73,51 -22,17 -50,35 -62,41 -17,7 -23,18 -23,43 0,31 2,34 25,29 41,-7 29,10 -35,52 -109,72 -133,111 -124,204 3,31 1,70 -4,86 -6,22 -3,39 11,65 12,24 17,50 14,76 -2,22 4,67 14,100 31,103 61,228 69,288 4,32 12,70 18,85 5,15 18,54 28,87 9,33 25,71 35,85 11,15 21,53 25,95 5,45 17,89 35,125 15,30 33,75 39,99 6,25 25,70 42,100 24,43 31,70 33,117 1,38 8,70 18,85 9,13 17,40 17,61 0,21 9,55 20,75 11,21 20,44 20,51 0,7 11,32 24,55 16,27 27,66 31,107 4,36 15,87 26,113 14,33 18,58 13,82 -5,28 -1,40 20,66 19,22 26,42 26,72 0,28 8,53 26,79 25,36 26,39 10,56 -21,24 -20,39 4,109 26,77 39,245 27,358 -9,88 -9,92 19,150 23,50 29,80 36,183 8,105 7,127 -7,155 -9,18 -19,50 -22,73 l -5,41 108,5 c 117,5 176,0 294,-26 56,-12 84,-13 110,-6 22,6 38,6 44,0 6,-6 22,-10 36,-10 27,0 67,-35 90,-78 6,-13 17,-21 25,-18 7,2 21,-4 31,-15 39,-43 69,-8 34,41 l -21,30 h 30 c 17,0 31,-3 31,-7 0,-5 18,-28 40,-53 31,-35 42,-42 49,-31 9,15 7,30 -12,68 -26,55 32,30 73,-31 14,-20 28,-36 33,-36 12,0 8,45 -5,58 -9,9 -9,12 3,12 19,0 39,-20 39,-40 1,-17 55,-80 70,-80 6,0 8,10 4,25 -5,20 -3,25 14,25 14,0 25,-13 39,-45 10,-25 24,-45 31,-45 15,0 16,42 0,58 -9,9 -9,12 0,12 7,0 23,-11 36,-25 13,-14 31,-25 39,-25 10,0 20,-13 25,-32 4,-17 13,-33 19,-35 13,-5 27,43 17,59 -13,21 41,-4 59,-27 61,-80 76,-85 59,-21 -8,26 -7,36 1,36 16,0 84,-64 126,-118 22,-29 37,-40 44,-33 6,6 2,20 -12,40 -24,33 -19,38 17,18 26,-15 132,-133 132,-147 0,-15 49,-23 64,-11 11,9 24,3 62,-30 26,-23 56,-51 65,-64 10,-12 53,-42 97,-67 72,-43 142,-105 142,-128 0,-6 5,-10 11,-10 6,0 9,9 6,20 -13,51 35,3 53,-53 10,-31 16,-38 32,-34 13,4 22,-1 28,-18 5,-13 21,-31 35,-42 64,-44 84,-65 90,-94 4,-17 22,-47 41,-67 68,-74 75,-84 80,-112 4,-16 22,-41 44,-59 21,-17 41,-41 45,-53 17,-63 72,-176 97,-203 17,-20 28,-42 28,-60 0,-17 7,-43 15,-59 8,-15 15,-45 15,-65 0,-27 7,-43 25,-59 14,-12 25,-31 25,-43 0,-11 5,-30 11,-41 14,-26 48,-148 60,-218 6,-30 10,-99 10,-152 0,-72 5,-115 21,-165 20,-64 21,-89 20,-444 0,-366 -9,-506 -35,-554 -6,-11 -14,-49 -18,-85 -4,-36 -16,-98 -27,-139 -12,-41 -26,-115 -32,-165 -21,-173 -41,-261 -72,-320 -6,-11 -18,-62 -28,-115 -22,-114 -45,-227 -61,-296 -10,-43 -40,-116 -104,-260 -8,-16 -25,-55 -38,-85 -13,-30 -33,-75 -45,-100 -11,-25 -25,-66 -32,-90 -27,-104 -100,-320 -129,-380 -17,-36 -31,-70 -31,-76 0,-6 -22,-58 -50,-115 -27,-57 -52,-124 -55,-149 -11,-85 -58,-265 -81,-315 -13,-28 -24,-55 -24,-60 0,-6 -12,-32 -26,-58 -14,-27 -32,-83 -40,-125 -14,-73 -73,-259 -99,-312 -7,-14 -17,-43 -23,-65 -28,-107 -147,-505 -162,-545 -10,-25 -26,-83 -35,-130 -10,-46 -22,-96 -27,-110 -6,-14 -25,-84 -43,-155 -19,-72 -52,-184 -75,-250 -91,-263 -114,-377 -141,-693 -28,-321 -33,-508 -21,-773 l 9,-216 43,-89 c 23,-49 58,-129 77,-177 38,-95 82,-147 170,-206 36,-24 55,-31 78,-27 164,28 185,41 244,158 34,68 44,103 57,193 9,61 16,119 15,130 0,11 9,50 20,87 17,56 18,73 9,105 -7,25 -10,113 -7,263 3,124 5,234 4,245 -2,77 2,146 12,255 7,69 13,140 12,159 0,19 5,44 11,55 6,11 15,50 19,88 5,37 14,101 20,140 6,40 15,102 20,138 5,36 11,218 14,405 3,187 10,353 15,369 6,16 10,56 10,90 1,57 7,93 58,321 56,249 137,528 176,603 9,17 23,62 32,99 8,37 30,100 49,139 18,40 36,92 40,116 4,24 17,55 29,69 12,14 36,72 55,130 30,95 61,173 96,240 8,14 23,56 34,95 11,38 24,83 29,99 6,17 16,50 22,75 25,99 40,144 53,159 31,36 82,148 117,256 12,39 31,86 42,105 11,19 24,57 29,85 4,27 20,91 34,140 14,50 28,110 31,135 3,25 12,59 20,76 7,18 19,56 25,85 6,30 20,83 32,119 16,49 20,86 19,148 -2,71 1,87 19,113 24,34 49,109 49,148 0,15 10,44 22,66 12,23 24,69 28,110 10,90 28,226 40,290 20,105 33,601 21,770 -23,316 -27,350 -39,372 -6,12 -17,66 -23,120 -6,54 -20,125 -30,158 -11,33 -26,87 -35,119 -8,33 -24,75 -36,95 -12,19 -25,57 -29,85 -5,37 -20,72 -57,128 -28,42 -63,104 -77,139 -14,35 -33,72 -43,83 -11,12 -37,48 -59,81 -109,164 -160,236 -214,300 -33,39 -71,87 -84,107 -32,48 -208,221 -264,261 -56,38 -172,161 -187,196 -6,15 -26,39 -45,54 -52,43 -171,117 -189,117 -8,0 -28,9 -45,21 -16,11 -70,41 -120,66 -49,25 -115,61 -147,80 -31,19 -109,53 -175,75 -65,22 -122,43 -128,48 -5,4 -28,13 -50,20 -40,13 -96,36 -170,71 -58,27 -155,59 -179,59 -12,0 -36,9 -54,20 -20,13 -50,20 -80,20 -57,0 -172,24 -267,55 -208,69 -337,120 -400,156 -50,29 -92,44 -147,54 -43,7 -93,22 -111,33 -17,11 -45,23 -62,26 -16,4 -49,25 -72,47 -23,21 -48,39 -55,39 -7,0 -48,37 -90,83 -182,194 -238,256 -238,264 0,10 -181,176 -266,243 -31,25 -82,68 -113,96 -31,28 -66,55 -78,58 -13,4 -72,49 -131,99 -60,51 -124,101 -142,112 -73,44 -102,63 -218,147 -66,48 -138,96 -160,107 -22,11 -61,39 -87,61 -25,22 -52,40 -60,40 -7,0 -28,12 -46,28 -18,15 -49,36 -70,47 -89,47 -116,65 -158,104 -24,23 -48,41 -52,41 -5,0 -31,20 -59,45 -28,25 -68,54 -89,65 -52,26 -125,75 -141,95 -8,9 -30,25 -50,35 -20,10 -42,26 -50,34 -7,9 -28,23 -46,32 -33,16 -48,29 -107,96 -17,20 -68,56 -112,79 -89,46 -178,113 -193,145 -6,13 -34,30 -71,44 -36,13 -90,46 -128,77 -36,30 -80,61 -97,70 -17,9 -50,32 -72,52 -51,44 -78,64 -159,116 -35,22 -91,62 -126,89 -35,28 -82,56 -104,64 -22,7 -60,29 -84,48 -24,19 -52,34 -61,34 -10,0 -28,8 -41,19 -13,10 -46,30 -74,44 -27,14 -74,41 -104,61 -29,20 -60,36 -69,36 -9,0 -25,9 -36,19 -12,11 -59,41 -106,66 -47,26 -101,59 -120,74 -19,15 -53,38 -75,51 -22,13 -69,47 -105,75 -36,29 -83,58 -105,65 -22,7 -51,19 -65,27 -14,8 -54,28 -89,45 -35,17 -87,45 -115,63 -28,17 -80,45 -116,61 -36,16 -79,42 -96,59 -17,16 -50,41 -73,55 -23,14 -64,41 -90,61 -26,20 -58,40 -72,44 -13,4 -33,15 -44,24 -11,10 -42,30 -70,46 -27,16 -75,48 -105,71 -30,24 -95,60 -145,80 -49,21 -144,71 -210,111 -99,60 -141,78 -240,107 -66,19 -174,60 -240,91 -140,67 -246,105 -289,105 -17,0 -66,7 -109,15 -43,8 -102,15 -130,15 -44,0 -268,43 -288,56 -12,7 -188,25 -337,34 -117,7 -147,12 -164,27 -17,15 -45,19 -187,25 -91,3 -169,7 -172,7 -3,1 -18,12 -33,26 -15,14 -37,25 -49,25 -12,0 -39,6 -62,14 -22,8 -67,20 -100,27 -38,8 -72,23 -93,41 -21,18 -44,28 -65,28 -18,0 -56,11 -85,25 -30,14 -62,25 -73,25 -10,0 -38,9 -61,19 -71,32 -146,61 -157,61 -20,0 -88,55 -83,68 4,14 -40,17 -66,3 -9,-4 -41,-11 -70,-15 -50,-6 -53,-5 -48,12 6,18 2,19 -69,14 -52,-3 -75,-1 -75,7 0,6 11,11 25,11 14,0 25,5 25,11 0,8 -15,10 -44,7 -32,-4 -46,-2 -50,8 -5,14 -31,9 -82,-17 -15,-8 -27,-8 -40,-1 -17,9 -16,11 9,17 15,4 27,12 27,17 0,12 -70,1 -116,-18 -46,-19 -42,-4 6,26 22,13 40,28 40,32 0,15 -27,8 -84,-23 -42,-23 -61,-28 -69,-20 -8,8 -6,16 7,30 10,11 13,21 7,25 -5,4 -12,2 -16,-3 z M 11162,2918 c -7,-7 -12,-8 -12,-2 0,14 12,26 19,19 2,-3 -1,-11 -7,-17 z"
       id="path8"
       style="stroke-width:4.37728" />
  </g>
  <rect
     style="overflow:inherit;fill:none;stroke:#1a1a1a;stroke-width:1.41732;stroke-linecap:round;stroke-linejoin:round;opacity:0"
     id="rect1"
     width="373.58261"
     height="373.58261"
     x="0.70866001"
     y="0.70866001"
     ry="7.4427834" />
</svg>
