<?xml version="1.0" encoding="UTF-8" standalone="no"?>
<svg
   version="1.0"
   width="374.99994pt"
   height="374.99994pt"
   viewBox="0 0 374.99994 374.99994"
   preserveAspectRatio="xMidYMid"
   id="svg1"
   sodipodi:docname="thaSir1_Ignazio Avella_NOTOK.svg"
   inkscape:version="1.3.2 (1:1.3.2+202311252150+091e20ef0f)"
   xmlns:inkscape="http://www.inkscape.org/namespaces/inkscape"
   xmlns:sodipodi="http://sodipodi.sourceforge.net/DTD/sodipodi-0.dtd"
   xmlns="http://www.w3.org/2000/svg"
   xmlns:svg="http://www.w3.org/2000/svg">
  <defs
     id="defs1" />
  <sodipodi:namedview
     id="namedview1"
     pagecolor="#ffffff"
     bordercolor="#cccccc"
     borderopacity="1"
     inkscape:showpageshadow="0"
     inkscape:pageopacity="1"
     inkscape:pagecheckerboard="0"
     inkscape:deskcolor="#d1d1d1"
     inkscape:document-units="pt"
     inkscape:zoom="0.95838223"
     inkscape:cx="230.59693"
     inkscape:cy="183.6428"
     inkscape:window-width="1850"
     inkscape:window-height="1136"
     inkscape:window-x="70"
     inkscape:window-y="27"
     inkscape:window-maximized="1"
     inkscape:current-layer="svg1" />
  <metadata
     id="metadata1">
Created by potrace 1.16, written by Peter Selinger 2001-2019
</metadata>
  <g
     transform="matrix(0.1066438,-0.10178281,-0.10178281,-0.1066438,94.879148,391.17204)"
     fill="#000000"
     stroke="none"
     id="g1"
     style="stroke-width:0.678334">
    <path
       d="m 1345,1983 c -111,-50 -171,-91 -233,-156 -186,-199 -156,-484 66,-630 138,-91 259,-103 487,-47 252,61 396,75 516,49 109,-24 300,-144 387,-245 56,-65 110,-174 122,-249 32,-191 -110,-373 -330,-425 -114,-27 -310,-10 -466,41 -34,11 -132,55 -217,98 -103,52 -174,82 -209,87 C 1324,528 1219,492 1020,355 814,213 668,156 510,156 c -87,0 -101,3 -168,33 -85,40 -150,104 -177,174 -23,61 -16,175 14,234 29,57 121,137 189,165 49,20 73,23 177,22 136,-1 210,-17 415,-89 117,-42 181,-61 404,-121 48,-14 123,-41 165,-60 174,-82 198,-93 251,-114 93,-37 266,-89 336,-101 137,-24 295,10 367,79 112,108 104,276 -17,347 -54,32 -126,33 -238,4 -109,-27 -164,-21 -198,22 -71,93 -170,169 -218,169 -11,0 -25,-7 -33,-16 -11,-13 -9,-23 11,-62 79,-150 262,-240 430,-213 36,6 93,11 128,11 54,0 67,-4 87,-25 52,-51 20,-141 -62,-177 -38,-17 -66,-21 -139,-19 -161,3 -325,53 -529,162 -134,71 -191,97 -247,114 -29,9 -107,34 -173,57 -66,22 -176,60 -245,83 -69,24 -172,55 -230,69 -58,15 -122,31 -142,37 -52,14 -233,2 -312,-21 C 211,879 107,793 42,661 6,586 5,583 5,465 5,348 6,343 40,275 81,191 158,111 238,71 315,32 460,1 539,7 c 170,12 385,97 519,205 86,69 130,98 197,130 61,28 81,32 150,33 80,0 82,0 225,-72 80,-39 162,-78 182,-87 75,-30 235,-58 373,-64 123,-6 150,-5 220,13 285,74 436,310 379,595 -19,95 -100,227 -191,310 -261,239 -461,272 -898,148 -131,-37 -163,-42 -250,-42 -114,0 -158,10 -235,56 -108,65 -181,192 -183,318 -2,56 3,76 36,143 55,117 130,187 280,262 64,32 117,60 117,62 0,11 -45,-2 -115,-34 z"
       id="path1"
       style="stroke-width:0.678334" />
  </g>
  <rect
     style="overflow:inherit;fill:none;stroke:#1a1a1a;stroke-width:1.41732;stroke-linecap:round;stroke-linejoin:round;opacity:0"
     id="rect1"
     width="373.58261"
     height="373.58261"
     x="0.70866001"
     y="0.70866001"
     ry="7.4427834" />
</svg>
