<?xml version="1.0" encoding="UTF-8" standalone="no"?>
<svg
   version="1.0"
   width="374.99994pt"
   height="374.99994pt"
   viewBox="0 0 374.99994 374.99994"
   preserveAspectRatio="xMidYMid"
   id="svg1"
   sodipodi:docname="triMan1_Vince Smith.svg"
   inkscape:version="1.3.2 (1:1.3.2+202311252150+091e20ef0f)"
   xmlns:inkscape="http://www.inkscape.org/namespaces/inkscape"
   xmlns:sodipodi="http://sodipodi.sourceforge.net/DTD/sodipodi-0.dtd"
   xmlns="http://www.w3.org/2000/svg"
   xmlns:svg="http://www.w3.org/2000/svg">
  <defs
     id="defs1" />
  <sodipodi:namedview
     id="namedview1"
     pagecolor="#ffffff"
     bordercolor="#cccccc"
     borderopacity="1"
     inkscape:showpageshadow="0"
     inkscape:pageopacity="1"
     inkscape:pagecheckerboard="0"
     inkscape:deskcolor="#d1d1d1"
     inkscape:document-units="pt"
     inkscape:zoom="0.74121094"
     inkscape:cx="107.93149"
     inkscape:cy="213.16469"
     inkscape:window-width="1850"
     inkscape:window-height="1136"
     inkscape:window-x="70"
     inkscape:window-y="27"
     inkscape:window-maximized="1"
     inkscape:current-layer="svg1" />
  <metadata
     id="metadata1">
Created by potrace 1.16, written by Peter Selinger 2001-2019
</metadata>
  <g
     transform="matrix(0.03616381,0.01905384,0.01905384,-0.03616381,-12.871645,158.82456)"
     fill="#000000"
     stroke="none"
     id="g1"
     style="stroke-width:2.44641">
    <path
       d="m 3892,5319 c -73,-4 -172,-13 -220,-18 -48,-6 -127,-15 -177,-21 -144,-17 -339,-56 -402,-81 -12,-4 -71,-20 -130,-35 -59,-14 -146,-39 -193,-55 -47,-17 -119,-39 -160,-50 -41,-11 -82,-27 -90,-34 -14,-12 -54,-32 -135,-64 -50,-21 -75,-33 -140,-71 -38,-22 -106,-58 -151,-80 -44,-21 -87,-46 -94,-55 -7,-8 -20,-15 -30,-15 -10,0 -23,-7 -30,-15 -7,-8 -18,-15 -25,-15 -6,0 -20,-10 -31,-21 -10,-12 -42,-34 -69,-50 -28,-16 -73,-48 -101,-71 -29,-24 -87,-72 -130,-108 -117,-95 -145,-122 -300,-275 -77,-77 -154,-159 -170,-183 -16,-23 -99,-140 -185,-260 C 843,3623 751,3491 725,3450 699,3409 668,3362 657,3346 623,3297 477,3003 425,2880 399,2817 359,2725 337,2675 294,2576 224,2391 192,2290 167,2208 157,2157 125,1945 95,1749 91,1730 55,1635 35,1581 30,1555 35,1520 39,1488 35,1457 21,1414 4,1364 1,1336 6,1259 c 4,-80 9,-100 36,-148 17,-31 45,-73 61,-94 25,-32 28,-44 23,-77 -8,-49 9,-63 18,-15 10,51 28,33 21,-20 -4,-24 -3,-45 3,-49 5,-3 12,13 15,35 3,22 8,43 10,46 14,13 27,-12 27,-53 0,-24 5,-44 10,-44 6,0 10,12 10,28 0,15 5,34 10,42 16,24 30,-6 30,-62 0,-62 18,-62 22,-1 2,36 7,49 21,51 14,3 17,-4 17,-37 0,-23 5,-41 10,-41 6,0 10,16 10,35 0,19 5,35 10,35 6,0 10,-20 10,-45 0,-25 5,-45 10,-45 6,0 10,16 10,35 0,19 5,35 10,35 6,0 10,-13 10,-29 0,-44 18,-47 22,-4 4,49 28,57 28,9 0,-19 5,-38 10,-41 6,-4 10,8 10,29 0,48 25,48 34,1 9,-49 28,-34 20,16 -10,59 20,53 47,-11 12,-27 26,-50 31,-50 6,0 7,8 3,17 -17,41 -17,53 -2,53 8,0 20,-13 27,-30 7,-16 17,-30 22,-30 8,0 5,18 -10,59 -3,8 15,0 40,-17 44,-30 70,-33 47,-5 -17,20 9,17 54,-7 46,-25 47,-25 44,3 -2,18 3,22 24,22 18,0 42,16 78,51 29,29 65,54 80,57 45,9 162,68 218,110 68,50 98,92 129,174 13,38 30,80 36,95 6,18 27,36 57,50 25,13 74,52 109,87 50,49 74,66 112,76 27,7 68,27 92,43 l 43,31 65,-14 c 60,-13 252,-82 345,-125 78,-36 178,-56 291,-59 162,-4 213,23 201,110 -6,48 -58,150 -108,214 -21,28 -73,93 -114,145 -41,52 -75,97 -75,100 0,3 13,13 29,23 21,12 52,17 114,17 h 84 l 47,-41 c 64,-56 74,-80 86,-204 5,-58 13,-111 16,-117 4,-6 11,-142 15,-302 6,-206 12,-310 24,-356 8,-36 22,-95 30,-131 15,-67 76,-202 143,-317 34,-57 131,-180 175,-220 10,-10 34,-34 55,-56 20,-21 61,-52 89,-68 29,-17 55,-33 58,-37 2,-5 51,-31 107,-58 91,-45 143,-60 251,-76 43,-7 140,17 178,44 45,32 49,38 49,79 0,20 9,62 20,93 11,32 18,62 15,66 -2,5 -7,46 -9,92 -3,48 -18,136 -36,204 -49,189 -62,238 -70,275 -4,19 -35,100 -67,180 -33,80 -70,179 -82,220 -13,41 -43,117 -68,170 -41,88 -93,266 -122,415 -58,308 -56,292 -34,298 27,8 106,1 128,-10 23,-12 65,-16 465,-48 403,-33 911,-23 1215,24 386,59 517,72 770,75 138,2 311,7 385,11 136,8 192,2 330,-30 36,-8 139,-20 230,-25 348,-21 342,-20 373,-48 46,-43 123,-163 179,-278 29,-60 65,-125 79,-144 15,-19 46,-71 70,-115 49,-91 88,-145 141,-193 21,-19 63,-70 95,-115 32,-45 81,-106 109,-137 28,-30 89,-102 136,-160 47,-58 103,-123 124,-146 43,-45 227,-208 260,-230 11,-8 43,-34 70,-59 27,-25 56,-45 65,-45 9,0 19,-6 22,-14 3,-8 30,-25 59,-39 29,-13 70,-37 90,-53 20,-16 63,-44 96,-62 32,-18 80,-51 108,-72 62,-49 137,-90 165,-90 13,0 30,-6 38,-13 9,-7 36,-19 61,-26 25,-7 61,-21 80,-31 19,-10 53,-21 75,-25 22,-4 45,-11 52,-17 7,-5 27,-14 45,-18 36,-9 91,-28 123,-42 29,-13 252,-14 300,-2 22,6 49,16 60,24 35,22 77,79 92,122 19,57 28,195 15,238 -16,54 -41,122 -57,157 -8,17 -15,34 -15,37 0,6 -78,165 -120,243 -15,28 -40,69 -57,90 -16,21 -36,50 -46,65 -30,48 -519,531 -676,667 -95,83 -161,147 -161,157 0,12 -108,117 -160,156 -17,12 -78,76 -137,142 -59,65 -140,153 -181,194 -70,72 -264,309 -327,400 -17,24 -62,89 -102,145 -39,56 -102,154 -139,217 -76,130 -109,184 -195,319 -100,157 -175,284 -187,320 -28,80 -239,365 -368,496 -374,380 -782,646 -1224,798 -257,88 -682,192 -990,243 -52,9 -117,20 -145,25 -62,11 -197,24 -435,44 -196,16 -399,17 -618,4 z"
       id="path1"
       style="stroke-width:2.44641" />
  </g>
  <rect
     style="overflow:inherit;fill:none;stroke:#1a1a1a;stroke-width:1.41732;stroke-linecap:round;stroke-linejoin:round;opacity:0"
     id="rect1"
     width="373.58261"
     height="373.58261"
     x="0.70866001"
     y="0.70866001"
     ry="7.4427834" />
</svg>
