<?xml version="1.0" encoding="UTF-8" standalone="no"?>
<!-- Created with Inkscape (http://www.inkscape.org/) -->

<svg
   version="1.1"
   width="499.99991"
   height="499.99991"
   viewBox="0 0 499.99991 499.9999"
   id="Layer_1"
   xml:space="preserve"
   sodipodi:docname="xenLae2_Sarah Werning.svg"
   inkscape:version="1.3.2 (1:1.3.2+202311252150+091e20ef0f)"
   xmlns:inkscape="http://www.inkscape.org/namespaces/inkscape"
   xmlns:sodipodi="http://sodipodi.sourceforge.net/DTD/sodipodi-0.dtd"
   xmlns="http://www.w3.org/2000/svg"
   xmlns:svg="http://www.w3.org/2000/svg"><sodipodi:namedview
   id="namedview1"
   pagecolor="#ffffff"
   bordercolor="#cccccc"
   borderopacity="1"
   inkscape:showpageshadow="0"
   inkscape:pageopacity="1"
   inkscape:pagecheckerboard="0"
   inkscape:deskcolor="#d1d1d1"
   inkscape:zoom="0.76493944"
   inkscape:cx="5.2291721"
   inkscape:cy="368.65663"
   inkscape:window-width="1850"
   inkscape:window-height="1136"
   inkscape:window-x="70"
   inkscape:window-y="27"
   inkscape:window-maximized="1"
   inkscape:current-layer="Layer_1" /><defs
   id="defs7" />
<path
   d="m 166.341,296.27158 v -2.61756 l 0.93449,-6.35717 v -5.60858 -6.35718 l -0.46767,-6.35634 v -7.29166 -7.10409 l -0.46682,-8.03941 v -3.73878 -5.60858 -6.73063 -3.9255 -4.6741 -4.2998 -5.42185 -7.47839 -4.6741 l 0.93449,-6.16961 1.12121,-6.35633 1.68223,-6.54391 1.68224,-7.47838 1.12121,-6.16961 v -3.17859 l 0.68552,-3.61429 v -4.98531 -2.74205 -3.24083 -3.36531 l -0.87224,-2.74205 -0.99757,-2.24327 -1.74532,-2.24326 -1.86981,-1.37102 -1.74448,-0.99673 -2.74205,-1.74532 -1.24654,-0.74776 -3.11634,-1.74532 -4.61102,-3.36532 -1.99513,-1.12121 -2.24326,-1.49551 -1.74533,-1.99429 -2.36775,-1.37102 -3.24083,-1.49551 -3.36531,-2.11878 -3.24083,-3.11635 -1.74533,-2.86653 -1.61999,-2.99102 -2.86653,-3.61429 -3.11635,-5.35961 -1.74532,-3.864101 -2.11878,-3.36531 -1.37102,-3.36532 -2.74205,-5.35961 -2.30551,-6.60615 -1.12121,-2.80429 -1.30878,-5.235122 v -5.235125 -5.235124 l -1.30878,-4.2998 v -6.730633 l -1.30878,-4.674098 -1.30879,-4.860826 v -3.365317 -5.235124 -3.552045 -3.925502 -2.99186 l -0.93448,-3.552045 v -2.804291 l -1.30878,-3.178588 V 8.5416267 l -1.30878,-2.617562 v -1.682238 h 0.74775 l 1.30878,2.616721 1.68224,2.99186 1.12121,3.7396153 0.56103,2.991018 0.93448,3.926343 1.12206,5.796151 0.56102,2.617562 0.56103,3.178588 1.12121,1.869808 0.93533,-0.561027 0.93448,-3.365316 1.12121,-2.243264 v -3.369523 -2.617562 l -0.74775,-2.80429 -0.74776,-1.49551 V 16.20422 l 1.12205,-0.186728 0.93449,0.561026 1.12121,2.056536 0.56102,1.121211 0.93449,-1.682238 1.68224,-2.056535 1.8698,-2.056536 1.68224,-1.308781 2.05654,-0.374298 1.12121,-0.186728 v 1.869807 l -0.93449,2.991019 -1.68223,2.617562 -1.30878,3.365317 -0.93449,2.991019 -0.74775,3.552045 -0.56103,2.243264 0.18673,1.869807 0.37346,3.365317 v 2.243264 3.926343 l 0.18673,2.617562 v 2.991019 l 1.12205,2.617562 2.43083,-2.243264 3.36532,-4.113071 2.80429,-2.243265 4.73634,-2.80429 5.35961,-2.243264 4.11307,-0.934483 4.2998,-0.373457 2.99102,-0.374298 h 1.68224 l 1.12205,0.186728 V 38.0792 l -1.49551,0.935324 -4.2998,0.747755 -3.17859,1.682238 -3.73877,1.682237 -4.11307,2.991019 -2.74205,2.99186 -2.11878,2.617562 -4.2998,4.2998 -1.68224,2.617562 -1.49551,1.682238 -0.56102,1.121211 2.24326,2.430834 2.80429,4.113072 2.05654,2.617562 3.05326,4.113075 1.24654,2.43083 2.80429,2.43083 3.17859,2.80429 2.99186,3.36532 3.55204,4.11307 2.61756,3.92635 3.55205,4.11307 2.80429,2.05653 5.60858,4.486531 4.98531,2.80429 1.74532,0.37346 1.86981,-0.93449 1.49551,-3.55204 v -2.05654 -2.056531 -2.24327 l 1.30878,-2.43083 v -2.24326 l 1.86981,-5.42186 v -2.24326 l 1.86981,-4.30064 2.24326,-5.98288 2.43083,-5.421853 3.55205,-6.730633 3.55204,-5.235124 4.11308,-4.674098 3.17774,-3.738774 4.11307,-5.79615 6.73064,-4.487369 5.42185,-2.804291 4.86083,-1.495509 4.86082,-0.374298 5.23513,1.308781 4.86082,1.869807 4.2998,2.617562 4.48737,3.552045 4.48653,5.421853 5.42185,6.169607 4.86083,5.982879 2.80429,5.982879 3.36448,7.291656 2.61756,6.54307 2.42999,6.5439 2.24326,5.79615 1.68224,5.79615 v 3.926351 l 2.24327,4.2998 0.93448,1.49551 2.24326,-3.55205 3.36532,-2.24326 5.60858,-2.430841 3.17775,-3.17859 3.55288,-5.98287 0.93449,-4.2998 2.80429,-5.42186 2.61672,-5.42185 v -2.99186 l 1.68308,-4.113071 -2.80429,-2.991018 -3.36532,-2.430834 -5.42185,-2.804291 -4.86083,-1.682237 -2.61756,-1.122053 -2.61756,-0.561026 -5.60858,-0.747755 h -4.48737 l -3.73878,0.747755 -2.61756,0.373456 h -2.42999 l -1.30878,-2.430833 0.93448,-1.308781 3.36532,-0.934483 6.16961,-1.122053 6.91736,-0.934483 h 6.35717 l 5.42186,1.308781 3.36531,1.869807 2.80513,0.747755 2.61673,0.561026 -0.18757,-2.243264 -2.80429,-3.739614 -3.36532,-4.2998 -3.17775,-2.430834 -3.92634,-2.80429 -4.2998,-2.243265 -3.17775,-1.682237 -3.73961,-1.869808 -2.99186,-2.243264 -0.37346,-1.495509 3.17775,-0.186729 4.6741,0.747755 4.67409,1.495509 5.42186,2.99186 4.11307,2.243265 5.60942,3.552886 2.24326,2.991019 2.05654,1.495509 v -1.869807 l -1.30878,-3.552045 -2.05654,-2.99186 -3.17775,-3.926343 -3.73961,-2.991019 -2.43083,-3.739615 -1.68224,-4.113072 0.18673,-2.80429 2.05653,-1.682238 1.68224,4.113072 1.68308,2.99186 2.99186,2.056535 1.86981,2.056536 2.43083,2.056536 1.49551,2.617562 v -3.552045 -2.617562 -2.805132 l 2.61672,-3.552045 1.68308,-0.373457 v 1.121212 2.617562 4.2998 4.487369 l 1.12205,9.160626 2.61672,5.047555 3.55289,5.421852 3.17775,6.730634 1.30878,6.357176 v 6.917362 11.77819 l -1.49467,5.60858 -0.18757,3.92634 -0.93448,6.356341 -0.56103,5.23512 -1.86981,4.30064 -2.2441,5.79615 -1.86897,2.61672 -3.55288,3.55289 -3.73962,2.80429 -5.23428,2.99186 -5.98288,3.17775 -4.11307,1.86981 -3.73962,1.30878 -2.61756,0.74775 v 4.11307 l 1.86981,5.23513 1.30878,5.79615 1.68224,4.86082 2.43083,5.79615 2.0557,4.11308 0.74859,4.11307 1.49467,5.79615 2.05654,5.04755 1.12205,7.85269 1.49551,5.98288 1.68223,7.10409 1.49551,5.98288 1.49551,7.85184 2.05654,5.98288 0.37346,8.60044 0.56102,6.73063 -1.30878,6.35634 -0.56102,3.73961 -1.12206,7.47839 -0.93448,5.60858 -0.74776,6.35634 c 0,0 0.37346,3.36532 0.37346,3.92634 0,0.56103 -0.93448,4.11307 -0.93448,4.11307 l 3.17775,7.66512 5.23512,7.66512 7.10409,9.34819 5.23597,6.54391 4.11307,5.60858 3.55288,8.03941 4.2998,7.85185 1.49551,5.04755 1.30878,2.61756 1.49551,7.1041 v 4.48652 l 0.93449,10.65698 v 7.29166 l -0.93449,8.03941 -0.56102,8.41288 -1.49551,7.66511 -1.12206,8.22615 -1.12121,3.17858 -1.68308,5.79531 -1.8698,3.36532 -0.74776,2.2441 2.24327,2.61673 3.36531,1.12205 5.0484,-2.24411 4.11307,-3.36531 8.22614,-6.35634 7.29166,-4.11391 5.98204,-3.36448 8.78717,-4.48737 10.28268,-5.42185 10.84454,-1.68224 7.85185,-1.12121 7.47923,0.37346 7.29166,2.05653 2.99102,2.05654 -2.24327,0.56103 -2.43083,0.18672 -1.49551,2.24327 -0.56103,2.61756 v 3.73877 l 2.24411,1.30879 6.16961,2.05653 5.23512,1.68224 3.73877,3.36532 2.80429,2.05653 2.24411,2.05654 0.56103,1.05055 0.93448,1.75374 -4.86083,-2.61756 -1.49551,-0.37346 -0.93448,3.73877 -1.49551,2.24411 -0.56103,2.24326 0.7486,4.6741 1.30878,3.17859 3.55205,2.24326 2.61756,1.30878 2.43083,1.68308 0.93449,2.24327 h -1.49551 l -2.05654,-1.49551 -3.17775,-0.56103 -8.60044,0.56103 -8.41371,1.49551 h -7.29082 l -8.60128,1.8698 h -6.91736 l -7.66512,2.24411 -5.79615,2.43083 -8.03941,4.6741 -11.40474,3.73877 -9.90922,3.17775 H 341.3257 l -8.22614,1.12205 -11.40474,-1.49551 -11.59146,-3.36531 -8.41371,-4.48653 -7.47839,-5.60942 -5.98288,-6.91737 -4.2998,-6.73063 -4.67409,-9.53492 -2.05654,-6.17045 -2.24326,-7.66512 0.93448,-6.91736 1.49551,-9.53492 1.12121,-6.35634 2.99186,-7.85269 1.49551,-5.7953 1.12205,-2.61757 -5.79615,-1.12121 -7.10409,-1.30878 -7.10493,-1.86981 -6.16961,-1.68223 -5.60858,-1.86981 -4.67409,-2.43084 -3.55289,-2.05653 -2.05654,-2.05654 -1.30878,-1.8698 -1.30878,3.73961 -4.48653,3.73877 -7.66595,5.79615 -6.35634,4.11308 -5.60858,2.80429 -5.23513,3.17858 -4.2998,1.86981 -1.30878,1.12121 3.36448,5.60858 4.48737,7.66512 3.55204,7.10409 2.05654,4.11391 2.43083,5.42186 2.24327,5.98288 0.93448,7.29166 -0.18673,6.91736 -1.86981,5.04839 -0.93448,3.92635 -2.43083,7.10409 -4.2998,9.34735 -2.99186,5.42185 -5.04756,5.42186 -7.10409,8.03941 -9.90922,8.78717 -8.9739,5.79615 -5.60858,2.24326 -4.11307,1.68308 -4.48653,1.49467 -3.55288,0.7486 -7.47839,1.8698 h -4.11307 -5.79615 l -4.48653,-1.8698 -2.05654,-1.30962 -2.61756,-1.12122 h -3.92634 l -5.04756,1.30878 -5.60858,1.86981 -6.1696,1.12205 -4.66401,1.49804 -3.17859,1.12121 -5.23512,1.49551 -3.55205,1.68308 -8.41287,3.17774 -0.18673,-2.99101 0.18673,-2.24411 -2.430833,-2.43083 -2.80429,-2.05654 -3.926343,-1.68224 -6.543905,-3.36531 -5.796151,-1.30878 -4.486528,-1.68308 -1.869807,-0.74776 -2.804291,1.12205 -2.056536,1.68224 0.186729,-2.24326 1.308781,-2.43084 1.495509,-2.61756 -0.374298,-3.92634 v -3.55205 l 0.186729,-3.73877 0.747754,-3.36532 1.122053,-3.55288 h -1.308781 l -3.365317,0.18757 v -0.56103 l 1.308781,-3.17859 4.113072,-5.98204 3.926343,-3.17858 9.534924,-3.92551 8.412871,-1.49551 9.161464,-0.18756 7.10493,-0.56103 8.03942,0.93448 7.10493,0.93449 6.54307,0.56102 9.90922,1.30878 6.1696,0.93449 5.79616,2.61756 7.85184,2.43083 4.30064,0.37346 4.48653,0.56102 4.2998,-2.24326 4.6741,-2.2441 2.24326,-1.49551 -2.61756,-2.80429 -3.36532,-3.17775 -3.55204,-3.73878 -3.36532,-5.23512 -3.55204,-4.86083 -3.17859,-5.60942 -3.17859,-5.98204 -2.24327,-5.23512 -3.9255,-12.33921 -1.49551,-4.48653 -2.80429,-7.10493 -1.49551,-8.9739 v -6.35718 l 1.30878,-9.34819 0.74776,-5.79615 2.43083,-7.66512 1.68224,-6.91736 3.73961,-6.73064 4.11308,-6.35633 3.36531,-5.79615 3.73878,-5.04756 4.48653,-6.1696 1.8698,-2.99102 z"
   id="path3"
   style="stroke-width:0.999998" />
<rect
   style="overflow:inherit;fill:none;stroke:#1a1a1a;stroke-width:1.88976;stroke-linecap:round;stroke-linejoin:round;opacity:0"
   id="rect1"
   width="498.11014"
   height="498.11014"
   x="0.94488001"
   y="0.94488001"
   ry="9.9237108" /></svg>
