<?xml version="1.0" encoding="UTF-8" standalone="no"?>
<svg
   width="499.99991"
   height="499.99991"
   viewBox="0 0 499.99991 499.9999"
   version="1.1"
   id="svg4"
   sodipodi:docname="xenTro10_Andy Wilson_NOTOK.svg"
   inkscape:version="1.3.2 (1:1.3.2+202311252150+091e20ef0f)"
   xmlns:inkscape="http://www.inkscape.org/namespaces/inkscape"
   xmlns:sodipodi="http://sodipodi.sourceforge.net/DTD/sodipodi-0.dtd"
   xmlns="http://www.w3.org/2000/svg"
   xmlns:svg="http://www.w3.org/2000/svg">
  <sodipodi:namedview
     id="namedview1"
     pagecolor="#ffffff"
     bordercolor="#cccccc"
     borderopacity="1"
     inkscape:showpageshadow="0"
     inkscape:pageopacity="1"
     inkscape:pagecheckerboard="0"
     inkscape:deskcolor="#d1d1d1"
     inkscape:zoom="0.58341308"
     inkscape:cx="413.08638"
     inkscape:cy="214.25642"
     inkscape:window-width="1850"
     inkscape:window-height="1136"
     inkscape:window-x="70"
     inkscape:window-y="27"
     inkscape:window-maximized="1"
     inkscape:current-layer="svg4" />
  <defs
     id="defs8" />
  <path
     d="m 122.28284,18.960066 c -2.5528,0.6614 -6.16238,2.04526 -8.76627,3.3608 -1.64685,0.83219 -5.45926,4.44057 -6.18203,5.85133 -0.97638,1.90591 -1.96062,5.81808 -2.16405,8.60031 -0.25695,3.51981 -1.3494,5.98766 -2.88834,6.52422 -1.10062,0.3836 -2.368399,1.45671 -2.368399,2.00445 0,0.19799 -0.28475,0.72216 -0.63298,1.165 -0.53293,0.67742 -0.79108,0.77506 -1.63174,0.61757 -1.59637,-0.29956 -4.19148,0.39116 -5.6491,1.50357 -0.71823,0.54804 -1.918,1.30799 -2.66615,1.68886 -5.11678,2.60389 -10.72417,8.10819 -12.70474,12.47138 -0.82493,1.81763 -0.81194,6.37246 0.0278,9.69699 0.90776,3.59417 2.52287,6.1243 6.30355,9.87475 5.09985,5.05934 8.28019,7.34492 14.9885,10.77283 1.82882,0.93436 3.937259,2.1163 4.685409,2.62595 2.20457,1.50235 6.93019,5.320824 9.37084,7.571634 1.24692,1.14989 3.21933,2.76319 4.38313,3.5851 5.48859,3.8765 15.15929,8.92799 21.31109,11.13225 1.7457,0.62543 3.78612,1.40049 4.53427,1.72212 0.74816,0.32193 2.8566,1.09215 4.68542,1.71184 2.69064,0.91169 3.56727,1.3624 4.59383,2.36114 1.178,1.14536 2.8058,4.26948 2.42402,4.65126 -0.0907,0.0907 -2.6592,-0.31679 -5.70744,-0.90564 -3.04825,-0.58885 -7.37878,-1.28713 -9.62325,-1.55163 -2.24446,-0.2648 -5.7812,-0.88056 -7.8594,-1.36875 -6.82348,-1.60332 -16.10484,-3.02285 -21.61338,-3.30609 -2.82636,-0.1454 -5.35588,-0.34914 -5.62159,-0.45252 -0.26541,-0.10368 -4.278239,-0.21734 -8.917409,-0.25241 -8.32553,-0.0635 -8.48756,-0.0768 -12.5155,-1.02988 -16.83214,-3.98321 -27.08262,-5.66603 -39.14591,-6.42718 -2.99262,-0.18863 -8.36573,-0.53444 -11.94025,-0.76841 -8.9032,-0.58251 -18.40674,-0.83824 -19.47683,-0.52416 -1.32521,0.38904 -2.0948297,1.56281 -1.7021597,2.59602 0.6000297,1.57823 5.7830097,3.15616 13.5934497,4.13888 2.75895,0.34703 7.05654,0.95492 9.55039,1.35092 2.49385,0.39599 6.71375,1.006 9.37749,1.35574 6.45831,0.84761 12.02852,2.10784 23.26929,5.26369 14.16416,3.97686 16.46667,4.67454 18.43938,5.58744 l 1.81371,0.83944 -2.72057,-0.11759 c -1.49631,-0.0647 -4.21687,-0.24606 -6.04569,-0.40294 -7.03327,-0.60397 -17.52558,-1.03654 -24.48509,-1.00963 -13.6923,0.0529 -21.4583,1.48452 -33.68966,6.20953 -5.62099,2.17162 -8.9890397,3.91036 -10.4270097,5.38309 -0.94585,0.96852 -1.03986,1.20884 -0.87331,2.2351 0.12031,0.7409 0.44255,1.31736 0.90626,1.62115 0.67167,0.44013 0.93406,0.39993 3.9620397,-0.60729 5.36375,-1.78439 13.01942,-3.77675 16.39231,-4.26645 10.17733,-1.47757 24.68973,-1.30405 37.48334,0.44829 3.02345,0.41413 8.55406,1.53833 8.85876,1.80102 0.13391,0.11517 -0.51721,0.29895 -1.44704,0.40838 -3.42368,0.40234 -12.67208,2.7644 -16.9337,4.32479 -1.16379,0.42622 -3.47627,1.36059 -5.13884,2.0767 -1.66257,0.71642 -4.38313,1.87024 -6.0457,2.56459 -9.09999,3.80063 -19.1951,10.46933 -19.1951,12.68025 0,2.12597 2.18643,1.90288 10.11385,-1.0317 2.83332,-1.04893 5.61706,-2.00869 6.18627,-2.13262 0.5692,-0.12394 3.15374,-0.89356 5.74341,-1.71033 8.40443,-2.65104 11.38073,-3.26438 21.73852,-4.47926 2.88229,-0.33826 6.28299,-0.61182 7.55713,-0.6079 l 2.3164,0.007 -1.54286,0.97577 c -2.1042,1.33036 -8.75629,7.33615 -13.80384,12.4623 -3.15283,3.20211 -4.79152,5.16877 -6.734,8.08159 -3.08603,4.62798 -3.22387,4.94508 -2.69457,6.2038 0.90413,2.15015 2.77286,1.46819 7.24275,-2.64349 2.84934,-2.62081 10.30066,-7.24063 15.71882,-9.74536 3.54036,-1.63657 4.63251,-1.96395 15.31556,-4.5899 4.43362,-1.08973 10.363539,-2.71996 13.177509,-3.62258 5.60376,-1.79739 9.62717,-2.74928 12.98284,-3.07212 2.13595,-0.20525 2.21061,-0.18863 3.77856,0.84882 1.8657,1.23453 7.38754,4.01222 10.21482,5.13884 1.08066,0.43076 3.6652,1.28985 5.74341,1.90953 9.81852,2.92673 21.93954,6.68171 23.31615,7.2228 0.60426,0.2376 4.00497,1.34245 7.55712,2.45516 16.14776,5.05904 17.54794,5.3586 24.90979,5.32717 4.71172,-0.0199 8.81403,-0.49726 14.44922,-1.68161 l 2.06672,-0.43409 1.98571,2.16013 c 7.99272,8.69493 17.68609,17.28224 25.62047,22.69707 2.16134,1.47485 5.15396,3.58721 6.65027,4.69388 6.02303,4.45477 11.53277,7.98697 18.32935,11.75042 12.98344,7.18924 30.32795,15.56072 34.11951,16.46788 0.41685,0.0997 1.72997,0.80317 2.91795,1.56312 1.63053,1.04318 2.70606,1.48633 4.38979,1.80857 3.10295,0.59368 3.60293,0.82675 5.54572,2.58605 1.99267,1.80464 3.17732,2.35963 7.08254,3.31878 2.98386,0.73244 3.02527,0.75964 5.22983,3.42126 1.68554,2.03499 3.72294,2.91947 7.21464,3.13228 3.26437,0.1989 3.76979,0.49786 5.01672,2.96693 0.41987,0.83128 1.28652,2.39651 1.92555,3.47809 2.41133,4.08024 3.60899,7.25091 7.36518,19.49556 1.90318,6.2035 3.65946,11.05245 5.36525,14.81197 0.82978,1.82882 2.31823,5.16151 3.30761,7.40598 4.27128,9.68914 12.03094,23.41468 16.01898,28.33528 3.97565,4.90518 8.92648,9.62143 13.09076,12.47107 2.1698,1.48482 6.734,4.89913 10.14226,7.58674 3.40826,2.68792 6.945,5.36526 7.85941,5.94988 0.91441,0.58462 3.12563,2.0105 4.91364,3.16885 l 3.25108,2.10602 -0.93195,1.06163 c -1.20491,1.37237 -4.97289,9.21576 -5.26883,10.9678 -0.40113,2.37384 -2.23388,7.65537 -3.16945,9.13384 -1.21489,1.91951 -2.95182,3.14951 -8.17046,5.78574 -3.46842,1.75204 -6.2564,2.83331 -13.29843,5.15698 -9.5516,3.15192 -14.09796,5.17572 -15.68375,6.98187 -1.39202,1.58549 -2.46392,3.59871 -2.57486,4.83596 -0.11064,1.2303 -0.67561,1.78711 -3.35174,3.30307 -1.51142,0.85607 -11.89128,7.51661 -13.60282,8.72848 -1.55102,1.0985 -6.42597,4.50041 -9.16861,6.39876 -2.04163,1.41319 -2.64106,1.99146 -2.71361,2.61779 -0.0511,0.44255 -0.74997,1.55495 -1.55284,2.47239 -0.80286,0.91743 -2.39319,2.8572 -3.53431,4.31028 -1.14113,1.45339 -2.95877,3.68123 -4.03944,4.95113 -1.08066,1.26959 -2.50291,3.01499 -3.16038,3.87831 -0.65778,0.86333 -1.37842,1.56977 -1.60151,1.56977 -0.58674,0 -1.79497,1.39897 -2.03317,2.3548 -0.11245,0.4504 -0.53414,1.25206 -0.93678,1.78136 -0.89053,1.17045 -0.92862,2.01534 -0.12756,2.81639 0.68618,0.68619 1.11724,0.73939 2.31127,0.28536 1.67103,-0.6351 5.01883,-0.38209 7.95463,0.60155 6.12247,2.051 10.27889,4.55483 20.91146,12.59651 5.25462,3.97445 6.75275,5.57081 7.04294,7.50574 0.3041,2.02863 0.71339,2.79281 1.71879,3.20906 1.0707,0.44375 1.81281,0.0236 3.41613,-1.93312 0.84791,-1.03442 1.42376,-1.42225 2.52528,-1.70065 3.63347,-0.91744 18.84143,-1.21035 23.60755,-0.45464 10.67882,1.6934 16.98177,3.15404 21.95315,5.08776 0.69948,0.27175 2.17947,0.4758 3.51073,0.48335 l 2.3016,0.0133 0.79682,1.1499 c 0.43832,0.63238 0.79683,1.35937 0.79683,1.61571 0,1.04137 1.68705,1.8258 2.6332,1.22456 0.67984,-0.43197 1.29318,-2.44065 1.6538,-5.41453 0.21674,-1.78983 0.56558,-3.26196 0.88237,-3.72597 1.48029,-2.16768 3.08482,-6.95981 5.25916,-15.70733 0.76447,-3.07575 1.78348,-6.81652 2.26441,-8.31283 0.48094,-1.49632 1.83548,-6.46135 3.01016,-11.03341 3.09328,-12.04061 3.40463,-13.10979 6.82106,-23.42708 1.7064,-5.15396 4.29184,-13.0436 5.74522,-17.53253 1.45339,-4.48893 3.52253,-10.6102 4.59776,-13.60282 1.07523,-2.99262 3.29373,-9.38595 4.92993,-14.20739 3.8433,-11.32541 4.3372,-13.94653 4.1302,-21.91566 -0.089,-3.42429 -0.3374,-6.52966 -0.6406,-8.01056 -0.8672,-4.23471 -2.3512,-9.6048 -3.258,-11.78911 -0.4831,-1.1638 -1.1523,-2.82787 -1.4872,-3.69815 -0.6212,-1.6133 -2.17953,-4.26131 -9.74119,-16.55493 -4.12982,-6.71436 -4.39915,-7.07166 -7.85639,-10.42884 -1.96908,-1.91195 -3.93454,-3.66429 -4.36741,-3.89433 -0.88328,-0.46854 -4.91848,-1.15564 -8.91317,-1.51747 -1.45732,-0.1318 -2.6985,-0.29443 -2.75866,-0.36123 -0.0602,-0.0668 -0.2518,-4.13436 -0.42622,-9.03893 -0.23034,-6.47404 -0.529,-10.42823 -1.09064,-14.43139 -0.90142,-6.42476 -1.5743,-17.15588 -1.4549,-23.20309 0.0883,-4.47653 0.69133,-9.0093 2.25142,-16.92795 1.07613,-5.46108 1.20309,-8.27657 0.43892,-9.73358 -0.73214,-1.39656 -0.2107,-3.62016 1.44069,-6.14304 2.26895,-3.4666 2.37989,-3.78491 2.20547,-6.32621 -0.0998,-1.4543 -0.44285,-2.98628 -0.94555,-4.22232 -0.43378,-1.06707 -0.75027,-1.97846 -0.70342,-2.02531 0.0469,-0.0469 1.91679,1.42013 4.15582,3.26014 4.91999,4.04306 6.28783,4.93964 9.81428,6.43232 1.49631,0.63359 4.08085,1.87236 5.74342,2.75291 1.66256,0.88056 4.85923,2.24054 7.10369,3.02195 11.67424,4.06543 15.33854,5.26731 16.06974,5.27094 0.4426,0.003 1.5825,0.30168 2.5332,0.66563 1.6523,0.63208 1.8887,0.64568 5.3305,0.30138 5.9045,-0.59036 6.9271,-1.44764 9.7568,-8.18074 1.4833,-3.52918 2.1892,-12.88852 1.2569,-16.66285 -0.2258,-0.91441 -0.9588,-2.81881 -1.6293,-4.23199 -1.3077,-2.75745 -1.5846,-4.0872 -2.3385,-11.23019 -0.928,-8.79438 -0.188,-20.52001 1.7998,-28.52028 1.097,-4.41457 4.8384,-16.14928 9.3485,-29.32165 3.3248,-9.7103 4.1604,-13.55173 4.3396,-19.9508 0.1119,-4.004674 0.2385,-5.055424 0.7352,-6.107974 0.5417,-1.14808 0.5795,-1.64776 0.389,-5.1458 -0.1399,-2.57789 -0.089,-4.59745 0.1539,-6.03542 0.4123,-2.44398 0.1711,-3.29098 -1.023,-3.59054 -0.9301,-0.23337 -1.8167,0.2379 -3.4956,1.85845 -0.9035,0.87209 -2.9612,2.12506 -6.1297,3.73261 -2.6229,1.33066 -5.4115,2.95181 -6.1969,3.60203 -1.5111,1.25176 -13.9525,7.753 -17.1132,8.9428 -1.0275,0.38662 -2.5434,1.044694 -3.3687,1.462454 -0.8255,0.41776 -2.6571,1.17468 -4.0702,1.68222 -1.4132,0.50723 -4.47387,1.62145 -6.80146,2.47571 -3.4521,1.26688 -4.71112,1.58367 -6.83164,1.7203 -4.04095,0.25997 -5.20172,-0.24424 -8.57734,-3.72596 -3.08361,-3.180644 -3.95358,-3.602634 -5.08776,-2.46846 -0.70372,0.70372 -0.73455,0.92681 -0.95099,6.89633 -0.16202,4.47563 -0.36697,6.6279 -0.74573,7.84097 -0.53505,1.71426 -3.74108,6.53298 -4.75676,7.14995 -0.30682,0.1862 -1.53863,1.16319 -2.73749,2.17101 -1.19886,1.00812 -3.42459,2.47571 -4.94629,3.26135 -1.5214,0.78594 -3.15586,1.75658 -3.63195,2.1571 l -0.86575,0.72851 -0.98938,-0.7409 c -2.0776,-1.55556 -2.37717,-1.65471 -12.92993,-4.29365 -3.0292,-0.75723 -6.27635,-2.36992 -7.35067,-3.6501 -1.9449,-2.31822 -3.49683,-4.87646 -3.3345,-5.49675 0.36727,-1.40502 -1.43676,-3.32815 -11.84655,-12.62583 -7.02964,-6.279074 -10.08665,-8.832174 -14.34705,-11.983494 -5.0146,-3.70873 -16.04408,-11.11864 -19.04395,-12.7939 -8.68858,-4.85198 -30.1079,-15.73847 -35.51849,-18.05246 -10.30369,-4.40641 -15.27084,-6.38366 -17.38139,-6.919 -1.24692,-0.3165 -3.89948,-0.97638 -5.89456,-1.46699 -14.7914,-3.63649 -23.82005,-6.21347 -32.34449,-9.23118 -2.6601,-0.94162 -6.06081,-2.11751 -7.55712,-2.61265 -1.49631,-0.49514 -4.01283,-1.38386 -5.59227,-1.97483 -2.49144,-0.93194 -3.70481,-1.16742 -9.16226,-1.77894 -3.45995,-0.38753 -6.52059,-0.77627 -6.80141,-0.86333 -0.28113,-0.0874 -3.29944,-0.5686 -6.7077,-1.06949 -3.40827,-0.50088 -7.4211,-1.20369 -8.91741,-1.5616 -2.45728,-0.58764 -3.78884,-0.66382 -13.75397,-0.78594 -11.23895,-0.13784 -14.76934,0.0571 -18.59052,1.02686 -2.24507,0.56981 -10.07062,1.58851 -13.23222,1.72212 l -2.34966,0.0997 -0.91865,-1.72363 c -2.23781,-4.19873 -5.80266,-7.77023 -11.8538,-11.87556 -2.2756,-1.54377 -6.18052,-2.90345 -8.96245,-3.12049 -0.92287,-0.0719 -2.35812,-0.18198 -3.18941,-0.24425 -0.92801,-0.0698 -2.50292,0.14329 -4.08084,0.55198"
     stroke="none"
     fill="#000000"
     fill-rule="evenodd"
     id="path2"
     style="stroke-width:1" />
  <rect
     style="overflow:inherit;fill:none;stroke:#1a1a1a;stroke-width:1.88976;stroke-linecap:round;stroke-linejoin:round;opacity:0"
     id="rect1"
     width="498.11014"
     height="498.11014"
     x="0.94488001"
     y="0.94488001"
     ry="9.9237108" />
</svg>
